<?xml version="1.0" encoding="utf-8"?>
<!-- Generator: Adobe Illustrator 19.1.0, SVG Export Plug-In . SVG Version: 6.00 Build 0)  -->
<svg version="1.1" id="Layer_1" xmlns="http://www.w3.org/2000/svg" xmlns:xlink="http://www.w3.org/1999/xlink" x="0px" y="0px"
	 viewBox="40 -39.9 367.9 367.9" style="enable-background:new 40 -39.9 367.9 367.9;" xml:space="preserve">
<style type="text/css">
	.st0{fill:#FFFFFF;}
	.st1{fill:#F9B163;}
</style>
<path class="st0" d="M76-39.9h295.9c19.9,0,36,16.1,36,36V292c0,19.9-16.1,36-36,36H76c-19.9,0-36-16.1-36-36V-3.9
	C40-23.8,56.1-39.9,76-39.9z"/>
<path id="NpkUt8.tif" class="st1" d="M330,67.4c0,14.2,0.1,14.2-14.1,14.2c-16.4,0-32.6-0.1-49,0c-4.2,0-5.8-1.4-5.4-5.5
	c0.3-2.8,0.3-5.5,0-8.1c-0.3-4.5,1.3-6.1,5.7-5.9c9.6,0.3,19,0.1,28.5,0.1c9.7,0,19.3,0.1,29-0.1C328.8,62,330,63.4,330,67.4z
	 M350.3,127.5c-6.4-16.4-18.6-26.5-35.7-30.4c-8.7-2-17.5-2.3-26.5-1.3c-13.3,1.4-25.6,5.7-34.9,15.5
	c-19.7,20.9-23.9,45.8-15.9,72.7c5.5,18.4,18.1,30.4,36.7,35.6c16.7,4.6,33.5,4.8,50-0.4c17.2-5.4,28.3-16.5,30.4-35.1
	c0.4-3.5-0.4-5.2-4.2-5.1c-6.5,0.1-13,0.1-19.6,0c-2.8,0-4.3,1-5.2,3.8c-1.9,6.5-6.7,10.3-12.7,12.5c-6.2,2.2-12.7,2.3-19.3,1.7
	c-13.6-1.3-23.2-10.7-24.8-24.2c-0.7-5.4,0-6.2,5.4-6.2h38.5c12.9,0,25.6-0.1,38.5,0c4.2,0.1,5.5-1.4,5.7-5.5
	C357.1,149.4,354.3,138.1,350.3,127.5z M320.3,145.4h-23.9c-8,0-15.9-0.1-23.9,0c-3.6,0-4.5-1.2-3.5-4.6
	c4.6-17.4,22.5-26.8,39.4-20.9c8.5,3.2,15.5,12.6,15.8,21.9C324.3,144.7,322.7,145.4,320.3,145.4z M225.2,160.7
	c-2.5-19.1-10-28-28.5-32.2c0.4-0.6,0.6-0.9,0.9-1c0.7-0.4,1.6-0.7,2.5-1c10.4-3.6,16.7-10.9,19-21.7c0.9-4.2,0.7-8.4,0.4-12.6
	c-0.9-16.5-8.4-28.7-23.8-35.6c-7-3-14.5-4.5-22-4.5H92.1c-6.1,0-6.2,0.1-6.2,6.1v155c0,5.9,0.1,6.1,6.1,6.1h78.4
	c4.3,0,8.7-0.1,13-0.9c19.3-3.5,34.3-12.3,40.1-32.5C225.8,177.6,226.1,169.4,225.2,160.7L225.2,160.7z M123.1,85.2
	c0-3.5,1.4-4.5,4.6-4.5h21.7c3.9,0,7.7,0.1,11.5,0.1c1.9,0,3.8,0,5.8-0.1c13.8-0.9,18,6.1,18.5,18.4c0.1,3.2-0.4,6.7-1.3,9.9
	c-1.7,6.8-4.9,9.9-11.9,10.4c-14.9,1.2-29.8,0.3-44.9,0.4c-2.8,0-4.1-1.3-4.1-4.2C123.2,105.5,123.2,95.3,123.1,85.2z M190.7,173
	c-1.6,11.2-8,17.1-20.1,17.5c-14.3,0.4-28.7,0.1-43,0.1c-3.5,0-4.3-1.6-4.3-4.8c0.1-12.5,0.1-24.8,0-37.2c0-3.3,1.3-4.6,4.5-4.6H150
	l13.3-0.1c2.2,0,4.4,0,6.7,0.1c11.4,0.1,18,5.5,20.4,16.7C191.2,164.9,191.2,168.9,190.7,173L190.7,173z"/>
</svg>
