<svg xmlns="http://www.w3.org/2000/svg" viewBox="25 -48 367.9 367.9" enable-background="new 25 -48 367.9 367.9"><style type="text/css">.st0{fill:#9D9D9E;} .st1{fill:#484849;}</style><path class="st0" d="M25-48h367.9v367.9h-367.9z"/><path id="NpkUt8.tif" class="st1" d="M315 59.3c0 14.2.1 14.2-14.1 14.2-16.4 0-32.6-.1-49 0-4.2 0-5.8-1.4-5.4-5.5.3-2.8.3-5.5 0-8.1-.3-4.5 1.3-6.1 5.7-5.9 9.6.3 19 .1 28.5.1 9.7 0 19.3.1 29-.1 4.1-.1 5.3 1.3 5.3 5.3zm20.3 60.1c-6.4-16.4-18.6-26.5-35.7-30.4-8.7-2-17.5-2.3-26.5-1.3-13.3 1.4-25.6 5.7-34.9 15.5-19.7 20.9-23.9 45.8-15.9 72.7 5.5 18.4 18.1 30.4 36.7 35.6 16.7 4.6 33.5 4.8 50-.4 17.2-5.4 28.3-16.5 30.4-35.1.4-3.5-.4-5.2-4.2-5.1-6.5.1-13 .1-19.6 0-2.8 0-4.3 1-5.2 3.8-1.9 6.5-6.7 10.3-12.7 12.5-6.2 2.2-12.7 2.3-19.3 1.7-13.6-1.3-23.2-10.7-24.8-24.2-.7-5.4 0-6.2 5.4-6.2h38.5c12.9 0 25.6-.1 38.5 0 4.2.1 5.5-1.4 5.7-5.5.4-11.7-2.4-23-6.4-33.6zm-30 17.9h-23.9c-8 0-15.9-.1-23.9 0-3.6 0-4.5-1.2-3.5-4.6 4.6-17.4 22.5-26.8 39.4-20.9 8.5 3.2 15.5 12.6 15.8 21.9.1 2.9-1.5 3.6-3.9 3.6zm-95.1 15.3c-2.5-19.1-10-28-28.5-32.2.4-.6.6-.9.9-1 .7-.4 1.6-.7 2.5-1 10.4-3.6 16.7-10.9 19-21.7.9-4.2.7-8.4.4-12.6-.9-16.5-8.4-28.7-23.8-35.6-7-3-14.5-4.5-22-4.5h-81.6c-6.1 0-6.2.1-6.2 6.1v155c0 5.9.1 6.1 6.1 6.1h78.4c4.3 0 8.7-.1 13-.9 19.3-3.5 34.3-12.3 40.1-32.5 2.3-8.3 2.6-16.5 1.7-25.2zm-102.1-75.5c0-3.5 1.4-4.5 4.6-4.5h21.7c3.9 0 7.7.1 11.5.1 1.9 0 3.8 0 5.8-.1 13.8-.9 18 6.1 18.5 18.4.1 3.2-.4 6.7-1.3 9.9-1.7 6.8-4.9 9.9-11.9 10.4-14.9 1.2-29.8.3-44.9.4-2.8 0-4.1-1.3-4.1-4.2.2-10.1.2-20.3.1-30.4zm67.6 87.8c-1.6 11.2-8 17.1-20.1 17.5-14.3.4-28.7.1-43 .1-3.5 0-4.3-1.6-4.3-4.8.1-12.5.1-24.8 0-37.2 0-3.3 1.3-4.6 4.5-4.6h22.2l13.3-.1c2.2 0 4.4 0 6.7.1 11.4.1 18 5.5 20.4 16.7.8 4.2.8 8.2.3 12.3z"/></svg>