<svg xmlns="http://www.w3.org/2000/svg" viewBox="-121 213.1 367.9 367.9" enable-background="new -121 213.1 367.9 367.9"><style type="text/css">.st0{fill:#282828;} .st1{fill:#F9B163;} .st2{opacity:0.29;fill:#434444;enable-background:new ;}</style><circle class="st0" cx="63.9" cy="396.1" r="183"/><path id="NpkUt8.tif" class="st1" d="M146.5 333.4c0 11.4.1 11.4-11.3 11.4-13.1 0-26.1-.1-39.3 0-3.4 0-4.6-1.1-4.3-4.4.2-2.2.2-4.4 0-6.5-.2-3.6 1-4.9 4.6-4.7 7.7.2 15.2.1 22.8.1 7.8 0 15.5.1 23.2-.1 3.3-.2 4.3 1 4.3 4.2zm16.3 48.1c-5.1-13.1-14.9-21.2-28.6-24.4-7-1.6-14-1.8-21.2-1-10.7 1.1-20.5 4.6-28 12.4-15.8 16.7-19.1 36.7-12.7 58.2 4.4 14.7 14.5 24.4 29.4 28.5 13.4 3.7 26.8 3.8 40.1-.3 13.8-4.3 22.7-13.2 24.4-28.1.3-2.8-.3-4.2-3.4-4.1-5.2.1-10.4.1-15.7 0-2.2 0-3.4.8-4.2 3-1.5 5.2-5.4 8.3-10.2 10-5 1.8-10.2 1.8-15.5 1.4-10.9-1-18.6-8.6-19.9-19.4-.6-4.3 0-5 4.3-5h30.8c10.3 0 20.5-.1 30.8 0 3.4.1 4.4-1.1 4.6-4.4.4-9.2-1.8-18.3-5-26.8zm-24.1 14.3h-19.1c-6.4 0-12.7-.1-19.1 0-2.9 0-3.6-1-2.8-3.7 3.7-13.9 18-21.5 31.6-16.7 6.8 2.6 12.4 10.1 12.7 17.5-.1 2.4-1.4 2.9-3.3 2.9zm-76.2 12.3c-2-15.3-8-22.4-22.8-25.8.3-.5.5-.7.7-.8.6-.3 1.3-.6 2-.8 8.3-2.9 13.4-8.7 15.2-17.4.7-3.4.6-6.7.3-10.1-.7-13.2-6.7-23-19.1-28.5-5.6-2.4-11.6-3.6-17.6-3.6h-65.4c-4.9 0-5 .1-5 4.9v124.2c0 4.7.1 4.9 4.9 4.9h62.8c3.4 0 7-.1 10.4-.7 15.5-2.8 27.5-9.9 32.1-26 2-6.8 2.2-13.3 1.5-20.3zm-81.8-60.5c0-2.8 1.1-3.6 3.7-3.6h17.4c3.1 0 6.2.1 9.2.1 1.5 0 3 0 4.6-.1 11.1-.7 14.4 4.9 14.8 14.7.1 2.6-.3 5.4-1 7.9-1.4 5.4-3.9 7.9-9.5 8.3-11.9 1-23.9.2-36 .3-2.2 0-3.3-1-3.3-3.4.2-7.9.2-16.1.1-24.2zm54.2 70.4c-1.3 9-6.4 13.7-16.1 14-11.5.3-23 .1-34.4.1-2.8 0-3.4-1.3-3.4-3.8.1-10 .1-19.9 0-29.8 0-2.6 1-3.7 3.6-3.7h17.7l10.7-.1c1.8 0 3.5 0 5.4.1 9.1.1 14.4 4.4 16.3 13.4.6 3.3.6 6.5.2 9.8z"/><path class="st2" d="M64 579.1c-101.2 0-183.2-81.8-183.2-182.9s81.8-183.2 182.9-183.2l.3 366.1z"/></svg>