<?xml version="1.0" encoding="utf-8"?>
<!-- Generator: Adobe Illustrator 19.2.0, SVG Export Plug-In . SVG Version: 6.00 Build 0)  -->
<svg version="1.1" id="Layer_1" xmlns="http://www.w3.org/2000/svg" xmlns:xlink="http://www.w3.org/1999/xlink" x="0px" y="0px"
	 viewBox="0 0 367.9 367.9" style="enable-background:new 0 0 367.9 367.9;" xml:space="preserve">
<style type="text/css">
	.st0{fill:#FFFFFF;}
	.st1{fill:#232323;}
</style>
<circle class="st0" cx="184.9" cy="184.9" r="183"/>
<path id="NpkUt8.tif" class="st1" d="M267.5,122.2c0,11.4,0.1,11.4-11.3,11.4c-13.1,0-26.1-0.1-39.3,0c-3.4,0-4.6-1.1-4.3-4.4
	c0.2-2.2,0.2-4.4,0-6.5c-0.2-3.6,1-4.9,4.6-4.7c7.7,0.2,15.2,0.1,22.8,0.1c7.8,0,15.5,0.1,23.2-0.1
	C266.5,117.8,267.5,119,267.5,122.2L267.5,122.2z M283.8,170.3c-5.1-13.1-14.9-21.2-28.6-24.4c-7-1.6-14-1.8-21.2-1
	c-10.7,1.1-20.5,4.6-28,12.4c-15.8,16.7-19.1,36.7-12.7,58.2c4.4,14.7,14.5,24.4,29.4,28.5c13.4,3.7,26.8,3.8,40.1-0.3
	c13.8-4.3,22.7-13.2,24.4-28.1c0.3-2.8-0.3-4.2-3.4-4.1c-5.2,0.1-10.4,0.1-15.7,0c-2.2,0-3.4,0.8-4.2,3c-1.5,5.2-5.4,8.3-10.2,10
	c-5,1.8-10.2,1.8-15.5,1.4c-10.9-1-18.6-8.6-19.9-19.4c-0.6-4.3,0-5,4.3-5h30.8c10.3,0,20.5-0.1,30.8,0c3.4,0.1,4.4-1.1,4.6-4.4
	C289.2,187.9,287,178.8,283.8,170.3L283.8,170.3z M259.7,184.6h-19.1c-6.4,0-12.7-0.1-19.1,0c-2.9,0-3.6-1-2.8-3.7
	c3.7-13.9,18-21.5,31.6-16.7c6.8,2.6,12.4,10.1,12.7,17.5C262.9,184.1,261.6,184.6,259.7,184.6L259.7,184.6z M183.5,196.9
	c-2-15.3-8-22.4-22.8-25.8c0.3-0.5,0.5-0.7,0.7-0.8c0.6-0.3,1.3-0.6,2-0.8c8.3-2.9,13.4-8.7,15.2-17.4c0.7-3.4,0.6-6.7,0.3-10.1
	c-0.7-13.2-6.7-23-19.1-28.5c-5.6-2.4-11.6-3.6-17.6-3.6H76.8c-4.9,0-5,0.1-5,4.9V239c0,4.7,0.1,4.9,4.9,4.9h62.8
	c3.4,0,7-0.1,10.4-0.7c15.5-2.8,27.5-9.9,32.1-26C184,210.4,184.2,203.9,183.5,196.9L183.5,196.9z M101.7,136.4
	c0-2.8,1.1-3.6,3.7-3.6h17.4c3.1,0,6.2,0.1,9.2,0.1c1.5,0,3,0,4.6-0.1c11.1-0.7,14.4,4.9,14.8,14.7c0.1,2.6-0.3,5.4-1,7.9
	c-1.4,5.4-3.9,7.9-9.5,8.3c-11.9,1-23.9,0.2-36,0.3c-2.2,0-3.3-1-3.3-3.4C101.8,152.7,101.8,144.5,101.7,136.4L101.7,136.4z
	 M155.9,206.8c-1.3,9-6.4,13.7-16.1,14c-11.5,0.3-23,0.1-34.4,0.1c-2.8,0-3.4-1.3-3.4-3.8c0.1-10,0.1-19.9,0-29.8
	c0-2.6,1-3.7,3.6-3.7h17.7l10.7-0.1c1.8,0,3.5,0,5.4,0.1c9.1,0.1,14.4,4.4,16.3,13.4C156.3,200.3,156.3,203.5,155.9,206.8z"/>
</svg>
