<?xml version="1.0" encoding="utf-8"?>
<!-- Generator: Adobe Illustrator 19.1.0, SVG Export Plug-In . SVG Version: 6.00 Build 0)  -->
<svg version="1.1" id="Layer_1" xmlns="http://www.w3.org/2000/svg" xmlns:xlink="http://www.w3.org/1999/xlink" x="0px" y="0px"
	 viewBox="43.9 22 270.8 171" style="enable-background:new 43.9 22 270.8 171;" xml:space="preserve">
<style type="text/css">
	.st0{fill:#484849;}
</style>
<g id="NpkUt8.tif">
	<g>
		<path class="st0" d="M288,37.3c0,14.2,0.1,14.2-14.1,14.2c-16.4,0-32.6-0.1-49,0c-4.2,0-5.8-1.4-5.4-5.5c0.3-2.8,0.3-5.5,0-8.1
			c-0.3-4.5,1.3-6.1,5.7-5.9c9.6,0.3,19,0.1,28.5,0.1c9.7,0,19.3,0.1,29-0.1C286.8,31.9,288,33.3,288,37.3z"/>
		<path class="st0" d="M308.3,97.4C301.9,81,289.7,70.9,272.6,67c-8.7-2-17.5-2.3-26.5-1.3c-13.3,1.4-25.6,5.7-34.9,15.5
			c-19.7,20.9-23.9,45.8-15.9,72.7c5.5,18.4,18.1,30.4,36.7,35.6c16.7,4.6,33.5,4.8,50-0.4c17.2-5.4,28.3-16.5,30.4-35.1
			c0.4-3.5-0.4-5.2-4.2-5.1c-6.5,0.1-13,0.1-19.6,0c-2.8,0-4.3,1-5.2,3.8c-1.9,6.5-6.7,10.3-12.7,12.5c-6.2,2.2-12.7,2.3-19.3,1.7
			c-13.6-1.3-23.2-10.7-24.8-24.2c-0.7-5.4,0-6.2,5.4-6.2h38.5c12.9,0,25.6-0.1,38.5,0c4.2,0.1,5.5-1.4,5.7-5.5
			C315.1,119.3,312.3,108,308.3,97.4z M278.3,115.3h-23.9c-8,0-15.9-0.1-23.9,0c-3.6,0-4.5-1.2-3.5-4.6
			c4.6-17.4,22.5-26.8,39.4-20.9c8.5,3.2,15.5,12.6,15.8,21.9C282.3,114.6,280.7,115.3,278.3,115.3z"/>
		<path class="st0" d="M183.2,130.6c-2.5-19.1-10-28-28.5-32.2c0.4-0.6,0.6-0.9,0.9-1c0.7-0.4,1.6-0.7,2.5-1
			c10.4-3.6,16.7-10.9,19-21.7c0.9-4.2,0.7-8.4,0.4-12.6c-0.9-16.5-8.4-28.7-23.8-35.6c-7-3-14.5-4.5-22-4.5H50.1
			c-6.1,0-6.2,0.1-6.2,6.1v155c0,5.9,0.1,6.1,6.1,6.1h78.4c4.3,0,8.7-0.1,13-0.9c19.3-3.5,34.3-12.3,40.1-32.5
			C183.8,147.5,184.1,139.3,183.2,130.6z M81.1,55.1c0-3.5,1.4-4.5,4.6-4.5h21.7c3.9,0,7.7,0.1,11.5,0.1c1.9,0,3.8,0,5.8-0.1
			c13.8-0.9,18,6.1,18.5,18.4c0.1,3.2-0.4,6.7-1.3,9.9c-1.7,6.8-4.9,9.9-11.9,10.4c-14.9,1.2-29.8,0.3-44.9,0.4
			c-2.8,0-4.1-1.3-4.1-4.2C81.2,75.4,81.2,65.2,81.1,55.1z M148.7,142.9c-1.6,11.2-8,17.1-20.1,17.5c-14.3,0.4-28.7,0.1-43,0.1
			c-3.5,0-4.3-1.6-4.3-4.8c0.1-12.5,0.1-24.8,0-37.2c0-3.3,1.3-4.6,4.5-4.6H108c4.4,0,8.9-0.1,13.3-0.1c2.2,0,4.4,0,6.7,0.1
			c11.4,0.1,18,5.5,20.4,16.7C149.2,134.8,149.2,138.8,148.7,142.9z"/>
	</g>
</g>
</svg>
