<?xml version="1.0" encoding="utf-8"?>
<!-- Generator: Adobe Illustrator 19.1.0, SVG Export Plug-In . SVG Version: 6.00 Build 0)  -->
<svg version="1.1" id="Layer_1" xmlns="http://www.w3.org/2000/svg" xmlns:xlink="http://www.w3.org/1999/xlink" x="0px" y="0px"
	 viewBox="0 0 288 288" style="enable-background:new 0 0 288 288;" xml:space="preserve">
<g id="NpkUt8.tif">
	<g>
		<path d="M278.4,109.4c-6.6-26.4-19.6-49.2-39.6-67.6C217.4,22.2,192.3,9.4,163.4,5c-3.1-0.5-6.2-0.8-9.3-1.2h-23.8
			C121.2,5,112,6.2,103.1,9.1c-51,16.4-83.4,50.6-96.9,102.5c-2,7.8-2.7,15.8-3.6,23.7v15c0.8,8.5,1.6,17,3.8,25.3
			c15.1,55.1,50.4,89.7,105.7,103.9c6.2,1.6,12.5,2.1,18.8,3h22.5c9.3-1.2,18.5-2.6,27.6-5.2c19.7-5.8,37.2-15.6,52.9-28.8
			c25.9-21.8,40.7-49.6,46.7-82.6c0.9-5.1,1.3-10.3,1.9-15.5v-14.4C281.6,127,280.6,118.1,278.4,109.4z M175.7,89.8
			c6.6,0.2,13.1,0.1,19.7,0.1c6.7,0,13.3,0.1,20-0.1c2.8,0,3.6,1,3.6,3.7c0,9.8,0.1,9.8-9.7,9.8c-11.3,0-22.5-0.1-33.8,0
			c-2.9,0-4-1-3.7-3.8c0.2-1.9,0.2-3.8,0-5.6C171.6,90.8,172.7,89.7,175.7,89.8z M145.5,175.3c-4,13.9-14.4,20-27.7,22.4
			c-3,0.5-6,0.6-9,0.6c-18,0-36.1,0-54.1,0c-4.1,0-4.2-0.1-4.2-4.2c0-35.7,0-71.3,0-107c0-4.1,0.1-4.2,4.3-4.2c18.8,0,37.5,0,56.3,0
			c5.2,0,10.4,1,15.2,3.1c10.6,4.8,15.8,13.2,16.4,24.6c0.2,2.9,0.3,5.8-0.3,8.7c-1.6,7.5-5.9,12.5-13.1,15
			c-0.6,0.2-1.2,0.4-1.7,0.7c-0.2,0.1-0.3,0.3-0.6,0.7c12.8,2.9,18,9,19.7,22.2C147.3,163.9,147.1,169.6,145.5,175.3z M237.4,158.2
			c-0.1,2.8-1,3.9-3.9,3.8c-8.9-0.1-17.7,0-26.6,0c-8.9,0-17.7,0-26.6,0c-3.7,0-4.2,0.6-3.7,4.3c1.1,9.3,7.7,15.8,17.1,16.7
			c4.5,0.4,9,0.3,13.3-1.2c4.2-1.5,7.5-4.1,8.8-8.6c0.6-1.9,1.7-2.6,3.6-2.6c4.5,0.1,9,0.1,13.5,0c2.6-0.1,3.2,1.1,2.9,3.5
			c-1.5,12.8-9.1,20.5-21,24.2c-11.4,3.6-23,3.5-34.5,0.3c-12.8-3.6-21.5-11.9-25.3-24.6c-5.5-18.6-2.6-35.8,11-50.2
			c6.4-6.8,14.9-9.7,24.1-10.7c6.2-0.7,12.3-0.5,18.3,0.9c11.8,2.7,20.2,9.7,24.6,21C235.8,142.3,237.7,150.1,237.4,158.2z"/>
		<path d="M122.9,166.4c-1.1,7.7-5.5,11.8-13.9,12.1c-9.9,0.3-19.8,0.1-29.7,0.1c-2.4,0-3-1.1-3-3.3c0.1-8.6,0.1-17.1,0-25.7
			c0-2.3,0.9-3.2,3.1-3.2c5.1,0,10.2,0,15.3,0c0,0,0,0,0,0c4.6,0,9.2-0.1,13.8,0c7.9,0.1,12.4,3.8,14.1,11.5
			C123.2,160.8,123.2,163.6,122.9,166.4z"/>
		<path d="M119.1,115.4c0.1,2.2-0.3,4.6-0.9,6.8c-1.2,4.7-3.4,6.8-8.2,7.2c-10.3,0.8-20.6,0.2-31,0.3c-1.9,0-2.8-0.9-2.8-2.9
			c0.1-7,0.1-14,0-21c0-2.4,1-3.1,3.2-3.1c5,0,10,0,15,0c0,0,0,0,0,0c4,0,7.9,0.2,11.9,0C115.8,102.1,118.7,106.9,119.1,115.4z"/>
		<path d="M215,144.9c0.1,2-1,2.5-2.7,2.5c-2.8,0-5.6,0-8.4,0h-8.1c-5.5,0-11-0.1-16.5,0c-2.5,0-3.1-0.8-2.4-3.2
			c3.2-12,15.5-18.5,27.2-14.4C210,132,214.8,138.5,215,144.9z"/>
	</g>
</g>
</svg>
