<?xml version="1.0" encoding="utf-8"?>
<!-- Generator: Adobe Illustrator 19.1.0, SVG Export Plug-In . SVG Version: 6.00 Build 0)  -->
<svg version="1.1" id="Layer_1" xmlns="http://www.w3.org/2000/svg" xmlns:xlink="http://www.w3.org/1999/xlink" x="0px" y="0px"
	 viewBox="-77.7 357.4 120.2 76" style="enable-background:new -77.7 357.4 120.2 76;" xml:space="preserve">
<g id="NpkUt8.tif">
	<g>
		<path d="M30.7,364.2c0,6.3,0.1,6.3-6.2,6.3c-7.3,0-14.5-0.1-21.7,0c-1.9,0-2.6-0.6-2.4-2.4c0.1-1.2,0.1-2.4,0-3.6
			c-0.1-2,0.6-2.7,2.5-2.6c4.2,0.1,8.4,0.1,12.7,0.1c4.3,0,8.6,0.1,12.9-0.1C30.2,361.8,30.7,362.5,30.7,364.2z"/>
		<path d="M39.7,390.9c-2.8-7.3-8.2-11.8-15.8-13.5c-3.9-0.9-7.8-1-11.8-0.6c-5.9,0.6-11.4,2.5-15.5,6.9C-12.1,393-14,404-10.4,416
			c2.4,8.2,8,13.5,16.3,15.8c7.4,2.1,14.8,2.1,22.2-0.2c7.7-2.4,12.5-7.3,13.5-15.6c0.2-1.5-0.2-2.3-1.9-2.2c-2.9,0.1-5.8,0.1-8.7,0
			c-1.2,0-1.9,0.5-2.3,1.7c-0.8,2.9-3,4.6-5.7,5.5c-2.8,1-5.7,1-8.6,0.8c-6-0.6-10.3-4.8-11-10.7c-0.3-2.4,0-2.8,2.4-2.8h17.1
			c5.7,0,11.4-0.1,17.1,0c1.9,0.1,2.4-0.6,2.5-2.4C42.7,400.6,41.5,395.6,39.7,390.9z M26.4,398.9H15.8c-3.5,0-7.1-0.1-10.6,0
			c-1.6,0-2-0.5-1.5-2c2.1-7.7,10-11.9,17.5-9.3c3.8,1.4,6.9,5.6,7,9.7C28.2,398.6,27.5,398.9,26.4,398.9z"/>
		<path d="M-15.8,405.6c-1.1-8.5-4.4-12.4-12.7-14.3c0.2-0.3,0.3-0.4,0.4-0.5c0.3-0.2,0.7-0.3,1.1-0.4c4.6-1.6,7.4-4.8,8.4-9.7
			c0.4-1.9,0.3-3.7,0.2-5.6c-0.4-7.3-3.7-12.7-10.6-15.8c-3.1-1.4-6.4-2-9.8-2h-36.2c-2.7,0-2.8,0.1-2.8,2.7v68.8
			c0,2.6,0.1,2.7,2.7,2.7h34.8c1.9,0,3.9-0.1,5.8-0.4c8.6-1.5,15.2-5.5,17.8-14.4C-15.5,413.2-15.4,409.5-15.8,405.6z M-61.1,372.1
			c0-1.5,0.6-2,2.1-2h9.7c1.7,0,3.4,0.1,5.1,0.1c0.8,0,1.7,0,2.5-0.1c6.1-0.4,8,2.7,8.2,8.2c0.1,1.4-0.2,3-0.6,4.4
			c-0.8,3-2.2,4.4-5.3,4.6c-6.6,0.5-13.2,0.1-19.9,0.2c-1.2,0-1.8-0.6-1.8-1.9C-61,381.1-61,376.6-61.1,372.1z M-31.1,411.1
			c-0.7,5-3.5,7.6-8.9,7.8c-6.4,0.2-12.7,0.1-19.1,0.1c-1.5,0-1.9-0.7-1.9-2.1c0.1-5.5,0.1-11,0-16.5c0-1.5,0.6-2.1,2-2.1h9.8
			c2,0,3.9,0,5.9,0c1,0,2,0,3,0c5.1,0.1,8,2.4,9.1,7.4C-30.9,407.5-30.9,409.3-31.1,411.1z"/>
	</g>
</g>
</svg>
