<?xml version="1.0" encoding="utf-8"?>
<!-- Generator: Adobe Illustrator 19.2.0, SVG Export Plug-In . SVG Version: 6.00 Build 0)  -->
<svg version="1.1" id="Layer_1" xmlns="http://www.w3.org/2000/svg" xmlns:xlink="http://www.w3.org/1999/xlink" x="0px" y="0px"
	 viewBox="0 0 954.4 618.5" style="enable-background:new 0 0 954.4 618.5;" xml:space="preserve">
<style type="text/css">
	.st0{clip-path:url(#SVGID_2_);fill:#FFFFFF;stroke:#808285;stroke-width:0.7025;stroke-miterlimit:10;}
	.st1{clip-path:url(#SVGID_2_);fill:#FFFFFF;stroke:#808285;stroke-width:0.6347;stroke-miterlimit:10;}
	.st2{clip-path:url(#SVGID_2_);}
	.st3{opacity:0.32;}
	.st4{fill:#4F4F4F;}
	.st5{font-family:'Montserrat-Black';}
	.st6{font-size:6.5169px;}
	.st7{font-size:5.9773px;}
	.st8{fill:#ACACAC;}
	.st9{font-size:3.715px;}
	.st10{fill:#FFFFFF;}
	.st11{clip-path:url(#SVGID_2_);fill:#FFFFFF;}
	.st12{clip-path:url(#SVGID_2_);fill:none;stroke:#808285;stroke-width:0.6347;stroke-miterlimit:10;}
	.st13{font-family:'Montserrat-Regular';}
	.st14{font-size:12.9766px;}
	.st15{clip-path:url(#SVGID_2_);fill:#ACACAC;}
	.st16{font-size:10.7484px;}
	.st17{font-size:10.9972px;}
	.st18{clip-path:url(#SVGID_2_);fill:none;stroke:#ACACAC;stroke-width:0.6347;stroke-miterlimit:10;}
	.st19{clip-path:url(#SVGID_2_);fill:#FFFFFF;stroke:#ACACAC;stroke-width:0.6347;stroke-miterlimit:10;}
	.st20{clip-path:url(#SVGID_2_);fill:#FFFFFF;stroke:#808285;stroke-width:0.4425;stroke-miterlimit:10;}
	.st21{clip-path:url(#SVGID_2_);fill:none;stroke:#FFFFFF;stroke-width:0.6347;stroke-miterlimit:10;}
	.st22{clip-path:url(#SVGID_2_);fill:#FFFFFF;stroke:#808285;stroke-width:0.4419;stroke-miterlimit:10;}
	.st23{clip-path:url(#SVGID_2_);fill:#FFFFFF;stroke:#808285;stroke-width:0.65;stroke-miterlimit:10;}
	.st24{clip-path:url(#SVGID_2_);fill:#FFFFFF;stroke:#808285;stroke-width:0.7155;stroke-miterlimit:10;}
	.st25{clip-path:url(#SVGID_2_);fill:#FFFFFF;stroke:#808285;stroke-width:0.6008;stroke-miterlimit:10;}
	.st26{font-size:6.1689px;}
	.st27{font-size:5.6582px;}
	.st28{font-size:4.6156px;}
	.st29{clip-path:url(#SVGID_2_);fill:#FFFFFF;stroke:#808285;stroke-width:0.6754;stroke-miterlimit:10;}
	.st30{clip-path:url(#SVGID_2_);fill:none;stroke:#808285;stroke-width:0.6754;stroke-miterlimit:10;}
	.st31{clip-path:url(#SVGID_2_);fill:#FFFFFF;stroke:#808285;stroke-width:0.3934;stroke-miterlimit:10;}
	.st32{clip-path:url(#SVGID_2_);fill:none;stroke:#808285;stroke-width:0.3934;stroke-miterlimit:10;}
	.st33{clip-path:url(#SVGID_2_);fill:#FFFFFF;stroke:#808285;stroke-width:0.6051;stroke-miterlimit:10;}
	.st34{font-size:12.3708px;}
	.st35{font-size:14.4985px;}
	.st36{font-size:10.9643px;}
	.st37{clip-path:url(#SVGID_2_);fill:#FFFFFF;stroke:#808285;stroke-width:0.3541;stroke-miterlimit:10;}
	.st38{font-size:7.2401px;}
	.st39{font-size:8.4854px;}
	.st40{font-size:6.417px;}
	.st41{clip-path:url(#SVGID_2_);fill:none;stroke:#ACACAC;stroke-width:0.6328;stroke-miterlimit:10;}
	.st42{clip-path:url(#SVGID_2_);fill:#FFFFFF;stroke:#ACACAC;stroke-width:0.6328;stroke-miterlimit:10;}
	.st43{clip-path:url(#SVGID_2_);fill:#FFFFFF;stroke:#808285;stroke-width:0.4412;stroke-miterlimit:10;}
	.st44{clip-path:url(#SVGID_2_);fill:none;stroke:#FFFFFF;stroke-width:0.6514;stroke-miterlimit:10;}
	.st45{clip-path:url(#SVGID_2_);fill:none;stroke:#ACACAC;stroke-width:0.3694;stroke-miterlimit:10;}
	.st46{clip-path:url(#SVGID_2_);fill:#FFFFFF;stroke:#ACACAC;stroke-width:0.3694;stroke-miterlimit:10;}
	.st47{font-size:6.4005px;}
	.st48{clip-path:url(#SVGID_2_);fill:#FFFFFF;stroke:#808285;stroke-width:0.3527;stroke-miterlimit:10;}
	.st49{font-size:7.211px;}
	.st50{opacity:0.69;}
	.st51{opacity:0.69;clip-path:url(#SVGID_2_);fill:#ACACAC;}
	.st52{opacity:0.69;clip-path:url(#SVGID_2_);fill:none;stroke:#FFFFFF;stroke-width:0.3803;stroke-miterlimit:10;}
	.st53{clip-path:url(#SVGID_2_);fill:#FFFFFF;stroke:#808285;stroke-width:0.7937;stroke-miterlimit:10;}
</style>
<g>
	<defs>
		<rect id="SVGID_1_" width="954.4" height="618.5"/>
	</defs>
	<clipPath id="SVGID_2_">
		<use xlink:href="#SVGID_1_"  style="overflow:visible;"/>
	</clipPath>
	<rect x="34.5" y="19.1" class="st0" width="331.3" height="929.5"/>
	<rect x="35.1" y="17.4" class="st1" width="330.4" height="31.7"/>
	<rect x="40.4" y="24.3" class="st1" width="39.7" height="16"/>
	<g class="st2">
		<text transform="matrix(1 0 0 1 53.1107 31.9938)" class="st3"><tspan x="0" y="0" class="st4 st5 st6">CITY </tspan><tspan x="0" y="5.1" class="st4 st5 st7">FOLK</tspan></text>
		<text transform="matrix(1 0 0 1 52.2093 31.9938)"><tspan x="0" y="0" class="st8 st5 st6">CITY </tspan><tspan x="0" y="5.1" class="st8 st5 st7">FOLK</tspan></text>
	</g>
	<g class="st2">
		<text transform="matrix(1 0 0 1 143.5589 33.6637)" class="st8 st5 st9">LINEUP</text>
	</g>
	<g class="st2">
		<text transform="matrix(1 0 0 1 195.0081 33.6637)" class="st8 st5 st9">DETAILS</text>
	</g>
	<g class="st2">
		<text transform="matrix(1 0 0 1 246.8656 33.6637)" class="st8 st5 st9">TICKETS</text>
	</g>
	<g class="st2">
		<path class="st8" d="M301.5,35H300c-1.1,0-2-0.9-2-2v-1.5c0-1.1,0.9-2,2-2h1.5c1.1,0,2,0.9,2,2V33C303.5,34.2,302.6,35,301.5,35z"
			/>
		<path class="st10" d="M299.4,31.2c0,0,0.5,0.7,1.4,0.7c0,0-0.1-0.6,0.5-0.8c0,0,0.4-0.1,0.7,0.2c0,0,0.2,0,0.4-0.2
			c0,0,0,0.2-0.3,0.4c0,0,0.2,0,0.4-0.1c0,0-0.2,0.2-0.3,0.3c0,0,0.1,1-0.9,1.7s-2.1,0-2.1,0s0.5,0.1,1-0.3c0,0-0.5,0-0.6-0.5
			c0,0,0.1,0,0.3,0c0,0-0.5-0.1-0.5-0.7c0,0,0.2,0.1,0.3,0.1C299.6,32.1,299.1,31.7,299.4,31.2z"/>
	</g>
	<g class="st2">
		<path class="st8" d="M309.9,35h-1.5c-1.1,0-2-0.9-2-2v-1.5c0-1.1,0.9-2,2-2h1.5c1.1,0,2,0.9,2,2V33C311.9,34.2,311,35,309.9,35z"
			/>
	</g>
	<g class="st2">
		<path class="st8" d="M317.9,35h-1.5c-1.1,0-2-0.9-2-2v-1.5c0-1.1,0.9-2,2-2h1.5c1.1,0,2,0.9,2,2V33C319.9,34.2,319,35,317.9,35z"
			/>
	</g>
	<path class="st11" d="M308.6,33.2V35h0.8v-1.8h0.8v-0.8h-0.8V32c0,0,0-0.2,0.2-0.2h0.6V31h-0.7c0,0-0.7-0.1-0.9,0.9v0.4H308v0.8
		L308.6,33.2z"/>
	<g id="PYQXZ5_9_" class="st2">
		<g>
			<path class="st10" d="M318.5,31.1c0,0-0.1-0.1-0.1-0.1h-1.2c-0.4,0-0.8,0-1.2,0c-0.1,0-0.1,0-0.1,0.1c0,0.8,0,1.6,0,2.4
				c0,0.1,0,0.1,0.1,0.1h2.4c0.1,0,0.1,0,0.1-0.1C318.5,32.8,318.5,32,318.5,31.1C318.5,31.1,318.5,31.1,318.5,31.1z M317.7,31.3
				c0.1,0,0.2,0,0.2,0c0.1,0,0.2,0,0.2,0c0,0,0,0,0,0c0,0.2,0,0.3,0,0.5c0,0,0,0,0,0c-0.2,0-0.3,0-0.5,0c0,0,0,0,0,0
				C317.7,31.6,317.7,31.5,317.7,31.3C317.7,31.3,317.7,31.3,317.7,31.3z M317.2,31.8c0.3,0,0.5,0.2,0.5,0.5c0,0.3-0.2,0.5-0.5,0.5
				c-0.3,0-0.5-0.2-0.5-0.5C316.6,32.1,316.9,31.8,317.2,31.8z M318.2,33.4c-0.3,0-0.7,0-1,0c-0.3,0-0.7,0-1,0c0,0,0,0,0,0
				c0-0.4,0-0.8,0-1.1c0,0,0,0,0,0c0.1,0,0.2,0,0.2,0c0,0,0,0,0,0c0,0.3,0.1,0.6,0.3,0.7c0.2,0.1,0.3,0.2,0.5,0.1
				c0.2,0,0.4-0.1,0.6-0.3c0.1-0.2,0.2-0.3,0.2-0.5c0,0,0,0,0-0.1c0,0,0,0,0,0c0.1,0,0.2,0,0.2,0c0,0,0,0,0,0
				C318.2,32.6,318.2,33,318.2,33.4C318.2,33.4,318.2,33.4,318.2,33.4z"/>
		</g>
	</g>
	<rect x="35.1" y="49.1" class="st1" width="330.3" height="160.7"/>
	<line class="st12" x1="35.1" y1="49.1" x2="365.5" y2="209.8"/>
	<line class="st12" x1="365.5" y1="49.1" x2="35.1" y2="209.8"/>
	<rect x="52.4" y="225.6" class="st1" width="297.6" height="52.7"/>
	<g class="st2">
		<text transform="matrix(1 0 0 1 130.2279 258.6393)" class="st8 st13 st14">EVENT TITLE/ INFO</text>
	</g>
	<circle class="st15" cx="195.2" cy="332.9" r="37.2"/>
	<g class="st2">
		<text transform="matrix(1 0 0 1 171.2999 333.5885)"><tspan x="0" y="0" class="st10 st13 st16">TICKETS</tspan><tspan x="10.6" y="10.7" class="st10 st13 st16">LINK</tspan></text>
	</g>
	<g class="st2">
		<path class="st8" d="M163.2,416.7h-24.8c-1.1,0-2-0.9-2-2V390c0-1.1,0.9-2,2-2h24.8c1.1,0,2,0.9,2,2v24.8
			C165.2,415.8,164.3,416.7,163.2,416.7z"/>
		<path class="st10" d="M144,396.6c0,0,2.8,3.6,7.2,3.6c0,0-0.6-3.1,2.4-4.1c0,0,1.9-0.7,3.5,0.9c0,0,1-0.1,2.3-0.8
			c0,0-0.1,0.9-1.5,1.9c0,0,0.9,0,2-0.5c0,0-0.8,1.2-1.7,1.8c0,0,0.6,5.4-4.6,9s-10.8-0.1-10.8-0.1s2.7,0.6,5.2-1.4
			c0,0-2.4,0-3.3-2.5c0,0,0.6,0.2,1.5,0c0,0-2.8-0.7-2.7-3.5c0,0,1,0.5,1.5,0.4C145,401.2,142.5,399.4,144,396.6z"/>
	</g>
	<g class="st2">
		<path class="st8" d="M207.6,416.7h-24.8c-1.1,0-2-0.9-2-2V390c0-1.1,0.9-2,2-2h24.8c1.1,0,2,0.9,2,2v24.8
			C209.6,415.8,208.7,416.7,207.6,416.7z"/>
	</g>
	<g class="st2">
		<path class="st8" d="M249.5,416.7h-24.8c-1.1,0-2-0.9-2-2V390c0-1.1,0.9-2,2-2h24.8c1.1,0,2,0.9,2,2v24.8
			C251.5,415.8,250.6,416.7,249.5,416.7z"/>
	</g>
	<path class="st11" d="M192.4,407.1v9.7h4.2v-9.7h4.2v-4.4h-4.3v-1.7c0,0-0.1-1,1-1.1h3.4v-4.3h-3.5c0,0-3.9-0.3-4.9,4.9v2.3h-3.2
		v4.4L192.4,407.1z"/>
	<g id="PYQXZ5_10_" class="st2">
		<g>
			<path class="st10" d="M244,396c-0.1-0.2-0.4-0.3-0.6-0.3h-6.3c-2.1,0-4.2,0-6.3,0c-0.4,0-0.7,0.2-0.7,0.6c0,4.2,0,8.4,0,12.7
				c0,0.4,0.2,0.6,0.6,0.6h12.7c0.4,0,0.6-0.2,0.6-0.6c0-4.2,0-8.5,0-12.7C244.1,396.2,244.1,396.1,244,396z M240.1,397.1
				c0.4,0,0.8,0,1.2,0c0.4,0,0.8,0,1.2,0c0.1,0,0.2,0,0.2,0.2c0,0.8,0,1.7,0,2.5c0,0.1,0,0.1-0.2,0.1c-0.8,0-1.7,0-2.5,0
				c-0.1,0-0.1,0-0.1-0.2c0-0.8,0-1.7,0-2.5C239.9,397.1,239.9,397.1,240.1,397.1z M237.1,399.9c1.5,0,2.8,1.3,2.8,2.8
				c0,1.5-1.3,2.8-2.8,2.8c-1.5,0-2.8-1.3-2.8-2.8C234.3,401.1,235.6,399.9,237.1,399.9z M242.5,408.2c-1.8,0-3.6,0-5.4,0
				c-1.8,0-3.6,0-5.4,0c-0.1,0-0.2,0-0.2-0.2c0-2,0-3.9,0-5.9c0-0.1,0-0.2,0.2-0.2c0.4,0,0.8,0,1.2,0c0.1,0,0.1,0,0.1,0.1
				c-0.2,1.6,0.4,2.9,1.7,3.9c0.8,0.6,1.8,0.9,2.8,0.8c1.2-0.1,2.2-0.7,3-1.7c0.6-0.8,0.9-1.7,0.8-2.7c0-0.1,0-0.2,0-0.3
				c0-0.1,0-0.2,0.1-0.1c0.4,0,0.8,0,1.2,0c0.1,0,0.1,0,0.1,0.2c0,2,0,4,0,5.9C242.7,408.2,242.6,408.2,242.5,408.2z"/>
		</g>
	</g>
	<g class="st2">
		<text transform="matrix(1 0 0 1 117.1273 456.0602)" class="st8 st13 st17">LINEUP</text>
	</g>
	<g class="st2">
		<text transform="matrix(1 0 0 1 227.4661 456.0602)" class="st8 st13 st17">DETAILS</text>
	</g>
	<rect x="59" y="472" class="st18" width="283.5" height="222.7"/>
	<line class="st18" x1="59" y1="472" x2="342.5" y2="694.6"/>
	<line class="st18" x1="342.5" y1="472" x2="59" y2="694.6"/>
	<rect x="121.5" y="606.5" class="st19" width="149.8" height="50.5"/>
	<g class="st2">
		<text transform="matrix(1 0 0 1 139.6165 635.6862)" class="st8 st5 st17">FEATURED ARTIST</text>
	</g>
	<rect x="97.1" y="707.8" class="st20" width="207.5" height="36.7"/>
	<g class="st2">
		<text transform="matrix(1 0 0 1 151.3411 730.7829)" class="st8 st5" style="font-size:9.0468px;">EVENT TITLE/ INFO</text>
	</g>
	<g class="st2">
		<text transform="matrix(1 0 0 1 180.0755 804.445)" class="st8 st5" style="font-size:9.0468px;">SPONSORS</text>
	</g>
	<circle class="st15" cx="133.4" cy="866.9" r="38.2"/>
	<line class="st21" x1="109.4" y1="837.4" x2="157.2" y2="897.5"/>
	<line class="st21" x1="160.1" y1="838.1" x2="108.7" y2="897.1"/>
	<circle class="st15" cx="266.1" cy="866.9" r="38.2"/>
	<line class="st21" x1="240.1" y1="836.7" x2="292.6" y2="898.9"/>
	<line class="st21" x1="295.5" y1="837" x2="239.4" y2="900"/>
	<rect x="742.4" y="22.2" class="st22" width="165.3" height="737.4"/>
	<rect x="413.9" y="189.9" class="st23" width="283.7" height="929.5"/>
	<rect x="414" y="18.3" class="st24" width="283.6" height="46.9"/>
	<rect x="418.9" y="24.8" class="st25" width="37.6" height="15.2"/>
	<g class="st2">
		<text transform="matrix(1 0 0 1 430.9915 32.0915)" class="st3"><tspan x="0" y="0" class="st4 st5 st26">CITY </tspan><tspan x="0" y="4.8" class="st4 st5 st27">FOLK</tspan></text>
		<text transform="matrix(1 0 0 1 430.138 32.0915)"><tspan x="0" y="0" class="st8 st5 st26">CITY </tspan><tspan x="0" y="4.8" class="st8 st5 st27">FOLK</tspan></text>
	</g>
	<g class="st2">
		<text transform="matrix(1 0 0 1 498.6849 34.8542)" class="st8 st5 st28">LINEUP</text>
	</g>
	<g class="st2">
		<text transform="matrix(1 0 0 1 562.6068 34.8542)" class="st8 st5 st28">DETAILS</text>
	</g>
	<g class="st2">
		<text transform="matrix(1 0 0 1 627.0364 34.8542)" class="st8 st5 st28">TICKETS</text>
	</g>
	<g class="st2">
		<path class="st8" d="M651.9,57.7h-6c-1.1,0-2-0.9-2-2v-6c0-1.1,0.9-2,2-2h6c1.1,0,2,0.9,2,2v6C653.9,56.8,653,57.7,651.9,57.7z"/>
		<path class="st10" d="M646.5,50.7c0,0,1,1.3,2.5,1.2c0,0-0.2-1.1,0.8-1.4c0,0,0.7-0.2,1.2,0.3c0,0,0.4,0,0.8-0.3
			c0,0,0,0.3-0.5,0.7c0,0,0.3,0,0.7-0.2c0,0-0.3,0.4-0.6,0.6c0,0,0.2,1.9-1.6,3.1c-1.8,1.2-3.7,0-3.7,0s0.9,0.2,1.8-0.5
			c0,0-0.8,0-1.1-0.9c0,0,0.2,0.1,0.5,0c0,0-1-0.2-0.9-1.2c0,0,0.4,0.2,0.5,0.1C646.9,52.3,646,51.7,646.5,50.7z"/>
	</g>
	<g class="st2">
		<path class="st8" d="M667.2,57.7h-6c-1.1,0-2-0.9-2-2v-6c0-1.1,0.9-2,2-2h6c1.1,0,2,0.9,2,2v6C669.2,56.8,668.3,57.7,667.2,57.7z"
			/>
	</g>
	<g class="st2">
		<path class="st8" d="M681.7,57.7h-6c-1.1,0-2-0.9-2-2v-6c0-1.1,0.9-2,2-2h6c1.1,0,2,0.9,2,2v6C683.7,56.8,682.8,57.7,681.7,57.7z"
			/>
	</g>
	<path class="st11" d="M663.3,54.3v3.3h1.4v-3.3h1.4v-1.5h-1.5v-0.6c0,0,0-0.3,0.3-0.4h1.2v-1.5H665c0,0-1.3-0.1-1.7,1.7v0.8h-1.1
		v1.5L663.3,54.3z"/>
	<g id="PYQXZ5_12_" class="st2">
		<g>
			<path class="st10" d="M681.2,50.5c0-0.1-0.1-0.1-0.2-0.1h-2.2c-0.7,0-1.5,0-2.2,0c-0.2,0-0.2,0.1-0.2,0.2c0,1.5,0,2.9,0,4.4
				c0,0.1,0.1,0.2,0.2,0.2h4.4c0.1,0,0.2-0.1,0.2-0.2c0-1.5,0-2.9,0-4.4C681.2,50.6,681.2,50.5,681.2,50.5z M679.8,50.9
				c0.1,0,0.3,0,0.4,0c0.1,0,0.3,0,0.4,0c0,0,0.1,0,0.1,0.1c0,0.3,0,0.6,0,0.9c0,0,0,0.1-0.1,0.1c-0.3,0-0.6,0-0.9,0
				c0,0-0.1,0-0.1-0.1C679.7,51.5,679.7,51.2,679.8,50.9C679.7,50.9,679.7,50.9,679.8,50.9z M678.8,51.9c0.5,0,1,0.4,1,1
				c0,0.5-0.4,1-1,1c-0.5,0-1-0.4-1-1C677.8,52.3,678.2,51.9,678.8,51.9z M680.6,54.7c-0.6,0-1.2,0-1.9,0c-0.6,0-1.2,0-1.9,0
				c0,0-0.1,0-0.1-0.1c0-0.7,0-1.4,0-2c0,0,0-0.1,0.1-0.1c0.1,0,0.3,0,0.4,0c0,0,0,0,0,0c-0.1,0.6,0.1,1,0.6,1.3
				c0.3,0.2,0.6,0.3,1,0.3c0.4,0,0.8-0.2,1-0.6c0.2-0.3,0.3-0.6,0.3-0.9c0,0,0-0.1,0-0.1c0,0,0-0.1,0-0.1c0.1,0,0.3,0,0.4,0
				c0,0,0.1,0,0.1,0.1C680.7,53.3,680.7,54,680.6,54.7C680.7,54.7,680.7,54.7,680.6,54.7z"/>
		</g>
	</g>
	<rect x="414.3" y="65.1" class="st29" width="283.2" height="212.2"/>
	<line class="st30" x1="414.3" y1="65.1" x2="697.5" y2="277.4"/>
	<line class="st30" x1="697.5" y1="65.1" x2="414.3" y2="277.4"/>
	<rect x="742.7" y="121.3" class="st31" width="165" height="123.6"/>
	<line class="st32" x1="742.7" y1="121.3" x2="907.7" y2="244.9"/>
	<line class="st32" x1="907.7" y1="121.3" x2="742.7" y2="244.9"/>
	<rect x="413.8" y="276.7" class="st33" width="283.7" height="50.2"/>
	<g class="st2">
		<text transform="matrix(1 0 0 1 488.0111 308.1344)" class="st8 st13 st34">EVENT TITLE/ INFO</text>
	</g>
	<circle class="st15" cx="554.4" cy="401.2" r="50.1"/>
	<g class="st2">
		<text transform="matrix(1 0 0 1 522.7697 402.0963)"><tspan x="0" y="0" class="st10 st13 st35">TICKETS</tspan><tspan x="14.3" y="14.4" class="st10 st13 st35">LINK</tspan></text>
	</g>
	<g class="st2">
		<path class="st8" d="M512,514.2h-34.8c-1.1,0-2-0.9-2-2v-34.8c0-1.1,0.9-2,2-2H512c1.1,0,2,0.9,2,2v34.8
			C514,513.4,513.1,514.2,512,514.2z"/>
		<path class="st10" d="M485.3,487.1c0,0,3.8,4.9,9.7,4.8c0,0-0.8-4.1,3.3-5.5c0,0,2.6-0.9,4.7,1.2c0,0,1.4-0.1,3.1-1.1
			c0,0-0.1,1.2-2,2.6c0,0,1.2,0,2.7-0.7c0,0-1.1,1.7-2.3,2.4c0,0,0.8,7.3-6.2,12.1s-14.6-0.1-14.6-0.1s3.6,0.7,7-1.9
			c0,0-3.2,0-4.4-3.3c0,0,0.8,0.3,2.1,0c0,0-3.8-1-3.7-4.7c0,0,1.4,0.7,2.1,0.6C486.7,493.3,483.2,490.9,485.3,487.1z"/>
	</g>
	<g class="st2">
		<path class="st8" d="M571.8,514.2H537c-1.1,0-2-0.9-2-2v-34.8c0-1.1,0.9-2,2-2h34.8c1.1,0,2,0.9,2,2v34.8
			C573.8,513.4,572.9,514.2,571.8,514.2z"/>
	</g>
	<g class="st2">
		<path class="st8" d="M628.3,514.2h-34.8c-1.1,0-2-0.9-2-2v-34.8c0-1.1,0.9-2,2-2h34.8c1.1,0,2,0.9,2,2v34.8
			C630.3,513.4,629.4,514.2,628.3,514.2z"/>
	</g>
	<path class="st11" d="M550.5,501.2v13.1h5.6v-13.1h5.6v-6H556v-2.3c0,0-0.1-1.3,1.3-1.5h4.5v-5.8h-4.7c0,0-5.2-0.4-6.6,6.6v3.1
		h-4.3v5.9L550.5,501.2z"/>
	<g id="PYQXZ5_11_" class="st2">
		<g>
			<path class="st10" d="M620.2,486.2c-0.2-0.3-0.5-0.4-0.8-0.4h-8.5c-2.8,0-5.7,0-8.5,0c-0.6,0-0.9,0.3-0.9,0.9
				c0,5.7,0,11.4,0,17.1c0,0.6,0.3,0.9,0.9,0.9h17.1c0.6,0,0.9-0.3,0.9-0.9c0-5.7,0-11.4,0-17.1
				C620.3,486.5,620.3,486.4,620.2,486.2z M614.9,487.7c0.6,0,1.1,0,1.7,0c0.6,0,1.1,0,1.7,0c0.2,0,0.2,0,0.2,0.2c0,1.1,0,2.2,0,3.4
				c0,0.2,0,0.2-0.2,0.2c-1.1,0-2.2,0-3.4,0c-0.2,0-0.2-0.1-0.2-0.2c0-1.1,0-2.2,0-3.4C614.7,487.8,614.7,487.7,614.9,487.7z
				 M611,491.5c2,0,3.7,1.7,3.7,3.8c0,2-1.7,3.8-3.8,3.7c-2,0-3.7-1.7-3.7-3.8C607.2,493.2,608.9,491.5,611,491.5z M618.2,502.8
				c-2.4,0-4.8,0-7.3,0c-2.4,0-4.9,0-7.3,0c-0.2,0-0.2,0-0.2-0.2c0-2.7,0-5.3,0-8c0-0.2,0.1-0.2,0.2-0.2c0.5,0,1.1,0,1.6,0
				c0.1,0,0.2,0,0.2,0.2c-0.3,2.2,0.5,3.9,2.2,5.3c1.1,0.8,2.4,1.2,3.8,1.1c1.7-0.1,3-0.9,4-2.3c0.8-1.1,1.2-2.3,1.1-3.6
				c0-0.1,0-0.3-0.1-0.4c-0.1-0.2,0-0.2,0.2-0.2c0.6,0,1.1,0,1.7,0c0.2,0,0.2,0.1,0.2,0.2c0,2.7,0,5.3,0,8
				C618.4,502.8,618.4,502.8,618.2,502.8z"/>
		</g>
	</g>
	<g class="st2">
		<text transform="matrix(1 0 0 1 472.2708 578.2009)" class="st8 st13 st36">LINEUP</text>
	</g>
	<g class="st2">
		<text transform="matrix(1 0 0 1 582.2796 578.2009)" class="st8 st13 st36">DETAILS</text>
	</g>
	<rect x="742.7" y="244.9" class="st37" width="166.1" height="29.4"/>
	<g class="st2">
		<text transform="matrix(1 0 0 1 786.1243 263.3551)" class="st8 st13 st38">EVENT TITLE/ INFO</text>
	</g>
	<circle class="st15" cx="825" cy="317.8" r="29.3"/>
	<g class="st2">
		<text transform="matrix(1 0 0 1 806.3107 318.3473)"><tspan x="0" y="0" class="st10 st13 st39">TICKETS</tspan><tspan x="8.4" y="8.4" class="st10 st13 st39">LINK</tspan></text>
	</g>
	<g class="st2">
		<path class="st8" d="M799.3,384h-18.7c-1.1,0-2-0.9-2-2v-18.7c0-1.1,0.9-2,2-2h18.7c1.1,0,2,0.9,2,2V382
			C801.3,383.1,800.4,384,799.3,384z"/>
		<path class="st10" d="M784.5,368.1c0,0,2.2,2.9,5.7,2.8c0,0-0.5-2.4,1.9-3.2c0,0,1.5-0.5,2.8,0.7c0,0,0.8-0.1,1.8-0.6
			c0,0-0.1,0.7-1.2,1.5c0,0,0.7,0,1.6-0.4c0,0-0.7,1-1.4,1.4c0,0,0.5,4.3-3.6,7.1c-4.1,2.8-8.5-0.1-8.5-0.1s2.1,0.4,4.1-1.1
			c0,0-1.9,0-2.6-1.9c0,0,0.5,0.2,1.2,0c0,0-2.2-0.6-2.2-2.8c0,0,0.8,0.4,1.2,0.3C785.3,371.7,783.3,370.3,784.5,368.1z"/>
	</g>
	<g class="st2">
		<path class="st8" d="M834.3,384h-18.7c-1.1,0-2-0.9-2-2v-18.7c0-1.1,0.9-2,2-2h18.7c1.1,0,2,0.9,2,2V382
			C836.3,383.1,835.4,384,834.3,384z"/>
	</g>
	<g class="st2">
		<path class="st8" d="M867.4,384h-18.7c-1.1,0-2-0.9-2-2v-18.7c0-1.1,0.9-2,2-2h18.7c1.1,0,2,0.9,2,2V382
			C869.4,383.1,868.5,384,867.4,384z"/>
	</g>
	<path class="st11" d="M822.7,376.3v7.6h3.3v-7.6h3.3v-3.5h-3.4v-1.4c0,0,0-0.8,0.8-0.9h2.7v-3.4h-2.8c0,0-3.1-0.2-3.8,3.8v1.8h-2.5
		v3.4L822.7,376.3z"/>
	<g id="PYQXZ5_16_" class="st2">
		<g>
			<path class="st10" d="M863.5,367.6c-0.1-0.2-0.3-0.2-0.5-0.2h-5c-1.7,0-3.3,0-5,0c-0.3,0-0.5,0.2-0.5,0.5c0,3.3,0,6.7,0,10
				c0,0.3,0.2,0.5,0.5,0.5h10c0.3,0,0.5-0.2,0.5-0.5c0-3.3,0-6.7,0-10C863.6,367.8,863.6,367.7,863.5,367.6z M860.4,368.5
				c0.3,0,0.7,0,1,0c0.3,0,0.6,0,1,0c0.1,0,0.1,0,0.1,0.1c0,0.7,0,1.3,0,2c0,0.1,0,0.1-0.1,0.1c-0.7,0-1.3,0-2,0
				c-0.1,0-0.1,0-0.1-0.1c0-0.7,0-1.3,0-2C860.3,368.5,860.3,368.5,860.4,368.5z M858.1,370.7c1.2,0,2.2,1,2.2,2.2
				c0,1.2-1,2.2-2.2,2.2c-1.2,0-2.2-1-2.2-2.2C855.9,371.7,856.9,370.7,858.1,370.7z M862.3,377.3c-1.4,0-2.8,0-4.3,0
				c-1.4,0-2.8,0-4.3,0c-0.1,0-0.1,0-0.1-0.1c0-1.6,0-3.1,0-4.7c0-0.1,0-0.1,0.1-0.1c0.3,0,0.6,0,0.9,0c0.1,0,0.1,0,0.1,0.1
				c-0.2,1.3,0.3,2.3,1.3,3.1c0.6,0.5,1.4,0.7,2.2,0.6c1-0.1,1.8-0.5,2.4-1.3c0.5-0.6,0.7-1.3,0.6-2.1c0-0.1,0-0.2,0-0.2
				c0-0.1,0-0.1,0.1-0.1c0.3,0,0.6,0,1,0c0.1,0,0.1,0,0.1,0.1c0,1.6,0,3.1,0,4.7C862.5,377.3,862.4,377.3,862.3,377.3z"/>
		</g>
	</g>
	<g class="st2">
		<text transform="matrix(1 0 0 1 812.5755 412.4997)" class="st8 st13 st40">LINEUP</text>
	</g>
	<g class="st2">
		<text transform="matrix(1 0 0 1 811.1526 426.5094)" class="st8 st13 st40">DETAILS</text>
	</g>
	<rect x="414.3" y="594.1" class="st41" width="282.7" height="222"/>
	<line class="st41" x1="414.3" y1="594.1" x2="697" y2="816.1"/>
	<line class="st41" x1="697" y1="594.1" x2="414.3" y2="816.1"/>
	<rect x="476.6" y="728.2" class="st42" width="149.3" height="50.3"/>
	<g class="st2">
		<text transform="matrix(1 0 0 1 494.6937 757.2897)" class="st8 st5 st36">FEATURED ARTIST</text>
	</g>
	<rect x="452.3" y="829.2" class="st43" width="206.9" height="36.6"/>
	<g class="st2">
		<text transform="matrix(1 0 0 1 506.3831 852.1013)" class="st8 st5" style="font-size:9.0197px;">EVENT TITLE/ INFO</text>
	</g>
	<g class="st2">
		<text transform="matrix(1 0 0 1 538.6917 953.0085)" class="st8 st5" style="font-size:9.285px;">SPONSORS</text>
	</g>
	<circle class="st15" cx="490.8" cy="1017.2" r="39.3"/>
	<line class="st44" x1="466.2" y1="986.8" x2="515.2" y2="1048.5"/>
	<line class="st44" x1="518.2" y1="987.6" x2="465.4" y2="1048.1"/>
	<circle class="st15" cx="627" cy="1017.2" r="39.3"/>
	<line class="st44" x1="600.3" y1="986.1" x2="654.2" y2="1050"/>
	<line class="st44" x1="657.2" y1="986.4" x2="599.6" y2="1051.1"/>
	<rect x="742.4" y="447.9" class="st45" width="165" height="129.6"/>
	<line class="st45" x1="742.4" y1="447.9" x2="907.4" y2="577.5"/>
	<line class="st45" x1="907.4" y1="447.9" x2="742.4" y2="577.5"/>
	<rect x="778.7" y="526.3" class="st46" width="87.2" height="29.4"/>
	<g class="st2">
		<text transform="matrix(1 0 0 1 790.678 543.2106)" class="st8 st13 st47">FEATURED ARTIST</text>
	</g>
	<rect x="742.2" y="581.2" class="st48" width="165.4" height="29.3"/>
	<g class="st2">
		<text transform="matrix(1 0 0 1 785.472 599.5524)" class="st8 st13 st49">EVENT TITLE/ INFO</text>
	</g>
	<g style="opacity:0.69;clip-path:url(#SVGID_2_);">
		<text transform="matrix(1 0 0 1 814.9798 657.4626)" class="st8 st5" style="font-size:5.4202px;">SPONSORS</text>
	</g>
	<circle class="st51" cx="787" cy="694.9" r="22.9"/>
	<line class="st52" x1="772.6" y1="677.2" x2="801.3" y2="713.2"/>
	<line class="st52" x1="803" y1="677.6" x2="772.2" y2="713"/>
	<circle class="st51" cx="866.5" cy="694.9" r="22.9"/>
	<line class="st52" x1="851" y1="676.8" x2="882.4" y2="714.1"/>
	<line class="st52" x1="884.2" y1="677" x2="850.5" y2="714.7"/>
	<rect x="742.4" y="22.4" class="st53" width="165.4" height="99"/>
	<rect x="804.8" y="30.3" class="st25" width="37.6" height="15.2"/>
	<g class="st2">
		<text transform="matrix(1 0 0 1 816.847 37.5563)" class="st3"><tspan x="0" y="0" class="st4 st5 st26">CITY </tspan><tspan x="0" y="4.8" class="st4 st5 st27">FOLK</tspan></text>
		<text transform="matrix(1 0 0 1 815.9935 37.5563)"><tspan x="0" y="0" class="st8 st5 st26">CITY </tspan><tspan x="0" y="4.8" class="st8 st5 st27">FOLK</tspan></text>
	</g>
	<g class="st2">
		<text transform="matrix(1 0 0 1 813.5775 56.2438)" class="st8 st5 st28">LINEUP</text>
	</g>
	<g class="st2">
		<text transform="matrix(1 0 0 1 811.7278 67.321)" class="st8 st5 st28">DETAILS</text>
	</g>
	<g class="st2">
		<text transform="matrix(1 0 0 1 812.1185 78.0514)" class="st8 st5 st28">TICKETS</text>
	</g>
	<g class="st2">
		<path class="st8" d="M809.4,101.8h-6c-1.1,0-2-0.9-2-2v-6c0-1.1,0.9-2,2-2h6c1.1,0,2,0.9,2,2v6
			C811.4,100.9,810.5,101.8,809.4,101.8z"/>
		<path class="st10" d="M804,94.8c0,0,1,1.3,2.5,1.2c0,0-0.2-1.1,0.8-1.4c0,0,0.7-0.2,1.2,0.3c0,0,0.4,0,0.8-0.3c0,0,0,0.3-0.5,0.7
			c0,0,0.3,0,0.7-0.2c0,0-0.3,0.4-0.6,0.6c0,0,0.2,1.9-1.6,3.1c-1.8,1.2-3.7,0-3.7,0s0.9,0.2,1.8-0.5c0,0-0.8,0-1.1-0.9
			c0,0,0.2,0.1,0.5,0c0,0-1-0.2-0.9-1.2c0,0,0.4,0.2,0.5,0.1C804.4,96.4,803.5,95.8,804,94.8z"/>
	</g>
	<g class="st2">
		<path class="st8" d="M824.7,101.8h-6c-1.1,0-2-0.9-2-2v-6c0-1.1,0.9-2,2-2h6c1.1,0,2,0.9,2,2v6
			C826.7,100.9,825.8,101.8,824.7,101.8z"/>
	</g>
	<g class="st2">
		<path class="st8" d="M839.2,101.8h-6c-1.1,0-2-0.9-2-2v-6c0-1.1,0.9-2,2-2h6c1.1,0,2,0.9,2,2v6
			C841.2,100.9,840.3,101.8,839.2,101.8z"/>
	</g>
	<path class="st11" d="M820.8,98.5v3.3h1.4v-3.3h1.4v-1.5h-1.5v-0.6c0,0,0-0.3,0.3-0.4h1.2v-1.5h-1.2c0,0-1.3-0.1-1.7,1.7v0.8h-1.1
		v1.5L820.8,98.5z"/>
	<g id="PYQXZ5_15_" class="st2">
		<g>
			<path class="st10" d="M838.7,94.6c0-0.1-0.1-0.1-0.2-0.1h-2.2c-0.7,0-1.5,0-2.2,0c-0.2,0-0.2,0.1-0.2,0.2c0,1.5,0,2.9,0,4.4
				c0,0.1,0.1,0.2,0.2,0.2h4.4c0.1,0,0.2-0.1,0.2-0.2c0-1.5,0-2.9,0-4.4C838.7,94.7,838.7,94.7,838.7,94.6z M837.3,95
				c0.1,0,0.3,0,0.4,0c0.1,0,0.3,0,0.4,0c0,0,0.1,0,0.1,0.1c0,0.3,0,0.6,0,0.9c0,0,0,0.1-0.1,0.1c-0.3,0-0.6,0-0.9,0
				c0,0-0.1,0-0.1-0.1C837.2,95.6,837.2,95.4,837.3,95C837.2,95,837.2,95,837.3,95z M836.3,96c0.5,0,1,0.4,1,1c0,0.5-0.4,1-1,1
				c-0.5,0-1-0.4-1-1C835.3,96.4,835.7,96,836.3,96z M838.1,98.9c-0.6,0-1.2,0-1.9,0c-0.6,0-1.2,0-1.9,0c0,0-0.1,0-0.1-0.1
				c0-0.7,0-1.4,0-2c0,0,0-0.1,0.1-0.1c0.1,0,0.3,0,0.4,0c0,0,0,0,0,0c-0.1,0.6,0.1,1,0.6,1.3c0.3,0.2,0.6,0.3,1,0.3
				c0.4,0,0.8-0.2,1-0.6c0.2-0.3,0.3-0.6,0.3-0.9c0,0,0-0.1,0-0.1c0,0,0-0.1,0-0.1c0.1,0,0.3,0,0.4,0c0,0,0.1,0,0.1,0.1
				C838.2,97.4,838.2,98.1,838.1,98.9C838.2,98.9,838.2,98.9,838.1,98.9z"/>
		</g>
	</g>
</g>
</svg>
