<?xml version="1.0" encoding="utf-8"?>
<!-- Generator: Adobe Illustrator 19.2.0, SVG Export Plug-In . SVG Version: 6.00 Build 0)  -->
<svg version="1.1" id="Layer_1" xmlns="http://www.w3.org/2000/svg" xmlns:xlink="http://www.w3.org/1999/xlink" x="0px" y="0px"
	 viewBox="0 0 275.9 245.5" style="enable-background:new 0 0 275.9 245.5;" xml:space="preserve">
<style type="text/css">
	.st0{fill:#00B2B0;}
	.st1{opacity:0.32;}
	.st2{fill:#4F4F4F;}
	.st3{font-family:'Montserrat-Black';}
	.st4{font-size:51.2896px;}
	.st5{letter-spacing:2;}
	.st6{font-size:47.0435px;}
	.st7{fill:#ACACAC;}
	.st8{fill:#FFFFFF;}
	.st9{opacity:0.32;fill:#4F4F4F;}
	.st10{fill:#636363;}
	.st11{fill:#6D6D6D;}
	.st12{fill:none;stroke:#6D6D6D;stroke-width:0.4448;stroke-miterlimit:10;}
</style>
<path class="st0" d="M172.6,8.9v154.8c0,4.9-4,8.9-8.9,8.9H56.1l-35,32.7l-1-32.7H8.9c-4.9,0-8.9-4-8.9-8.9V8.9C0,4,4,0,8.9,0h154.8
	C168.6,0,172.6,4,172.6,8.9z"/>
<g>
	<text transform="matrix(1 0 0 1 30.9638 74.7905)" class="st1"><tspan x="0" y="0" class="st2 st3 st4 st5">CITY </tspan><tspan x="0" y="39.9" class="st2 st3 st6">FOLK</tspan></text>
	<text transform="matrix(1 0 0 1 23.8691 74.7905)"><tspan x="0" y="0" class="st7 st3 st4 st5">CITY </tspan><tspan x="0" y="39.9" class="st7 st3 st6">FOLK</tspan></text>
</g>
<g>
	<path class="st7" d="M270.9,115.4c-0.2,1.1-3.3-4.6-3.3-4.6l-0.4,0.1c0,0,1.4,3.8,1.9,5.1c0.1,0.3,0.8,1.8-0.6,0.4
		c-1-0.9-2.6-4.7-2.6-4.7L265,112c0,0,1.6,3.7,2.2,5c0.1,0.3,0.9,2.4-0.6,0.5c-0.9-1.2-2.5-5.3-2.5-5.3l-0.8,0.4
		c0,0,1.3,3.9,1.7,5.2c0.1,0.4,0.8,2.3-0.5,0.6c-1.3-1.7-3.4-7.7-3.4-7.7s-1.7-1.3-1.8,2.2c-0.1,3.6-0.4,3.9-0.4,3.9
		s-0.3,1.1-0.7,0.1l-0.6-7.4l1.6-4.5c0,0-4.5-19.8-38.9-29.4c-1.8-0.5-6.8,1.5-3.3,6.6c0.8,1.2,3.3,3.2,3.3,4.5c0,0-1.8-1-2.5-1.2
		c-0.6-0.1-2.5-0.1,0.1,2.5c2.6,2.6,3.7,5.4,3.7,5.4s-2-1.4-2.8-1.7c-0.5-0.2-2.1-0.4-0.8,2c1.3,2.3,2.9,7,3,7.3
		c-0.2-0.2-1.8-1.8-2.6-1.9c-0.7-0.1-1.8,0.5-0.8,2.6c1,2,3.1,6.4,3.3,6.6c-0.2-0.1-1.8-1.5-2.5-1.7c-0.6-0.1-2.3,0.6-0.9,2.3
		c1.3,1.6,4.6,6.1,4.8,6.4c-0.1-0.1-2.5-1.4-3.3-1.7c-0.6-0.2-2.1-0.5-0.6,2.5c1.5,3,3.3,6.3,3.3,6.3s-2.3-1.5-3.1-1.9
		c-0.3-0.1-1.3-0.5-0.5,1.3c0.7,1.7,3.4,6.4,3.6,6.7c-0.3-0.2-2.5-2-3.4-2.2c-0.5-0.1-2.2,0.4-1,1.7c1.2,1.2,2.7,5.6,2.8,6
		c-0.2-0.2-2-1.9-2.8-2.3c-0.4-0.3-1.9-0.8-0.3,2c1.5,2.8,2.4,7.6,2.4,7.6s-1.9-2.8-2.9-3.3c-0.5-0.3-1.9-0.3-0.4,2.1
		c1.5,2.5,1.6,5.8,1.6,5.8s-1.9-2.6-2.7-3.2c-0.5-0.3-2.1-0.6,0,2.5c2.1,3.1,1.9,5.8,1.9,5.8s-1.9-2.5-2.7-3.2
		c-0.6-0.5-2.2-1-0.5,3.1c1.7,4.1,0.8,5.4,0.8,5.4s-1.1-2.2-1.7-2.8c-0.3-0.3-1.2-0.9-0.8,1.4c0.4,2.3,0.5,3.6,0.5,3.6
		s-2.4-3.2-2.4-1.7c0,1.5,0,4.3,0,4.3s3.6-0.2,3,2.9c-0.5,2.6-4.2,1.5-4.2,1.5l-14.6,35.9l-1.6,33.6c0,0,0,4.3-3.8,6
		c-4.5,2-20.4,2.1-28.8,1.9c-0.7,0-0.6-0.5,2.4-1.7c3-1.2-2.4-0.5-3.2-0.7c-0.9-0.2-0.4-1.1,3.5-1c0.7,0-1.3-1.5-2.6-1.4
		c-1.3,0-0.8-0.7,0.7-0.7c1.5-0.1,20.8-2.1,21.5-4.6c0.7-2.5,0.7-12,0.3-16.5c-0.4-4.5-2.2-17.7-2.2-17.7l5.6-23.2
		c0,0,0.7-2-4.1-2.1c-4.9-0.1-9.7-0.2-9.7-0.2s-1.9-0.4-2.9,2.2c-1,2.6-8.2,19.5-7.9,20.2c0.4,0.7,11,26.6,14.2,28.5
		c3.2,1.9-8,9.2-8,9.2s-7.1-1.4-12,2.2c0,0-0.7,0.5-0.9,0.6c-0.5,0.2-1.4,0.1,1-1.7c0,0,1.2-1-0.5-0.6c-1.7,0.3-1.7,1-2.3,0.7
		c-0.2-0.1-0.1-0.8,0-1.1c0.4-0.6,2.6-0.9,2.6-0.9s-2.3,0-3-0.2c-2.9-0.8-1.1-0.5,10.6-5.2c0,0,4.6-2.2,2-5.1
		c-2.6-2.9-16.1-23.5-16.1-23.5l4.1-28.3c0,0,0.6-1.4-1.8,0.2l-1.6,0.9c0.2-0.3,3.2-4.5,4-6.1c0.1-0.3,0.4-1-1-0.8
		c-1.3,0.2-2.5,1.7-2.6,1.9c0.1-0.4,1.6-4.9,3.6-6.4c2.1-1.6,0-2.1-0.4-1.6c-0.3,0.5-2.3,1.5-2.5,1.6c0.3-0.4,4-4.7,4.8-6.5
		c0.2-0.5,0.2-2.3-2.1-0.6c-0.4,0.3-1.5,1.3-1.6,1.4c0.1-0.3,2-3.5,2.5-4.7c0.1-0.4,0.5-2.5-1.5-0.9c-1.5,1.2-1.9,1.5-2,1.6
		c0.2-0.3,2.6-4.5,3.6-5.8c0.3-0.4,1.4-2.7-0.3-1.8c-1.3,0.6-2.5,2-2.6,2.2c0.1-0.3,2.3-4.2,3.5-5.4c0.4-0.4,1.1-2.7-1.1-2
		c-2.3,0.8-2.5,0.9-2.5,0.9s4.5-4.2,5.4-6c0.3-0.5,0.5-1.8-1.7-1.4l-2.2,1.6c0.3-0.4,3-3.7,3.5-5.1c0.2-0.4,0.3-1.9-1.2-1.3
		c-1.3,0.5-1.9,1.1-2.1,1.2c0.2-0.3,2.4-3.8,2.9-5.1c0.3-0.9,0.6-2.7-3.8,0.7c-4.4,3.3-13,6.4-31.9,0.7l0.7-3.4c0,0,0,0,0,0
		c-0.4-0.8-2.3-4.6-2.6-5.7c-0.3-1.2,0.6-0.5,0.6-0.5c0.4,0.8,2.3,3.3,2.7,4l0,0c1.8,1.3,12.3,8.2,25.3,2.8c14.3-6,11-14.9,11-14.9
		s-0.4-1.4-2,0.2l-1.1,1.2c0.3-0.4,2.5-3.7,3.2-4.8c0.3-0.5,1.6-2.8-1.2-2.1c-0.7,0.2-2.7,1.3-2.7,1.3s2.5-2.8,3.2-3.8
		c0.4-0.6,1.6-2.9-1.6-2.3l-2.3,1c0,0,3.2-2.7,3.8-3.9c0.4-0.7,0.8-3.6-1-3c-1.4,0.5-2.5,1.6-2.9,2.1c0.8-1.1,4.5-5.7,3.7-6.5
		c-0.9-0.9-3.7,1.9-3.7,1.9s1.1-3.1,3.1-8.2c0.2-0.4,0.1-1.6-1.6-1c-1.5,0.5-2.6,2.5-2.8,2.9c0.2-0.7,2.3-7.2,1.7-8.3
		c-0.6-1.1-2.6,1.4-2.8,1.7c0.2-0.4,2.5-5.6,2.9-7.5c0.1-0.4,0.1-1.9-1.7,0.2c-0.4,0.4-1.4,1.7-1.5,1.9c0.1-0.4,2.4-6.1,3.2-8.1
		c0.2-0.4,0.8-1.9-1.3-1.3c-1.6,0.5-2.5,1.3-2.8,1.6c0.5-0.7,2.5-3.6,3.1-5.3c0.6-2-1.3-4.9-5.3-4.5c-4,0.3-8-2-8.5-4.7
		c0,0,14.5-0.2,16.2-4.7c0,0-3.3-2.4-4.3-1.2c-0.7,0.9-1.1,1.4-1.1,1.4l-0.9-2.1l-1.8,0l-1.1,1.7l-0.9-1.8l-1,0l-1.5,1.6l-0.9-1.8
		l-1-0.1l-1.2,1.4l-0.5-2.7h-1.2c0,0-3.9-3.5-2.6-7.7l17.8-2.3c0,0,2.7-2.1,1.8-5.5l14.1-1c0,0-0.2-13.4,12.8-11.4l0.8,10.1
		c0,0,3.7-0.2,7.1,0.6c0,0,0.8-9.3,9.7-8.1c1.2,0.2,3.6,0.5,3.7,3.1l0.4,12.4l7.9,10.1c0,0-2.3-1-3.1-1.2c-0.5-0.1-2.3-0.1,0.1,2.2
		c2.2,2.2,3.9,4.8,4.1,5.1c-0.4-0.2-4.2-2.8-3.9-1.1c0.4,1.7,4.5,7.5,4.7,7.9c-0.3-0.2-4-3.3-4.1-2.6c-0.1,0.7,4.4,7.9,4.4,7.9
		s-2.4-1.7-3.3-1.8c-0.4,0-1.6,0.4,0,1.6c1.6,1.2,3.4,3.1,3.4,3.1s-1.5-0.2-2-0.1c-0.4,0.1-0.9,0.5,0.5,1.5c1.4,0.9,3.1,2.9,3.3,3.1
		c-0.2-0.1-2-1-2.7-1.1c-0.5,0-1.6,0.3,0.1,1.9c1.7,1.6,2.8,3.2,2.8,3.2s-2.1-0.3-2.7-0.1c-0.4,0.1-1,0.8,0.5,1.4
		c14,5.6,40,10.1,49.1,34.8l3,0.2c0,0,2.2,4.7,2.6,5.9C268.6,110.1,271.1,114.2,270.9,115.4z"/>
	<path class="st8" d="M134.6,31.9c0,0,0.7,1.1,4,0.1l-0.1-2.3l-3.8,0.2L134.6,31.9z"/>
	<path class="st8" d="M192.1,21.1c0,0,0.3-7.4,8-6.3c0,0,1.4,0.2,1.4,1l-0.1,11.5L192.1,21.1z"/>
	<path class="st9" d="M139.5,34.1c0,0,0.7,1.1,4,0.1l-0.1-2.3l-3.8,0.2L139.5,34.1z"/>
	<path class="st9" d="M275.9,117.6c-0.2,1.1-3.2-4.6-3.2-4.6l-0.4,0.3c0,0,1.6,3.7,2.2,5c0.1,0.3,0.6,1.8-0.9,0.5
		c-1-0.9-2.6-4.7-2.6-4.7l-0.9,0.3c0,0,1.7,3.5,2.2,4.8c0.1,0.3,0.8,2.6-0.6,0.7c-0.9-1.2-2.5-5.3-2.5-5.3l-0.8,0.4
		c0,0,1.3,3.7,1.7,5.1c0.1,0.4,0.7,2.5-0.6,0.8c-1.3-1.7-3.4-7.7-3.4-7.7s-2.3-1.2-1.8,2.2c0.6,3.4,0.3,3.8,0.3,3.8
		s-0.2,1.3-0.9,0.1l-1.1-7.3l1.6-4.5c0,0-4.5-19.8-38.9-29.4c-1.8-0.5-6.8,1.5-3.3,6.6c0.8,1.2,3.3,3.2,3.3,4.5c0,0-1.8-1-2.5-1.2
		c-0.6-0.1-2.5-0.1,0.1,2.5c2.6,2.6,3.7,5.4,3.7,5.4s-2-1.4-2.8-1.7c-0.5-0.2-2.1-0.4-0.8,2c1.3,2.3,2.9,7,3,7.3
		c-0.2-0.2-1.8-1.8-2.6-1.9c-0.7-0.1-1.8,0.5-0.8,2.6c1,2,3.1,6.4,3.3,6.6c-0.2-0.1-1.8-1.5-2.5-1.7c-0.6-0.1-2.3,0.6-0.9,2.3
		c1.3,1.6,4.6,6.1,4.8,6.4c-0.1-0.1-2.5-1.4-3.3-1.7c-0.6-0.2-2.1-0.5-0.6,2.5c1.5,3,3.3,6.3,3.3,6.3s-2.3-1.5-3.1-1.9
		c-0.3-0.1-1.3-0.5-0.5,1.3c0.7,1.7,3.4,6.4,3.6,6.7c-0.3-0.2-2.5-2-3.4-2.2c-0.5-0.1-2.2,0.4-1,1.7c1.2,1.2,2.7,5.6,2.8,6
		c-0.2-0.2-2-1.9-2.8-2.3c-0.4-0.3-1.9-0.8-0.3,2c1.5,2.8,2.4,7.6,2.4,7.6s-1.9-2.8-2.9-3.3c-0.5-0.3-1.9-0.3-0.4,2.1
		c1.5,2.5,1.6,5.8,1.6,5.8s-1.9-2.6-2.7-3.2c-0.5-0.3-2.1-0.6,0,2.5c2.1,3.1,1.9,5.8,1.9,5.8s-1.9-2.5-2.7-3.2
		c-0.6-0.5-2.2-1-0.5,3.1c1.7,4.1,0.8,5.4,0.8,5.4s-1.1-2.2-1.7-2.8c-0.3-0.3-1.2-0.9-0.8,1.4c0.4,2.3,0.5,3.6,0.5,3.6
		s-2.4-3.2-2.4-1.7c0,1.5,0,4.3,0,4.3s3.6-0.2,3,2.9c-0.5,2.6-4.2,1.5-4.2,1.5l-14.6,35.9l-1.6,33.6c0,0,0,4.3-3.8,6
		c-4.5,2-20.4,2.1-28.8,1.9c-0.7,0-0.6-0.5,2.4-1.7c3-1.2-2.4-0.5-3.2-0.7c-0.9-0.2-0.4-1.1,3.5-1c0.7,0-1.3-1.5-2.6-1.4
		c-1.3,0-0.8-0.7,0.7-0.7c1.5-0.1,20.8-2.1,21.5-4.6c0.7-2.5,0.7-12,0.3-16.5s-2.2-17.7-2.2-17.7l5.6-23.2c0,0,0.7-2-4.1-2.1
		c-4.9-0.1-9.7-0.2-9.7-0.2s-1.9-0.4-2.9,2.2c-1,2.6-8.2,19.5-7.9,20.2c0.4,0.7,11,26.6,14.2,28.5c3.2,1.9-8,9.2-8,9.2
		s-7.1-1.4-12,2.2c0,0-0.7,0.5-0.9,0.6c-0.5,0.2-1.4,0.1,1-1.7c0,0,1.2-1-0.5-0.6c-1.7,0.3-1.7,1-2.3,0.7c-0.2-0.1-0.1-0.8,0-1.1
		c0.4-0.6,2.6-0.9,2.6-0.9s-2.3,0-3-0.2c-2.9-0.8-1.1-0.5,10.6-5.2c0,0,4.6-2.2,2-5.1c-2.6-2.9-16.1-23.5-16.1-23.5l4.1-28.3
		c0,0,0.6-1.4-1.8,0.2l-1.6,0.9c0.2-0.3,3.2-4.5,4-6.1c0.1-0.3,0.4-1-1-0.8c-1.3,0.2-2.5,1.7-2.6,1.9c0.1-0.4,1.6-4.9,3.6-6.4
		c2.1-1.6,0-2.1-0.4-1.6c-0.3,0.5-2.3,1.5-2.5,1.6c0.3-0.4,4-4.7,4.8-6.5c0.2-0.5,0.2-2.3-2.1-0.6c-0.4,0.3-1.5,1.3-1.6,1.4
		c0.1-0.3,2-3.5,2.5-4.7c0.1-0.4,0.5-2.5-1.5-0.9c-1.5,1.2-1.9,1.5-2,1.6c0.2-0.3,2.6-4.5,3.6-5.8c0.3-0.4,1.4-2.7-0.3-1.8
		c-1.3,0.6-2.5,2-2.6,2.2c0.1-0.3,2.3-4.2,3.5-5.4c0.4-0.4,1.1-2.7-1.1-2c-2.3,0.8-2.5,0.9-2.5,0.9s4.5-4.2,5.4-6
		c0.3-0.5,0.5-1.8-1.7-1.4l-2.2,1.6c0.3-0.4,3-3.7,3.5-5.1c0.2-0.4,0.3-1.9-1.2-1.3c-1.3,0.5-1.9,1.1-2.1,1.2
		c0.2-0.3,2.4-3.8,2.9-5.1c0.3-0.9,0.6-2.7-3.8,0.7c-4.4,3.3-16.9,3.4-35.8-2.3l4.6-0.4c0,0,0,0,0,0c-0.4-0.8-2.3-4.6-2.6-5.7
		c-0.3-1.2,0.6-0.5,0.6-0.5c0.4,0.8,2.3,3.3,2.7,4l0,0c1.8,1.3,11.7,5.6,25.3,2.8c15.2-3.2,11-14.9,11-14.9s-0.4-1.4-2,0.2l-1.1,1.2
		c0.3-0.4,2.5-3.7,3.2-4.8c0.3-0.5,1.6-2.8-1.2-2.1c-0.7,0.2-2.7,1.3-2.7,1.3s2.5-2.8,3.2-3.8c0.4-0.6,1.6-2.9-1.6-2.3l-2.3,1
		c0,0,3.2-2.7,3.8-3.9c0.4-0.7,0.8-3.6-1-3c-1.4,0.5-2.5,1.6-2.9,2.1c0.8-1.1,4.5-5.7,3.7-6.5c-0.9-0.9-3.7,1.9-3.7,1.9
		s1.1-3.1,3.1-8.2c0.2-0.4,0.1-1.6-1.6-1c-1.5,0.5-2.6,2.5-2.8,2.9c0.2-0.7,2.3-7.2,1.7-8.3c-0.6-1.1-2.6,1.4-2.8,1.7
		c0.2-0.4,2.5-5.6,2.9-7.5c0.1-0.4,0.1-1.9-1.7,0.2c-0.4,0.4-1.4,1.7-1.5,1.9c0.1-0.4,2.4-6.1,3.2-8.1c0.2-0.4,0.8-1.9-1.3-1.3
		c-1.6,0.5-2.5,1.3-2.8,1.6c0.5-0.7,2.5-3.6,3.1-5.3c0.6-2-1.3-4.9-5.3-4.5c-4,0.3-8-2-8.5-4.7c0,0,14.5-0.2,16.2-4.7
		c0,0-3.3-2.4-4.3-1.2c-0.7,0.9-1.1,1.4-1.1,1.4l-0.9-2.1l-1.8,0l-1.1,1.7l-0.9-1.8l-1,0l-1.5,1.6l-0.9-1.8l-1-0.1l-1.2,1.4
		l-0.5-2.7h-1.2c0,0-3.9-3.5-2.6-7.7l17.8-2.3c0,0,2.7-2.1,1.8-5.5l14.1-1c0,0-0.2-13.4,12.8-11.4l0.8,10.1c0,0,3.7-0.2,7.1,0.6
		c0,0,0.8-9.3,9.7-8.1c1.2,0.2,3.6,0.5,3.7,3.1l0.4,12.4l7.9,10.1c0,0-2.3-1-3.1-1.2c-0.5-0.1-2.3-0.1,0.1,2.2
		c2.2,2.2,3.9,4.8,4.1,5.1c-0.4-0.2-4.2-2.8-3.9-1.1c0.4,1.7,4.5,7.5,4.7,7.9c-0.3-0.2-4-3.3-4.1-2.6c-0.1,0.7,4.4,7.9,4.4,7.9
		s-2.4-1.7-3.3-1.8c-0.4,0-1.6,0.4,0,1.6c1.6,1.2,3.4,3.1,3.4,3.1s-1.5-0.2-2-0.1c-0.4,0.1-0.9,0.5,0.5,1.5c1.4,0.9,3.1,2.9,3.3,3.1
		c-0.2-0.1-2-1-2.7-1.1c-0.5,0-1.6,0.3,0.1,1.9c1.7,1.6,2.8,3.2,2.8,3.2s-2.1-0.3-2.7-0.1c-0.4,0.1-1,0.8,0.5,1.4
		c14,5.6,40,10.1,49.1,34.8l2.7,0.2c0,0,2.3,4.4,2.8,5.6C273.5,112.2,276,116.5,275.9,117.6z"/>
	<g>
		<path class="st10" d="M237.3,92.5c12.8,12.6,8.3,34.7,8.3,34.7s-0.5,14.8-13.9,21.5c-13.4,6.7-29.2-5.1-32.6-7.9
			c-3.8-3-9.1-0.7-9.1-0.7c-9.2,3.1-14.6,1.4-14.6,1.4c-9.9-1.9-10.9-15.3-10.9-15.3s-0.1-1.1-0.2-3c-2.7,0-46.5-0.1-49.6-0.3
			c-0.1,0-0.1,0-0.2,0c-3.1-0.2-4.9,2.3-4.9,2.3c-6.6-1.7-21.3,0.9-21.3,0.9c0.6-1.9,0.1-4.2-0.7-5.2c-0.8-1,0.1-2.1,0.1-2.1
			c-0.8-0.9,0.1-2.3,0.1-2.3c1.4-2.1,0.6-4.5,0.5-4.7c3.9,1.8,21.6,1.2,21.6,1.2c0.8,1.8,4.5,2,4.5,2l49.9-0.3l0,0
			c0.3-4.6,1.2-8.8,3.4-13c4.9-9.2,19.9-4.7,24.6-3.6c4.6,1,10.4-3.8,10.4-3.8S224.5,79.9,237.3,92.5z"/>
		<circle class="st11" cx="191.3" cy="119.2" r="10.9"/>
		<circle class="st2" cx="191.5" cy="119" r="8.4"/>
		<path class="st11" d="M220.9,105.4c0,0,0,1.3-1,1.5c-1.1,0.2-1.8,1.7-1.8,1.7v21.2c0,0,0.3,1.1,1.3,1.3c1,0.3,1.4,0.6,1.5,1.7
			c0,0,1.6,0.5,2.4-0.6v-26.5C223.3,105.7,222.1,104.7,220.9,105.4z M221.1,122.4c0,0.3-0.3,0.6-0.6,0.6c-0.3,0-0.6-0.3-0.6-0.6
			c0-0.3,0.3-0.6,0.6-0.6C220.8,121.8,221.1,122,221.1,122.4z M221.1,121c0,0.3-0.3,0.6-0.6,0.6c-0.3,0-0.6-0.3-0.6-0.6
			s0.3-0.6,0.6-0.6C220.8,120.4,221.1,120.7,221.1,121z M221.1,119.6c0,0.3-0.3,0.6-0.6,0.6c-0.3,0-0.6-0.3-0.6-0.6
			c0-0.3,0.3-0.6,0.6-0.6C220.8,119.1,221.1,119.3,221.1,119.6z M221.1,118.2c0,0.3-0.3,0.6-0.6,0.6c-0.3,0-0.6-0.3-0.6-0.6
			c0-0.3,0.3-0.6,0.6-0.6C220.8,117.7,221.1,117.9,221.1,118.2z M221.1,116.9c0,0.3-0.3,0.6-0.6,0.6c-0.3,0-0.6-0.3-0.6-0.6
			c0-0.3,0.3-0.6,0.6-0.6C220.8,116.3,221.1,116.6,221.1,116.9z M221.1,115.5c0,0.3-0.3,0.6-0.6,0.6c-0.3,0-0.6-0.3-0.6-0.6
			c0-0.3,0.3-0.6,0.6-0.6C220.8,114.9,221.1,115.2,221.1,115.5z"/>
		<path class="st2" d="M104.9,126.7L104,127v1.5c0,0.3,0.2,0.5,0.4,0.6c0.5,0.2,1.4,0.3,2.3-0.2c0.2-0.1,0.3-0.3,0.3-0.5l0-1.4
			l-1-0.3v-2h-1.1C104.9,124.7,105,126.4,104.9,126.7z"/>
		<path class="st2" d="M99.5,126.7l-0.9,0.3v1.5c0,0.3,0.2,0.5,0.4,0.6c0.5,0.2,1.4,0.3,2.3-0.2c0.2-0.1,0.3-0.3,0.3-0.5l0-1.4
			l-1-0.3v-2h-1.1C99.5,124.7,99.5,126.4,99.5,126.7z"/>
		<path class="st2" d="M94.5,126.7l-0.9,0.3v1.5c0,0.3,0.2,0.5,0.4,0.6c0.5,0.2,1.4,0.3,2.3-0.2c0.2-0.1,0.3-0.3,0.3-0.5l0-1.4
			l-1-0.3v-2h-1.1C94.5,124.7,94.5,126.4,94.5,126.7z"/>
		<path class="st2" d="M95.7,111.1l0.9-0.3v-1.5c0-0.3-0.2-0.5-0.4-0.6c-0.5-0.2-1.4-0.3-2.3,0.2c-0.2,0.1-0.3,0.3-0.3,0.5l0,1.4
			l1,0.3v2h1.1C95.7,113,95.7,111.3,95.7,111.1z"/>
		<path class="st2" d="M101.2,111.1l0.9-0.3v-1.5c0-0.3-0.2-0.5-0.4-0.6c-0.5-0.2-1.4-0.3-2.3,0.2c-0.2,0.1-0.3,0.3-0.3,0.5l0,1.4
			l1,0.3v2h1.1C101.2,113,101.2,111.3,101.2,111.1z"/>
		<path class="st2" d="M106.1,111.1l0.9-0.3v-1.5c0-0.3-0.2-0.5-0.4-0.6c-0.5-0.2-1.4-0.3-2.3,0.2c-0.2,0.1-0.3,0.3-0.3,0.5l0,1.4
			l1,0.3v2h1.1C106.1,113,106.1,111.3,106.1,111.1z"/>
		<circle class="st11" cx="105.4" cy="121.6" r="1.3"/>
		<circle class="st11" cx="105.4" cy="116.2" r="1.3"/>
		<circle class="st11" cx="100" cy="116.2" r="1.3"/>
		<circle class="st11" cx="100" cy="121.6" r="1.3"/>
		<circle class="st11" cx="94.6" cy="121.6" r="1.3"/>
		<circle class="st11" cx="94.6" cy="116.5" r="1.3"/>
		<line class="st12" x1="95.9" y1="121.6" x2="220.5" y2="121.6"/>
		<line class="st12" x1="95.3" y1="116.2" x2="220.5" y2="116.2"/>
		<line class="st12" x1="100" y1="120.4" x2="220.5" y2="120.4"/>
		<line class="st12" x1="100" y1="117.5" x2="220.5" y2="117.5"/>
		<line class="st12" x1="99.9" y1="119.1" x2="220.7" y2="119"/>
	</g>
	<circle class="st8" cx="164.7" cy="36.7" r="3.7"/>
	<path class="st7" d="M112.9,123.4c0,0,3.6,2.4,8.5,0c0,0-0.6-4.1-0.6-5.5c0-0.2-0.6-1.7-0.7,0c-0.1,1.6-0.7,2.2-0.7,2.2l-0.2,0
		c0,0-0.3-1.5-0.4-2.1c0-0.2-0.2-1.5-0.7-0.3c-0.2,0.6-0.4,2.4-0.4,2.4l-0.3,0c0,0-0.1-1.8-0.3-2.4c-0.1-0.3-0.1-1.1-0.5,0.2
		c-0.2,0.6-0.4,2.3-0.4,2.3h-0.3c0,0-0.4-2.2-0.5-2.8c0-0.2-0.1,0-0.8,0.8C114,119,112.9,123.4,112.9,123.4z"/>
	<path class="st9" d="M112.9,122.2c0,0,3.6,2.4,8.5,0c0,0-0.6-4.1-0.6-5.5c0-0.2-0.6-1.7-0.7,0c-0.1,1.6-0.7,2.2-0.7,2.2l-0.2,0
		c0,0-0.3-1.5-0.4-2.1c0-0.2-0.2-1.5-0.7-0.3c-0.2,0.6-0.4,2.4-0.4,2.4l-0.3,0c0,0-0.1-1.8-0.3-2.4c-0.1-0.3-0.1-1.1-0.5,0.2
		c-0.2,0.6-0.4,2.3-0.4,2.3h-0.3c0,0-0.4-2.2-0.5-2.8c0-0.2-0.1,0-0.8,0.8C114,117.7,112.9,122.2,112.9,122.2z"/>
</g>
</svg>
