<?xml version="1.0" encoding="utf-8"?>
<!-- Generator: Adobe Illustrator 19.2.0, SVG Export Plug-In . SVG Version: 6.00 Build 0)  -->
<svg version="1.1" id="Layer_1" xmlns="http://www.w3.org/2000/svg" xmlns:xlink="http://www.w3.org/1999/xlink" x="0px" y="0px"
	 viewBox="0 0 145.7 234.8" style="enable-background:new 0 0 145.7 234.8;" xml:space="preserve">
<style type="text/css">
	.st0{fill:#0098A5;}
	.st1{opacity:0.81;fill:#FFFFFF;}
	.st2{opacity:0.81;fill:none;stroke:#FFFFFF;stroke-width:1.2158;stroke-miterlimit:10;}
</style>
<g>
	<path class="st0" d="M136.2,99.8c0,37.4-28.4,67.8-63.5,67.8S9.2,137.3,9.2,99.8S72.7,0,72.7,0S136.2,62.4,136.2,99.8z"/>
	<path class="st0" d="M49,217.6c0,0-7.8,16.5,3.8,17.1s4.9-12.8,3.2-16l-1.2-57.7l-5.5-1.2L49,217.6z"/>
	<path class="st0" d="M89.6,163.7v56.6c0,0-3.8,6.4,2,9.9c5.8,3.5,10.2,6.4,13.6,2.3c3.5-4.1-3.8-13.3-9-14.8L95.7,157L89.6,163.7z"
		/>
	<path class="st0" d="M17.1,111.9c0,0-12.4,13.6-8.5,27.6c0,0,0.2,3.5,3.5,4.9c0,0,1.2,1.3-1.6,1.3s-3.3-3-3.3-3s-1.2-1.7-1.9,0.8
		c-0.7,2.5-0.5,5.9-0.5,5.9s-0.7,3.4-4.4-2.3c0,0-2.1-4.4,3.2-13c0,0,7.6-28.3,10.5-29.1L17.1,111.9z"/>
	<path class="st0" d="M128.9,114.4c0,0,12.2,13.6,8.3,27.6c0,0-0.2,3.5-3.5,4.9c0,0-1.2,1.3,1.6,1.3s3.3-3,3.3-3s1.2-1.7,1.9,0.8
		c0.7,2.5,0.5,5.9,0.5,5.9s0.7,3.4,4.3-2.3c0,0,2.1-4.4-3.1-13c0,0-7.4-28.3-10.4-29.1L128.9,114.4z"/>
	<circle class="st1" cx="63.5" cy="93.7" r="1.7"/>
	<circle class="st1" cx="77.7" cy="93.7" r="1.7"/>
	<path class="st2" d="M66.6,102.7c0,0,4.7,2.1,8.3-1.5"/>
</g>
</svg>
