<?xml version="1.0" encoding="utf-8"?>
<!-- Generator: Adobe Illustrator 19.1.0, SVG Export Plug-In . SVG Version: 6.00 Build 0)  -->
<svg version="1.1" id="Layer_1" xmlns="http://www.w3.org/2000/svg" xmlns:xlink="http://www.w3.org/1999/xlink" x="0px" y="0px"
	 viewBox="-27 28.3 160.8 161.7" style="enable-background:new -27 28.3 160.8 161.7;" xml:space="preserve">
<style type="text/css">
	.st0{fill:none;stroke:#484849;stroke-width:14;stroke-miterlimit:10;}
	.st1{fill:none;stroke:#484849;stroke-width:12;stroke-miterlimit:10;}
</style>
<path class="st0" d="M113.8,155H-6.4c-7.4,0-13.3-5.5-13.3-12.2V66.4c0-6.8,6-12.2,13.3-12.2h120.2c7.4,0,13.3,5.5,13.3,12.2v76.4
	C127.1,149.6,121.2,155,113.8,155z"/>
<path class="st1" d="M-19.2,63.3L29,107.2l12.5,11.4c2.7,2.5,6,4.4,9.6,5.2c4.1,1,9.4,1,13.8-3c8.8-8.1,59.9-60,59.9-60 M-16,152.2
	L33.5,107 M120.5,150.5l-42.2-40.8"/>
</svg>
