<?xml version="1.0" encoding="utf-8"?>
<!-- Generator: Adobe Illustrator 19.1.0, SVG Export Plug-In . SVG Version: 6.00 Build 0)  -->
<svg version="1.1" id="Layer_1" xmlns="http://www.w3.org/2000/svg" xmlns:xlink="http://www.w3.org/1999/xlink" x="0px" y="0px"
	 viewBox="-225 316.3 160.8 161.7" style="enable-background:new -225 316.3 160.8 161.7;" xml:space="preserve">
<style type="text/css">
	.st0{fill:none;stroke:#282828;stroke-width:14;stroke-miterlimit:10;}
</style>
<path class="st0" d="M-84.2,443.2h-120.2c-7.4,0-13.3-5.5-13.3-12.2v-76.4c0-6.8,6-12.2,13.3-12.2h120.2c7.4,0,13.3,5.5,13.3,12.2
	V431C-70.9,437.8-76.8,443.2-84.2,443.2z"/>
<path class="st0" d="M-217.2,351.5l48.2,43.9l12.5,11.4c2.7,2.5,6,4.4,9.6,5.2c4.1,1,9.4,1,13.8-3c8.8-8.1,59.9-60,59.9-60
	 M-214,440.4l49.5-45.2 M-77.5,438.7l-42.2-40.8"/>
</svg>
