<?xml version="1.0" encoding="utf-8"?>
<!-- Generator: Adobe Illustrator 19.2.0, SVG Export Plug-In . SVG Version: 6.00 Build 0)  -->
<svg version="1.1" id="Layer_1" xmlns="http://www.w3.org/2000/svg" xmlns:xlink="http://www.w3.org/1999/xlink" x="0px" y="0px"
	 viewBox="0 0 160.8 161.7" style="enable-background:new 0 0 160.8 161.7;" xml:space="preserve">
<style type="text/css">
	.st0{fill:none;stroke:#FFFFFF;stroke-width:14;stroke-miterlimit:10;}
</style>
<path class="st0" d="M140.8,131.6H20.6c-7.4,0-13.3-5.5-13.3-12.2V43c0-6.8,6-12.2,13.3-12.2h120.2c7.4,0,13.3,5.5,13.3,12.2v76.4
	C154.1,126.2,148.2,131.6,140.8,131.6z M7.8,39.9L56,83.8l12.5,11.4c2.7,2.5,6,4.4,9.6,5.2c4.1,1,9.4,1,13.8-3
	c8.8-8.1,59.9-60,59.9-60 M11,128.8l49.5-45.2 M147.5,127.1l-42.2-40.8"/>
</svg>
