<svg xmlns="http://www.w3.org/2000/svg" viewBox="-225 316.3 160.8 161.7" enable-background="new -225 316.3 160.8 161.7"><style type="text/css">.st0{fill:none;stroke:#282828;stroke-width:14;stroke-miterlimit:10;}</style><path class="st0" d="M-84.2 443.2h-120.2c-7.4 0-13.3-5.5-13.3-12.2v-76.4c0-6.8 6-12.2 13.3-12.2h120.2c7.4 0 13.3 5.5 13.3 12.2v76.4c0 6.8-5.9 12.2-13.3 12.2zm-133-91.7l48.2 43.9 12.5 11.4c2.7 2.5 6 4.4 9.6 5.2 4.1 1 9.4 1 13.8-3 8.8-8.1 59.9-60 59.9-60m-140.8 91.4l49.5-45.2m87 43.5l-42.2-40.8"/></svg>