<?xml version="1.0" encoding="utf-8"?>
<!-- Generator: Adobe Illustrator 19.1.0, SVG Export Plug-In . SVG Version: 6.00 Build 0)  -->
<svg version="1.1" id="Layer_1" xmlns="http://www.w3.org/2000/svg" xmlns:xlink="http://www.w3.org/1999/xlink" x="0px" y="0px"
	 viewBox="-63 64.3 160.8 161.7" style="enable-background:new -63 64.3 160.8 161.7;" xml:space="preserve">
<style type="text/css">
	.st0{fill:none;stroke:#231F20;stroke-width:14;stroke-miterlimit:10;}
	.st1{fill:none;stroke:#231F20;stroke-width:12;stroke-miterlimit:10;}
</style>
<path class="st0" d="M76.8,190.6H-43.4c-7.4,0-13.3-5.5-13.3-12.2V102c0-6.8,6-12.2,13.3-12.2H76.8c7.4,0,13.3,5.5,13.3,12.2v76.4
	C90.1,185.2,84.2,190.6,76.8,190.6z"/>
<path class="st1" d="M-56.2,98.9L-8,142.8l12.5,11.4c2.7,2.5,6,4.4,9.6,5.2c4.1,1,9.4,1,13.8-3c8.8-8.1,59.9-60,59.9-60 M-53,187.8
	l49.5-45.2 M83.5,186.1l-42.2-40.8"/>
</svg>
