<?xml version="1.0" encoding="utf-8"?>
<!-- Generator: Adobe Illustrator 19.1.0, SVG Export Plug-In . SVG Version: 6.00 Build 0)  -->
<svg version="1.1" id="Layer_1" xmlns="http://www.w3.org/2000/svg" xmlns:xlink="http://www.w3.org/1999/xlink" x="0px" y="0px"
	 viewBox="-54.5 358.2 73.6 73.3" style="enable-background:new -54.5 358.2 73.6 73.3;" xml:space="preserve">
<g id="wt6oF8.tif_1_">
	<g>
		<path d="M18.9,372.3c-0.1-8.2-6.2-14-14.4-14.1c-7.4-0.1-14.9,0-22.3,0s-14.8-0.1-22.2,0c-8.3,0.1-14.3,5.7-14.4,14.1
			c-0.2,15-0.2,30.1,0,45.1c0.1,8.3,6.2,14,14.5,14c14.8,0.1,29.5,0.1,44.1,0c8.3,0,14.6-6,14.6-14.3
			C19.1,402.3,19.1,387.3,18.9,372.3z M-1.7,367h11.8v12H-1.7V367z M-17.7,382c7,0,12.8,5.8,12.8,13c0,7.2-5.6,12.8-12.9,12.6
			c-7,0-12.7-5.7-12.8-12.6C-30.7,388-24.7,382-17.7,382z M11.7,416.7c0,4.9-2.8,7.7-7.8,7.7c-14.4,0.1-28.7,0.1-43.1,0
			c-5.1,0-7.8-2.8-7.8-7.9v-26.2c0-0.8,0.1-1.7,0.2-2.7h10.1c-2.2,7.8-1.2,14.8,4.2,20.7c3.9,4.4,9,6.5,14.8,6.6
			c13.4,0.1,20.8-10.4,19.2-27.3h9.9c0.1,0.6,0.4,1.2,0.4,1.9C11.7,398.6,11.8,407.6,11.7,416.7z"/>
	</g>
</g>
</svg>
