<?xml version="1.0" encoding="utf-8"?>
<!-- Generator: Adobe Illustrator 19.1.0, SVG Export Plug-In . SVG Version: 6.00 Build 0)  -->
<svg version="1.1" id="Layer_1" xmlns="http://www.w3.org/2000/svg" xmlns:xlink="http://www.w3.org/1999/xlink" x="0px" y="0px"
	 viewBox="46 -10 542 812" style="enable-background:new 46 -10 542 812;" xml:space="preserve">
<style type="text/css">
	.st0{fill:none;stroke:#7DB7C1;stroke-width:2.7283;stroke-miterlimit:10;}
	.st1{fill:#7DB7C1;stroke:#7DB7C1;stroke-width:1.3641;stroke-miterlimit:10;}
	.st2{fill:#FFFFFF;}
	.st3{font-family:'Lato-Bold';}
	.st4{font-size:17.079px;}
	.st5{font-family:'Lato-Medium';}
	.st6{font-size:16px;}
	.st7{fill:none;stroke:#000000;stroke-width:4;stroke-miterlimit:10;}
	.st8{font-family:'Lato-Regular';}
	.st9{font-size:12px;}
	.st10{fill:#6AA3A7;}
	.st11{fill:#E9E3C4;}
	.st12{fill:#D477A1;}
	.st13{clip-path:url(#SVGID_2_);}
	.st14{clip-path:url(#SVGID_77_);}
	.st15{clip-path:url(#SVGID_78_);}
	.st16{clip-path:url(#SVGID_79_);}
	.st17{clip-path:url(#SVGID_80_);}
	.st18{clip-path:url(#SVGID_81_);}
	.st19{clip-path:url(#SVGID_82_);}
	.st20{clip-path:url(#SVGID_83_);}
	.st21{clip-path:url(#SVGID_84_);}
	.st22{clip-path:url(#SVGID_85_);}
	.st23{clip-path:url(#SVGID_86_);}
	.st24{clip-path:url(#SVGID_87_);}
	.st25{clip-path:url(#SVGID_88_);}
	.st26{clip-path:url(#SVGID_89_);}
	.st27{clip-path:url(#SVGID_90_);}
	.st28{clip-path:url(#SVGID_91_);}
	.st29{clip-path:url(#SVGID_92_);}
	.st30{clip-path:url(#SVGID_93_);}
	.st31{clip-path:url(#SVGID_94_);}
	.st32{clip-path:url(#SVGID_95_);}
	.st33{clip-path:url(#SVGID_96_);}
	.st34{clip-path:url(#SVGID_97_);}
	.st35{clip-path:url(#SVGID_98_);}
	.st36{clip-path:url(#SVGID_99_);}
	.st37{clip-path:url(#SVGID_100_);}
	.st38{clip-path:url(#SVGID_101_);}
	.st39{clip-path:url(#SVGID_102_);}
	.st40{clip-path:url(#SVGID_103_);}
	.st41{clip-path:url(#SVGID_104_);}
	.st42{clip-path:url(#SVGID_105_);}
	.st43{clip-path:url(#SVGID_106_);}
	.st44{clip-path:url(#SVGID_107_);}
	.st45{clip-path:url(#SVGID_108_);}
	.st46{clip-path:url(#SVGID_109_);}
	.st47{clip-path:url(#SVGID_110_);}
	.st48{clip-path:url(#SVGID_111_);}
	.st49{clip-path:url(#SVGID_112_);}
	.st50{clip-path:url(#SVGID_113_);}
	.st51{clip-path:url(#SVGID_114_);}
	.st52{clip-path:url(#SVGID_115_);}
	.st53{clip-path:url(#SVGID_116_);}
	.st54{clip-path:url(#SVGID_117_);}
	.st55{clip-path:url(#SVGID_118_);}
	.st56{clip-path:url(#SVGID_119_);}
	.st57{clip-path:url(#SVGID_120_);}
	.st58{clip-path:url(#SVGID_121_);}
	.st59{clip-path:url(#SVGID_122_);}
	.st60{clip-path:url(#SVGID_123_);}
	.st61{clip-path:url(#SVGID_124_);}
	.st62{clip-path:url(#SVGID_125_);}
	.st63{clip-path:url(#SVGID_126_);}
	.st64{clip-path:url(#SVGID_127_);}
	.st65{clip-path:url(#SVGID_128_);}
	.st66{clip-path:url(#SVGID_129_);}
	.st67{clip-path:url(#SVGID_130_);}
	.st68{clip-path:url(#SVGID_131_);}
	.st69{clip-path:url(#SVGID_132_);}
	.st70{clip-path:url(#SVGID_133_);}
	.st71{clip-path:url(#SVGID_134_);}
	.st72{clip-path:url(#SVGID_135_);}
	.st73{clip-path:url(#SVGID_136_);}
	.st74{clip-path:url(#SVGID_137_);}
	.st75{clip-path:url(#SVGID_138_);}
	.st76{clip-path:url(#SVGID_139_);}
	.st77{clip-path:url(#SVGID_140_);}
	.st78{clip-path:url(#SVGID_141_);}
	.st79{clip-path:url(#SVGID_142_);}
	.st80{clip-path:url(#SVGID_143_);}
	.st81{clip-path:url(#SVGID_144_);}
	.st82{clip-path:url(#SVGID_145_);}
	.st83{clip-path:url(#SVGID_146_);}
	.st84{clip-path:url(#SVGID_147_);}
	.st85{clip-path:url(#SVGID_148_);}
	.st86{clip-path:url(#SVGID_149_);}
	.st87{clip-path:url(#SVGID_150_);fill:#EAE3C5;}
	.st88{clip-path:url(#SVGID_150_);fill:#A7DDE9;}
	.st89{clip-path:url(#SVGID_150_);fill:#7DB7C1;}
	.st90{clip-path:url(#SVGID_150_);fill:#6AA2A8;}
	.st91{clip-path:url(#SVGID_150_);fill:none;stroke:#7DB7C1;stroke-width:1.9051;stroke-miterlimit:10;}
	.st92{fill:#D68FAF;}
	.st93{fill:#C34E8E;}
	.st94{fill:#D478A2;}
	.st95{fill:#CC84AA;}
	.st96{fill:#93662B;}
	.st97{fill:#A06D30;}
	.st98{opacity:0.47;fill:#B1447A;enable-background:new    ;}
	.st99{fill:#F8F4E7;}
	.st100{fill:#603F19;}
	.st101{fill:#E5B1CB;}
	.st102{opacity:0.56;fill:none;stroke:#B1447A;stroke-width:0.8498;stroke-miterlimit:10;enable-background:new    ;}
	.st103{opacity:0.35;fill:#E5B1CB;enable-background:new    ;}
	.st104{opacity:0.4;fill:#E5B1CB;enable-background:new    ;}
	.st105{fill:#B1447A;}
	.st106{opacity:0.75;fill:none;stroke:#B1447A;stroke-width:0.8498;stroke-miterlimit:10;enable-background:new    ;}
	.st107{opacity:0.59;fill:none;stroke:#B1447A;stroke-width:0.8498;stroke-miterlimit:10;enable-background:new    ;}
	.st108{fill:none;stroke:#755426;stroke-width:0.8498;stroke-miterlimit:10;}
</style>
<circle class="st0" cx="485.7" cy="645.1" r="55.7"/>
<circle class="st1" cx="485.7" cy="645.1" r="49.5"/>
<text transform="matrix(1 0 0 1 467.2062 638.8486)" class="st2 st3 st4">Lets </text>
<text transform="matrix(1 0 0 1 457.9062 659.3486)" class="st2 st3 st4">LEARN</text>
<text transform="matrix(1 0 0 1 269.1885 69.0152)" class="st5 st6">FONT</text>
<line class="st7" x1="266" y1="80" x2="313" y2="80"/>
<text transform="matrix(1 0 0 1 259.3125 260)" class="st5 st6">COLORS</text>
<line class="st7" x1="266" y1="271" x2="313" y2="271"/>
<text transform="matrix(1 0 0 1 248.6128 470)" class="st5 st6">ART WORK</text>
<line class="st7" x1="266" y1="481" x2="313" y2="481"/>
<text transform="matrix(1 0 0 1 98.6007 125.0967)" class="st5 st6">Lato  Regular</text>
<text transform="matrix(1 0 0 1 98.6007 143.4967)" class="st8 st9">Aa Bb Cc Dd Ee Ff Gg Hh Ii </text>
<text transform="matrix(1 0 0 1 98.6007 161.8967)" class="st8 st9">Jj Kk Ll Mm Nn Oo Pp Qq Rr</text>
<text transform="matrix(1 0 0 1 98.6007 180.2967)" class="st8 st9">Ss Tt Uu Vv Ww Xx Yy Zz</text>
<text transform="matrix(1 0 0 1 319.6007 125.0967)" class="st5 st6">Lato  Bold</text>
<text transform="matrix(1 0 0 1 319.6007 143.4967)" class="st3 st9">Aa Bb Cc Dd Ee Ff Gg Hh Ii </text>
<text transform="matrix(1 0 0 1 319.6007 161.8967)" class="st3 st9">Jj Kk Ll Mm Nn Oo Pp Qq Rr</text>
<text transform="matrix(1 0 0 1 319.6007 180.2967)" class="st3 st9">Ss Tt Uu Vv Ww Xx Yy Zz</text>
<rect x="238.6" y="292.2" class="st10" width="116.6" height="144.9"/>
<text transform="matrix(1 0 0 1 270.4914 313.239)" class="st2 st3 st9">#E9E3C4</text>
<rect x="103.6" y="292.2" class="st11" width="116.6" height="144.9"/>
<rect x="373.7" y="292.2" class="st12" width="116.6" height="144.9"/>
<text transform="matrix(1 0 0 1 132.6235 312.7532)" class="st2 st3 st9">#6AA3A7</text>
<text transform="matrix(1 0 0 1 404.1389 313.7672)" class="st2 st3 st9">#D477A1</text>
<g>
	<g>
		<g>
			<defs>
				<rect id="SVGID_1_" x="85.8" y="518.4" width="117.3" height="228.7"/>
			</defs>
			<clipPath id="SVGID_2_">
				<use xlink:href="#SVGID_1_"  style="overflow:visible;"/>
			</clipPath>
			<g class="st13">
				<g>
					<defs>
						<rect id="SVGID_3_" x="85.8" y="518.4" width="117.3" height="228.7"/>
					</defs>
					<defs>
						<rect id="SVGID_4_" x="85.8" y="518.4" width="117.3" height="228.7"/>
					</defs>
					<defs>
						<rect id="SVGID_5_" x="85.8" y="518.4" width="117.3" height="228.7"/>
					</defs>
					<defs>
						<rect id="SVGID_6_" x="85.8" y="518.4" width="117.3" height="228.7"/>
					</defs>
					<defs>
						<rect id="SVGID_7_" x="85.8" y="518.4" width="117.3" height="228.7"/>
					</defs>
					<defs>
						<rect id="SVGID_8_" x="85.8" y="518.4" width="117.3" height="228.7"/>
					</defs>
					<defs>
						<rect id="SVGID_9_" x="85.8" y="518.4" width="117.3" height="228.7"/>
					</defs>
					<defs>
						<rect id="SVGID_10_" x="85.8" y="518.4" width="117.3" height="228.7"/>
					</defs>
					<defs>
						<rect id="SVGID_11_" x="85.8" y="518.4" width="117.3" height="228.7"/>
					</defs>
					<defs>
						<rect id="SVGID_12_" x="85.8" y="518.4" width="117.3" height="228.7"/>
					</defs>
					<defs>
						<rect id="SVGID_13_" x="85.8" y="518.4" width="117.3" height="228.7"/>
					</defs>
					<defs>
						<rect id="SVGID_14_" x="85.8" y="518.4" width="117.3" height="228.7"/>
					</defs>
					<defs>
						<rect id="SVGID_15_" x="85.8" y="518.4" width="117.3" height="228.7"/>
					</defs>
					<defs>
						<rect id="SVGID_16_" x="85.8" y="518.4" width="117.3" height="228.7"/>
					</defs>
					<defs>
						<rect id="SVGID_17_" x="85.8" y="518.4" width="117.3" height="228.7"/>
					</defs>
					<defs>
						<rect id="SVGID_18_" x="85.8" y="518.4" width="117.3" height="228.7"/>
					</defs>
					<defs>
						<rect id="SVGID_19_" x="85.8" y="518.4" width="117.3" height="228.7"/>
					</defs>
					<defs>
						<rect id="SVGID_20_" x="85.8" y="518.4" width="117.3" height="228.7"/>
					</defs>
					<defs>
						<rect id="SVGID_21_" x="85.8" y="518.4" width="117.3" height="228.7"/>
					</defs>
					<defs>
						<rect id="SVGID_22_" x="85.8" y="518.4" width="117.3" height="228.7"/>
					</defs>
					<defs>
						<rect id="SVGID_23_" x="85.8" y="518.4" width="117.3" height="228.7"/>
					</defs>
					<defs>
						<rect id="SVGID_24_" x="85.8" y="518.4" width="117.3" height="228.7"/>
					</defs>
					<defs>
						<rect id="SVGID_25_" x="85.8" y="518.4" width="117.3" height="228.7"/>
					</defs>
					<defs>
						<rect id="SVGID_26_" x="85.8" y="518.4" width="117.3" height="228.7"/>
					</defs>
					<defs>
						<rect id="SVGID_27_" x="85.8" y="518.4" width="117.3" height="228.7"/>
					</defs>
					<defs>
						<rect id="SVGID_28_" x="85.8" y="518.4" width="117.3" height="228.7"/>
					</defs>
					<defs>
						<rect id="SVGID_29_" x="85.8" y="518.4" width="117.3" height="228.7"/>
					</defs>
					<defs>
						<rect id="SVGID_30_" x="85.8" y="518.4" width="117.3" height="228.7"/>
					</defs>
					<defs>
						<rect id="SVGID_31_" x="85.8" y="518.4" width="117.3" height="228.7"/>
					</defs>
					<defs>
						<rect id="SVGID_32_" x="85.8" y="518.4" width="117.3" height="228.7"/>
					</defs>
					<defs>
						<rect id="SVGID_33_" x="85.8" y="518.4" width="117.3" height="228.7"/>
					</defs>
					<defs>
						<rect id="SVGID_34_" x="85.8" y="518.4" width="117.3" height="228.7"/>
					</defs>
					<defs>
						<rect id="SVGID_35_" x="85.8" y="518.4" width="117.3" height="228.7"/>
					</defs>
					<defs>
						<rect id="SVGID_36_" x="85.8" y="518.4" width="117.3" height="228.7"/>
					</defs>
					<defs>
						<rect id="SVGID_37_" x="85.8" y="518.4" width="117.3" height="228.7"/>
					</defs>
					<defs>
						<rect id="SVGID_38_" x="85.8" y="518.4" width="117.3" height="228.7"/>
					</defs>
					<defs>
						<rect id="SVGID_39_" x="85.8" y="518.4" width="117.3" height="228.7"/>
					</defs>
					<defs>
						<rect id="SVGID_40_" x="85.8" y="518.4" width="117.3" height="228.7"/>
					</defs>
					<defs>
						<rect id="SVGID_41_" x="85.8" y="518.4" width="117.3" height="228.7"/>
					</defs>
					<defs>
						<rect id="SVGID_42_" x="85.8" y="518.4" width="117.3" height="228.7"/>
					</defs>
					<defs>
						<rect id="SVGID_43_" x="85.8" y="518.4" width="117.3" height="228.7"/>
					</defs>
					<defs>
						<rect id="SVGID_44_" x="85.8" y="518.4" width="117.3" height="228.7"/>
					</defs>
					<defs>
						<rect id="SVGID_45_" x="85.8" y="518.4" width="117.3" height="228.7"/>
					</defs>
					<defs>
						<rect id="SVGID_46_" x="85.8" y="518.4" width="117.3" height="228.7"/>
					</defs>
					<defs>
						<rect id="SVGID_47_" x="85.8" y="518.4" width="117.3" height="228.7"/>
					</defs>
					<defs>
						<rect id="SVGID_48_" x="85.8" y="518.4" width="117.3" height="228.7"/>
					</defs>
					<defs>
						<rect id="SVGID_49_" x="85.8" y="518.4" width="117.3" height="228.7"/>
					</defs>
					<defs>
						<rect id="SVGID_50_" x="85.8" y="518.4" width="117.3" height="228.7"/>
					</defs>
					<defs>
						<rect id="SVGID_51_" x="85.8" y="518.4" width="117.3" height="228.7"/>
					</defs>
					<defs>
						<rect id="SVGID_52_" x="85.8" y="518.4" width="117.3" height="228.7"/>
					</defs>
					<defs>
						<rect id="SVGID_53_" x="85.8" y="518.4" width="117.3" height="228.7"/>
					</defs>
					<defs>
						<rect id="SVGID_54_" x="85.8" y="518.4" width="117.3" height="228.7"/>
					</defs>
					<defs>
						<rect id="SVGID_55_" x="85.8" y="518.4" width="117.3" height="228.7"/>
					</defs>
					<defs>
						<rect id="SVGID_56_" x="85.8" y="518.4" width="117.3" height="228.7"/>
					</defs>
					<defs>
						<rect id="SVGID_57_" x="85.8" y="518.4" width="117.3" height="228.7"/>
					</defs>
					<defs>
						<rect id="SVGID_58_" x="85.8" y="518.4" width="117.3" height="228.7"/>
					</defs>
					<defs>
						<rect id="SVGID_59_" x="85.8" y="518.4" width="117.3" height="228.7"/>
					</defs>
					<defs>
						<rect id="SVGID_60_" x="85.8" y="518.4" width="117.3" height="228.7"/>
					</defs>
					<defs>
						<rect id="SVGID_61_" x="85.8" y="518.4" width="117.3" height="228.7"/>
					</defs>
					<defs>
						<rect id="SVGID_62_" x="85.8" y="518.4" width="117.3" height="228.7"/>
					</defs>
					<defs>
						<rect id="SVGID_63_" x="85.8" y="518.4" width="117.3" height="228.7"/>
					</defs>
					<defs>
						<rect id="SVGID_64_" x="85.8" y="518.4" width="117.3" height="228.7"/>
					</defs>
					<defs>
						<rect id="SVGID_65_" x="85.8" y="518.4" width="117.3" height="228.7"/>
					</defs>
					<defs>
						<rect id="SVGID_66_" x="85.8" y="518.4" width="117.3" height="228.7"/>
					</defs>
					<defs>
						<rect id="SVGID_67_" x="85.8" y="518.4" width="117.3" height="228.7"/>
					</defs>
					<defs>
						<rect id="SVGID_68_" x="85.8" y="518.4" width="117.3" height="228.7"/>
					</defs>
					<defs>
						<rect id="SVGID_69_" x="85.8" y="518.4" width="117.3" height="228.7"/>
					</defs>
					<defs>
						<rect id="SVGID_70_" x="85.8" y="518.4" width="117.3" height="228.7"/>
					</defs>
					<defs>
						<rect id="SVGID_71_" x="85.8" y="518.4" width="117.3" height="228.7"/>
					</defs>
					<defs>
						<rect id="SVGID_72_" x="85.8" y="518.4" width="117.3" height="228.7"/>
					</defs>
					<defs>
						<rect id="SVGID_73_" x="85.8" y="518.4" width="117.3" height="228.7"/>
					</defs>
					<defs>
						<rect id="SVGID_74_" x="85.8" y="518.4" width="117.3" height="228.7"/>
					</defs>
					<defs>
						<rect id="SVGID_75_" x="85.8" y="518.4" width="117.3" height="228.7"/>
					</defs>
					<defs>
						<rect id="SVGID_76_" x="85.8" y="518.4" width="117.3" height="228.7"/>
					</defs>
					<clipPath id="SVGID_77_">
						<use xlink:href="#SVGID_3_"  style="overflow:visible;"/>
					</clipPath>
					<clipPath id="SVGID_78_" class="st14">
						<use xlink:href="#SVGID_4_"  style="overflow:visible;"/>
					</clipPath>
					<clipPath id="SVGID_79_" class="st15">
						<use xlink:href="#SVGID_5_"  style="overflow:visible;"/>
					</clipPath>
					<clipPath id="SVGID_80_" class="st16">
						<use xlink:href="#SVGID_6_"  style="overflow:visible;"/>
					</clipPath>
					<clipPath id="SVGID_81_" class="st17">
						<use xlink:href="#SVGID_7_"  style="overflow:visible;"/>
					</clipPath>
					<clipPath id="SVGID_82_" class="st18">
						<use xlink:href="#SVGID_8_"  style="overflow:visible;"/>
					</clipPath>
					<clipPath id="SVGID_83_" class="st19">
						<use xlink:href="#SVGID_9_"  style="overflow:visible;"/>
					</clipPath>
					<clipPath id="SVGID_84_" class="st20">
						<use xlink:href="#SVGID_10_"  style="overflow:visible;"/>
					</clipPath>
					<clipPath id="SVGID_85_" class="st21">
						<use xlink:href="#SVGID_11_"  style="overflow:visible;"/>
					</clipPath>
					<clipPath id="SVGID_86_" class="st22">
						<use xlink:href="#SVGID_12_"  style="overflow:visible;"/>
					</clipPath>
					<clipPath id="SVGID_87_" class="st23">
						<use xlink:href="#SVGID_13_"  style="overflow:visible;"/>
					</clipPath>
					<clipPath id="SVGID_88_" class="st24">
						<use xlink:href="#SVGID_14_"  style="overflow:visible;"/>
					</clipPath>
					<clipPath id="SVGID_89_" class="st25">
						<use xlink:href="#SVGID_15_"  style="overflow:visible;"/>
					</clipPath>
					<clipPath id="SVGID_90_" class="st26">
						<use xlink:href="#SVGID_16_"  style="overflow:visible;"/>
					</clipPath>
					<clipPath id="SVGID_91_" class="st27">
						<use xlink:href="#SVGID_17_"  style="overflow:visible;"/>
					</clipPath>
					<clipPath id="SVGID_92_" class="st28">
						<use xlink:href="#SVGID_18_"  style="overflow:visible;"/>
					</clipPath>
					<clipPath id="SVGID_93_" class="st29">
						<use xlink:href="#SVGID_19_"  style="overflow:visible;"/>
					</clipPath>
					<clipPath id="SVGID_94_" class="st30">
						<use xlink:href="#SVGID_20_"  style="overflow:visible;"/>
					</clipPath>
					<clipPath id="SVGID_95_" class="st31">
						<use xlink:href="#SVGID_21_"  style="overflow:visible;"/>
					</clipPath>
					<clipPath id="SVGID_96_" class="st32">
						<use xlink:href="#SVGID_22_"  style="overflow:visible;"/>
					</clipPath>
					<clipPath id="SVGID_97_" class="st33">
						<use xlink:href="#SVGID_23_"  style="overflow:visible;"/>
					</clipPath>
					<clipPath id="SVGID_98_" class="st34">
						<use xlink:href="#SVGID_24_"  style="overflow:visible;"/>
					</clipPath>
					<clipPath id="SVGID_99_" class="st35">
						<use xlink:href="#SVGID_25_"  style="overflow:visible;"/>
					</clipPath>
					<clipPath id="SVGID_100_" class="st36">
						<use xlink:href="#SVGID_26_"  style="overflow:visible;"/>
					</clipPath>
					<clipPath id="SVGID_101_" class="st37">
						<use xlink:href="#SVGID_27_"  style="overflow:visible;"/>
					</clipPath>
					<clipPath id="SVGID_102_" class="st38">
						<use xlink:href="#SVGID_28_"  style="overflow:visible;"/>
					</clipPath>
					<clipPath id="SVGID_103_" class="st39">
						<use xlink:href="#SVGID_29_"  style="overflow:visible;"/>
					</clipPath>
					<clipPath id="SVGID_104_" class="st40">
						<use xlink:href="#SVGID_30_"  style="overflow:visible;"/>
					</clipPath>
					<clipPath id="SVGID_105_" class="st41">
						<use xlink:href="#SVGID_31_"  style="overflow:visible;"/>
					</clipPath>
					<clipPath id="SVGID_106_" class="st42">
						<use xlink:href="#SVGID_32_"  style="overflow:visible;"/>
					</clipPath>
					<clipPath id="SVGID_107_" class="st43">
						<use xlink:href="#SVGID_33_"  style="overflow:visible;"/>
					</clipPath>
					<clipPath id="SVGID_108_" class="st44">
						<use xlink:href="#SVGID_34_"  style="overflow:visible;"/>
					</clipPath>
					<clipPath id="SVGID_109_" class="st45">
						<use xlink:href="#SVGID_35_"  style="overflow:visible;"/>
					</clipPath>
					<clipPath id="SVGID_110_" class="st46">
						<use xlink:href="#SVGID_36_"  style="overflow:visible;"/>
					</clipPath>
					<clipPath id="SVGID_111_" class="st47">
						<use xlink:href="#SVGID_37_"  style="overflow:visible;"/>
					</clipPath>
					<clipPath id="SVGID_112_" class="st48">
						<use xlink:href="#SVGID_38_"  style="overflow:visible;"/>
					</clipPath>
					<clipPath id="SVGID_113_" class="st49">
						<use xlink:href="#SVGID_39_"  style="overflow:visible;"/>
					</clipPath>
					<clipPath id="SVGID_114_" class="st50">
						<use xlink:href="#SVGID_40_"  style="overflow:visible;"/>
					</clipPath>
					<clipPath id="SVGID_115_" class="st51">
						<use xlink:href="#SVGID_41_"  style="overflow:visible;"/>
					</clipPath>
					<clipPath id="SVGID_116_" class="st52">
						<use xlink:href="#SVGID_42_"  style="overflow:visible;"/>
					</clipPath>
					<clipPath id="SVGID_117_" class="st53">
						<use xlink:href="#SVGID_43_"  style="overflow:visible;"/>
					</clipPath>
					<clipPath id="SVGID_118_" class="st54">
						<use xlink:href="#SVGID_44_"  style="overflow:visible;"/>
					</clipPath>
					<clipPath id="SVGID_119_" class="st55">
						<use xlink:href="#SVGID_45_"  style="overflow:visible;"/>
					</clipPath>
					<clipPath id="SVGID_120_" class="st56">
						<use xlink:href="#SVGID_46_"  style="overflow:visible;"/>
					</clipPath>
					<clipPath id="SVGID_121_" class="st57">
						<use xlink:href="#SVGID_47_"  style="overflow:visible;"/>
					</clipPath>
					<clipPath id="SVGID_122_" class="st58">
						<use xlink:href="#SVGID_48_"  style="overflow:visible;"/>
					</clipPath>
					<clipPath id="SVGID_123_" class="st59">
						<use xlink:href="#SVGID_49_"  style="overflow:visible;"/>
					</clipPath>
					<clipPath id="SVGID_124_" class="st60">
						<use xlink:href="#SVGID_50_"  style="overflow:visible;"/>
					</clipPath>
					<clipPath id="SVGID_125_" class="st61">
						<use xlink:href="#SVGID_51_"  style="overflow:visible;"/>
					</clipPath>
					<clipPath id="SVGID_126_" class="st62">
						<use xlink:href="#SVGID_52_"  style="overflow:visible;"/>
					</clipPath>
					<clipPath id="SVGID_127_" class="st63">
						<use xlink:href="#SVGID_53_"  style="overflow:visible;"/>
					</clipPath>
					<clipPath id="SVGID_128_" class="st64">
						<use xlink:href="#SVGID_54_"  style="overflow:visible;"/>
					</clipPath>
					<clipPath id="SVGID_129_" class="st65">
						<use xlink:href="#SVGID_55_"  style="overflow:visible;"/>
					</clipPath>
					<clipPath id="SVGID_130_" class="st66">
						<use xlink:href="#SVGID_56_"  style="overflow:visible;"/>
					</clipPath>
					<clipPath id="SVGID_131_" class="st67">
						<use xlink:href="#SVGID_57_"  style="overflow:visible;"/>
					</clipPath>
					<clipPath id="SVGID_132_" class="st68">
						<use xlink:href="#SVGID_58_"  style="overflow:visible;"/>
					</clipPath>
					<clipPath id="SVGID_133_" class="st69">
						<use xlink:href="#SVGID_59_"  style="overflow:visible;"/>
					</clipPath>
					<clipPath id="SVGID_134_" class="st70">
						<use xlink:href="#SVGID_60_"  style="overflow:visible;"/>
					</clipPath>
					<clipPath id="SVGID_135_" class="st71">
						<use xlink:href="#SVGID_61_"  style="overflow:visible;"/>
					</clipPath>
					<clipPath id="SVGID_136_" class="st72">
						<use xlink:href="#SVGID_62_"  style="overflow:visible;"/>
					</clipPath>
					<clipPath id="SVGID_137_" class="st73">
						<use xlink:href="#SVGID_63_"  style="overflow:visible;"/>
					</clipPath>
					<clipPath id="SVGID_138_" class="st74">
						<use xlink:href="#SVGID_64_"  style="overflow:visible;"/>
					</clipPath>
					<clipPath id="SVGID_139_" class="st75">
						<use xlink:href="#SVGID_65_"  style="overflow:visible;"/>
					</clipPath>
					<clipPath id="SVGID_140_" class="st76">
						<use xlink:href="#SVGID_66_"  style="overflow:visible;"/>
					</clipPath>
					<clipPath id="SVGID_141_" class="st77">
						<use xlink:href="#SVGID_67_"  style="overflow:visible;"/>
					</clipPath>
					<clipPath id="SVGID_142_" class="st78">
						<use xlink:href="#SVGID_68_"  style="overflow:visible;"/>
					</clipPath>
					<clipPath id="SVGID_143_" class="st79">
						<use xlink:href="#SVGID_69_"  style="overflow:visible;"/>
					</clipPath>
					<clipPath id="SVGID_144_" class="st80">
						<use xlink:href="#SVGID_70_"  style="overflow:visible;"/>
					</clipPath>
					<clipPath id="SVGID_145_" class="st81">
						<use xlink:href="#SVGID_71_"  style="overflow:visible;"/>
					</clipPath>
					<clipPath id="SVGID_146_" class="st82">
						<use xlink:href="#SVGID_72_"  style="overflow:visible;"/>
					</clipPath>
					<clipPath id="SVGID_147_" class="st83">
						<use xlink:href="#SVGID_73_"  style="overflow:visible;"/>
					</clipPath>
					<clipPath id="SVGID_148_" class="st84">
						<use xlink:href="#SVGID_74_"  style="overflow:visible;"/>
					</clipPath>
					<clipPath id="SVGID_149_" class="st85">
						<use xlink:href="#SVGID_75_"  style="overflow:visible;"/>
					</clipPath>
					<clipPath id="SVGID_150_" class="st86">
						<use xlink:href="#SVGID_76_"  style="overflow:visible;"/>
					</clipPath>
					<path class="st87" d="M129.2,583.7c0,0,0,1.7,1.4,1.8c1.4,0.1,1.5-1.6,1.5-1.6L129.2,583.7z"/>
					<path class="st87" d="M134.1,584.8l2.6,0.3c0,0,0.4,1.7-1.4,2C133.4,587.3,133.2,585.1,134.1,584.8"/>
					<path class="st87" d="M138.3,584.9l2.5,0.4c0,0,0.3,2-1.7,1.7C137.1,586.7,138.3,584.9,138.3,584.9"/>
					<polygon class="st87" points="141.4,584.7 141.7,587.9 144.6,588 144.5,584.5 					"/>
					<polygon class="st87" points="144.8,584.4 145.2,588.1 148.1,588.2 147.9,584.8 					"/>
					<path class="st87" d="M155.7,583.5c0,0,0.3,2.2-1.4,2.6c-1.7,0.4-2.2-1.7-2.2-1.7L155.7,583.5z"/>
					<path class="st87" d="M151.4,584.5l-2.7,0.2c0,0-0.5,1.6,1.5,1.9C152.1,587,152.3,584.9,151.4,584.5"/>
					<path class="st88" d="M97.5,617.9c0,0-3-2.6-1.4-4.1c1.5-1.6,3-1.4,4.5-0.5c1.5,1,3.6,0.1,3.6,0.1s2.2,0,1.6,3
						s-2.2,3.5-2.2,3.5s-3.1,9.9-4.5,17.4l-0.2,7.4c0,0-0.2,2.2-2.2,2.2s-7.8,1.6-7.3-3.1c0.6-4.7,3.8-2.1,3.8-2.1
						S98.4,623.1,97.5,617.9"/>
					<path class="st89" d="M92.9,647.7c0,0-1.5,0.6-0.6,3.8c1,3.3,3.7,11,3.6,16c-0.1,4.9,0.4,4.7,1.6,4.7c1.2-0.1,2.2-2.5,1.8-4.1
						c-0.4-1.6-2.3-9.4-2.3-9.4s-1.1-4-0.1-6.1s0.8-5.9,0.8-5.9S98,645.2,92.9,647.7"/>
					<path class="st90" d="M89.9,646.1c0,0-3.3,1.8-0.8,4.2s1.5,8.5,1.5,8.5s-0.2,5.2,1,10c0,0,0.1,1.7-0.4,3.2s3.8,1.7,4.2-0.1
						s-1.2-5.3-1.2-5.3s-0.3-1.2,0.5-6.5c0.8-5.4,0.1-13.4,0.1-13.4S92.9,647.4,89.9,646.1"/>
					<path class="st88" d="M91.3,674.6c0,0,6.5,2.9,8.6-0.2c2.1-3.1-4.2-3.5-4.6-1.4C95.4,673,90.3,671.7,91.3,674.6"/>
					<path class="st90" d="M92.3,674.9l1.8,0.6c0,0-0.9,4.3-0.7,5.9c0,0-1,0.6-2.2-0.5c0,0,0.6-1.1,0.8-2.5L92.3,674.9z"/>
					<path class="st89" d="M91.6,681.2c0,0,0.7,0.3,1.2,0.3v4.3c0,0-1.6,0.3-1.9-0.6c-0.3-0.9,0.6-1.3,0.6-1.9
						C91.6,682.7,91.6,681.2,91.6,681.2"/>
					<path class="st90" d="M94.3,675.4l1.9,0.5c0,0-0.7,4.3-0.3,6c0,0-1,0.7-2.2-0.4c0,0,0.6-1.1,0.7-2.6L94.3,675.4z"/>
					<path class="st89" d="M94,681.8c0,0,0.7,0.3,1.2,0.2l0.2,4.3c0,0-1.5,0.4-2-0.4c-0.4-0.8,0.5-1.3,0.5-1.9
						C94.1,683.3,94,681.8,94,681.8"/>
					<path class="st90" d="M98.5,675.2l-1.9,0.5c0,0,0.8,4.3,0.5,5.9c0,0,1,0.7,2.2-0.5c0,0-0.6-1.1-0.8-2.5V675.2z"/>
					<path class="st89" d="M99,681.6c0,0-0.7,0.3-1.2,0.3l-0.1,4.3c0,0,1.6,0.4,2-0.5c0.4-0.9-0.6-1.3-0.6-1.9S99,681.6,99,681.6"/>
					<path class="st90" d="M99.7,612.1c0,0,3.2-3.4,8.6-3.4c0,0-0.4,5.5,4.7,4.7c5.2-0.9,14.9-0.6,18,1c0,0-0.9,12.9-17.7,11.2
						c0,0-3.3-4.9-5.7-4.2c0,0,2.3-3,1.2-6c-1-3.1-9.7,3.4-9.7,3.4L99.7,612.1z"/>
					<path class="st88" d="M108,608.7c0,0,14.5-2.8,24.7,1.8c0,0-2.4,1.8-2.3,3.7c0,0-3.6-2.3-19-0.7
						C111.4,613.6,107.4,614,108,608.7"/>
					<path class="st89" d="M137.6,633.9c0,0-5.5,6-6,8.1c-0.4,2-2,20.5-12.8,17.4c0,0-5.5-2.5-3.7-7.7c1.7-5.1,4.1,2.4,5.5,2.4
						s2.8-0.8,2.8-1.9c0,0-11.3,0.7-11.4-5.4c-0.1-6.1,3.6,1.1,7.3,1.5c3.7,0.5,7.7-1.7,7.7-3.7c0,0-15.2,5.7-16-5.6
						c0,0,0.3-2.4,5,0.8c4.6,3.3,13.1-0.2,13.3-2.7c0,0-14.3,5.5-17.9-4s5.8,1.9,10.6,1.3c4.8-0.6,11.8-2.7,13.2-4.8L137.6,633.9z"
						/>
					<path class="st88" d="M138.3,651.9v1.6l-4.4,1.9c0,0-0.6,0.3-0.1,1.1s11.1,3.6,18.3,1.4c7.2-2.1,4.2-2.7,4.2-2.7l-3.7-1.3
						l-0.6-2H138.3z"/>
					<path class="st89" d="M134.8,629.1l-0.4-3.4c0,0-9.7,7.6-19.4-1.4c0,0-2.6,0.2-1.8,4.2C113.2,628.5,123.7,638.7,134.8,629.1"/>
					<path class="st89" d="M131.3,614.5c0,0,2.4,0.9,2.4,4c0,3-16,2.6-16.2-5.1c0,0,0.1-3.2,4.5,0
						C126.4,616.6,131.3,614.5,131.3,614.5"/>
					<path class="st89" d="M133.7,621.7l0.4,3.3c0,0-15.7,6.1-18.4-3.9c0,0-0.4-3.7,1.7-2.9C117.5,618.3,125.2,627,133.7,621.7"/>
					<path class="st89" d="M137.3,636.6c0,0-2.9,6.4,0.8,7.4l14.3-0.1c0,0,1.6-3.9-0.9-6.9L137.3,636.6z"/>
					<path class="st90" d="M138.4,643.9v2.1l-4.4,2.5c0,0-0.6,0.4-0.1,1.4s11.1,4.6,18.3,1.9c7.2-2.7,4.2-3.5,4.2-3.5l-3.7-1.6
						l-1.2-3L138.4,643.9z"/>
					<path class="st90" d="M114.3,669c-0.3-2.9-0.1-7.4,7.6-8.8c7.7-1.3,9.9,0.2,12.7,4.5l2.8,4.3l-0.4,6.1c0,0-4.5-4.2-8.9-0.6
						c-4.4,3.6,9.9,8.4,9.9,8.4s1.2,5.7,3.1,6.4c0,0-4.9,5.9-12.9,2.1s-5.3-11.4-5.3-11.4s0.7-1.5-3.5-4.2S114.5,671.1,114.3,669"/>
					<path class="st89" d="M125.9,693c0,0-3.5-1-1.9-3.4s4.5-0.9,4.5-0.9s0.9,0.4,1.6,0c0.7-0.4,2.8-1.2,4.2,0.5
						c1.5,1.7-1.9,3.4-1.9,3.4l-2.1,16.8c0,0,0,0.9,0.5,1.1c0.5,0.2,3.1,2.4,1.4,3.6c-1.7,1.2-8.9,1.5-11.4,0.1s-0.3-3.7,3.2-4.6
						l2.1-15.9C126.1,693.7,126.4,693.2,125.9,693"/>
					<path class="st88" d="M129.8,731.6c0,0-0.1,0.6-3,0.4c-1.8-0.1-2.2,0.7-2.3,1.4c0,0.4,0.1,0.7,0.1,0.7s2.4,1.1,2.4,2.3
						s3.6,3.8,5.1,2.7s3.7-2.9,5.1-2.9c1.5,0,2.1-2.3,0.9-3.3c-1.2-1-2.6-2-2.6-2l-1.9-1.5c0,0-1.1-0.1-1.3-0.1
						c-0.2,0-1.8,0.5-1.8,0.5L129.8,731.6z"/>
					<path class="st89" d="M196.6,674.4c0,0-0.7,0.3-1.2,0.3v4.3c0,0,1.6,0.3,1.9-0.6c0.3-0.9-0.6-1.3-0.6-1.9
						C196.7,675.9,196.6,674.4,196.6,674.4"/>
					<path class="st90" d="M116.9,736.1c0,0,1.6,2.3,1.6,3.4c0,0-0.1,0.4,0.3,0.5c0.3,0.1,2.5,1.7,2.2,3.4c0,0,1.5-0.3,1.7,0
						c0,0,3.1-2.5,5.5-2.8c2.4-0.3,2-1.2,2-1.2l-3.9-6h-1.6C124.5,733.2,120.9,735.4,116.9,736.1"/>
					<path class="st89" d="M194.2,674.9c0,0-0.7,0.3-1.2,0.2l-0.2,4.3c0,0,1.5,0.4,2-0.4c0.4-0.8-0.5-1.3-0.5-1.9
						C194.2,676.5,194.2,674.9,194.2,674.9"/>
					<path class="st89" d="M116.8,736c0,0-2.4,0-2.8,1s1,6.8,1,6.9s5.6,0.6,5.9-0.4s-1.1-6.6-1.1-6.6l-1.5-0.5L116.8,736z"/>
					<path class="st89" d="M189.3,674.7c0,0,0.7,0.3,1.2,0.3l0.1,4.3c0,0-1.6,0.4-2-0.5s0.6-1.3,0.6-1.9
						C189.3,676.2,189.3,674.7,189.3,674.7"/>
					<path class="st89" d="M114.5,736.9l0.9,7.2c0,0-5.4-1.1-5.4-3.1c0,0-0.4-2.4,1.2-3.1C112.9,737.1,114.5,736.9,114.5,736.9"/>
					<path class="st90" d="M125.9,713.8c0,0,3.9-0.6,4.4,0.4s-0.9,2.1-0.9,2.1s-0.2,0-0.1,0.6c0.2,0.7,2.7,10.2,2.5,12.4
						c0,0,1.3,0.5,1.5,1.3s-1.2,1.5-2.1,0.9c-0.9-0.6-1.2,0.2-1.2,0.2s-0.2,0.6-1.1-0.1c-1-0.7,0.8-1.5,0.8-1.5s0.1-1.1-0.5-2
						s-3.7-11-3.4-11.6c0,0-2.5-0.8-1-2.1L125.9,713.8z"/>
					<path class="st90" d="M122.3,608.1c0,0,8.1-6.1,13-6.3l-0.1,10.6L122.3,608.1z"/>
					<path class="st88" d="M191.3,611.6c0,0,3-2.6,1.4-4.1c-1.5-1.6-3-1.4-4.5-0.5c-1.5,1-3.6,0.1-3.6,0.1s-2.2,0-1.6,3
						s2.2,3.5,2.2,3.5s3.1,9.9,4.5,17.4l0.2,7.4c0,0,0.2,2.2,2.2,2.2s7.8,1.6,7.3-3.1c-0.6-4.7-3.8-2.1-3.8-2.1
						S190.4,616.9,191.3,611.6"/>
					<path class="st89" d="M195.9,641.2c0,0,1.5,0.6,0.6,3.8c-1,3.3-3.7,11-3.6,16c0.1,4.9-0.4,4.7-1.6,4.7
						c-1.2-0.1-2.2-2.5-1.8-4.1s2.3-9.4,2.3-9.4s1.1-4,0.1-6.1s-0.8-5.9-0.8-5.9S190.8,638.7,195.9,641.2"/>
					<path class="st90" d="M198.9,639.8c0,0,3.3,1.8,0.8,4.2s-1.5,8.5-1.5,8.5s0.2,5.2-1,10c0,0-0.1,1.7,0.4,3.2s-3.8,1.7-4.2-0.1
						s1.2-5.3,1.2-5.3s0.3-1.2-0.5-6.5c-0.8-5.4-0.1-13.4-0.1-13.4S195.9,641,198.9,639.8"/>
					<path class="st90" d="M196,668.3l-1.8,0.6c0,0,0.9,4.3,0.7,5.9c0,0,1,0.6,2.2-0.5c0,0-0.6-1.1-0.8-2.5L196,668.3z"/>
					<path class="st90" d="M194,668.9l-1.9,0.5c0,0,0.7,4.3,0.3,6c0,0,1,0.7,2.2-0.4c0,0-0.6-1.1-0.7-2.6L194,668.9z"/>
					<path class="st90" d="M189.8,668.6l1.9,0.5c0,0-0.8,4.3-0.5,5.9c0,0-1,0.7-2.2-0.5c0,0,0.6-1.1,0.8-2.5V668.6z"/>
					<path class="st90" d="M186.8,607.7c0,0-3.6-3-8.9-2.4c0,0,1.1,5.5-4.2,5.2c-5.2-0.3-14.9,1.2-17.8,3.1c0,0,2.4,12.6,18.9,9
						c0,0,2.8-5.2,5.2-4.8c0,0-2.6-2.7-1.9-5.8c0.7-3.2,10.1,2.3,10.1,2.3L186.8,607.7z"/>
					<path class="st88" d="M177.9,605.4c0,0-14.4-1.1-24.1,4.5c0,0,2,2,2,4c0,0,3.8-3,19.3-3C175,610.9,179,610.5,177.9,605.4"/>
					<path class="st88" d="M197.5,668.1c0,0-6.5,2.9-8.6-0.2c-2.1-3.1,4.2-3.5,4.6-1.4C193.4,666.5,198.5,665.2,197.5,668.1"/>
					<path class="st89" d="M151,633.8c0,0,5.3,6.2,5.7,8.3c0.3,2,1.4,20.5,12.2,17.8c0,0,5.5-2.3,4-7.5s-4.2,2.3-5.5,2.3
						c-1.4,0-2.7-0.9-2.7-2c0,0,11.3,1.1,11.6-5s-3.6,0.9-7.4,1.3c-3.8,0.4-7.7-2-7.6-3.9c0,0,15,6.2,16.2-5.1c0,0-0.2-2.5-5,0.7
						c-4.7,3.1-13.1-0.7-13.2-3.1c0,0,14.1,6,18-3.4c3.9-9.4-5.8,1.7-10.6,1c-4.8-0.7-11.7-2.9-13-5L151,633.8z"/>
					<path class="st89" d="M153.6,629.7l0.8-3.3c0,0,9.3,7.5,19-1.5c0,0,2.6,0.2,1.8,4.2C175.2,629.1,164.8,639.3,153.6,629.7"/>
					<path class="st89" d="M155.9,615c0,0-1.9,1.1-1.9,4.1s15.5,2.5,15.7-5.2c0,0-0.1-3.2-4.5,0C160.8,617,155.9,615,155.9,615"/>
					<path class="st89" d="M154.3,622.2l-0.1,3.3c0,0,15.4,6.1,18.1-3.9c0,0,0.4-3.7-1.7-2.9C170.5,618.7,162.8,627.5,154.3,622.2"
						/>
					<path class="st90" d="M176.9,670.3c0.5-2.9,0.5-7.4-7.1-9.2c-7.6-1.8-9.9-0.3-12.9,3.8l-3,4.1l0.1,6.1c0,0,4.7-4,8.9-0.1
						c4.2,3.9-10.3,7.8-10.3,7.8s-1.6,5.6-3.5,6.2c0,0,4.5,6.1,12.7,2.8s6-11,6-11s-0.7-1.6,3.7-4
						C175.8,674.3,176.5,672.4,176.9,670.3"/>
					<path class="st89" d="M163.1,693.6c0,0,3.5-1,1.9-3.4s-4.5-0.9-4.5-0.9s-0.9,0.4-1.6,0c-0.7-0.4-2.8-1.2-4.2,0.5
						c-1.5,1.7,1.9,3.4,1.9,3.4l2.1,16.8c0,0,0,0.9-0.5,1.1c-0.5,0.2-3.1,2.4-1.4,3.6c1.7,1.2,8.9,1.5,11.4,0.1
						c2.6-1.5,0.3-3.7-3.2-4.6l-2.1-15.9C162.9,694.3,162.6,693.8,163.1,693.6"/>
					<path class="st88" d="M159.2,732.2c0,0,0.1,0.6,3,0.4c1.8-0.1,2.2,0.7,2.3,1.4c0,0.4-0.1,0.7-0.1,0.7s-2.4,1.1-2.4,2.3
						s-3.6,3.8-5.1,2.7s-3.7-2.9-5.1-2.9c-1.5,0-2.1-2.3-0.9-3.3c1.2-1,2.6-2,2.6-2l1.9-1.5c0,0,1.1-0.1,1.3-0.1
						c0.2,0,1.8,0.5,1.8,0.5L159.2,732.2z"/>
					<path class="st90" d="M172.1,736.6c0,0-1.6,2.3-1.6,3.4c0,0,0.1,0.4-0.3,0.5c-0.3,0.1-2.5,1.7-2.2,3.4c0,0-1.5-0.3-1.7,0
						c0,0-3.1-2.5-5.5-2.8s-2-1.2-2-1.2l3.9-6h1.6C164.5,733.8,168.1,736,172.1,736.6"/>
					<path class="st89" d="M172.2,736.5c0,0,2.4,0,2.8,1c0.4,1-1,6.8-1,6.9c0,0.2-5.6,0.6-5.9-0.4c-0.3-1,1.1-6.6,1.1-6.6l1.5-0.5
						L172.2,736.5z"/>
					<path class="st89" d="M174.9,737.3l-0.9,7.2c0,0,5.4-1.1,5.4-3.1c0,0,0.4-2.4-1.2-3.1C176.6,737.5,174.9,737.3,174.9,737.3"/>
					<path class="st90" d="M162,607.4c0,0-8.1-6.6-13-6.8l0.1,11.5L162,607.4z"/>
					<path class="st90" d="M163,714.3c0,0-3.9-0.6-4.4,0.4s0.9,2.1,0.9,2.1s0.2,0,0.1,0.6c-0.2,0.7-2.7,10.2-2.5,12.4
						c0,0-1.3,0.5-1.5,1.3c-0.2,0.8,1.2,1.5,2.1,0.9s1.2,0.2,1.2,0.2s0.2,0.6,1.1-0.1c1-0.7-0.8-1.5-0.8-1.5s-0.1-1.1,0.5-2
						c0.6-0.9,3.7-11,3.4-11.6c0,0,2.5-0.8,1-2.1L163,714.3z"/>
					<path class="st88" d="M121.9,590.9c0,0,7.3,3.8,7.3,6.4c0,0,8.7,3.9,25.1,1.4c0,0,8.9-6.4,10.7-6.7c0,0-0.6-9.9,1.4-12.1
						c0,0-1.9-1.2-7.2,0.9c0,0,0.9,8.2-1,8.9c0,0-11.9,3-29.2-0.2c0,0-2.2-5.5-0.9-8.9c0,0-3.1-1.7-8.1-0.4
						C120,580.4,124,585.2,121.9,590.9"/>
					<path class="st88" d="M141.1,690.3c0,0,5.9,5,9,0c0,0,7.9-14.8,3.2-24.7c0,0-10.5,1.5-15.7-0.1
						C137.5,665.6,132.7,677.1,141.1,690.3"/>
					<path class="st89" d="M119.6,580.1c0,0-8.1-2.1-5.5-7.2c0,0,0.9-1.5,3.3-1.5c0,0-8.4-5.8,1-14.6s36.8-5.6,36.8-5.6
						s18.7,2.2,17.5,14.7c0,0-0.4,4.3-2.6,5.4c0,0,4.1,1.8,2.9,4.4c-1.2,2.6-4.4,4.8-6.6,4c-2.1-0.8-7.7,0.1-9,3.1
						c0,0-17.9,5.5-29.7,0.1l0.4-2.4C128.1,580.7,126.3,579.5,119.6,580.1"/>
					<path class="st91" d="M119.6,580.1c0,0-8.1-2.1-5.5-7.2c0,0,0.9-1.5,3.3-1.5c0,0-8.4-5.8,1-14.6s36.8-5.6,36.8-5.6
						s18.7,2.2,17.5,14.7c0,0-0.4,4.3-2.6,5.4c0,0,4.1,1.8,2.9,4.4c-1.2,2.6-4.4,4.8-6.6,4c-2.1-0.8-7.7,0.1-9,3.1
						c0,0-17.9,5.5-29.7,0.1l0.4-2.4C128.1,580.7,126.3,579.5,119.6,580.1z"/>
					<path class="st90" d="M134,568.4c0,2.9-2.4,5.3-5.3,5.3c-2.9,0-5.3-2.4-5.3-5.3s2.4-5.3,5.3-5.3
						C131.7,563.1,134,565.5,134,568.4"/>
					<path class="st90" d="M164.1,568.4c0,2.9-2.4,5.3-5.3,5.3c-2.9,0-5.3-2.4-5.3-5.3s2.4-5.3,5.3-5.3
						C161.7,563.1,164.1,565.5,164.1,568.4"/>
					<path class="st90" d="M142.3,575.8c0,0,1.6-0.8,2.4,0.3c0.8,1,2.9,1.3,3.1-0.4c0.2-1.8-1.8-3.7-3.9-3.6
						c-2.1,0.1-4.5,0.3-5.1,3.1C138.3,578,142.3,575.8,142.3,575.8"/>
					<path class="st90" d="M136.1,661.1c0,0-1.5,0.3-0.9,1.6c0,0,3.9,2.4,3.9,3.4c0,0,8.1,1,12.4,0.1c0,0,2.5-2.8,3.8-3.3
						s0.2-1.4,0.2-1.4s-4.4-2-4.6-3.4c0,0-6.1,0.5-11-0.1C140,658,138.1,660.6,136.1,661.1"/>
					<path class="st89" d="M134.9,602.3c0,0-1.4,2.1-0.2,3.2c0,0,9.9,2,14.4,0.2c0,0,0.8-2-0.2-3.5L134.9,602.3z"/>
					<path class="st90" d="M134.9,598.9c0,0-1.4,2.5-0.3,3.6c0,0,9.9,1.7,14.4,0c0,0,0.7-1.6-0.2-3.1L134.9,598.9z"/>
					<path class="st88" d="M134.8,605.5c0,0-1.3,3.6-0.1,4.7c0,0,9.9,1.2,14.5,0c0,0,0.8-3.1-0.2-4.6L134.8,605.5z"/>
					<path class="st90" d="M133.7,610l20,0.1c0,0,6.8,2.3,0.7,7v11.2c0,0-2.8,9.4-11.6,9.1c-6.9-0.2-8.5-9.5-8.9-13.7
						c-0.1-1.2-0.1-2-0.1-2s1-4.8-3.3-7.4C130.4,614.3,130.3,610.9,133.7,610"/>
					<path class="st89" d="M135.7,553.8c0,0,1.7-1.2,4.7,0.3c0,0-2.5-21.8-2.3-29.1c0.1-2.3-6.6-6.3-7.1,1.4c-0.5,6.8,4.6,27,4.6,27
						L135.7,553.8z"/>
					<path class="st91" d="M135.7,553.8c0,0,1.7-1.2,4.7,0.3c0,0-2.5-21.8-2.3-29.1c0.1-2.3-6.6-6.3-7.1,1.4c-0.5,6.8,4.6,27,4.6,27
						L135.7,553.8z"/>
					<path class="st89" d="M146.5,552.5c0,0,1.9-0.8,4.5,1.3c0,0,2.2-21.8,3.9-28.9c0.5-2.2-5.1-7.5-7.3-0.1
						c-1.9,6.6-1.2,27.3-1.2,27.3L146.5,552.5z"/>
					<path class="st91" d="M146.5,552.5c0,0,1.9-0.8,4.5,1.3c0,0,2.2-21.8,3.9-28.9c0.5-2.2-5.1-7.5-7.3-0.1
						c-1.9,6.6-1.2,27.3-1.2,27.3L146.5,552.5z"/>
				</g>
			</g>
		</g>
		<g>
			<path class="st92" d="M253.9,689.9l14.5,19.2c0,0-0.4,5.4-6.5,2.6c0,0-5.1,4.4-5.9-1.9c0,0-3.6,3.5-5.9,0s2.1-5.4,2.1-5.4
				s-6.5,3.3-4-2.6c0,0-6.1-1.4-0.7-3.6c0,0-4.7-2.3-1.4-5.2c0,0,1.9-1.4,4.2,0.4C250.2,693.2,247.6,689.9,253.9,689.9z"/>
			<path class="st93" d="M352.4,633.4c0,0-5.8,19.7-4.5,24.4c1.4,4.6,23.2,40.8,23.2,40.8s0.3,4.6-3.3,5.2c-3.6,0.6-1.4-4.2-1.4-4.2
				s-6.7,4.6-6.9-1.3c0,0-8.4,3.3-3.7-5.7l-24.3-28.9c0,0-20.5-26.9-10.7-42.1c9.7-15.1,24-7.4,24-7.4S355.4,623.9,352.4,633.4z"/>
			<path class="st94" d="M382.1,576c3.8,0.4,6.6-1,6.6-1c-6,0.3-11-3-11-3c-3.9-5.3-8.1-8.8-11.6-11c1.3-0.2,2.4-0.7,2.4-2
				c0,0-1.4,1.1-4.2,0.9c-3.7-2.1-6.4-2.7-6.4-2.7c1-1.1,6.3-1.1,6.3-1.1c-3-2.4-9.4-0.4-9.4-0.4c-0.2-2.1,4.4-4.7,4.4-4.7
				c-3.5-0.9-6.2,2.5-6.2,2.5s-2.5-9.7-2.1-6.3c0.3,3.4-1.9,5.4-1.9,5.4c-1.6-0.1-3.3-5.2-3.3-5.2l0.2,5.5v1
				c-0.1-0.4-0.3-0.8-0.5-1.1c-2.1-2.8-8.9-2-8.9-2c0.9,0,2.1,0.5,3.1,1.1c-2-0.2-4.2-0.3-6.5-0.4c0,0-9.8,0.3-16.7,3.8
				c-6.9,3.5-16-5.9-16-5.9s-1.2,5,3.8,6.8c0,0-8.4,0.4-9.6,2.4l6.3,0.5c0,0-5.1,2.1-6.2,6.4c0,0,6.4-4.1,7.9-2.3
				c0,0-6.5,6.4-10.3,15.2c0,0-0.3,0.3-0.7,0.9c-1.8,0.3-3,0.4-3,0.4c0.3,0.5,1,0.8,1.8,1c-1.5,1.7-3.6,4-5.5,6
				c-2.2,0.6-3.8,1-3.8,1c0.4,0.4,1,0.8,1.8,1c-1.2,1.2-2.2,2.1-2.7,2.2c0,0,2.4,1,5.3-1.6c0.3-0.2,0.5-0.5,0.8-0.8
				c1.1-1.3,0.8-0.6-0.4,0.8c-2.3,2.8-8,8.7-13,10.7c0,0,5.6-0.1,7.7-1.6c-2.2,1.8-11.9,10.3-12.6,13.7c0,0,3.7-1.9,5.4-3.4
				c-0.7,0.7-7.8,8.6-8.4,11.2l5.8-5l-2.9,7.5c0,0,6-5.6,9.3-3.9c0,0-21.7,26.6-24.7,48.3c0,0-7.8,37.2,23.4,50.4
				c3.3,1.4,11.7,3.1,14,3.1c0,0,2.8,6.5,0.7,12.7c0,0-0.8,3.4-1.9,4.6c0,0-1.2,1.3,0.4,2.4c0,0,0.9,0.8,4.2-0.1
				c3.4-0.9,9.3,1.6,9.3,1.6s11.2,3.2,13.9-0.7c2.7-3.9-7.3-4.2-7.3-4.2l-14.4-0.9c0,0-1.6-3.8,1-5.8c0,0,5.6-6.4,9.4-5.1
				c0,0,9.7,1.1,6.3-16.1c-3.4-17.2,0.3-27.9,0.3-27.9s5.1-12.8,6.5-13.8c1.3-1-3.1-11.3-3.1-11.3s-4.4-11.9-1.2-17.1
				c3.2-5.2,7.5-11.2,20.8-13.7c12.2-2.2,13.9,3.7,14.1,4.7c-0.1-1-0.7-6.7,0.1-9.6c2.8,1.3,5.8,0,7.4-0.8c0.3,0,0.6-0.1,0.9-0.1
				c-0.3,3.3,2.8,3.7,2.8,3.7c-0.8-2.4-0.2-3.6,0.4-4.1c0.2,0,0.4-0.1,0.6-0.1c-0.5,1.7,1.4,2.9,1.4,2.9c-0.1-1.6,0.8-1.9,1.7-1.9
				c1.1,2.5,5,2.2,5,2.2c-1.2,0,1.4-8.6,1.4-8.6c3.7-0.7,10.8-13.1,10.8-13.1c0.9,1.7,5.1,1.6,5.1,1.6c-2.3-1.9-3-5.7-3-5.7
				c1-8-1.7-14.9-1.7-14.9l6.1-0.9L382.1,576z M281,598.2c-0.1,0.1-0.1,0.1-0.2,0.1c0.1-0.1,0.2-0.2,0.3-0.2
				C281.1,598.2,281,598.2,281,598.2z"/>
			<path class="st95" d="M304.5,724.5c0,0,13.5,1.3,19-0.2c0,0,2.3,5.8-0.7,10.9c0,0-0.5,1.6,1.9,1.4c2.4-0.2,7.4-0.1,9.9,1.6
				c2.5,1.7,11,1.9,11.1-1.7c0.1-3.6-5.3-3.1-6.1-3.1c-0.8,0-11.8-0.7-11.8-0.7s-1.6-2.5,2.1-5.1c3.8-2.6,11.1-6.9,11.3-8.8
				s-0.3-2.9-0.3-2.9l-32.6-5.8L304.5,724.5z"/>
			<path class="st96" d="M345.9,552.9c-0.1,0-0.3-0.1-0.5-0.1c0.2,0.3,0.4,0.7,0.5,1.1V552.9z"/>
			<path class="st97" d="M315.1,598.6c0,0-0.1,0.1-0.2,0.1c-0.1,0.1-0.1,0.1-0.2,0.1C315,598.8,315.1,598.6,315.1,598.6z"/>
			<path class="st92" d="M349.1,628c0,0-13.1-15.5-35.6,5.7s-17,67.6-2.5,78.6c14.4,11.1,30.1,3.6,30.1,3.6S361.4,678.5,349.1,628z"
				/>
			<path class="st96" d="M286,589.4c-0.1,0-0.3,0-0.4-0.1c0.3-0.2,0.5-0.5,0.8-0.8C287.6,587.3,287.3,587.9,286,589.4z"/>
			<path class="st92" d="M372.5,584.9c2.8,4.4,4.9,7.6-2.7,20.3c-7.7,12.8-18.9,6.7-18.9,6.7s-7.3-5.6-16.9-2.5s-15,3.1-18.6-3.1
				c-3.6-6.1-2.4-16,2.4-21.8c4.9-5.7,9.8-11.8,23.2-9.1c2.5,0.5,4,1.2,9,4.8s11.9,1.9,15.9,1.5
				C367.8,581.5,370.6,581.9,372.5,584.9z"/>
			<ellipse class="st98" cx="363.2" cy="594.4" rx="5.3" ry="4.9"/>
			<ellipse class="st98" cx="335.3" cy="587.6" rx="6.2" ry="5.5"/>
			<ellipse class="st99" cx="362.9" cy="594.5" rx="4.8" ry="4.4"/>
			<ellipse class="st100" cx="362.7" cy="595.8" rx="2.4" ry="2.2"/>
			<ellipse class="st99" cx="335.5" cy="587.8" rx="5.7" ry="5"/>
			<ellipse class="st100" cx="336.5" cy="589.5" rx="2.4" ry="2.2"/>
			<path class="st101" d="M348.1,595c0,0,1.7-0.5,2.4,0.6c0.7,1.1,2.7,1.7,3.2,0c0.4-1.7-1.3-3.9-3.4-4.1c-2.1-0.2-4.5-0.3-5.5,2.4
				C343.7,596.6,348.1,595,348.1,595z"/>
			<circle class="st92" cx="351.6" cy="594.5" r="0.4"/>
			<circle class="st92" cx="346.8" cy="593.8" r="0.4"/>
			<path class="st102" d="M351.7,588.5c0,0-1.5,0.8-1.4,3"/>
			<path class="st102" d="M354.2,588.5c0,0-2.1-2.2-5.2-0.9"/>
			<path class="st102" d="M354.5,586.8c0,0-1.9-1.8-3.7-1.1"/>
			<circle class="st103" cx="363.7" cy="604" r="2.5"/>
			<ellipse class="st103" cx="328.8" cy="596.3" rx="3.5" ry="2.1"/>
			<path class="st104" d="M358.6,605c0.4,0.8,1,2.8-1.9,3c-2.9,0.3-2.5-1.7-4.3-3.3c-1.6-1.3-3.9-4.5-14.4-2.3
				c-1.4,0.3-4.5,1.5-5.8-0.7s1.3-3.3,8-3.7C347.1,597.7,356.2,600,358.6,605z"/>
			<path class="st99" d="M335.9,600.8c0,0,0.3,1.4,1.4,1.3c1.1-0.1,1-1.5,1-1.5L335.9,600.8z"/>
			<path class="st99" d="M339.1,600.4h2.3c0,0,0.5,1.4-1,1.8C338.8,602.6,338.3,600.7,339.1,600.4z"/>
			<path class="st99" d="M342.3,600.4l2.3,0.2c0,0,0.4,1.8-1.5,1.7C341.3,602.1,342.3,600.4,342.3,600.4z"/>
			<path class="st105" d="M360,585.4l0.4,1.7c0,0,8.5-1.2,10.5,6.4C370.9,593.5,372.2,584.3,360,585.4z"/>
			<path class="st105" d="M342.5,580.3l-1.2,1.5c0,0-6.8-5.6-12.7,0.9C328.6,582.7,331.3,574,342.5,580.3z"/>
			<path class="st93" d="M301.2,631.6c0,0-12.1,16.6-12.4,21.4c-0.3,4.8,8,46.3,8,46.3s-1.3,4.4-4.9,3.8c-3.6-0.6,0.1-4.4,0.1-4.4
				s-7.9,2.1-6-3.6c0,0-9.1,0.3-1.6-6.6l-13.1-35.4c0,0-10.2-32.3,4.1-43.2c14.3-10.9,21.4-4,25,1.2
				C303.4,615.3,307.2,623.6,301.2,631.6z"/>
			<path class="st106" d="M308,567.7c0,0-6.1,1.1-10.2,9.5c0,0,8.4-4.3,11.9-3.3c0,0-6.7,5-6.7,12.1c0,0,14.3-15.6,25.8-16.7"/>
			<path class="st106" d="M300.9,598.1c0,0-2.9,2.7-3,6.8l5.2-3.8c0,0-2.5,4.8-1.6,8.1"/>
			<circle class="st107" cx="348.7" cy="680.8" r="1.4"/>
			<polygon class="st99" points="345.2,600.7 344.7,604.2 347,604.7 347.6,601.2 			"/>
			<polygon class="st99" points="347.8,601.2 347.3,604.8 349.5,605.3 350.2,602 			"/>
			<path class="st99" d="M355.4,604.7c0,0-0.9,1.1-1.8,0.5c-1-0.6-0.2-1.8-0.2-1.8L355.4,604.7z"/>
			<path class="st99" d="M352.7,603l-2.1-0.9c0,0-1,1.1,0.3,2.1C352.2,605.2,353.2,603.6,352.7,603z"/>
			<path class="st108" d="M355.7,605c0,0-7.3-6.8-21.7-4"/>
			<path class="st92" d="M331.9,561.8c0,0,2-0.9,5,1.4c0,0,2-24.1,3.8-31.9c0.6-2.5-5.7-8.2-8,0c-2,7.3-0.8,30.1-0.8,30.1V561.8z"/>
			<path class="st101" d="M333,560.5c0,0,1.1-0.5,2.8,0.8c0,0,1.1-13.4,2.1-17.8c0.3-1.4-3.2-4.6-4.5,0c-1.1,4.1-0.5,16.8-0.5,16.8
				v0.2H333z"/>
			<path class="st92" d="M358.8,564.7c0,0,3.5-1.6,4.8,1.9c0,0,14.2-19.5,19.8-25.3c1.8-1.8-0.7-10-6.8-4.2
				c-5.5,5.2-16.3,25.3-16.3,25.3L358.8,564.7z"/>
			<path class="st101" d="M361.6,562.9c0,0,1.5-0.4,2.3,1.5c0,0,7.6-10.4,10.6-13.5c1-1-0.4-5.3-3.6-2.2c-2.9,2.8-8.7,13.5-8.7,13.5
				L361.6,562.9z"/>
		</g>
	</g>
</g>
<rect x="232" y="454" class="st2" width="133" height="47"/>
<rect x="229" y="229" class="st2" width="116" height="52"/>
<rect x="236" y="27" class="st2" width="98" height="65"/>
</svg>
