<?xml version="1.0" encoding="utf-8"?>
<!-- Generator: Adobe Illustrator 19.1.0, SVG Export Plug-In . SVG Version: 6.00 Build 0)  -->
<svg version="1.1" id="Layer_1" xmlns="http://www.w3.org/2000/svg" xmlns:xlink="http://www.w3.org/1999/xlink" x="0px" y="0px"
	 viewBox="0 0 713 759.2" style="enable-background:new 0 0 713 759.2;" xml:space="preserve">
<style type="text/css">
	.st0{fill:#FFFFFF;}
</style>
<image style="overflow:visible;" width="715" height="411" xlink:href="../../../../Screen Shot 2015-10-24 at 10.31.59 PM.png"  transform="matrix(0.4447 0 0 0.4447 354.0481 565.3822)">
</image>
<image style="overflow:visible;" width="713" height="602" xlink:href="../../../../Screen Shot 2015-10-24 at 10.31.52 PM.png"  transform="matrix(0.4451 0 0 0.446 353.9671 345.7005)">
</image>
<image style="overflow:visible;" width="713" height="602" xlink:href="../../../../Screen Shot 2015-10-24 at 10.31.41 PM.png"  transform="matrix(0.4311 0 0 0.4311 361.1475 121.0259)">
</image>
<image style="overflow:visible;" width="714" height="603" xlink:href="../../../../Screen Shot 2015-10-24 at 10.31.28 PM.png"  transform="matrix(0.4304 0 0 0.4304 1 497.2882)">
</image>
<image style="overflow:visible;" width="714" height="603" xlink:href="../../../../Screen Shot 2015-10-24 at 10.31.28 PM.png"  transform="matrix(0.4304 0 0 0.4304 361.2411 -136.9825)">
</image>
<image style="overflow:visible;" width="714" height="603" xlink:href="../../../../Screen Shot 2015-10-24 at 10.30.54 PM.png"  transform="matrix(0.4327 0 0 0.4327 0 0)">
</image>
<image style="overflow:visible;" width="714" height="604" xlink:href="../../../../Screen Shot 2015-10-24 at 10.31.10 PM.png"  transform="matrix(0.4321 0 0 0.4321 0 240.9257)">
</image>
<rect x="669.8" y="552.1" class="st0" width="27.8" height="204"/>
</svg>
