<svg xmlns="http://www.w3.org/2000/svg" xmlns:xlink="http://www.w3.org/1999/xlink" viewBox="46 -10 542 812" enable-background="new 46 -10 542 812"><style type="text/css">.st0{fill:none;stroke:#7DB7C1;stroke-width:2.7283;stroke-miterlimit:10;} .st1{fill:#7DB7C1;stroke:#7DB7C1;stroke-width:1.3641;stroke-miterlimit:10;} .st2{fill:#FFFFFF;} .st3{font-family:&apos;Lato-Bold&apos;;} .st4{font-size:17.079px;} .st5{font-family:&apos;Lato-Medium&apos;;} .st6{font-size:16px;} .st7{fill:none;stroke:#000000;stroke-width:4;stroke-miterlimit:10;} .st8{font-family:&apos;Lato-Regular&apos;;} .st9{font-size:12px;} .st10{fill:#6AA3A7;} .st11{fill:#E9E3C4;} .st12{fill:#D477A1;} .st13{clip-path:url(#SVGID_2_);} .st14{clip-path:url(#SVGID_77_);} .st15{clip-path:url(#SVGID_78_);} .st16{clip-path:url(#SVGID_79_);} .st17{clip-path:url(#SVGID_80_);} .st18{clip-path:url(#SVGID_81_);} .st19{clip-path:url(#SVGID_82_);} .st20{clip-path:url(#SVGID_83_);} .st21{clip-path:url(#SVGID_84_);} .st22{clip-path:url(#SVGID_85_);} .st23{clip-path:url(#SVGID_86_);} .st24{clip-path:url(#SVGID_87_);} .st25{clip-path:url(#SVGID_88_);} .st26{clip-path:url(#SVGID_89_);} .st27{clip-path:url(#SVGID_90_);} .st28{clip-path:url(#SVGID_91_);} .st29{clip-path:url(#SVGID_92_);} .st30{clip-path:url(#SVGID_93_);} .st31{clip-path:url(#SVGID_94_);} .st32{clip-path:url(#SVGID_95_);} .st33{clip-path:url(#SVGID_96_);} .st34{clip-path:url(#SVGID_97_);} .st35{clip-path:url(#SVGID_98_);} .st36{clip-path:url(#SVGID_99_);} .st37{clip-path:url(#SVGID_100_);} .st38{clip-path:url(#SVGID_101_);} .st39{clip-path:url(#SVGID_102_);} .st40{clip-path:url(#SVGID_103_);} .st41{clip-path:url(#SVGID_104_);} .st42{clip-path:url(#SVGID_105_);} .st43{clip-path:url(#SVGID_106_);} .st44{clip-path:url(#SVGID_107_);} .st45{clip-path:url(#SVGID_108_);} .st46{clip-path:url(#SVGID_109_);} .st47{clip-path:url(#SVGID_110_);} .st48{clip-path:url(#SVGID_111_);} .st49{clip-path:url(#SVGID_112_);} .st50{clip-path:url(#SVGID_113_);} .st51{clip-path:url(#SVGID_114_);} .st52{clip-path:url(#SVGID_115_);} .st53{clip-path:url(#SVGID_116_);} .st54{clip-path:url(#SVGID_117_);} .st55{clip-path:url(#SVGID_118_);} .st56{clip-path:url(#SVGID_119_);} .st57{clip-path:url(#SVGID_120_);} .st58{clip-path:url(#SVGID_121_);} .st59{clip-path:url(#SVGID_122_);} .st60{clip-path:url(#SVGID_123_);} .st61{clip-path:url(#SVGID_124_);} .st62{clip-path:url(#SVGID_125_);} .st63{clip-path:url(#SVGID_126_);} .st64{clip-path:url(#SVGID_127_);} .st65{clip-path:url(#SVGID_128_);} .st66{clip-path:url(#SVGID_129_);} .st67{clip-path:url(#SVGID_130_);} .st68{clip-path:url(#SVGID_131_);} .st69{clip-path:url(#SVGID_132_);} .st70{clip-path:url(#SVGID_133_);} .st71{clip-path:url(#SVGID_134_);} .st72{clip-path:url(#SVGID_135_);} .st73{clip-path:url(#SVGID_136_);} .st74{clip-path:url(#SVGID_137_);} .st75{clip-path:url(#SVGID_138_);} .st76{clip-path:url(#SVGID_139_);} .st77{clip-path:url(#SVGID_140_);} .st78{clip-path:url(#SVGID_141_);} .st79{clip-path:url(#SVGID_142_);} .st80{clip-path:url(#SVGID_143_);} .st81{clip-path:url(#SVGID_144_);} .st82{clip-path:url(#SVGID_145_);} .st83{clip-path:url(#SVGID_146_);} .st84{clip-path:url(#SVGID_147_);} .st85{clip-path:url(#SVGID_148_);} .st86{clip-path:url(#SVGID_149_);} .st87{clip-path:url(#SVGID_150_);fill:#EAE3C5;} .st88{clip-path:url(#SVGID_150_);fill:#A7DDE9;} .st89{clip-path:url(#SVGID_150_);fill:#7DB7C1;} .st90{clip-path:url(#SVGID_150_);fill:#6AA2A8;} .st91{clip-path:url(#SVGID_150_);fill:none;stroke:#7DB7C1;stroke-width:1.9051;stroke-miterlimit:10;} .st92{fill:#D68FAF;} .st93{fill:#C34E8E;} .st94{fill:#D478A2;} .st95{fill:#CC84AA;} .st96{fill:#93662B;} .st97{fill:#A06D30;} .st98{opacity:0.47;fill:#B1447A;enable-background:new ;} .st99{fill:#F8F4E7;} .st100{fill:#603F19;} .st101{fill:#E5B1CB;} .st102{opacity:0.56;fill:none;stroke:#B1447A;stroke-width:0.8498;stroke-miterlimit:10;enable-background:new ;} .st103{opacity:0.35;fill:#E5B1CB;enable-background:new ;} .st104{opacity:0.4;fill:#E5B1CB;enable-background:new ;} .st105{fill:#B1447A;} .st106{opacity:0.75;fill:none;stroke:#B1447A;stroke-width:0.8498;stroke-miterlimit:10;enable-background:new ;} .st107{opacity:0.59;fill:none;stroke:#B1447A;stroke-width:0.8498;stroke-miterlimit:10;enable-background:new ;} .st108{fill:none;stroke:#755426;stroke-width:0.8498;stroke-miterlimit:10;}</style><circle class="st0" cx="485.7" cy="645.1" r="55.7"/><circle class="st1" cx="485.7" cy="645.1" r="49.5"/><text transform="translate(467.206 638.849)" class="st2 st3 st4">Lets</text><text transform="translate(457.906 659.349)" class="st2 st3 st4">LEARN</text><text transform="translate(269.188 69.015)" class="st5 st6">FONT</text><path class="st7" d="M266 80h47"/><text transform="translate(259.313 260)" class="st5 st6">COLORS</text><path class="st7" d="M266 271h47"/><text transform="translate(248.613 470)" class="st5 st6">ART WORK</text><path class="st7" d="M266 481h47"/><text transform="translate(98.601 125.097)" class="st5 st6">Lato Regular</text><text transform="translate(98.601 143.497)" class="st8 st9">Aa Bb Cc Dd Ee Ff Gg Hh Ii</text><text transform="translate(98.601 161.897)" class="st8 st9">Jj Kk Ll Mm Nn Oo Pp Qq Rr</text><text transform="translate(98.601 180.297)" class="st8 st9">Ss Tt Uu Vv Ww Xx Yy Zz</text><text transform="translate(319.601 125.097)" class="st5 st6">Lato Bold</text><text transform="translate(319.601 143.497)" class="st3 st9">Aa Bb Cc Dd Ee Ff Gg Hh Ii</text><text transform="translate(319.601 161.897)" class="st3 st9">Jj Kk Ll Mm Nn Oo Pp Qq Rr</text><text transform="translate(319.601 180.297)" class="st3 st9">Ss Tt Uu Vv Ww Xx Yy Zz</text><path class="st10" d="M238.6 292.2h116.6v144.9h-116.6z"/><text transform="translate(270.491 313.239)" class="st2 st3 st9">#E9E3C4</text><path class="st11" d="M103.6 292.2h116.6v144.9h-116.6z"/><path class="st12" d="M373.7 292.2h116.6v144.9h-116.6z"/><text transform="translate(132.624 312.753)" class="st2 st3 st9">#6AA3A7</text><text transform="translate(404.139 313.767)" class="st2 st3 st9">#D477A1</text><defs><path id="SVGID_1_" d="M85.8 518.4h117.3v228.7h-117.3z"/></defs><clipPath id="SVGID_2_"><use xlink:href="#SVGID_1_" overflow="visible"/></clipPath><g class="st13"><defs><path id="SVGID_3_" d="M85.8 518.4h117.3v228.7h-117.3z"/></defs><defs><path id="SVGID_4_" d="M85.8 518.4h117.3v228.7h-117.3z"/></defs><defs><path id="SVGID_5_" d="M85.8 518.4h117.3v228.7h-117.3z"/></defs><defs><path id="SVGID_6_" d="M85.8 518.4h117.3v228.7h-117.3z"/></defs><defs><path id="SVGID_7_" d="M85.8 518.4h117.3v228.7h-117.3z"/></defs><defs><path id="SVGID_8_" d="M85.8 518.4h117.3v228.7h-117.3z"/></defs><defs><path id="SVGID_9_" d="M85.8 518.4h117.3v228.7h-117.3z"/></defs><defs><path id="SVGID_10_" d="M85.8 518.4h117.3v228.7h-117.3z"/></defs><defs><path id="SVGID_11_" d="M85.8 518.4h117.3v228.7h-117.3z"/></defs><defs><path id="SVGID_12_" d="M85.8 518.4h117.3v228.7h-117.3z"/></defs><defs><path id="SVGID_13_" d="M85.8 518.4h117.3v228.7h-117.3z"/></defs><defs><path id="SVGID_14_" d="M85.8 518.4h117.3v228.7h-117.3z"/></defs><defs><path id="SVGID_15_" d="M85.8 518.4h117.3v228.7h-117.3z"/></defs><defs><path id="SVGID_16_" d="M85.8 518.4h117.3v228.7h-117.3z"/></defs><defs><path id="SVGID_17_" d="M85.8 518.4h117.3v228.7h-117.3z"/></defs><defs><path id="SVGID_18_" d="M85.8 518.4h117.3v228.7h-117.3z"/></defs><defs><path id="SVGID_19_" d="M85.8 518.4h117.3v228.7h-117.3z"/></defs><defs><path id="SVGID_20_" d="M85.8 518.4h117.3v228.7h-117.3z"/></defs><defs><path id="SVGID_21_" d="M85.8 518.4h117.3v228.7h-117.3z"/></defs><defs><path id="SVGID_22_" d="M85.8 518.4h117.3v228.7h-117.3z"/></defs><defs><path id="SVGID_23_" d="M85.8 518.4h117.3v228.7h-117.3z"/></defs><defs><path id="SVGID_24_" d="M85.8 518.4h117.3v228.7h-117.3z"/></defs><defs><path id="SVGID_25_" d="M85.8 518.4h117.3v228.7h-117.3z"/></defs><defs><path id="SVGID_26_" d="M85.8 518.4h117.3v228.7h-117.3z"/></defs><defs><path id="SVGID_27_" d="M85.8 518.4h117.3v228.7h-117.3z"/></defs><defs><path id="SVGID_28_" d="M85.8 518.4h117.3v228.7h-117.3z"/></defs><defs><path id="SVGID_29_" d="M85.8 518.4h117.3v228.7h-117.3z"/></defs><defs><path id="SVGID_30_" d="M85.8 518.4h117.3v228.7h-117.3z"/></defs><defs><path id="SVGID_31_" d="M85.8 518.4h117.3v228.7h-117.3z"/></defs><defs><path id="SVGID_32_" d="M85.8 518.4h117.3v228.7h-117.3z"/></defs><defs><path id="SVGID_33_" d="M85.8 518.4h117.3v228.7h-117.3z"/></defs><defs><path id="SVGID_34_" d="M85.8 518.4h117.3v228.7h-117.3z"/></defs><defs><path id="SVGID_35_" d="M85.8 518.4h117.3v228.7h-117.3z"/></defs><defs><path id="SVGID_36_" d="M85.8 518.4h117.3v228.7h-117.3z"/></defs><defs><path id="SVGID_37_" d="M85.8 518.4h117.3v228.7h-117.3z"/></defs><defs><path id="SVGID_38_" d="M85.8 518.4h117.3v228.7h-117.3z"/></defs><defs><path id="SVGID_39_" d="M85.8 518.4h117.3v228.7h-117.3z"/></defs><defs><path id="SVGID_40_" d="M85.8 518.4h117.3v228.7h-117.3z"/></defs><defs><path id="SVGID_41_" d="M85.8 518.4h117.3v228.7h-117.3z"/></defs><defs><path id="SVGID_42_" d="M85.8 518.4h117.3v228.7h-117.3z"/></defs><defs><path id="SVGID_43_" d="M85.8 518.4h117.3v228.7h-117.3z"/></defs><defs><path id="SVGID_44_" d="M85.8 518.4h117.3v228.7h-117.3z"/></defs><defs><path id="SVGID_45_" d="M85.8 518.4h117.3v228.7h-117.3z"/></defs><defs><path id="SVGID_46_" d="M85.8 518.4h117.3v228.7h-117.3z"/></defs><defs><path id="SVGID_47_" d="M85.8 518.4h117.3v228.7h-117.3z"/></defs><defs><path id="SVGID_48_" d="M85.8 518.4h117.3v228.7h-117.3z"/></defs><defs><path id="SVGID_49_" d="M85.8 518.4h117.3v228.7h-117.3z"/></defs><defs><path id="SVGID_50_" d="M85.8 518.4h117.3v228.7h-117.3z"/></defs><defs><path id="SVGID_51_" d="M85.8 518.4h117.3v228.7h-117.3z"/></defs><defs><path id="SVGID_52_" d="M85.8 518.4h117.3v228.7h-117.3z"/></defs><defs><path id="SVGID_53_" d="M85.8 518.4h117.3v228.7h-117.3z"/></defs><defs><path id="SVGID_54_" d="M85.8 518.4h117.3v228.7h-117.3z"/></defs><defs><path id="SVGID_55_" d="M85.8 518.4h117.3v228.7h-117.3z"/></defs><defs><path id="SVGID_56_" d="M85.8 518.4h117.3v228.7h-117.3z"/></defs><defs><path id="SVGID_57_" d="M85.8 518.4h117.3v228.7h-117.3z"/></defs><defs><path id="SVGID_58_" d="M85.8 518.4h117.3v228.7h-117.3z"/></defs><defs><path id="SVGID_59_" d="M85.8 518.4h117.3v228.7h-117.3z"/></defs><defs><path id="SVGID_60_" d="M85.8 518.4h117.3v228.7h-117.3z"/></defs><defs><path id="SVGID_61_" d="M85.8 518.4h117.3v228.7h-117.3z"/></defs><defs><path id="SVGID_62_" d="M85.8 518.4h117.3v228.7h-117.3z"/></defs><defs><path id="SVGID_63_" d="M85.8 518.4h117.3v228.7h-117.3z"/></defs><defs><path id="SVGID_64_" d="M85.8 518.4h117.3v228.7h-117.3z"/></defs><defs><path id="SVGID_65_" d="M85.8 518.4h117.3v228.7h-117.3z"/></defs><defs><path id="SVGID_66_" d="M85.8 518.4h117.3v228.7h-117.3z"/></defs><defs><path id="SVGID_67_" d="M85.8 518.4h117.3v228.7h-117.3z"/></defs><defs><path id="SVGID_68_" d="M85.8 518.4h117.3v228.7h-117.3z"/></defs><defs><path id="SVGID_69_" d="M85.8 518.4h117.3v228.7h-117.3z"/></defs><defs><path id="SVGID_70_" d="M85.8 518.4h117.3v228.7h-117.3z"/></defs><defs><path id="SVGID_71_" d="M85.8 518.4h117.3v228.7h-117.3z"/></defs><defs><path id="SVGID_72_" d="M85.8 518.4h117.3v228.7h-117.3z"/></defs><defs><path id="SVGID_73_" d="M85.8 518.4h117.3v228.7h-117.3z"/></defs><defs><path id="SVGID_74_" d="M85.8 518.4h117.3v228.7h-117.3z"/></defs><defs><path id="SVGID_75_" d="M85.8 518.4h117.3v228.7h-117.3z"/></defs><defs><path id="SVGID_76_" d="M85.8 518.4h117.3v228.7h-117.3z"/></defs><clipPath id="SVGID_77_"><use xlink:href="#SVGID_3_" overflow="visible"/></clipPath><clipPath id="SVGID_78_" class="st14"><use xlink:href="#SVGID_4_" overflow="visible"/></clipPath><clipPath id="SVGID_79_" class="st15"><use xlink:href="#SVGID_5_" overflow="visible"/></clipPath><clipPath id="SVGID_80_" class="st16"><use xlink:href="#SVGID_6_" overflow="visible"/></clipPath><clipPath id="SVGID_81_" class="st17"><use xlink:href="#SVGID_7_" overflow="visible"/></clipPath><clipPath id="SVGID_82_" class="st18"><use xlink:href="#SVGID_8_" overflow="visible"/></clipPath><clipPath id="SVGID_83_" class="st19"><use xlink:href="#SVGID_9_" overflow="visible"/></clipPath><clipPath id="SVGID_84_" class="st20"><use xlink:href="#SVGID_10_" overflow="visible"/></clipPath><clipPath id="SVGID_85_" class="st21"><use xlink:href="#SVGID_11_" overflow="visible"/></clipPath><clipPath id="SVGID_86_" class="st22"><use xlink:href="#SVGID_12_" overflow="visible"/></clipPath><clipPath id="SVGID_87_" class="st23"><use xlink:href="#SVGID_13_" overflow="visible"/></clipPath><clipPath id="SVGID_88_" class="st24"><use xlink:href="#SVGID_14_" overflow="visible"/></clipPath><clipPath id="SVGID_89_" class="st25"><use xlink:href="#SVGID_15_" overflow="visible"/></clipPath><clipPath id="SVGID_90_" class="st26"><use xlink:href="#SVGID_16_" overflow="visible"/></clipPath><clipPath id="SVGID_91_" class="st27"><use xlink:href="#SVGID_17_" overflow="visible"/></clipPath><clipPath id="SVGID_92_" class="st28"><use xlink:href="#SVGID_18_" overflow="visible"/></clipPath><clipPath id="SVGID_93_" class="st29"><use xlink:href="#SVGID_19_" overflow="visible"/></clipPath><clipPath id="SVGID_94_" class="st30"><use xlink:href="#SVGID_20_" overflow="visible"/></clipPath><clipPath id="SVGID_95_" class="st31"><use xlink:href="#SVGID_21_" overflow="visible"/></clipPath><clipPath id="SVGID_96_" class="st32"><use xlink:href="#SVGID_22_" overflow="visible"/></clipPath><clipPath id="SVGID_97_" class="st33"><use xlink:href="#SVGID_23_" overflow="visible"/></clipPath><clipPath id="SVGID_98_" class="st34"><use xlink:href="#SVGID_24_" overflow="visible"/></clipPath><clipPath id="SVGID_99_" class="st35"><use xlink:href="#SVGID_25_" overflow="visible"/></clipPath><clipPath id="SVGID_100_" class="st36"><use xlink:href="#SVGID_26_" overflow="visible"/></clipPath><clipPath id="SVGID_101_" class="st37"><use xlink:href="#SVGID_27_" overflow="visible"/></clipPath><clipPath id="SVGID_102_" class="st38"><use xlink:href="#SVGID_28_" overflow="visible"/></clipPath><clipPath id="SVGID_103_" class="st39"><use xlink:href="#SVGID_29_" overflow="visible"/></clipPath><clipPath id="SVGID_104_" class="st40"><use xlink:href="#SVGID_30_" overflow="visible"/></clipPath><clipPath id="SVGID_105_" class="st41"><use xlink:href="#SVGID_31_" overflow="visible"/></clipPath><clipPath id="SVGID_106_" class="st42"><use xlink:href="#SVGID_32_" overflow="visible"/></clipPath><clipPath id="SVGID_107_" class="st43"><use xlink:href="#SVGID_33_" overflow="visible"/></clipPath><clipPath id="SVGID_108_" class="st44"><use xlink:href="#SVGID_34_" overflow="visible"/></clipPath><clipPath id="SVGID_109_" class="st45"><use xlink:href="#SVGID_35_" overflow="visible"/></clipPath><clipPath id="SVGID_110_" class="st46"><use xlink:href="#SVGID_36_" overflow="visible"/></clipPath><clipPath id="SVGID_111_" class="st47"><use xlink:href="#SVGID_37_" overflow="visible"/></clipPath><clipPath id="SVGID_112_" class="st48"><use xlink:href="#SVGID_38_" overflow="visible"/></clipPath><clipPath id="SVGID_113_" class="st49"><use xlink:href="#SVGID_39_" overflow="visible"/></clipPath><clipPath id="SVGID_114_" class="st50"><use xlink:href="#SVGID_40_" overflow="visible"/></clipPath><clipPath id="SVGID_115_" class="st51"><use xlink:href="#SVGID_41_" overflow="visible"/></clipPath><clipPath id="SVGID_116_" class="st52"><use xlink:href="#SVGID_42_" overflow="visible"/></clipPath><clipPath id="SVGID_117_" class="st53"><use xlink:href="#SVGID_43_" overflow="visible"/></clipPath><clipPath id="SVGID_118_" class="st54"><use xlink:href="#SVGID_44_" overflow="visible"/></clipPath><clipPath id="SVGID_119_" class="st55"><use xlink:href="#SVGID_45_" overflow="visible"/></clipPath><clipPath id="SVGID_120_" class="st56"><use xlink:href="#SVGID_46_" overflow="visible"/></clipPath><clipPath id="SVGID_121_" class="st57"><use xlink:href="#SVGID_47_" overflow="visible"/></clipPath><clipPath id="SVGID_122_" class="st58"><use xlink:href="#SVGID_48_" overflow="visible"/></clipPath><clipPath id="SVGID_123_" class="st59"><use xlink:href="#SVGID_49_" overflow="visible"/></clipPath><clipPath id="SVGID_124_" class="st60"><use xlink:href="#SVGID_50_" overflow="visible"/></clipPath><clipPath id="SVGID_125_" class="st61"><use xlink:href="#SVGID_51_" overflow="visible"/></clipPath><clipPath id="SVGID_126_" class="st62"><use xlink:href="#SVGID_52_" overflow="visible"/></clipPath><clipPath id="SVGID_127_" class="st63"><use xlink:href="#SVGID_53_" overflow="visible"/></clipPath><clipPath id="SVGID_128_" class="st64"><use xlink:href="#SVGID_54_" overflow="visible"/></clipPath><clipPath id="SVGID_129_" class="st65"><use xlink:href="#SVGID_55_" overflow="visible"/></clipPath><clipPath id="SVGID_130_" class="st66"><use xlink:href="#SVGID_56_" overflow="visible"/></clipPath><clipPath id="SVGID_131_" class="st67"><use xlink:href="#SVGID_57_" overflow="visible"/></clipPath><clipPath id="SVGID_132_" class="st68"><use xlink:href="#SVGID_58_" overflow="visible"/></clipPath><clipPath id="SVGID_133_" class="st69"><use xlink:href="#SVGID_59_" overflow="visible"/></clipPath><clipPath id="SVGID_134_" class="st70"><use xlink:href="#SVGID_60_" overflow="visible"/></clipPath><clipPath id="SVGID_135_" class="st71"><use xlink:href="#SVGID_61_" overflow="visible"/></clipPath><clipPath id="SVGID_136_" class="st72"><use xlink:href="#SVGID_62_" overflow="visible"/></clipPath><clipPath id="SVGID_137_" class="st73"><use xlink:href="#SVGID_63_" overflow="visible"/></clipPath><clipPath id="SVGID_138_" class="st74"><use xlink:href="#SVGID_64_" overflow="visible"/></clipPath><clipPath id="SVGID_139_" class="st75"><use xlink:href="#SVGID_65_" overflow="visible"/></clipPath><clipPath id="SVGID_140_" class="st76"><use xlink:href="#SVGID_66_" overflow="visible"/></clipPath><clipPath id="SVGID_141_" class="st77"><use xlink:href="#SVGID_67_" overflow="visible"/></clipPath><clipPath id="SVGID_142_" class="st78"><use xlink:href="#SVGID_68_" overflow="visible"/></clipPath><clipPath id="SVGID_143_" class="st79"><use xlink:href="#SVGID_69_" overflow="visible"/></clipPath><clipPath id="SVGID_144_" class="st80"><use xlink:href="#SVGID_70_" overflow="visible"/></clipPath><clipPath id="SVGID_145_" class="st81"><use xlink:href="#SVGID_71_" overflow="visible"/></clipPath><clipPath id="SVGID_146_" class="st82"><use xlink:href="#SVGID_72_" overflow="visible"/></clipPath><clipPath id="SVGID_147_" class="st83"><use xlink:href="#SVGID_73_" overflow="visible"/></clipPath><clipPath id="SVGID_148_" class="st84"><use xlink:href="#SVGID_74_" overflow="visible"/></clipPath><clipPath id="SVGID_149_" class="st85"><use xlink:href="#SVGID_75_" overflow="visible"/></clipPath><clipPath id="SVGID_150_" class="st86"><use xlink:href="#SVGID_76_" overflow="visible"/></clipPath><path class="st87" d="M129.2 583.7s0 1.7 1.4 1.8c1.4.1 1.5-1.6 1.5-1.6l-2.9-.2zM134.1 584.8l2.6.3s.4 1.7-1.4 2c-1.9.2-2.1-2-1.2-2.3M138.3 584.9l2.5.4s.3 2-1.7 1.7c-2-.3-.8-2.1-.8-2.1"/><path class="st87" d="M141.4 584.7l.3 3.2 2.9.1-.1-3.5zM144.8 584.4l.4 3.7 2.9.1-.2-3.4zM155.7 583.5s.3 2.2-1.4 2.6c-1.7.4-2.2-1.7-2.2-1.7l3.6-.9zM151.4 584.5l-2.7.2s-.5 1.6 1.5 1.9c1.9.4 2.1-1.7 1.2-2.1"/><path class="st88" d="M97.5 617.9s-3-2.6-1.4-4.1c1.5-1.6 3-1.4 4.5-.5 1.5 1 3.6.1 3.6.1s2.2 0 1.6 3l-2.2 3.5s-3.1 9.9-4.5 17.4l-.2 7.4s-.2 2.2-2.2 2.2-7.8 1.6-7.3-3.1c.6-4.7 3.8-2.1 3.8-2.1s5.2-18.6 4.3-23.8"/><path class="st89" d="M92.9 647.7s-1.5.6-.6 3.8c1 3.3 3.7 11 3.6 16-.1 4.9.4 4.7 1.6 4.7 1.2-.1 2.2-2.5 1.8-4.1-.4-1.6-2.3-9.4-2.3-9.4s-1.1-4-.1-6.1l.8-5.9s.3-1.5-4.8 1"/><path class="st90" d="M89.9 646.1s-3.3 1.8-.8 4.2l1.5 8.5s-.2 5.2 1 10c0 0 .1 1.7-.4 3.2s3.8 1.7 4.2-.1l-1.2-5.3s-.3-1.2.5-6.5c.8-5.4.1-13.4.1-13.4s-1.9.7-4.9-.6"/><path class="st88" d="M91.3 674.6s6.5 2.9 8.6-.2c2.1-3.1-4.2-3.5-4.6-1.4.1 0-5-1.3-4 1.6"/><path class="st90" d="M92.3 674.9l1.8.6s-.9 4.3-.7 5.9c0 0-1 .6-2.2-.5 0 0 .6-1.1.8-2.5l.3-3.5z"/><path class="st89" d="M91.6 681.2s.7.3 1.2.3v4.3s-1.6.3-1.9-.6c-.3-.9.6-1.3.6-1.9.1-.6.1-2.1.1-2.1"/><path class="st90" d="M94.3 675.4l1.9.5s-.7 4.3-.3 6c0 0-1 .7-2.2-.4 0 0 .6-1.1.7-2.6l-.1-3.5z"/><path class="st89" d="M94 681.8s.7.3 1.2.2l.2 4.3s-1.5.4-2-.4c-.4-.8.5-1.3.5-1.9.2-.7.1-2.2.1-2.2"/><path class="st90" d="M98.5 675.2l-1.9.5s.8 4.3.5 5.9c0 0 1 .7 2.2-.5 0 0-.6-1.1-.8-2.5v-3.4z"/><path class="st89" d="M99 681.6s-.7.3-1.2.3l-.1 4.3s1.6.4 2-.5c.4-.9-.6-1.3-.6-1.9l-.1-2.2"/><path class="st90" d="M99.7 612.1s3.2-3.4 8.6-3.4c0 0-.4 5.5 4.7 4.7 5.2-.9 14.9-.6 18 1 0 0-.9 12.9-17.7 11.2 0 0-3.3-4.9-5.7-4.2 0 0 2.3-3 1.2-6-1-3.1-9.7 3.4-9.7 3.4l.6-6.7z"/><path class="st88" d="M108 608.7s14.5-2.8 24.7 1.8c0 0-2.4 1.8-2.3 3.7 0 0-3.6-2.3-19-.7 0 .1-4 .5-3.4-4.8"/><path class="st89" d="M137.6 633.9s-5.5 6-6 8.1c-.4 2-2 20.5-12.8 17.4 0 0-5.5-2.5-3.7-7.7 1.7-5.1 4.1 2.4 5.5 2.4s2.8-.8 2.8-1.9c0 0-11.3.7-11.4-5.4-.1-6.1 3.6 1.1 7.3 1.5 3.7.5 7.7-1.7 7.7-3.7 0 0-15.2 5.7-16-5.6 0 0 .3-2.4 5 .8 4.6 3.3 13.1-.2 13.3-2.7 0 0-14.3 5.5-17.9-4s5.8 1.9 10.6 1.3c4.8-.6 11.8-2.7 13.2-4.8l2.4 4.3z"/><path class="st88" d="M138.3 651.9v1.6l-4.4 1.9s-.6.3-.1 1.1 11.1 3.6 18.3 1.4c7.2-2.1 4.2-2.7 4.2-2.7l-3.7-1.3-.6-2h-13.7z"/><path class="st89" d="M134.8 629.1l-.4-3.4s-9.7 7.6-19.4-1.4c0 0-2.6.2-1.8 4.2 0 0 10.5 10.2 21.6.6M131.3 614.5s2.4.9 2.4 4c0 3-16 2.6-16.2-5.1 0 0 .1-3.2 4.5 0s9.3 1.1 9.3 1.1M133.7 621.7l.4 3.3s-15.7 6.1-18.4-3.9c0 0-.4-3.7 1.7-2.9.1.1 7.8 8.8 16.3 3.5"/><path class="st89" d="M137.3 636.6s-2.9 6.4.8 7.4l14.3-.1s1.6-3.9-.9-6.9l-14.2-.4z"/><path class="st90" d="M138.4 643.9v2.1l-4.4 2.5s-.6.4-.1 1.4 11.1 4.6 18.3 1.9c7.2-2.7 4.2-3.5 4.2-3.5l-3.7-1.6-1.2-3-13.1.2zM114.3 669c-.3-2.9-.1-7.4 7.6-8.8 7.7-1.3 9.9.2 12.7 4.5l2.8 4.3-.4 6.1s-4.5-4.2-8.9-.6 9.9 8.4 9.9 8.4 1.2 5.7 3.1 6.4c0 0-4.9 5.9-12.9 2.1l-5.3-11.4s.7-1.5-3.5-4.2-4.9-4.7-5.1-6.8"/><path class="st89" d="M125.9 693s-3.5-1-1.9-3.4l4.5-.9s.9.4 1.6 0c.7-.4 2.8-1.2 4.2.5 1.5 1.7-1.9 3.4-1.9 3.4l-2.1 16.8s0 .9.5 1.1c.5.2 3.1 2.4 1.4 3.6-1.7 1.2-8.9 1.5-11.4.1s-.3-3.7 3.2-4.6l2.1-15.9s.3-.5-.2-.7"/><path class="st88" d="M129.8 731.6s-.1.6-3 .4c-1.8-.1-2.2.7-2.3 1.4 0 .4.1.7.1.7s2.4 1.1 2.4 2.3 3.6 3.8 5.1 2.7 3.7-2.9 5.1-2.9c1.5 0 2.1-2.3.9-3.3-1.2-1-2.6-2-2.6-2l-1.9-1.5s-1.1-.1-1.3-.1c-.2 0-1.8.5-1.8.5l-.7 1.8z"/><path class="st89" d="M196.6 674.4s-.7.3-1.2.3v4.3s1.6.3 1.9-.6c.3-.9-.6-1.3-.6-1.9 0-.6-.1-2.1-.1-2.1"/><path class="st90" d="M116.9 736.1s1.6 2.3 1.6 3.4c0 0-.1.4.3.5.3.1 2.5 1.7 2.2 3.4 0 0 1.5-.3 1.7 0 0 0 3.1-2.5 5.5-2.8 2.4-.3 2-1.2 2-1.2l-3.9-6h-1.6c-.2-.2-3.8 2-7.8 2.7"/><path class="st89" d="M194.2 674.9s-.7.3-1.2.2l-.2 4.3s1.5.4 2-.4c.4-.8-.5-1.3-.5-1.9-.1-.6-.1-2.2-.1-2.2"/><path class="st89" d="M116.8 736s-2.4 0-2.8 1 1 6.8 1 6.9 5.6.6 5.9-.4l-1.1-6.6-1.5-.5-1.5-.4zM189.3 674.7s.7.3 1.2.3l.1 4.3s-1.6.4-2-.5.6-1.3.6-1.9c.1-.7.1-2.2.1-2.2M114.5 736.9l.9 7.2s-5.4-1.1-5.4-3.1c0 0-.4-2.4 1.2-3.1 1.7-.8 3.3-1 3.3-1"/><path class="st90" d="M125.9 713.8s3.9-.6 4.4.4l-.9 2.1s-.2 0-.1.6c.2.7 2.7 10.2 2.5 12.4 0 0 1.3.5 1.5 1.3s-1.2 1.5-2.1.9c-.9-.6-1.2.2-1.2.2s-.2.6-1.1-.1c-1-.7.8-1.5.8-1.5s.1-1.1-.5-2-3.7-11-3.4-11.6c0 0-2.5-.8-1-2.1l1.1-.6zM122.3 608.1s8.1-6.1 13-6.3l-.1 10.6-12.9-4.3z"/><path class="st88" d="M191.3 611.6s3-2.6 1.4-4.1c-1.5-1.6-3-1.4-4.5-.5-1.5 1-3.6.1-3.6.1s-2.2 0-1.6 3l2.2 3.5s3.1 9.9 4.5 17.4l.2 7.4s.2 2.2 2.2 2.2 7.8 1.6 7.3-3.1c-.6-4.7-3.8-2.1-3.8-2.1s-5.2-18.5-4.3-23.8"/><path class="st89" d="M195.9 641.2s1.5.6.6 3.8c-1 3.3-3.7 11-3.6 16 .1 4.9-.4 4.7-1.6 4.7-1.2-.1-2.2-2.5-1.8-4.1l2.3-9.4s1.1-4 .1-6.1l-.8-5.9s-.3-1.5 4.8 1"/><path class="st90" d="M198.9 639.8s3.3 1.8.8 4.2l-1.5 8.5s.2 5.2-1 10c0 0-.1 1.7.4 3.2s-3.8 1.7-4.2-.1l1.2-5.3s.3-1.2-.5-6.5c-.8-5.4-.1-13.4-.1-13.4s1.9.6 4.9-.6"/><path class="st90" d="M196 668.3l-1.8.6s.9 4.3.7 5.9c0 0 1 .6 2.2-.5 0 0-.6-1.1-.8-2.5l-.3-3.5zM194 668.9l-1.9.5s.7 4.3.3 6c0 0 1 .7 2.2-.4 0 0-.6-1.1-.7-2.6l.1-3.5zM189.8 668.6l1.9.5s-.8 4.3-.5 5.9c0 0-1 .7-2.2-.5 0 0 .6-1.1.8-2.5v-3.4zM186.8 607.7s-3.6-3-8.9-2.4c0 0 1.1 5.5-4.2 5.2-5.2-.3-14.9 1.2-17.8 3.1 0 0 2.4 12.6 18.9 9 0 0 2.8-5.2 5.2-4.8 0 0-2.6-2.7-1.9-5.8.7-3.2 10.1 2.3 10.1 2.3l-1.4-6.6z"/><path class="st88" d="M177.9 605.4s-14.4-1.1-24.1 4.5c0 0 2 2 2 4 0 0 3.8-3 19.3-3-.1 0 3.9-.4 2.8-5.5M197.5 668.1s-6.5 2.9-8.6-.2c-2.1-3.1 4.2-3.5 4.6-1.4-.1 0 5-1.3 4 1.6"/><path class="st89" d="M151 633.8s5.3 6.2 5.7 8.3c.3 2 1.4 20.5 12.2 17.8 0 0 5.5-2.3 4-7.5s-4.2 2.3-5.5 2.3c-1.4 0-2.7-.9-2.7-2 0 0 11.3 1.1 11.6-5s-3.6.9-7.4 1.3c-3.8.4-7.7-2-7.6-3.9 0 0 15 6.2 16.2-5.1 0 0-.2-2.5-5 .7-4.7 3.1-13.1-.7-13.2-3.1 0 0 14.1 6 18-3.4 3.9-9.4-5.8 1.7-10.6 1s-11.7-2.9-13-5l-2.7 3.6zM153.6 629.7l.8-3.3s9.3 7.5 19-1.5c0 0 2.6.2 1.8 4.2 0 0-10.4 10.2-21.6.6M155.9 615s-1.9 1.1-1.9 4.1 15.5 2.5 15.7-5.2c0 0-.1-3.2-4.5 0-4.4 3.1-9.3 1.1-9.3 1.1M154.3 622.2l-.1 3.3s15.4 6.1 18.1-3.9c0 0 .4-3.7-1.7-2.9-.1 0-7.8 8.8-16.3 3.5"/><path class="st90" d="M176.9 670.3c.5-2.9.5-7.4-7.1-9.2-7.6-1.8-9.9-.3-12.9 3.8l-3 4.1.1 6.1s4.7-4 8.9-.1-10.3 7.8-10.3 7.8-1.6 5.6-3.5 6.2c0 0 4.5 6.1 12.7 2.8l6-11s-.7-1.6 3.7-4c4.3-2.5 5-4.4 5.4-6.5"/><path class="st89" d="M163.1 693.6s3.5-1 1.9-3.4l-4.5-.9s-.9.4-1.6 0c-.7-.4-2.8-1.2-4.2.5-1.5 1.7 1.9 3.4 1.9 3.4l2.1 16.8s0 .9-.5 1.1c-.5.2-3.1 2.4-1.4 3.6 1.7 1.2 8.9 1.5 11.4.1 2.6-1.5.3-3.7-3.2-4.6l-2.1-15.9s-.3-.5.2-.7"/><path class="st88" d="M159.2 732.2s.1.6 3 .4c1.8-.1 2.2.7 2.3 1.4 0 .4-.1.7-.1.7s-2.4 1.1-2.4 2.3-3.6 3.8-5.1 2.7-3.7-2.9-5.1-2.9c-1.5 0-2.1-2.3-.9-3.3 1.2-1 2.6-2 2.6-2l1.9-1.5s1.1-.1 1.3-.1c.2 0 1.8.5 1.8.5l.7 1.8z"/><path class="st90" d="M172.1 736.6s-1.6 2.3-1.6 3.4c0 0 .1.4-.3.5-.3.1-2.5 1.7-2.2 3.4 0 0-1.5-.3-1.7 0 0 0-3.1-2.5-5.5-2.8l-2-1.2 3.9-6h1.6c.2-.1 3.8 2.1 7.8 2.7"/><path class="st89" d="M172.2 736.5s2.4 0 2.8 1c.4 1-1 6.8-1 6.9 0 .2-5.6.6-5.9-.4-.3-1 1.1-6.6 1.1-6.6l1.5-.5 1.5-.4zM174.9 737.3l-.9 7.2s5.4-1.1 5.4-3.1c0 0 .4-2.4-1.2-3.1-1.6-.8-3.3-1-3.3-1"/><path class="st90" d="M162 607.4s-8.1-6.6-13-6.8l.1 11.5 12.9-4.7zM163 714.3s-3.9-.6-4.4.4l.9 2.1s.2 0 .1.6c-.2.7-2.7 10.2-2.5 12.4 0 0-1.3.5-1.5 1.3-.2.8 1.2 1.5 2.1.9l1.2.2s.2.6 1.1-.1c1-.7-.8-1.5-.8-1.5s-.1-1.1.5-2c.6-.9 3.7-11 3.4-11.6 0 0 2.5-.8 1-2.1l-1.1-.6z"/><path class="st88" d="M121.9 590.9s7.3 3.8 7.3 6.4c0 0 8.7 3.9 25.1 1.4 0 0 8.9-6.4 10.7-6.7 0 0-.6-9.9 1.4-12.1 0 0-1.9-1.2-7.2.9 0 0 .9 8.2-1 8.9 0 0-11.9 3-29.2-.2 0 0-2.2-5.5-.9-8.9 0 0-3.1-1.7-8.1-.4 0 .2 4 5 1.9 10.7M141.1 690.3s5.9 5 9 0c0 0 7.9-14.8 3.2-24.7 0 0-10.5 1.5-15.7-.1-.1.1-4.9 11.6 3.5 24.8"/><path class="st89" d="M119.6 580.1s-8.1-2.1-5.5-7.2c0 0 .9-1.5 3.3-1.5 0 0-8.4-5.8 1-14.6l36.8-5.6s18.7 2.2 17.5 14.7c0 0-.4 4.3-2.6 5.4 0 0 4.1 1.8 2.9 4.4-1.2 2.6-4.4 4.8-6.6 4-2.1-.8-7.7.1-9 3.1 0 0-17.9 5.5-29.7.1l.4-2.4c0 .2-1.8-1-8.5-.4"/><path class="st91" d="M119.6 580.1s-8.1-2.1-5.5-7.2c0 0 .9-1.5 3.3-1.5 0 0-8.4-5.8 1-14.6l36.8-5.6s18.7 2.2 17.5 14.7c0 0-.4 4.3-2.6 5.4 0 0 4.1 1.8 2.9 4.4-1.2 2.6-4.4 4.8-6.6 4-2.1-.8-7.7.1-9 3.1 0 0-17.9 5.5-29.7.1l.4-2.4c0 .2-1.8-1-8.5-.4z"/><path class="st90" d="M134 568.4c0 2.9-2.4 5.3-5.3 5.3s-5.3-2.4-5.3-5.3 2.4-5.3 5.3-5.3c3 0 5.3 2.4 5.3 5.3M164.1 568.4c0 2.9-2.4 5.3-5.3 5.3s-5.3-2.4-5.3-5.3 2.4-5.3 5.3-5.3 5.3 2.4 5.3 5.3M142.3 575.8s1.6-.8 2.4.3c.8 1 2.9 1.3 3.1-.4.2-1.8-1.8-3.7-3.9-3.6-2.1.1-4.5.3-5.1 3.1-.5 2.8 3.5.6 3.5.6M136.1 661.1s-1.5.3-.9 1.6c0 0 3.9 2.4 3.9 3.4 0 0 8.1 1 12.4.1 0 0 2.5-2.8 3.8-3.3l.2-1.4s-4.4-2-4.6-3.4c0 0-6.1.5-11-.1.1 0-1.8 2.6-3.8 3.1"/><path class="st89" d="M134.9 602.3s-1.4 2.1-.2 3.2c0 0 9.9 2 14.4.2 0 0 .8-2-.2-3.5l-14 .1z"/><path class="st90" d="M134.9 598.9s-1.4 2.5-.3 3.6c0 0 9.9 1.7 14.4 0 0 0 .7-1.6-.2-3.1l-13.9-.5z"/><path class="st88" d="M134.8 605.5s-1.3 3.6-.1 4.7c0 0 9.9 1.2 14.5 0 0 0 .8-3.1-.2-4.6l-14.2-.1z"/><path class="st90" d="M133.7 610l20 .1s6.8 2.3.7 7v11.2s-2.8 9.4-11.6 9.1c-6.9-.2-8.5-9.5-8.9-13.7-.1-1.2-.1-2-.1-2s1-4.8-3.3-7.4c-.1 0-.2-3.4 3.2-4.3"/><path class="st89" d="M135.7 553.8s1.7-1.2 4.7.3c0 0-2.5-21.8-2.3-29.1.1-2.3-6.6-6.3-7.1 1.4-.5 6.8 4.6 27 4.6 27l.1.4z"/><path class="st91" d="M135.7 553.8s1.7-1.2 4.7.3c0 0-2.5-21.8-2.3-29.1.1-2.3-6.6-6.3-7.1 1.4-.5 6.8 4.6 27 4.6 27l.1.4z"/><path class="st89" d="M146.5 552.5s1.9-.8 4.5 1.3c0 0 2.2-21.8 3.9-28.9.5-2.2-5.1-7.5-7.3-.1-1.9 6.6-1.2 27.3-1.2 27.3l.1.4z"/><path class="st91" d="M146.5 552.5s1.9-.8 4.5 1.3c0 0 2.2-21.8 3.9-28.9.5-2.2-5.1-7.5-7.3-.1-1.9 6.6-1.2 27.3-1.2 27.3l.1.4z"/></g><path class="st92" d="M253.9 689.9l14.5 19.2s-.4 5.4-6.5 2.6c0 0-5.1 4.4-5.9-1.9 0 0-3.6 3.5-5.9 0l2.1-5.4s-6.5 3.3-4-2.6c0 0-6.1-1.4-.7-3.6 0 0-4.7-2.3-1.4-5.2 0 0 1.9-1.4 4.2.4-.1-.2-2.7-3.5 3.6-3.5z"/><path class="st93" d="M352.4 633.4s-5.8 19.7-4.5 24.4c1.4 4.6 23.2 40.8 23.2 40.8s.3 4.6-3.3 5.2c-3.6.6-1.4-4.2-1.4-4.2s-6.7 4.6-6.9-1.3c0 0-8.4 3.3-3.7-5.7l-24.3-28.9s-20.5-26.9-10.7-42.1c9.7-15.1 24-7.4 24-7.4s10.6 9.7 7.6 19.2z"/><path class="st94" d="M382.1 576c3.8.4 6.6-1 6.6-1-6 .3-11-3-11-3-3.9-5.3-8.1-8.8-11.6-11 1.3-.2 2.4-.7 2.4-2 0 0-1.4 1.1-4.2.9-3.7-2.1-6.4-2.7-6.4-2.7 1-1.1 6.3-1.1 6.3-1.1-3-2.4-9.4-.4-9.4-.4-.2-2.1 4.4-4.7 4.4-4.7-3.5-.9-6.2 2.5-6.2 2.5s-2.5-9.7-2.1-6.3c.3 3.4-1.9 5.4-1.9 5.4-1.6-.1-3.3-5.2-3.3-5.2l.2 5.5v1c-.1-.4-.3-.8-.5-1.1-2.1-2.8-8.9-2-8.9-2 .9 0 2.1.5 3.1 1.1-2-.2-4.2-.3-6.5-.4 0 0-9.8.3-16.7 3.8-6.9 3.5-16-5.9-16-5.9s-1.2 5 3.8 6.8c0 0-8.4.4-9.6 2.4l6.3.5s-5.1 2.1-6.2 6.4c0 0 6.4-4.1 7.9-2.3 0 0-6.5 6.4-10.3 15.2 0 0-.3.3-.7.9-1.8.3-3 .4-3 .4.3.5 1 .8 1.8 1-1.5 1.7-3.6 4-5.5 6-2.2.6-3.8 1-3.8 1 .4.4 1 .8 1.8 1-1.2 1.2-2.2 2.1-2.7 2.2 0 0 2.4 1 5.3-1.6.3-.2.5-.5.8-.8 1.1-1.3.8-.6-.4.8-2.3 2.8-8 8.7-13 10.7 0 0 5.6-.1 7.7-1.6-2.2 1.8-11.9 10.3-12.6 13.7 0 0 3.7-1.9 5.4-3.4-.7.7-7.8 8.6-8.4 11.2l5.8-5-2.9 7.5s6-5.6 9.3-3.9c0 0-21.7 26.6-24.7 48.3 0 0-7.8 37.2 23.4 50.4 3.3 1.4 11.7 3.1 14 3.1 0 0 2.8 6.5.7 12.7 0 0-.8 3.4-1.9 4.6 0 0-1.2 1.3.4 2.4 0 0 .9.8 4.2-.1 3.4-.9 9.3 1.6 9.3 1.6s11.2 3.2 13.9-.7c2.7-3.9-7.3-4.2-7.3-4.2l-14.4-.9s-1.6-3.8 1-5.8c0 0 5.6-6.4 9.4-5.1 0 0 9.7 1.1 6.3-16.1-3.4-17.2.3-27.9.3-27.9s5.1-12.8 6.5-13.8c1.3-1-3.1-11.3-3.1-11.3s-4.4-11.9-1.2-17.1c3.2-5.2 7.5-11.2 20.8-13.7 12.2-2.2 13.9 3.7 14.1 4.7-.1-1-.7-6.7.1-9.6 2.8 1.3 5.8 0 7.4-.8l.9-.1c-.3 3.3 2.8 3.7 2.8 3.7-.8-2.4-.2-3.6.4-4.1l.6-.1c-.5 1.7 1.4 2.9 1.4 2.9-.1-1.6.8-1.9 1.7-1.9 1.1 2.5 5 2.2 5 2.2-1.2 0 1.4-8.6 1.4-8.6 3.7-.7 10.8-13.1 10.8-13.1.9 1.7 5.1 1.6 5.1 1.6-2.3-1.9-3-5.7-3-5.7 1-8-1.7-14.9-1.7-14.9l6.1-.9-5.8-4.2zm-101.1 22.2c-.1.1-.1.1-.2.1.1-.1.2-.2.3-.2 0 .1-.1.1-.1.1z"/><path class="st95" d="M304.5 724.5s13.5 1.3 19-.2c0 0 2.3 5.8-.7 10.9 0 0-.5 1.6 1.9 1.4 2.4-.2 7.4-.1 9.9 1.6 2.5 1.7 11 1.9 11.1-1.7.1-3.6-5.3-3.1-6.1-3.1-.8 0-11.8-.7-11.8-.7s-1.6-2.5 2.1-5.1c3.8-2.6 11.1-6.9 11.3-8.8l-.3-2.9-32.6-5.8-3.8 14.4z"/><path class="st96" d="M345.9 552.9c-.1 0-.3-.1-.5-.1.2.3.4.7.5 1.1v-1z"/><path class="st97" d="M315.1 598.6s-.1.1-.2.1c-.1.1-.1.1-.2.1.3 0 .4-.2.4-.2z"/><path class="st92" d="M349.1 628s-13.1-15.5-35.6 5.7-17 67.6-2.5 78.6c14.4 11.1 30.1 3.6 30.1 3.6s20.3-37.4 8-87.9z"/><path class="st96" d="M286 589.4c-.1 0-.3 0-.4-.1.3-.2.5-.5.8-.8 1.2-1.2.9-.6-.4.9z"/><path class="st92" d="M372.5 584.9c2.8 4.4 4.9 7.6-2.7 20.3-7.7 12.8-18.9 6.7-18.9 6.7s-7.3-5.6-16.9-2.5-15 3.1-18.6-3.1c-3.6-6.1-2.4-16 2.4-21.8 4.9-5.7 9.8-11.8 23.2-9.1 2.5.5 4 1.2 9 4.8s11.9 1.9 15.9 1.5c1.9-.2 4.7.2 6.6 3.2z"/><ellipse class="st98" cx="363.2" cy="594.4" rx="5.3" ry="4.9"/><ellipse class="st98" cx="335.3" cy="587.6" rx="6.2" ry="5.5"/><ellipse class="st99" cx="362.9" cy="594.5" rx="4.8" ry="4.4"/><ellipse class="st100" cx="362.7" cy="595.8" rx="2.4" ry="2.2"/><ellipse class="st99" cx="335.5" cy="587.8" rx="5.7" ry="5"/><ellipse class="st100" cx="336.5" cy="589.5" rx="2.4" ry="2.2"/><path class="st101" d="M348.1 595s1.7-.5 2.4.6 2.7 1.7 3.2 0c.4-1.7-1.3-3.9-3.4-4.1-2.1-.2-4.5-.3-5.5 2.4-1.1 2.7 3.3 1.1 3.3 1.1z"/><circle class="st92" cx="351.6" cy="594.5" r=".4"/><circle class="st92" cx="346.8" cy="593.8" r=".4"/><path class="st102" d="M351.7 588.5s-1.5.8-1.4 3M354.2 588.5s-2.1-2.2-5.2-.9M354.5 586.8s-1.9-1.8-3.7-1.1"/><circle class="st103" cx="363.7" cy="604" r="2.5"/><ellipse class="st103" cx="328.8" cy="596.3" rx="3.5" ry="2.1"/><path class="st104" d="M358.6 605c.4.8 1 2.8-1.9 3-2.9.3-2.5-1.7-4.3-3.3-1.6-1.3-3.9-4.5-14.4-2.3-1.4.3-4.5 1.5-5.8-.7s1.3-3.3 8-3.7c6.9-.3 16 2 18.4 7z"/><path class="st99" d="M335.9 600.8s.3 1.4 1.4 1.3c1.1-.1 1-1.5 1-1.5l-2.4.2zM339.1 600.4h2.3s.5 1.4-1 1.8c-1.6.4-2.1-1.5-1.3-1.8zM342.3 600.4l2.3.2s.4 1.8-1.5 1.7c-1.8-.2-.8-1.9-.8-1.9z"/><path class="st105" d="M360 585.4l.4 1.7s8.5-1.2 10.5 6.4c0 0 1.3-9.2-10.9-8.1zM342.5 580.3l-1.2 1.5s-6.8-5.6-12.7.9c0 0 2.7-8.7 13.9-2.4z"/><path class="st93" d="M301.2 631.6s-12.1 16.6-12.4 21.4c-.3 4.8 8 46.3 8 46.3s-1.3 4.4-4.9 3.8c-3.6-.6.1-4.4.1-4.4s-7.9 2.1-6-3.6c0 0-9.1.3-1.6-6.6l-13.1-35.4s-10.2-32.3 4.1-43.2c14.3-10.9 21.4-4 25 1.2 3 4.2 6.8 12.5.8 20.5z"/><path class="st106" d="M308 567.7s-6.1 1.1-10.2 9.5c0 0 8.4-4.3 11.9-3.3 0 0-6.7 5-6.7 12.1 0 0 14.3-15.6 25.8-16.7M300.9 598.1s-2.9 2.7-3 6.8l5.2-3.8s-2.5 4.8-1.6 8.1"/><circle class="st107" cx="348.7" cy="680.8" r="1.4"/><path class="st99" d="M345.2 600.7l-.5 3.5 2.3.5.6-3.5zM347.8 601.2l-.5 3.6 2.2.5.7-3.3zM355.4 604.7s-.9 1.1-1.8.5c-1-.6-.2-1.8-.2-1.8l2 1.3zM352.7 603l-2.1-.9s-1 1.1.3 2.1 2.3-.6 1.8-1.2z"/><path class="st108" d="M355.7 605s-7.3-6.8-21.7-4"/><path class="st92" d="M331.9 561.8s2-.9 5 1.4c0 0 2-24.1 3.8-31.9.6-2.5-5.7-8.2-8 0-2 7.3-.8 30.1-.8 30.1v.4z"/><path class="st101" d="M333 560.5s1.1-.5 2.8.8c0 0 1.1-13.4 2.1-17.8.3-1.4-3.2-4.6-4.5 0-1.1 4.1-.5 16.8-.5 16.8v.2h.1z"/><path class="st92" d="M358.8 564.7s3.5-1.6 4.8 1.9c0 0 14.2-19.5 19.8-25.3 1.8-1.8-.7-10-6.8-4.2-5.5 5.2-16.3 25.3-16.3 25.3l-1.5 2.3z"/><path class="st101" d="M361.6 562.9s1.5-.4 2.3 1.5c0 0 7.6-10.4 10.6-13.5 1-1-.4-5.3-3.6-2.2-2.9 2.8-8.7 13.5-8.7 13.5l-.6.7z"/><path class="st2" d="M232 454h133v47h-133zM229 229h116v52h-116zM236 27h98v65h-98z"/></svg>