<?xml version="1.0" encoding="utf-8"?>
<!-- Generator: Adobe Illustrator 19.1.0, SVG Export Plug-In . SVG Version: 6.00 Build 0)  -->
<svg version="1.1" id="Layer_1" xmlns="http://www.w3.org/2000/svg" xmlns:xlink="http://www.w3.org/1999/xlink" x="0px" y="0px"
	 viewBox="0 0 288 288" style="enable-background:new 0 0 288 288;" xml:space="preserve">
<g id="wt6oF8.tif">
	<g>
		<path d="M143.3,3.9C65.8,3.9,3,66.7,3,144.2s62.8,140.3,140.3,140.3s140.3-62.8,140.3-140.3S220.8,3.9,143.3,3.9z M105.5,210.9
			H75.8v-98h29.6V210.9z M90.5,99.7c-9.7,0-17.7-8-17.8-17.8c-0.1-10,7.8-18.2,17.6-18.3c9.6-0.1,18,8.2,18.1,18
			C108.5,91.3,100.2,99.7,90.5,99.7z M219.8,207.1v3.8h-29.7c-0.1-1.3-0.2-2.5-0.2-3.7c0-16,0.1-32.1-0.1-48.1
			c0-3.1-0.4-6.3-1.1-9.3c-1.8-7.9-6.7-12-14.5-12.6c-7.9-0.6-15,3.3-17.6,10.3c-1.3,3.4-2,7.2-2.1,10.8
			c-0.2,16.3-0.1,32.5-0.1,48.8v3.8h-28.9v-97.9h28.8v12.7c2.4-2.6,4.1-4.8,6.2-6.6c11.1-10,24.1-11.4,37.7-6.8
			c12.9,4.4,19,14.6,20.9,27.6c0.4,2.9,0.6,5.8,0.6,8.7C219.9,168,219.8,187.6,219.8,207.1z"/>
	</g>
</g>
</svg>
