<?xml version="1.0" encoding="utf-8"?>
<!-- Generator: Adobe Illustrator 19.2.0, SVG Export Plug-In . SVG Version: 6.00 Build 0)  -->
<svg version="1.1" id="Layer_1" xmlns="http://www.w3.org/2000/svg" xmlns:xlink="http://www.w3.org/1999/xlink" x="0px" y="0px"
	 viewBox="0 0 367.9 367.9" style="enable-background:new 0 0 367.9 367.9;" xml:space="preserve">
<style type="text/css">
	.st0{fill:#FFFFFF;}
	.st1{fill:#232323;}
</style>
<circle class="st0" cx="183.1" cy="184.9" r="183"/>
<path id="wt6oF8.tif" class="st1" d="M135.7,104.4c0.2,11.6-9.8,21.7-21.4,21.7s-21.2-9.6-21.2-21.3c-0.2-11.9,9.3-21.7,21.1-21.8
	C125.6,82.7,135.6,92.7,135.7,104.4L135.7,104.4z M268.8,254.2v4.6h-35.5c-0.2-1.5-0.3-3-0.3-4.4c0-19.1,0.2-38.4-0.2-57.5
	c0-3.7-0.4-7.5-1.3-11.1c-2.2-9.4-8-14.3-17.3-15.1c-9.4-0.7-17.9,3.9-21.1,12.4c-1.5,4.1-2.4,8.6-2.5,12.9
	c-0.3,19.5-0.2,38.8-0.2,58.3v4.6h-34.2V142h34.4v15.1c2.9-3,4.9-5.7,7.4-7.9c13.3-11.9,28.9-13.6,45-8.1c15.4,5.2,22.8,17.4,25,33
	c0.4,3.5,0.7,6.9,0.7,10.4C269,207.6,268.8,231,268.8,254.2L268.8,254.2z M96.8,141.8h35.4v117H96.8V141.8z"/>
</svg>
