<svg xmlns="http://www.w3.org/2000/svg" viewBox="-121 213.1 367.9 367.9" enable-background="new -121 213.1 367.9 367.9"><style type="text/css">.st0{fill:#282828;} .st1{fill:#F9B163;} .st2{opacity:0.29;fill:#434444;enable-background:new ;}</style><circle class="st0" cx="63.9" cy="396.1" r="183"/><path id="wt6oF8.tif" class="st1" d="M16.5 315.6c.2 11.6-9.8 21.7-21.4 21.7s-21.2-9.6-21.2-21.3c-.2-11.9 9.3-21.7 21.1-21.8 11.4-.3 21.4 9.7 21.5 21.4zm133.1 149.8v4.6h-35.5c-.2-1.5-.3-3-.3-4.4 0-19.1.2-38.4-.2-57.5 0-3.7-.4-7.5-1.3-11.1-2.2-9.4-8-14.3-17.3-15.1-9.4-.7-17.9 3.9-21.1 12.4-1.5 4.1-2.4 8.6-2.5 12.9-.3 19.5-.2 38.8-.2 58.3v4.6h-34.2v-116.9h34.4v15.1c2.9-3 4.9-5.7 7.4-7.9 13.3-11.9 28.9-13.6 45-8.1 15.4 5.2 22.8 17.4 25 33 .4 3.5.7 6.9.7 10.4.3 23.1.1 46.5.1 69.7zm-172-112.4h35.4v117h-35.4v-117z"/><path class="st2" d="M64 579.1c-101.2 0-183.2-81.8-183.2-182.9s81.8-183.2 182.9-183.2l.3 366.1z"/></svg>