<?xml version="1.0" encoding="utf-8"?>
<!-- Generator: Adobe Illustrator 19.1.0, SVG Export Plug-In . SVG Version: 6.00 Build 0)  -->
<svg version="1.1" id="Layer_1" xmlns="http://www.w3.org/2000/svg" xmlns:xlink="http://www.w3.org/1999/xlink" x="0px" y="0px"
	 viewBox="68.2 -8.4 228 228.4" style="enable-background:new 68.2 -8.4 228 228.4;" xml:space="preserve">
<style type="text/css">
	.st0{fill:#484849;}
</style>
<g id="wt6oF8.tif">
	<g>
		<path class="st0" d="M123.5,19.5c0.2,15-12.7,28.1-27.8,28.1S68.3,35.1,68.2,19.9C68,4.4,80.3-8.3,95.5-8.4
			C110.3-8.6,123.4,4.3,123.5,19.5z"/>
		<path class="st0" d="M296.2,214v5.9h-46c-0.2-2-0.3-3.9-0.3-5.7c0-24.8,0.2-49.8-0.2-74.6c0-4.8-0.6-9.8-1.7-14.4
			c-2.8-12.2-10.4-18.6-22.5-19.5c-12.2-0.9-23.3,5.1-27.3,16c-2,5.3-3.1,11.2-3.3,16.7c-0.3,25.3-0.2,50.4-0.2,75.7v5.9H150V68.2
			h44.6v19.7c3.7-4,6.4-7.4,9.6-10.2c17.2-15.5,37.4-17.7,58.4-10.5c20,6.8,29.5,22.6,32.4,42.8c0.6,4.5,0.9,9,0.9,13.5
			C296.4,153.4,296.2,183.8,296.2,214z"/>
		<rect x="73" y="68" class="st0" width="45.9" height="151.9"/>
	</g>
</g>
</svg>
