<svg xmlns="http://www.w3.org/2000/svg" viewBox="68.2 -8.4 228 228.4" enable-background="new 68.2 -8.4 228 228.4"><style type="text/css">.st0{fill:#484849;}</style><path class="st0" d="M123.5 19.5c.2 15-12.7 28.1-27.8 28.1s-27.4-12.5-27.5-27.7c-.2-15.5 12.1-28.2 27.3-28.3 14.8-.2 27.9 12.7 28 27.9zm172.7 194.5v5.9h-46c-.2-2-.3-3.9-.3-5.7 0-24.8.2-49.8-.2-74.6 0-4.8-.6-9.8-1.7-14.4-2.8-12.2-10.4-18.6-22.5-19.5-12.2-.9-23.3 5.1-27.3 16-2 5.3-3.1 11.2-3.3 16.7-.3 25.3-.2 50.4-.2 75.7v5.9h-44.7v-151.8h44.6v19.7c3.7-4 6.4-7.4 9.6-10.2 17.2-15.5 37.4-17.7 58.4-10.5 20 6.8 29.5 22.6 32.4 42.8.6 4.5.9 9 .9 13.5.5 29.9.3 60.3.3 90.5zm-223.2-146h45.9v151.9h-45.9z" id="wt6oF8.tif"/></svg>