<?xml version="1.0" encoding="utf-8"?>
<!-- Generator: Adobe Illustrator 19.1.0, SVG Export Plug-In . SVG Version: 6.00 Build 0)  -->
<svg version="1.1" id="Layer_1" xmlns="http://www.w3.org/2000/svg" xmlns:xlink="http://www.w3.org/1999/xlink" x="0px" y="0px"
	 viewBox="-121 213.1 367.9 367.9" style="enable-background:new -121 213.1 367.9 367.9;" xml:space="preserve">
<style type="text/css">
	.st0{fill:#282828;}
	.st1{fill:#F9B163;}
	.st2{opacity:0.29;fill:#434444;enable-background:new    ;}
</style>
<circle class="st0" cx="63.9" cy="396.1" r="183"/>
<path id="wt6oF8.tif" class="st1" d="M16.5,315.6c0.2,11.6-9.8,21.7-21.4,21.7s-21.2-9.6-21.2-21.3c-0.2-11.9,9.3-21.7,21.1-21.8
	C6.4,293.9,16.4,303.9,16.5,315.6z M149.6,465.4v4.6h-35.5c-0.2-1.5-0.3-3-0.3-4.4c0-19.1,0.2-38.4-0.2-57.5c0-3.7-0.4-7.5-1.3-11.1
	c-2.2-9.4-8-14.3-17.3-15.1c-9.4-0.7-17.9,3.9-21.1,12.4c-1.5,4.1-2.4,8.6-2.5,12.9c-0.3,19.5-0.2,38.8-0.2,58.3v4.6H37V353.2h34.4
	v15.1c2.9-3,4.9-5.7,7.4-7.9c13.3-11.9,28.9-13.6,45-8.1c15.4,5.2,22.8,17.4,25,33c0.4,3.5,0.7,6.9,0.7,10.4
	C149.8,418.8,149.6,442.2,149.6,465.4L149.6,465.4z M-22.4,353H13v117h-35.4V353z"/>
<path class="st2" d="M64,579.1c-101.2,0-183.2-81.8-183.2-182.9s81.8-183.2,182.9-183.2L64,579.1z"/>
</svg>
