<?xml version="1.0" encoding="utf-8"?>
<!-- Generator: Adobe Illustrator 19.1.0, SVG Export Plug-In . SVG Version: 6.00 Build 0)  -->
<svg version="1.1" id="Layer_1" xmlns="http://www.w3.org/2000/svg" xmlns:xlink="http://www.w3.org/1999/xlink" x="0px" y="0px"
	 viewBox="-63 345.5 94.4 94.5" style="enable-background:new -63 345.5 94.4 94.5;" xml:space="preserve">
<g id="wt6oF8.tif">
	<g>
		<path d="M-40.1,357c0.1,6.2-5.3,11.6-11.5,11.6c-6.2,0-11.3-5.1-11.4-11.4c-0.1-6.4,5-11.7,11.3-11.7
			C-45.5,345.4-40.2,350.8-40.1,357z"/>
		<rect x="-61" y="377.1" width="19" height="62.9"/>
		<path d="M31.4,437.5v2.4h-19c-0.1-0.8-0.1-1.6-0.1-2.4c0-10.3,0.1-20.6-0.1-30.8c0-2-0.3-4-0.7-6c-1.1-5.1-4.3-7.7-9.3-8.1
			c-5.1-0.4-9.6,2.1-11.3,6.6c-0.8,2.2-1.3,4.6-1.4,6.9c-0.1,10.5-0.1,20.9-0.1,31.3v2.4h-18.5v-62.8h18.5v8.1
			c1.5-1.7,2.6-3.1,4-4.2c7.1-6.4,15.5-7.3,24.2-4.4c8.3,2.8,12.2,9.4,13.4,17.7c0.3,1.9,0.4,3.7,0.4,5.6
			C31.4,412.5,31.4,425,31.4,437.5z"/>
	</g>
</g>
</svg>
