<svg xmlns="http://www.w3.org/2000/svg" viewBox="-61.5 -77.2 367.9 367.9" enable-background="new -61.5 -77.2 367.9 367.9"><style type="text/css">.st0{fill:#9D9D9E;} .st1{fill:#484849;}</style><path class="st0" d="M-61.5-77.2h367.9v367.9h-367.9z"/><path id="wt6oF8.tif" class="st1" d="M67.7 13.2c.2 13.7-11.6 25.6-25.3 25.6s-25-11.4-25-25.2c-.2-14.1 11-25.7 24.9-25.8 13.4-.2 25.3 11.6 25.4 25.4zm157.3 177.1v5.4h-41.9c-.2-1.8-.3-3.6-.3-5.2 0-22.6.2-45.4-.2-67.9 0-4.4-.5-8.9-1.5-13.1-2.6-11.1-9.5-16.9-20.5-17.8-11.1-.8-21.2 4.6-24.9 14.6-1.8 4.8-2.8 10.2-3 15.2-.3 23-.2 45.9-.2 68.9v5.4h-40.6v-138.2h40.6v17.9c3.4-3.6 5.8-6.7 8.7-9.3 15.7-14.1 34.1-16.1 53.2-9.6 18.2 6.2 26.9 20.6 29.5 39 .5 4.1.8 8.2.8 12.3.5 27.3.3 54.9.3 82.4zm-203.3-132.9h41.8v138.3h-41.8v-138.3z"/></svg>