<?xml version="1.0" encoding="utf-8"?>
<!-- Generator: Adobe Illustrator 19.1.0, SVG Export Plug-In . SVG Version: 6.00 Build 0)  -->
<svg version="1.1" id="Layer_1" xmlns="http://www.w3.org/2000/svg" xmlns:xlink="http://www.w3.org/1999/xlink" x="0px" y="0px"
	 viewBox="40 -39.9 367.9 367.9" style="enable-background:new 40 -39.9 367.9 367.9;" xml:space="preserve">
<style type="text/css">
	.st0{fill:#FFFFFF;}
	.st1{fill:#F9B163;}
</style>
<path class="st0" d="M76-39.9h295.9c19.9,0,36,16.1,36,36V292c0,19.9-16.1,36-36,36H76c-19.9,0-36-16.1-36-36V-3.9
	C40-23.8,56.1-39.9,76-39.9z"/>
<path id="wt6oF8.tif" class="st1" d="M169.2,50.5c0.2,13.7-11.6,25.6-25.3,25.6s-25-11.4-25-25.2c-0.2-14.1,11-25.7,24.9-25.8
	C157.2,24.9,169.1,36.7,169.2,50.5z M326.5,227.6v5.4h-41.9c-0.2-1.8-0.3-3.6-0.3-5.2c0-22.6,0.2-45.4-0.2-67.9
	c0-4.4-0.5-8.9-1.5-13.1c-2.6-11.1-9.5-16.9-20.5-17.8c-11.1-0.8-21.2,4.6-24.9,14.6c-1.8,4.8-2.8,10.2-3,15.2
	c-0.3,23-0.2,45.9-0.2,68.9v5.4h-40.6V94.9H234v17.9c3.4-3.6,5.8-6.7,8.7-9.3c15.7-14.1,34.1-16.1,53.2-9.6
	c18.2,6.2,26.9,20.6,29.5,39c0.5,4.1,0.8,8.2,0.8,12.3C326.7,172.5,326.5,200.1,326.5,227.6L326.5,227.6z M123.2,94.7H165V233h-41.8
	V94.7z"/>
</svg>
