<?xml version="1.0" encoding="utf-8"?>
<!-- Generator: Adobe Illustrator 19.2.0, SVG Export Plug-In . SVG Version: 6.00 Build 0)  -->
<svg version="1.1" id="Layer_1" xmlns="http://www.w3.org/2000/svg" xmlns:xlink="http://www.w3.org/1999/xlink" x="0px" y="0px"
	 viewBox="0 0 1509.7 766.6" style="enable-background:new 0 0 1509.7 766.6;" xml:space="preserve">
<style type="text/css">
	.st0{fill:#414141;}
	.st1{fill:#919395;}
	.st2{fill:#BABCBE;}
	.st3{fill:#D0D1D2;}
	.st4{fill:#F1F1F1;}
	.st5{fill:#BABCBE;stroke:#A5A7AA;stroke-width:1.2562;stroke-miterlimit:10;}
	.st6{fill:#C2976A;}
	.st7{fill:#EBC15A;}
	.st8{fill:#F8D673;}
	.st9{fill:#A5A7AA;}
	.st10{fill:#D45A55;}
	.st11{fill:#5F9899;}
	.st12{fill:#477379;}
	.st13{fill:#37383C;}
	.st14{fill:#28292B;}
	.st15{fill:#E6E6E6;}
	.st16{fill:#A77C4F;}
	.st17{fill:#FDF9D5;}
	.st18{fill:#F6AE62;}
	.st19{fill:none;stroke:#DA8C40;stroke-width:1.5863;stroke-miterlimit:10;}
	.st20{fill:#FFFFFF;}
	.st21{fill:#6D6F70;}
	.st22{fill:none;stroke:#FFFFFF;stroke-width:1.5863;stroke-miterlimit:10;}
	.st23{fill:none;stroke:#FFFFFF;stroke-width:3.1726;stroke-linecap:round;stroke-linejoin:round;stroke-miterlimit:10;}
	.st24{fill:#F9EA95;}
	.st25{fill:#808083;}
	.st26{fill:#59595C;}
	.st27{fill:#EAF5F4;}
	.st28{fill:#686868;}
	.st29{fill:#2D2D2D;}
	.st30{fill:#CAD6D7;}
	.st31{fill:#818282;}
	.st32{opacity:0.78;fill:#414141;}
</style>
<g>
	<rect x="2.4" y="0" class="st0" width="1507.3" height="766.6"/>
</g>
<g>
	<path class="st1" d="M1464.2,655.6h-364.7c-4,0-7.2-3.2-7.2-7.2V114.8c0-4,3.2-7.2,7.2-7.2h364.7c4,0,7.2,3.2,7.2,7.2v533.6
		C1471.4,652.4,1468.2,655.6,1464.2,655.6z"/>
	<path class="st2" d="M1458.2,655.6h-364.7c-4,0-7.2-3.2-7.2-7.2V114.8c0-4,3.2-7.2,7.2-7.2h364.7c4,0,7.2,3.2,7.2,7.2v533.6
		C1465.4,652.4,1462.1,655.6,1458.2,655.6z"/>
	<g>
		<path class="st3" d="M1293.9,380.1c0,0,12.8-1.9,16,13.3C1309.9,393.4,1297,397.1,1293.9,380.1z"/>
		<path class="st3" d="M1289.4,359c2.7,3.4,4.9,8.5,2.4,15.2c0,0-4,5.6-0.9,10.3s4.4,15.2-4.6,21.9c0,0-7.5-10.9-18.3-6.3
			c0,0-5.6,1.9-9.5,8.3c0,0-16.7-3.6-18.4-15.4c0,0-0.6-1.2,2.3-7.5c0,0,2-4.2-0.6-8.9s-2.2-9.4,0.7-12.3c2.7-2.7,17-16.9,37.4-11.2
			C1283.7,354,1287,356.1,1289.4,359z"/>
	</g>
</g>
<g>
	<path class="st4" d="M1031,654.5H904.9c-11.9,0-21.6-9.7-21.6-21.6v-51.6c0-11.9,9.7-21.6,21.6-21.6H1031
		c11.9,0,21.6,9.7,21.6,21.6v51.6C1052.6,644.8,1043,654.5,1031,654.5z"/>
	<g>
		<path class="st3" d="M916.5,607.7c0,0,3.8-0.6,4.8,3.9C921.2,611.6,917.4,612.7,916.5,607.7z"/>
		<path class="st3" d="M915.1,601.4c0.8,1,1.5,2.5,0.7,4.5c0,0-1.2,1.7-0.3,3.1s1.3,4.5-1.4,6.5c0,0-2.2-3.2-5.4-1.9
			c0,0-1.7,0.6-2.8,2.5c0,0-5-1.1-5.5-4.6c0,0-0.2-0.4,0.7-2.2c0,0,0.6-1.2-0.2-2.6c-0.8-1.4-0.6-2.8,0.2-3.6
			c0.8-0.8,5.1-5,11.1-3.3C913.4,599.9,914.4,600.5,915.1,601.4z"/>
	</g>
</g>
<g>
	<path class="st4" d="M1036.9,373.8H927c-4,0-7.2-3.2-7.2-7.2V114.7c0-4,3.2-7.2,7.2-7.2h109.8c4,0,7.2,3.2,7.2,7.2v251.9
		C1044.1,370.6,1040.9,373.8,1036.9,373.8z"/>
	<rect x="928.7" y="144.6" class="st2" width="105.8" height="190.2"/>
	<path class="st2" d="M990.3,132.3h-19.2c-0.5,0-0.9-0.4-0.9-0.9v-1.6c0-0.5,0.4-0.9,0.9-0.9h19.2c0.5,0,0.9,0.4,0.9,0.9v1.6
		C991.2,131.9,990.8,132.3,990.3,132.3z"/>
	<circle class="st2" cx="980.5" cy="123.2" r="2.9"/>
	<circle class="st5" cx="981.1" cy="353.9" r="9.9"/>
</g>
<g>
	<polygon class="st6" points="614,333.7 622.1,371.6 632.1,333.7 	"/>
	<polygon class="st7" points="614.7,146.3 623.4,146.3 623.4,333.8 614,333.8 	"/>
	<polygon class="st8" points="632.1,146.3 623.4,146.3 623.4,333.8 632.1,333.8 	"/>
	<polygon class="st9" points="614.4,131.4 623.4,131.2 623.3,146.3 614.5,146.3 	"/>
	<polygon class="st2" points="623.4,131.2 632.3,131.2 632.2,146.3 623.3,146.3 	"/>
	<polygon class="st0" points="619.5,360 625.2,360 622.1,371.6 	"/>
	<path class="st10" d="M614.4,131.4l17.9-0.1v-8.7c0,0-0.7-6.5-8.6-6.5s-9.5,6.5-9.5,6.5L614.4,131.4z"/>
</g>
<g>
	<path class="st11" d="M868.2,410H666.8V108.1h201.4c8,0,14.4,6.4,14.4,14.4v273C882.6,403.5,876.1,410,868.2,410z"/>
	<rect x="666.8" y="108.1" class="st12" width="25.1" height="301.6"/>
	<path class="st4" d="M666.8,409.7l6,11.5h181.5c16.3,0,29.5-13.6,28.5-29.9c0-0.7-0.1-1.5-0.2-2.2c0,0-5.7,18.7-17.6,20.2
		C853.1,410.8,666.8,409.7,666.8,409.7z"/>
	<polygon class="st13" points="835.5,107.6 849.1,107.6 849.1,410.2 835.9,410.2 	"/>
	<polygon class="st14" points="837.1,421.4 849.8,421.4 849.1,410.2 835.9,410.2 	"/>
	<rect x="721.6" y="203.8" class="st12" width="86.5" height="11.8"/>
	<rect x="737.9" y="222.6" class="st12" width="56.7" height="9.4"/>
</g>
<g>
	<path class="st15" d="M921.9,477.6h-23.2c0,0-5.6,0.3-5.9-6.5c-0.3-6.9,0.2-10.5,0.2-10.5s0.2-5.1,5.8-5.1c5.7,0,25.1,1.5,25.1,1.5
		L921.9,477.6z"/>
	<circle class="st4" cx="983.6" cy="472.3" r="64.8"/>
	<circle class="st16" cx="984" cy="472.2" r="49"/>
</g>
<g>
	<path class="st4" d="M812.5,508.5v3.1h26.8v-9.9h-27v2.7H707.5c0,0-8.2,0.6-9.6,9.4c-1.4,8.8,7.6,11.4,7.6,11.4h143.7
		c0,0,5.8,2.1,4.2,6.4s-3.9,4.8-3.9,4.8H706.4c0,0-8,0.6-8.3,9.5c-0.3,8.9,7,11.3,7,11.3h145.8c0,0,3.9,1.9,3.2,6.4
		c-0.7,4.5-3.8,5.4-3.8,5.4H706.4c0,0-7.4,1.3-7.9,8.9c-0.4,7.6,6.7,11.6,6.7,11.6l16,0.7v3.8h35.2v-3.8h25.9c0,0,2.6,0.4,2.6,3.1
		c0,2.6,0,22.3,0,22.3h-1.5v30.8c0,0,1,9.3,13.4,9.5c0,0,7.1-0.6,9.3-3.9v-17.8c0,0-3.2-5.7-13.8-3.6V615h-2.2v-21.5
		c0,0-1-3.6-3.2-3.2h25.2c0,0,3.8,0.3,3.8,4.1s0,20.8,0,20.8h-1.1v31.5c0,0,1,6.5,7.6,8.1c6.6,1.6,14.5-0.6,16.6-3.2v-16
		c0,0-3.7-7-14.3-5.6V615h-3v-24.6c0,0-0.9-4.8-5.9-4.9c-5.1-0.1-59.1,0-59.1,0v-2.1h-35.6v2.6l-13.7-0.6c0,0-6.3-2.5-4.1-7.9
		c2.2-5.4,7.6-3.8,7.6-3.8h139.3c0,0,8.6-1.3,7.9-10.6s-8.1-10.5-8.1-10.5H707.7c0,0-5.7-1.7-3.6-7.6s8.8-3.8,8.8-3.8H852
		c0,0,8.6-3.3,6.9-11c-1.7-7.6-8.4-9.3-8.4-9.3H707.4c0,0-5.5-3.3-3.1-8.8c2.4-5.5,9.3-3.3,9.3-3.3L812.5,508.5z"/>
	<path class="st2" d="M855.9,503.2c0,0,3,3.5-0.1,6.6h-16.3v-6.7L855.9,503.2z"/>
</g>
<g>
	<polygon class="st7" points="372.9,571.3 372.9,628.3 399.7,654.1 456.7,654.1 456.7,571.3 	"/>
	<polygon class="st17" points="397.7,627.8 399.7,654.1 372.9,628.3 	"/>
</g>
<g>
	<polygon class="st7" points="369.2,466.5 369.2,523.5 396,549.3 453,549.3 453,466.5 	"/>
	<polygon class="st17" points="394,523 396,549.3 369.2,523.5 	"/>
</g>
<g>
	<rect x="285.3" y="447.2" class="st18" width="47.8" height="209.6"/>
	<line class="st19" x1="332.8" y1="458.3" x2="325.2" y2="458.3"/>
	<line class="st19" x1="332.8" y1="468" x2="325.2" y2="468"/>
	<line class="st19" x1="332.8" y1="477.7" x2="325.2" y2="477.7"/>
	<line class="st19" x1="332.8" y1="485.6" x2="325.2" y2="485.6"/>
	<line class="st19" x1="332.8" y1="495.3" x2="320.1" y2="495.3"/>
	<line class="st19" x1="332.8" y1="505.6" x2="325.2" y2="505.6"/>
	<line class="st19" x1="332.8" y1="515.3" x2="325.2" y2="515.3"/>
	<line class="st19" x1="332.8" y1="525" x2="325.2" y2="525"/>
	<line class="st19" x1="332.8" y1="532.9" x2="325.2" y2="532.9"/>
	<line class="st19" x1="332.8" y1="542.6" x2="320.1" y2="542.6"/>
	<line class="st19" x1="332.8" y1="552.2" x2="325.2" y2="552.2"/>
	<line class="st19" x1="332.8" y1="561.9" x2="325.2" y2="561.9"/>
	<line class="st19" x1="332.8" y1="571.6" x2="325.2" y2="571.6"/>
	<line class="st19" x1="332.8" y1="579.5" x2="325.2" y2="579.5"/>
	<line class="st19" x1="332.8" y1="589.2" x2="320.1" y2="589.2"/>
	<line class="st19" x1="332.8" y1="598.1" x2="325.2" y2="598.1"/>
	<line class="st19" x1="332.8" y1="607.8" x2="325.2" y2="607.8"/>
	<line class="st19" x1="332.8" y1="642.3" x2="325.2" y2="642.3"/>
	<line class="st19" x1="332.8" y1="652" x2="325.2" y2="652"/>
	<line class="st19" x1="332.8" y1="617.5" x2="325.2" y2="617.5"/>
	<line class="st19" x1="332.8" y1="625.4" x2="325.2" y2="625.4"/>
	<line class="st19" x1="332.8" y1="635.1" x2="320.1" y2="635.1"/>
</g>
<polygon class="st4" points="323.9,109 323.9,364.8 390.4,431.4 538.4,431.4 538.4,109.1 "/>
<polygon class="st20" points="393.8,367.4 390.4,431.4 323.9,364.8 "/>
<path class="st1" d="M583.5,119.3v167.7h-18.8V119.3C564.7,119.3,583.5,118.5,583.5,119.3z"/>
<polygon class="st21" points="585.3,286.4 564.1,286.4 564.1,357.2 562,357.2 562,286.2 557.5,286.2 557.5,364.3 585.6,364.3 "/>
<path class="st21" d="M571.6,272.5v-59.9c0-0.9,0.7-1.6,1.6-1.6h3c0.9,0,1.6,0.7,1.6,1.6v59.9c0,0.9-0.7,1.6-1.6,1.6h-3
	C572.3,274.1,571.6,273.4,571.6,272.5z"/>
<g>
	<ellipse class="st4" cx="526.2" cy="571" rx="35.9" ry="37.1"/>
	<circle class="st7" cx="526.5" cy="570.1" r="31.2"/>
	<line class="st22" x1="551.1" y1="570.3" x2="557.7" y2="570.3"/>
	<line class="st22" x1="526.8" y1="601.8" x2="526.8" y2="596.3"/>
	<line class="st22" x1="526" y1="538.3" x2="526" y2="544"/>
	<line class="st22" x1="495.7" y1="569.7" x2="501.4" y2="569.7"/>
	<line class="st23" x1="525.4" y1="550.3" x2="525.4" y2="574.5"/>
	<line class="st23" x1="525.4" y1="574.5" x2="536.1" y2="563.4"/>
	<path class="st15" d="M514.4,605.8v36.5l11.8,10.4l12.1-10.6v-36.2H514.4z M525.7,614.9c1.2,0,2.1,0.9,2.1,2.1
		c0,1.2-0.9,2.1-2.1,2.1c-1.1,0-2.1-0.9-2.1-2.1C523.6,615.9,524.6,614.9,525.7,614.9z M528.4,626.3c0,1.1-0.9,2-2,2
		c-1.1,0-1.9-0.9-1.9-2c0-1.1,0.9-1.9,1.9-1.9C527.5,624.4,528.4,625.3,528.4,626.3z M526.4,639.1c-1.2,0-2.2-1-2.2-2.2
		c0-1.2,1-2.2,2.2-2.2c1.2,0,2.2,1,2.2,2.2C528.6,638.1,527.6,639.1,526.4,639.1z"/>
	<rect x="514.4" y="494" class="st15" width="23.7" height="41.3"/>
	<polygon class="st4" points="511,538 514.3,529.8 538.1,529.7 544,539.4 	"/>
	<polygon class="st4" points="507.9,602.1 514.4,611.3 538.3,611.3 544.7,602.8 	"/>
	<polygon class="st24" points="509.1,500.8 514.6,500.8 514.6,486.6 537.8,486.6 537.8,500.7 543.5,500.7 543.5,476.1 509.3,476.1 	
		"/>
	<rect x="523.3" y="489.1" class="st24" width="5.4" height="10.9"/>
	<rect x="509.3" y="503.2" class="st4" width="33.5" height="9.6"/>
</g>
<g>
	<path class="st21" d="M265.1,338.3l-53.7,45.5c-1.8,1.5-4.5,1.3-6.1-0.5L42,190.7c-1.5-1.8-1.3-4.5,0.5-6.1L96.3,139
		c1.8-1.5,4.5-1.3,6.1,0.5l163.2,192.6C267.2,334,266.9,336.7,265.1,338.3z"/>
	<path class="st25" d="M270.7,346.9l-61.6,34.2c-2.1,1.2-4.7,0.4-5.9-1.7L79.2,156.1c-1.2-2.1-0.4-4.7,1.7-5.9l61.6-34.2
		c2.1-1.2,4.7-0.4,5.9,1.7l124.1,223.4C273.5,343.2,272.8,345.8,270.7,346.9z"/>
	<path class="st9" d="M273.6,356.8L208,382.3c-2.2,0.9-4.7-0.2-5.6-2.5l-94.7-243.3c-0.9-2.2,0.2-4.7,2.5-5.6l65.6-25.6
		c2.2-0.9,4.7,0.2,5.6,2.5l94.7,243.3C276.9,353.4,275.8,355.9,273.6,356.8z"/>
	<path class="st3" d="M272.8,365.6l-68.5,16.3c-2.3,0.6-4.7-0.9-5.2-3.2l-60.5-254c-0.6-2.3,0.9-4.7,3.2-5.2l68.5-16.3
		c2.3-0.6,4.7,0.9,5.2,3.2l60.5,254C276.6,362.7,275.1,365.1,272.8,365.6z"/>
	<path class="st4" d="M272.3,378.2l-70.4,0.4c-2.4,0-4.3-1.9-4.3-4.3L196,113.2c0-2.4,1.9-4.3,4.3-4.3l70.4-0.4
		c2.4,0,4.3,1.9,4.3,4.3l1.5,261.1C276.6,376.2,274.7,378.2,272.3,378.2z"/>
	
		<ellipse transform="matrix(0.8334 -0.5527 0.5527 0.8334 -154.3096 188.7272)" class="st0" cx="235.8" cy="350.3" rx="12.1" ry="12.1"/>
</g>
<g>
	<path class="st11" d="M810.5,449v22.6c0,1.2-1,2.2-2.2,2.2H747v-26.9h61.4C809.5,446.8,810.5,447.8,810.5,449z"/>
	
		<rect x="730.4" y="454" transform="matrix(4.472340e-11 -1 1 4.472340e-11 278.9758 1200.8109)" class="st15" width="19" height="13.7"/>
	
		<rect x="735.9" y="462.6" transform="matrix(4.540996e-11 -1 1 4.540996e-11 273.5236 1204.0823)" class="st26" width="5.9" height="5.5"/>
	
		<rect x="736.9" y="452.5" transform="matrix(4.587359e-11 -1 1 4.587359e-11 283.5557 1194.2683)" class="st26" width="3.9" height="5.7"/>
	
		<rect x="770.6" y="443.5" transform="matrix(4.476781e-11 -1 1 4.476781e-11 317.0599 1236.0553)" class="st12" width="11.9" height="32"/>
</g>
<g>
	<path class="st9" d="M622.7,595.1l11.8,2.7l14.3-35.6l19.9-120.2c0,0-2-3.2-5.3-0.3L622.7,595.1z"/>
	<path class="st2" d="M615.6,441.2l41.8,152.7l-12.1,3l-13.6-27.5l-20-127.1C611.8,442.4,612.2,440.3,615.6,441.2z"/>
	<circle class="st25" cx="640.2" cy="567.3" r="4.3"/>
	<circle class="st26" cx="640.2" cy="567.3" r="3.4"/>
	<path class="st11" d="M660,592.8c0-0.2-0.1-0.3-0.1-0.3l-15.9,5.1c6.5,15.9,2.5,31.2,2.5,31.2l-0.7,1.9c-2.2,3.6-3.5,7.8-3.5,12.2
		c0,13.5,11.6,24.4,25.3,23.3c14.7-1.2,24.5-16.2,20.4-30.3c-1.3-4.4-3.9-8.2-8.2-11.9C670.4,615.8,663.4,604.9,660,592.8z
		 M665.7,661.5c-10.2,0-18.6-8.3-18.6-18.5c0-7,3.8-13.1,9.5-16.2c1.6-0.9,3.4-1.6,5.3-2l0.1,0c1.2-0.2,2.4-0.4,3.7-0.4
		c10.2,0,18.5,8.3,18.5,18.6C684.3,653.2,676,661.5,665.7,661.5z"/>
	<path class="st11" d="M600.9,623.7c-4.3,3.7-6.9,7.5-8.2,11.9c-4.1,14.1,5.8,29.1,20.4,30.3c13.8,1.1,25.3-9.7,25.3-23.3
		c0-4.5-1.3-8.7-3.5-12.2l-0.7-1.9c0,0-4-15.3,2.5-31.2l-15.9-5.1c0,0,0,0.1-0.1,0.3C617.5,604.6,610.4,615.4,600.9,623.7z
		 M596.6,642.6c0-10.3,8.3-18.6,18.5-18.6c1.2,0,2.5,0.1,3.7,0.4l0.1,0c1.9,0.4,3.7,1.1,5.3,2c5.7,3.2,9.5,9.2,9.5,16.2
		c0,10.2-8.3,18.5-18.6,18.5C604.9,661.1,596.6,652.8,596.6,642.6z"/>
</g>
<g>
	<path class="st27" d="M87.4,432.4V643c0,7.6,6.2,13.8,13.8,13.8H231c7.6,0,13.8-6.2,13.8-13.8V432.4c0-7.6-6.2-13.8-13.8-13.8
		H101.2C93.5,418.6,87.4,424.8,87.4,432.4z M110.6,628.3c0,4.2-3.4,7.7-7.7,7.7c-4.2,0-7.7-3.4-7.7-7.7c0-4.2,3.4-7.7,7.7-7.7
		C107.2,620.7,110.6,624.1,110.6,628.3z"/>
	
		<rect x="45.7" y="488.6" transform="matrix(4.488771e-11 -1 1 4.488771e-11 -372.9077 703.133)" class="st28" width="238.7" height="98.9"/>
	
		<rect x="45.7" y="497" transform="matrix(4.489126e-11 -1 1 4.489126e-11 -372.9077 703.133)" class="st29" width="238.7" height="82.1"/>
	<circle class="st30" cx="163.9" cy="537.7" r="64"/>
	<circle class="st29" cx="102.8" cy="453.9" r="7.7"/>
	<circle class="st29" cx="164.7" cy="536.8" r="50.2"/>
	<path class="st29" d="M73.9,482.2v-28.1c0-3.8,3.1-6.9,6.9-6.9h6.4v41.9h-6.4C77,489.2,73.9,486,73.9,482.2z"/>
	<circle class="st28" cx="165.1" cy="538" r="41.5"/>
	<circle class="st31" cx="166.1" cy="537.7" r="34.9"/>
	<circle class="st29" cx="166.1" cy="537.7" r="20"/>
</g>
<rect class="st32" width="1509.7" height="766.6"/>
</svg>
