<?xml version="1.0" encoding="utf-8"?>
<!-- Generator: Adobe Illustrator 19.1.0, SVG Export Plug-In . SVG Version: 6.00 Build 0)  -->
<svg version="1.1" id="Layer_1" xmlns="http://www.w3.org/2000/svg" xmlns:xlink="http://www.w3.org/1999/xlink" x="0px" y="0px"
	 viewBox="0 0 1509.7 766.6" style="enable-background:new 0 0 1509.7 766.6;" xml:space="preserve">
<style type="text/css">
	.st0{fill:#414141;}
	.st1{fill:#919395;}
	.st2{fill:#BABCBE;}
	.st3{fill:#D0D1D2;}
	.st4{fill:#F1F1F1;}
	.st5{fill:#BABCBE;stroke:#A5A7AA;stroke-width:1.2562;stroke-miterlimit:10;}
	.st6{fill:#C2976A;}
	.st7{fill:#EBC15A;}
	.st8{fill:#F8D673;}
	.st9{fill:#A5A7AA;}
	.st10{fill:#D45A55;}
	.st11{fill:#5F9899;}
	.st12{fill:#477379;}
	.st13{fill:#37383C;}
	.st14{fill:#28292B;}
	.st15{fill:#E6E6E6;}
	.st16{fill:#A77C4F;}
	.st17{fill:#FDF9D5;}
	.st18{fill:#F6AE62;}
	.st19{fill:none;stroke:#DA8C40;stroke-width:1.5863;stroke-miterlimit:10;}
	.st20{fill:#FFFFFF;}
	.st21{fill:#6D6F70;}
	.st22{fill:none;stroke:#FFFFFF;stroke-width:1.5863;stroke-miterlimit:10;}
	.st23{fill:none;stroke:#FFFFFF;stroke-width:3.1726;stroke-linecap:round;stroke-linejoin:round;stroke-miterlimit:10;}
	.st24{fill:#F9EA95;}
	.st25{fill:#808083;}
	.st26{fill:#59595C;}
	.st27{fill:#EAF5F4;}
	.st28{fill:#686868;}
	.st29{fill:#2D2D2D;}
	.st30{fill:#CAD6D7;}
	.st31{fill:#818282;}
	.st32{opacity:0.78;fill:#414141;}
</style>
<g>
	<rect x="2.4" y="0" class="st0" width="1507.3" height="766.6"/>
</g>
<g>
	<path class="st1" d="M1464.2,655.6h-364.7c-4,0-7.2-3.2-7.2-7.2V114.8c0-4,3.2-7.2,7.2-7.2h364.7c4,0,7.2,3.2,7.2,7.2v533.6
		C1471.4,652.4,1468.2,655.6,1464.2,655.6z"/>
	<path class="st2" d="M1458.2,655.6h-364.7c-4,0-7.2-3.2-7.2-7.2V114.8c0-4,3.2-7.2,7.2-7.2h364.7c4,0,7.2,3.2,7.2,7.2v533.6
		C1465.4,652.4,1462.1,655.6,1458.2,655.6z"/>
	<g>
		<path class="st3" d="M1293.9,380.1c0,0,12.8-1.9,16,13.3C1309.9,393.4,1297,397.1,1293.9,380.1z"/>
		<path class="st3" d="M1289.4,359c2.7,3.4,4.9,8.5,2.4,15.2c0,0-4,5.6-0.9,10.3s4.4,15.2-4.6,21.9c0,0-7.5-10.9-18.3-6.3
			c0,0-5.6,1.9-9.5,8.3c0,0-16.7-3.6-18.4-15.4c0,0-0.6-1.2,2.3-7.5c0,0,2-4.2-0.6-8.9s-2.2-9.4,0.7-12.3c2.7-2.7,17-16.9,37.4-11.2
			C1283.7,354,1287,356.1,1289.4,359z"/>
	</g>
</g>
<g>
	<path class="st4" d="M1031,654.5H904.9c-11.9,0-21.6-9.7-21.6-21.6v-51.6c0-11.9,9.7-21.6,21.6-21.6H1031
		c11.9,0,21.6,9.7,21.6,21.6v51.6C1052.6,644.8,1043,654.5,1031,654.5z"/>
	<g>
		<path class="st3" d="M916.5,607.7c0,0,3.8-0.6,4.8,3.9C921.2,611.6,917.4,612.7,916.5,607.7z"/>
		<path class="st3" d="M915.1,601.4c0.8,1,1.5,2.5,0.7,4.5c0,0-1.2,1.7-0.3,3.1s1.3,4.5-1.4,6.5c0,0-2.2-3.2-5.4-1.9
			c0,0-1.7,0.6-2.8,2.5c0,0-5-1.1-5.5-4.6c0,0-0.2-0.4,0.7-2.2c0,0,0.6-1.2-0.2-2.6c-0.8-1.4-0.6-2.8,0.2-3.6
			c0.8-0.8,5.1-5,11.1-3.3C913.4,599.9,914.4,600.5,915.1,601.4z"/>
	</g>
</g>
<g>
	<path class="st4" d="M1036.9,373.8H927c-4,0-7.2-3.2-7.2-7.2V114.7c0-4,3.2-7.2,7.2-7.2h109.8c4,0,7.2,3.2,7.2,7.2v251.9
		C1044.1,370.6,1040.9,373.8,1036.9,373.8z"/>
	<rect x="928.7" y="144.6" class="st2" width="105.8" height="190.2"/>
	<path class="st2" d="M990.3,132.3h-19.2c-0.5,0-0.9-0.4-0.9-0.9v-1.6c0-0.5,0.4-0.9,0.9-0.9h19.2c0.5,0,0.9,0.4,0.9,0.9v1.6
		C991.2,131.9,990.8,132.3,990.3,132.3z"/>
	<circle class="st2" cx="980.5" cy="123.2" r="2.9"/>
	<circle class="st5" cx="981.1" cy="353.9" r="9.9"/>
</g>
<g>
	<polygon class="st6" points="614,333.7 622.1,371.6 632.1,333.7 	"/>
	<polygon class="st7" points="614.7,146.3 623.4,146.3 623.4,333.8 614,333.8 	"/>
	<polygon class="st8" points="632.1,146.3 623.4,146.3 623.4,333.8 632.1,333.8 	"/>
	<polygon class="st9" points="614.4,131.4 623.4,131.2 623.3,146.3 614.5,146.3 	"/>
	<polygon class="st2" points="623.4,131.2 632.3,131.2 632.2,146.3 623.3,146.3 	"/>
	<polygon class="st0" points="619.5,360 625.2,360 622.1,371.6 	"/>
	<path class="st10" d="M614.4,131.4l17.9-0.1v-8.7c0,0-0.7-6.5-8.6-6.5s-9.5,6.5-9.5,6.5L614.4,131.4z"/>
</g>
<g>
	<path class="st11" d="M868.2,410H666.8V108.1h201.4c8,0,14.4,6.4,14.4,14.4v273C882.6,403.5,876.1,410,868.2,410z"/>
	<rect x="666.8" y="108.1" class="st12" width="25.1" height="301.6"/>
	<path class="st4" d="M666.8,409.7l6,11.5h181.5c16.3,0,29.5-13.6,28.5-29.9c0-0.7-0.1-1.5-0.2-2.2c0,0-5.7,18.7-17.6,20.2
		C853.1,410.8,666.8,409.7,666.8,409.7z"/>
	<polygon class="st13" points="835.5,107.6 849.1,107.6 849.1,410.2 835.9,410.2 	"/>
	<polygon class="st14" points="837.1,421.4 849.8,421.4 849.1,410.2 835.9,410.2 	"/>
	<rect x="721.6" y="203.8" class="st12" width="86.5" height="11.8"/>
	<rect x="737.9" y="222.6" class="st12" width="56.7" height="9.4"/>
</g>
<g>
	<path class="st15" d="M921.9,477.6h-23.2c0,0-5.6,0.3-5.9-6.5c-0.3-6.9,0.2-10.5,0.2-10.5s0.2-5.1,5.8-5.1c5.7,0,25.1,1.5,25.1,1.5
		L921.9,477.6z"/>
	<circle class="st4" cx="983.6" cy="472.3" r="64.8"/>
	<circle class="st16" cx="984" cy="472.2" r="49"/>
</g>
<g>
	<path class="st4" d="M812.5,508.5v3.1h26.8v-9.9h-27v2.7H707.5c0,0-8.2,0.6-9.6,9.4c-1.4,8.8,7.6,11.4,7.6,11.4h143.7
		c0,0,5.8,2.1,4.2,6.4s-3.9,4.8-3.9,4.8H706.4c0,0-8,0.6-8.3,9.5c-0.3,8.9,7,11.3,7,11.3h145.8c0,0,3.9,1.9,3.2,6.4
		c-0.7,4.5-3.8,5.4-3.8,5.4H706.4c0,0-7.4,1.3-7.9,8.9c-0.4,7.6,6.7,11.6,6.7,11.6l16,0.7v3.8h35.2v-3.8h25.9c0,0,2.6,0.4,2.6,3.1
		c0,2.6,0,22.3,0,22.3h-1.5v30.8c0,0,1,9.3,13.4,9.5c0,0,7.1-0.6,9.3-3.9v-17.8c0,0-3.2-5.7-13.8-3.6V615h-2.2v-21.5
		c0,0-1-3.6-3.2-3.2h25.2c0,0,3.8,0.3,3.8,4.1s0,20.8,0,20.8h-1.1v31.5c0,0,1,6.5,7.6,8.1c6.6,1.6,14.5-0.6,16.6-3.2v-16
		c0,0-3.7-7-14.3-5.6V615h-3v-24.6c0,0-0.9-4.8-5.9-4.9c-5.1-0.1-59.1,0-59.1,0v-2.1h-35.6v2.6l-13.7-0.6c0,0-6.3-2.5-4.1-7.9
		c2.2-5.4,7.6-3.8,7.6-3.8h139.3c0,0,8.6-1.3,7.9-10.6s-8.1-10.5-8.1-10.5H707.7c0,0-5.7-1.7-3.6-7.6s8.8-3.8,8.8-3.8H852
		c0,0,8.6-3.3,6.9-11c-1.7-7.6-8.4-9.3-8.4-9.3H707.4c0,0-5.5-3.3-3.1-8.8c2.4-5.5,9.3-3.3,9.3-3.3L812.5,508.5z"/>
	<path class="st2" d="M855.9,503.2c0,0,3,3.5-0.1,6.6h-16.3v-6.7L855.9,503.2z"/>
</g>
<g>
	<polygon class="st7" points="372.9,571.3 372.9,628.3 399.7,654.1 456.7,654.1 456.7,571.3 	"/>
	<polygon class="st17" points="397.7,627.8 399.7,654.1 372.9,628.3 	"/>
</g>
<g>
	<polygon class="st7" points="369.2,466.5 369.2,523.5 396,549.3 453,549.3 453,466.5 	"/>
	<polygon class="st17" points="394,523 396,549.3 369.2,523.5 	"/>
</g>
<g>
	<rect x="285.3" y="447.2" class="st18" width="47.8" height="209.6"/>
	<line class="st19" x1="332.8" y1="458.3" x2="325.2" y2="458.3"/>
	<line class="st19" x1="332.8" y1="468" x2="325.2" y2="468"/>
	<line class="st19" x1="332.8" y1="477.7" x2="325.2" y2="477.7"/>
	<line class="st19" x1="332.8" y1="485.6" x2="325.2" y2="485.6"/>
	<line class="st19" x1="332.8" y1="495.3" x2="320.1" y2="495.3"/>
	<line class="st19" x1="332.8" y1="505.6" x2="325.2" y2="505.6"/>
	<line class="st19" x1="332.8" y1="515.3" x2="325.2" y2="515.3"/>
	<line class="st19" x1="332.8" y1="525" x2="325.2" y2="525"/>
	<line class="st19" x1="332.8" y1="532.9" x2="325.2" y2="532.9"/>
	<line class="st19" x1="332.8" y1="542.6" x2="320.1" y2="542.6"/>
	<line class="st19" x1="332.8" y1="552.2" x2="325.2" y2="552.2"/>
	<line class="st19" x1="332.8" y1="561.9" x2="325.2" y2="561.9"/>
	<line class="st19" x1="332.8" y1="571.6" x2="325.2" y2="571.6"/>
	<line class="st19" x1="332.8" y1="579.5" x2="325.2" y2="579.5"/>
	<line class="st19" x1="332.8" y1="589.2" x2="320.1" y2="589.2"/>
	<line class="st19" x1="332.8" y1="598.1" x2="325.2" y2="598.1"/>
	<line class="st19" x1="332.8" y1="607.8" x2="325.2" y2="607.8"/>
	<line class="st19" x1="332.8" y1="642.3" x2="325.2" y2="642.3"/>
	<line class="st19" x1="332.8" y1="652" x2="325.2" y2="652"/>
	<line class="st19" x1="332.8" y1="617.5" x2="325.2" y2="617.5"/>
	<line class="st19" x1="332.8" y1="625.4" x2="325.2" y2="625.4"/>
	<line class="st19" x1="332.8" y1="635.1" x2="320.1" y2="635.1"/>
</g>
<polygon class="st4" points="323.9,109 323.9,364.8 390.4,431.4 538.4,431.4 538.4,109.1 "/>
<polygon class="st20" points="393.8,367.4 390.4,431.4 323.9,364.8 "/>
<path class="st1" d="M583.5,119.3v167.7h-18.8V119.3C564.7,119.3,583.5,118.5,583.5,119.3z"/>
<polygon class="st21" points="585.3,286.4 564.1,286.4 564.1,357.2 562,357.2 562,286.2 557.5,286.2 557.5,364.3 585.6,364.3 "/>
<path class="st21" d="M571.6,272.5v-59.9c0-0.9,0.7-1.6,1.6-1.6h3c0.9,0,1.6,0.7,1.6,1.6v59.9c0,0.9-0.7,1.6-1.6,1.6h-3
	C572.3,274.1,571.6,273.4,571.6,272.5z"/>
<g>
	<ellipse class="st4" cx="526.2" cy="571" rx="35.9" ry="37.1"/>
	<circle class="st7" cx="526.5" cy="570.1" r="31.2"/>
	<line class="st22" x1="551.1" y1="570.3" x2="557.7" y2="570.3"/>
	<line class="st22" x1="526.8" y1="601.8" x2="526.8" y2="596.3"/>
	<line class="st22" x1="526" y1="538.3" x2="526" y2="544"/>
	<line class="st22" x1="495.7" y1="569.7" x2="501.4" y2="569.7"/>
	<line class="st23" x1="525.4" y1="550.3" x2="525.4" y2="574.5"/>
	<line class="st23" x1="525.4" y1="574.5" x2="536.1" y2="563.4"/>
	<path class="st15" d="M514.4,605.8v36.5l11.8,10.4l12.1-10.6v-36.2H514.4z M525.7,614.9c1.2,0,2.1,0.9,2.1,2.1
		c0,1.2-0.9,2.1-2.1,2.1c-1.1,0-2.1-0.9-2.1-2.1C523.6,615.9,524.6,614.9,525.7,614.9z M528.4,626.3c0,1.1-0.9,2-2,2
		c-1.1,0-1.9-0.9-1.9-2c0-1.1,0.9-1.9,1.9-1.9C527.5,624.4,528.4,625.3,528.4,626.3z M526.4,639.1c-1.2,0-2.2-1-2.2-2.2
		c0-1.2,1-2.2,2.2-2.2c1.2,0,2.2,1,2.2,2.2C528.6,638.1,527.6,639.1,526.4,639.1z"/>
	<rect x="514.4" y="494" class="st15" width="23.7" height="41.3"/>
	<polygon class="st4" points="511,538 514.3,529.8 538.1,529.7 544,539.4 	"/>
	<polygon class="st4" points="507.9,602.1 514.4,611.3 538.3,611.3 544.7,602.8 	"/>
	<polygon class="st24" points="509.1,500.8 514.6,500.8 514.6,486.6 537.8,486.6 537.8,500.7 543.5,500.7 543.5,476.1 509.3,476.1 	
		"/>
	<rect x="523.3" y="489.1" class="st24" width="5.4" height="10.9"/>
	<rect x="509.3" y="503.2" class="st4" width="33.5" height="9.6"/>
</g>
<g>
	<path class="st21" d="M265.1,338.3l-53.7,45.5c-1.8,1.5-4.5,1.3-6.1-0.5L42,190.7c-1.5-1.8-1.3-4.5,0.5-6.1L96.3,139
		c1.8-1.5,4.5-1.3,6.1,0.5l163.2,192.6C267.2,334,266.9,336.7,265.1,338.3z"/>
	<path class="st25" d="M270.7,346.9l-61.6,34.2c-2.1,1.2-4.7,0.4-5.9-1.7L79.2,156.1c-1.2-2.1-0.4-4.7,1.7-5.9l61.6-34.2
		c2.1-1.2,4.7-0.4,5.9,1.7l124.1,223.4C273.5,343.2,272.8,345.8,270.7,346.9z"/>
	<path class="st9" d="M273.6,356.8L208,382.3c-2.2,0.9-4.7-0.2-5.6-2.5l-94.7-243.3c-0.9-2.2,0.2-4.7,2.5-5.6l65.6-25.6
		c2.2-0.9,4.7,0.2,5.6,2.5l94.7,243.3C276.9,353.4,275.8,355.9,273.6,356.8z"/>
	<path class="st3" d="M272.8,365.6l-68.5,16.3c-2.3,0.6-4.7-0.9-5.2-3.2l-60.5-254c-0.6-2.3,0.9-4.7,3.2-5.2l68.5-16.3
		c2.3-0.6,4.7,0.9,5.2,3.2l60.5,254C276.6,362.7,275.1,365.1,272.8,365.6z"/>
	<path class="st4" d="M272.3,378.2l-70.4,0.4c-2.4,0-4.3-1.9-4.3-4.3L196,113.2c0-2.4,1.9-4.3,4.3-4.3l70.4-0.4
		c2.4,0,4.3,1.9,4.3,4.3l1.5,261.1C276.6,376.2,274.7,378.2,272.3,378.2z"/>
	<circle class="st0" cx="235.8" cy="350.3" r="12.1"/>
</g>
<g>
	<path class="st11" d="M810.5,449v22.6c0,1.2-1,2.2-2.2,2.2H747v-26.9h61.4C809.5,446.8,810.5,447.8,810.5,449z"/>
	<rect x="733" y="451.4" class="st15" width="13.7" height="19"/>
	<rect x="736.1" y="462.3" class="st26" width="5.5" height="5.9"/>
	<rect x="736.1" y="453.4" class="st26" width="5.7" height="3.9"/>
	<rect x="760.6" y="453.5" class="st12" width="32" height="11.9"/>
</g>
<g>
	<path class="st9" d="M622.7,595.1l11.8,2.7l14.3-35.6l19.9-120.2c0,0-2-3.2-5.3-0.3L622.7,595.1z"/>
	<path class="st2" d="M615.6,441.2l41.8,152.7l-12.1,3l-13.6-27.5l-20-127.1C611.8,442.4,612.2,440.3,615.6,441.2z"/>
	<circle class="st25" cx="640.2" cy="567.3" r="4.3"/>
	<circle class="st26" cx="640.2" cy="567.3" r="3.4"/>
	<path class="st11" d="M660,592.8c0-0.2-0.1-0.3-0.1-0.3l-15.9,5.1c6.5,15.9,2.5,31.2,2.5,31.2l-0.7,1.9c-2.2,3.6-3.5,7.8-3.5,12.2
		c0,13.5,11.6,24.4,25.3,23.3c14.7-1.2,24.5-16.2,20.4-30.3c-1.3-4.4-3.9-8.2-8.2-11.9C670.4,615.8,663.4,604.9,660,592.8z
		 M665.7,661.5c-10.2,0-18.6-8.3-18.6-18.5c0-7,3.8-13.1,9.5-16.2c1.6-0.9,3.4-1.6,5.3-2l0.1,0c1.2-0.2,2.4-0.4,3.7-0.4
		c10.2,0,18.5,8.3,18.5,18.6C684.3,653.2,676,661.5,665.7,661.5z"/>
	<path class="st11" d="M600.9,623.7c-4.3,3.7-6.9,7.5-8.2,11.9c-4.1,14.1,5.8,29.1,20.4,30.3c13.8,1.1,25.3-9.7,25.3-23.3
		c0-4.5-1.3-8.7-3.5-12.2l-0.7-1.9c0,0-4-15.3,2.5-31.2l-15.9-5.1c0,0,0,0.1-0.1,0.3C617.5,604.6,610.4,615.4,600.9,623.7z
		 M596.6,642.6c0-10.3,8.3-18.6,18.5-18.6c1.2,0,2.5,0.1,3.7,0.4l0.1,0c1.9,0.4,3.7,1.1,5.3,2c5.7,3.2,9.5,9.2,9.5,16.2
		c0,10.2-8.3,18.5-18.6,18.5C604.9,661.1,596.6,652.8,596.6,642.6z"/>
</g>
<g>
	<path class="st27" d="M87.4,432.4V643c0,7.6,6.2,13.8,13.8,13.8H231c7.6,0,13.8-6.2,13.8-13.8V432.4c0-7.6-6.2-13.8-13.8-13.8
		H101.2C93.5,418.6,87.4,424.8,87.4,432.4z M110.6,628.3c0,4.2-3.4,7.7-7.7,7.7c-4.2,0-7.7-3.4-7.7-7.7c0-4.2,3.4-7.7,7.7-7.7
		C107.2,620.7,110.6,624.1,110.6,628.3z"/>
	<rect x="115.7" y="418.6" class="st28" width="98.9" height="238.7"/>
	<rect x="124.1" y="418.6" class="st29" width="82.1" height="238.7"/>
	<circle class="st30" cx="163.9" cy="537.7" r="64"/>
	<circle class="st29" cx="102.8" cy="453.9" r="7.7"/>
	<circle class="st29" cx="164.7" cy="536.8" r="50.2"/>
	<path class="st29" d="M73.9,482.2v-28.1c0-3.8,3.1-6.9,6.9-6.9h6.4v41.9h-6.4C77,489.2,73.9,486,73.9,482.2z"/>
	<circle class="st28" cx="165.1" cy="538" r="41.5"/>
	<circle class="st31" cx="166.1" cy="537.7" r="34.9"/>
	<circle class="st29" cx="166.1" cy="537.7" r="20"/>
</g>
<rect class="st32" width="1509.7" height="766.6"/>
<g>
	<path class="st20" d="M616.3,313.5c0,0-4.9-0.6-4.9,7.9s-24.9,121.5-70.5,147c0,0,9.1-41.9,22.5-57.7
		c13.4-15.8,44.6-72.3-12.3-96.3c0,0-6.2-0.7-5.3,4c0.9,4.7,5.6,1.6,3.3,7.9S501.6,427.2,519.6,474c0,0,9.5,22.1,37-7.7
		c27.5-29.7,33.3-59.5,33.3-59.5s-12.2,80.7,25.2,71.7c37.4-9,83.8-132.5,87.4-168.5c0,0,0.5-11.7-18.9-9.9c0,0-4.1,6.8,5.9,8.6
		c9.9,1.8,9,1.4,9,5.4s-30,125.3-85.9,156.8c0,0-4.5-1.8,2.4-14c6.9-12.3,6.4-22.1,6.4-22.1s3.7-14.7,10.8-19.7
		c7.1-4.9,9.3-17.9,9.3-17.9s13.7-16.5,11.1-27.7c0,0,0.6-2.6,1.9-3.3c1.3-0.7-2.8-34.3-27.6-46.3c0,0-7.8-2.9-7.8-4.8
		S616.3,313.5,616.3,313.5z"/>
	<path class="st20" d="M738.9,369.2c0.7,0.2,7.1,2.3,4.2-3.7c-0.6-1.2-1.6-2.5-2.9-3.7c-8-7.7-20.1-9.1-30.1-4.2
		c-6,3-12.5,7.9-17.4,16.1c0,0-2.7,3.8-0.8,4.1c1.9,0.4,1.9,3-0.2,4.9c-2.1,1.9-23.8,34.4-20.8,59.8l-4.7,3.6c0,0-3.4,10.4,4.7,20.2
		c8.1,9.8,27,20.9,43.6-5.5C731.2,434.4,762.2,381,738.9,369.2z M717.8,445.1c-14,28-28.9,25.5-29.9,23.1
		c-0.9-2.4,8.5-32.4,8.5-32.4l-1.4-1.9c0,0,12.6-23.9,12.7-25.6c0.2-1.7-3.8-0.5-3.8-0.5c7.3-18.8,29.3-37,29.3-37
		C755.5,382.6,731.8,417.1,717.8,445.1z"/>
	<path class="st20" d="M830.4,431.1c0,0-2.7-4.4-4.1,2.3c-1.4,6.6-16.1,50.2-34.6,51c0,0,13.3-28.8,13.3-34.1l20.5-34.6
		c0,0,0.5-3.3-0.8-3.6c0,0,4.9-23.8-8.4-30.2c-4.2-2-9.1-1.5-13.2,0.8c-4.9,2.8-13.5,8.1-24,16.5c0,0-6.2,4-10,4
		c0,0,35.9-39.9,16.4-45.4c0,0-15.4-7.6-30.6,32.3c0,0-2.6,11.6,4.3,16.9c0,0-12.6,17.6-19.5,18.8c0,0,0.9,5.2,8.6,3.8
		c7.6-1.4,17.5-20.9,17.5-20.9s12.2,2.6,33.5-17.9c0,0,6.3-4.5,9.1-4.3c2.8,0.3-41.9,57-32.2,96
		C785.8,521.3,832.5,460.3,830.4,431.1z M761.8,402.6c0,0-7.8-10.2,15.2-37.1c0,0,7.4-6.9,7.1,2.4
		C783.8,381,761.8,402.6,761.8,402.6z"/>
	<path class="st20" d="M922.5,431.2c-4.8,3.6-11.9,57.1-26.4,63.9c-14.5,6.8-6.3-9.9-6.3-9.9S933.1,387,874,374.5c0,0,2.1-5.2,5.2-7
		c3.2-1.8,75.7-54.5,70.9-82.8c0,0-22.1-16.8-75,81.3l-5.4,5.6l-7.5-0.3c0,0,2.5-3.9-0.5-3.9c0,0,6.4-5.6,3.3-6.4
		c0,0,6.5-6.8,2.5-6.1c0,0,7.9-5.6,7.9-10.5l16.2-33.1c0,0,2.2-11.7,10.1-18.5c0,0,4.5-6.1,4.5-10.6s19.1-32.8-5.2-54.5
		c-24.3-21.7-30.3-20.8-30.3-20.8s-1.8,3,3.3,6.3c5.1,3.3,15.5,15.8,8.1,32.5c-7.5,16.7-38.1,158.4-39.9,166.2
		c-1.8,7.7-7.7,53.3,1.2,55.4l28.6-86.9c0,0,9.1,1.2,2.1,44.5c-7,43.2-0.3,77.3,17.1,77.6c17.3,0.3,32.6-71.3,35.3-71.8
		C926.4,430.6,927.2,427.6,922.5,431.2z M938.1,289.1c0,0,9.9-3.7,5.5,3.1c-4.4,6.8-30.8,48.3-65,72.1
		C878.6,364.3,910.4,305.3,938.1,289.1z"/>
	<path class="st20" d="M858.2,381.2c0,0-5.4,16.4-5.4,19.7s-5.1,8.3-5.1,8.3s-3.8,34.1-3.6,43.5c0,0.5,0,0.9,0.1,1.2
		c0.6,7.1,25-73.3,25-73.3S871,372.3,858.2,381.2z"/>
	<g>
		<path class="st20" d="M534.6,268.1c0.4-0.4,0.8-0.9,1.2-1.2c0.4-0.4,0.9-0.7,1.4-1c0.5-0.3,1-0.5,1.6-0.6c0.6-0.1,1.2-0.2,1.8-0.2
			c1,0,2,0.2,2.8,0.6c0.8,0.4,1.5,1,2.1,1.8c0.6,0.8,1.1,1.7,1.4,2.9s0.5,2.5,0.5,4c0,1.3-0.2,2.6-0.5,3.7s-0.9,2.1-1.5,3
			c-0.7,0.8-1.5,1.5-2.5,2c-1,0.5-2.1,0.7-3.3,0.7c-1.1,0-2-0.2-2.8-0.5c-0.8-0.4-1.5-0.9-2.1-1.5v7.8h-3.5v-24.1h2.1
			c0.5,0,0.8,0.2,0.9,0.7L534.6,268.1z M534.8,279c0.6,0.7,1.2,1.3,1.8,1.6c0.7,0.3,1.4,0.4,2.2,0.4c1.6,0,2.8-0.6,3.7-1.7
			c0.9-1.1,1.3-2.8,1.3-5c0-1.1-0.1-2.1-0.3-2.9s-0.5-1.5-0.9-2s-0.8-0.9-1.4-1.1c-0.5-0.2-1.2-0.4-1.8-0.4c-1,0-1.9,0.2-2.6,0.7
			c-0.7,0.5-1.4,1.1-2.1,1.9V279z"/>
		<path class="st20" d="M554.9,268.9c0.6-1.2,1.3-2.1,2.1-2.8c0.8-0.7,1.8-1,2.9-1c0.4,0,0.8,0,1.1,0.1c0.3,0.1,0.7,0.2,0.9,0.4
			l-0.2,2.6c-0.1,0.3-0.3,0.5-0.6,0.5c-0.2,0-0.4,0-0.7-0.1s-0.7-0.1-1.1-0.1c-0.6,0-1,0.1-1.5,0.2c-0.4,0.2-0.8,0.4-1.1,0.7
			c-0.3,0.3-0.6,0.7-0.9,1.2c-0.3,0.5-0.5,1-0.7,1.6v11.3h-3.5v-18h2c0.4,0,0.6,0.1,0.8,0.2c0.1,0.1,0.2,0.4,0.3,0.7L554.9,268.9z"
			/>
		<path class="st20" d="M569.3,259.9c0,0.3-0.1,0.6-0.2,0.9c-0.1,0.3-0.3,0.5-0.5,0.8c-0.2,0.2-0.5,0.4-0.8,0.5
			c-0.3,0.1-0.6,0.2-0.9,0.2c-0.3,0-0.6-0.1-0.9-0.2c-0.3-0.1-0.5-0.3-0.8-0.5c-0.2-0.2-0.4-0.5-0.5-0.8c-0.1-0.3-0.2-0.6-0.2-0.9
			c0-0.3,0.1-0.6,0.2-0.9c0.1-0.3,0.3-0.5,0.5-0.8c0.2-0.2,0.5-0.4,0.8-0.5c0.3-0.1,0.6-0.2,0.9-0.2c0.3,0,0.6,0.1,0.9,0.2
			c0.3,0.1,0.6,0.3,0.8,0.5c0.2,0.2,0.4,0.5,0.5,0.8C569.2,259.2,569.3,259.5,569.3,259.9z M568.6,265.4v18h-3.5v-18H568.6z"/>
		<path class="st20" d="M589.1,257.3v26.2H587c-0.5,0-0.8-0.2-0.9-0.7l-0.3-2.1c-0.8,0.9-1.6,1.6-2.6,2.2c-1,0.6-2.1,0.8-3.4,0.8
			c-1,0-2-0.2-2.8-0.6c-0.8-0.4-1.5-1-2.1-1.8c-0.6-0.8-1-1.7-1.4-2.9c-0.3-1.1-0.5-2.5-0.5-4c0-1.3,0.2-2.6,0.5-3.7
			c0.4-1.1,0.9-2.1,1.5-3c0.7-0.8,1.5-1.5,2.5-2c1-0.5,2-0.7,3.3-0.7c1.1,0,2,0.2,2.8,0.5c0.8,0.4,1.4,0.9,2.1,1.5v-9.9H589.1z
			 M585.7,269.8c-0.6-0.7-1.2-1.3-1.8-1.6s-1.4-0.4-2.2-0.4c-1.6,0-2.8,0.6-3.7,1.7c-0.9,1.1-1.3,2.8-1.3,5c0,1.1,0.1,2.1,0.3,2.9
			s0.5,1.5,0.9,2s0.8,0.9,1.4,1.1c0.5,0.2,1.2,0.4,1.8,0.4c1,0,1.9-0.2,2.6-0.7c0.7-0.4,1.4-1.1,2.1-1.9V269.8z"/>
		<path class="st20" d="M609.2,280.9c-0.4,0.5-0.9,0.9-1.5,1.3c-0.6,0.4-1.1,0.7-1.8,0.9c-0.6,0.2-1.3,0.4-1.9,0.5s-1.3,0.2-2,0.2
			c-1.2,0-2.4-0.2-3.5-0.6c-1.1-0.4-2-1-2.8-1.8s-1.4-1.8-1.8-3c-0.4-1.2-0.6-2.6-0.6-4.1c0-1.3,0.2-2.4,0.6-3.5s1-2,1.7-2.8
			c0.7-0.8,1.6-1.4,2.7-1.9c1.1-0.5,2.2-0.7,3.6-0.7c1.1,0,2.1,0.2,3,0.5c0.9,0.4,1.7,0.9,2.4,1.6c0.7,0.7,1.2,1.5,1.6,2.5
			s0.6,2.2,0.6,3.4c0,0.5-0.1,0.9-0.2,1.1c-0.1,0.2-0.3,0.3-0.7,0.3h-11.8c0,1.1,0.2,2,0.5,2.8s0.6,1.5,1.1,2s1.1,0.9,1.7,1.2
			c0.7,0.3,1.4,0.4,2.2,0.4c0.8,0,1.4-0.1,2-0.3c0.6-0.2,1-0.4,1.5-0.6c0.4-0.2,0.8-0.4,1-0.6c0.3-0.2,0.5-0.3,0.7-0.3
			c0.3,0,0.5,0.1,0.7,0.3L609.2,280.9z M606.3,272.4c0-0.7-0.1-1.3-0.3-1.9c-0.2-0.6-0.5-1.1-0.9-1.5s-0.8-0.8-1.4-1
			c-0.5-0.2-1.2-0.4-1.9-0.4c-1.5,0-2.6,0.4-3.4,1.3c-0.8,0.8-1.4,2-1.6,3.5H606.3z"/>
		<path class="st20" d="M627.1,259.9c0,0.3-0.1,0.6-0.2,0.9c-0.1,0.3-0.3,0.5-0.5,0.8c-0.2,0.2-0.5,0.4-0.8,0.5
			c-0.3,0.1-0.6,0.2-0.9,0.2c-0.3,0-0.6-0.1-0.9-0.2c-0.3-0.1-0.5-0.3-0.8-0.5c-0.2-0.2-0.4-0.5-0.5-0.8c-0.1-0.3-0.2-0.6-0.2-0.9
			c0-0.3,0.1-0.6,0.2-0.9c0.1-0.3,0.3-0.5,0.5-0.8c0.2-0.2,0.5-0.4,0.8-0.5c0.3-0.1,0.6-0.2,0.9-0.2c0.3,0,0.6,0.1,0.9,0.2
			c0.3,0.1,0.6,0.3,0.8,0.5c0.2,0.2,0.4,0.5,0.5,0.8C627.1,259.2,627.1,259.5,627.1,259.9z M626.5,265.4v18H623v-18H626.5z"/>
		<path class="st20" d="M635.1,267.9c0.4-0.4,0.8-0.8,1.2-1.1c0.4-0.3,0.9-0.6,1.4-0.9s1-0.4,1.5-0.6c0.6-0.1,1.1-0.2,1.8-0.2
			c1,0,1.9,0.2,2.6,0.5s1.4,0.8,1.9,1.4c0.5,0.6,0.9,1.3,1.2,2.2c0.3,0.8,0.4,1.8,0.4,2.8v11.5h-3.5V272c0-1.3-0.3-2.3-0.9-3
			c-0.6-0.7-1.5-1.1-2.7-1.1c-0.9,0-1.7,0.2-2.5,0.6c-0.8,0.4-1.5,1-2.2,1.7v13.2h-3.5v-18h2.1c0.5,0,0.8,0.2,0.9,0.7L635.1,267.9z"
			/>
		<path class="st20" d="M667,283.8c-1.5,0-2.6-0.4-3.4-1.2s-1.2-2-1.2-3.5v-10.8h-2.1c-0.2,0-0.4-0.1-0.5-0.2
			c-0.1-0.1-0.2-0.3-0.2-0.6v-1.4l2.9-0.4l0.8-5.4c0-0.2,0.1-0.4,0.3-0.5c0.1-0.1,0.3-0.2,0.5-0.2h1.8v6.1h5.1v2.5H666v10.6
			c0,0.7,0.2,1.2,0.5,1.6c0.3,0.3,0.8,0.5,1.3,0.5c0.3,0,0.6,0,0.8-0.1c0.2-0.1,0.4-0.2,0.6-0.3c0.2-0.1,0.3-0.2,0.4-0.3
			c0.1-0.1,0.2-0.1,0.3-0.1c0.1,0,0.2,0,0.3,0.1s0.1,0.1,0.2,0.3l1,1.7c-0.6,0.5-1.2,0.9-2,1.2C668.7,283.6,667.9,283.8,667,283.8z"
			/>
		<path class="st20" d="M678.1,267.7c0.8-0.8,1.6-1.4,2.5-1.9s2-0.7,3.2-0.7c1,0,1.9,0.2,2.6,0.5s1.4,0.8,1.9,1.4
			c0.5,0.6,0.9,1.3,1.2,2.2c0.3,0.8,0.4,1.8,0.4,2.8v11.5h-3.5V272c0-1.3-0.3-2.3-0.9-3c-0.6-0.7-1.5-1.1-2.7-1.1
			c-0.9,0-1.7,0.2-2.5,0.6c-0.8,0.4-1.5,1-2.2,1.7v13.2h-3.5v-26.2h3.5V267.7z"/>
		<path class="st20" d="M709.7,280.9c-0.4,0.5-0.9,0.9-1.5,1.3c-0.6,0.4-1.1,0.7-1.8,0.9c-0.6,0.2-1.3,0.4-1.9,0.5s-1.3,0.2-2,0.2
			c-1.2,0-2.4-0.2-3.5-0.6c-1.1-0.4-2-1-2.8-1.8s-1.4-1.8-1.8-3c-0.4-1.2-0.6-2.6-0.6-4.1c0-1.3,0.2-2.4,0.6-3.5s1-2,1.7-2.8
			c0.7-0.8,1.6-1.4,2.7-1.9c1.1-0.5,2.2-0.7,3.6-0.7c1.1,0,2.1,0.2,3,0.5c0.9,0.4,1.7,0.9,2.4,1.6c0.7,0.7,1.2,1.5,1.6,2.5
			s0.6,2.2,0.6,3.4c0,0.5-0.1,0.9-0.2,1.1c-0.1,0.2-0.3,0.3-0.7,0.3h-11.8c0,1.1,0.2,2,0.5,2.8s0.6,1.5,1.1,2s1.1,0.9,1.7,1.2
			c0.7,0.3,1.4,0.4,2.2,0.4c0.8,0,1.4-0.1,2-0.3c0.6-0.2,1-0.4,1.5-0.6c0.4-0.2,0.8-0.4,1-0.6c0.3-0.2,0.5-0.3,0.7-0.3
			c0.3,0,0.5,0.1,0.7,0.3L709.7,280.9z M706.8,272.4c0-0.7-0.1-1.3-0.3-1.9c-0.2-0.6-0.5-1.1-0.9-1.5s-0.8-0.8-1.4-1
			c-0.5-0.2-1.2-0.4-1.9-0.4c-1.5,0-2.6,0.4-3.4,1.3c-0.8,0.8-1.4,2-1.6,3.5H706.8z"/>
	</g>
	<g>
		<path class="st20" d="M523,521.9c0.4-0.4,0.8-0.9,1.2-1.2s0.9-0.7,1.4-1c0.5-0.3,1-0.5,1.6-0.6c0.6-0.1,1.2-0.2,1.8-0.2
			c1,0,2,0.2,2.8,0.6c0.8,0.4,1.5,1,2.1,1.8c0.6,0.8,1.1,1.7,1.4,2.9s0.5,2.5,0.5,4c0,1.3-0.2,2.6-0.5,3.7s-0.9,2.1-1.5,3
			c-0.7,0.8-1.5,1.5-2.5,2c-1,0.5-2.1,0.7-3.3,0.7c-1.1,0-2-0.2-2.8-0.5c-0.8-0.4-1.5-0.9-2.1-1.5v7.8h-3.5v-24.1h2.1
			c0.5,0,0.8,0.2,0.9,0.7L523,521.9z M523.2,532.8c0.6,0.7,1.2,1.3,1.8,1.6s1.4,0.4,2.2,0.4c1.6,0,2.8-0.6,3.7-1.7
			c0.9-1.1,1.3-2.8,1.3-5c0-1.1-0.1-2.1-0.3-2.9c-0.2-0.8-0.5-1.5-0.9-2c-0.4-0.5-0.8-0.9-1.4-1.1c-0.5-0.2-1.2-0.4-1.8-0.4
			c-1,0-1.9,0.2-2.6,0.7c-0.7,0.5-1.4,1.1-2.1,1.9V532.8z"/>
		<path class="st20" d="M554.9,534.7c-0.4,0.5-0.9,0.9-1.5,1.3c-0.6,0.4-1.1,0.7-1.8,0.9c-0.6,0.2-1.3,0.4-1.9,0.5s-1.3,0.2-2,0.2
			c-1.2,0-2.4-0.2-3.5-0.6s-2-1-2.8-1.8c-0.8-0.8-1.4-1.8-1.8-3c-0.4-1.2-0.6-2.6-0.6-4.1c0-1.3,0.2-2.4,0.6-3.5s1-2,1.7-2.8
			c0.7-0.8,1.6-1.4,2.7-1.9c1.1-0.5,2.2-0.7,3.6-0.7c1.1,0,2.1,0.2,3,0.5c0.9,0.4,1.7,0.9,2.4,1.6c0.7,0.7,1.2,1.5,1.6,2.5
			s0.6,2.2,0.6,3.4c0,0.5-0.1,0.9-0.2,1.1c-0.1,0.2-0.3,0.3-0.7,0.3h-11.8c0,1.1,0.2,2,0.5,2.8s0.6,1.5,1.1,2
			c0.5,0.5,1.1,0.9,1.7,1.2s1.4,0.4,2.2,0.4c0.8,0,1.4-0.1,2-0.3c0.6-0.2,1-0.4,1.5-0.6c0.4-0.2,0.8-0.4,1-0.6s0.5-0.3,0.7-0.3
			c0.3,0,0.5,0.1,0.7,0.3L554.9,534.7z M552,526.2c0-0.7-0.1-1.3-0.3-1.9s-0.5-1.1-0.9-1.5c-0.4-0.4-0.8-0.8-1.4-1
			c-0.5-0.2-1.2-0.4-1.9-0.4c-1.5,0-2.6,0.4-3.4,1.3c-0.8,0.8-1.4,2-1.6,3.5H552z"/>
		<path class="st20" d="M562.5,522.7c0.6-1.2,1.3-2.1,2.1-2.8c0.8-0.7,1.8-1,2.9-1c0.4,0,0.8,0,1.1,0.1c0.3,0.1,0.7,0.2,0.9,0.4
			l-0.2,2.6c-0.1,0.3-0.3,0.5-0.6,0.5c-0.2,0-0.4,0-0.7-0.1c-0.3-0.1-0.7-0.1-1.1-0.1c-0.6,0-1,0.1-1.5,0.2s-0.8,0.4-1.1,0.7
			c-0.3,0.3-0.6,0.7-0.9,1.2c-0.3,0.5-0.5,1-0.7,1.6v11.3h-3.5v-18h2c0.4,0,0.6,0.1,0.8,0.2c0.1,0.1,0.2,0.4,0.3,0.7L562.5,522.7z"
			/>
		<path class="st20" d="M573.8,537.2V522l-1.9-0.2c-0.3-0.1-0.5-0.2-0.7-0.3c-0.2-0.1-0.3-0.3-0.3-0.6v-1.4h2.8v-1.6
			c0-1,0.1-1.9,0.4-2.8c0.3-0.8,0.7-1.5,1.3-2.1c0.6-0.6,1.2-1,2-1.3c0.8-0.3,1.6-0.4,2.6-0.4c0.8,0,1.6,0.1,2.3,0.4l-0.1,1.7
			c0,0.2-0.1,0.3-0.1,0.3c-0.1,0.1-0.2,0.1-0.3,0.2c-0.1,0-0.3,0.1-0.5,0.1s-0.4,0-0.6,0c-0.5,0-1,0.1-1.5,0.2
			c-0.4,0.1-0.8,0.3-1.1,0.7c-0.3,0.3-0.5,0.7-0.7,1.2c-0.2,0.5-0.2,1.1-0.2,1.9v1.5h5.1v2.5h-5v15.2H573.8z"/>
		<path class="st20" d="M599.7,534.7c-0.4,0.5-0.9,0.9-1.5,1.3c-0.6,0.4-1.1,0.7-1.8,0.9c-0.6,0.2-1.3,0.4-1.9,0.5s-1.3,0.2-2,0.2
			c-1.2,0-2.4-0.2-3.5-0.6s-2-1-2.8-1.8c-0.8-0.8-1.4-1.8-1.8-3c-0.4-1.2-0.6-2.6-0.6-4.1c0-1.3,0.2-2.4,0.6-3.5s1-2,1.7-2.8
			c0.7-0.8,1.6-1.4,2.7-1.9c1.1-0.5,2.2-0.7,3.6-0.7c1.1,0,2.1,0.2,3,0.5c0.9,0.4,1.7,0.9,2.4,1.6c0.7,0.7,1.2,1.5,1.6,2.5
			s0.6,2.2,0.6,3.4c0,0.5-0.1,0.9-0.2,1.1c-0.1,0.2-0.3,0.3-0.7,0.3h-11.8c0,1.1,0.2,2,0.5,2.8s0.6,1.5,1.1,2
			c0.5,0.5,1.1,0.9,1.7,1.2s1.4,0.4,2.2,0.4c0.8,0,1.4-0.1,2-0.3c0.6-0.2,1-0.4,1.5-0.6c0.4-0.2,0.8-0.4,1-0.6s0.5-0.3,0.7-0.3
			c0.3,0,0.5,0.1,0.7,0.3L599.7,534.7z M596.9,526.2c0-0.7-0.1-1.3-0.3-1.9s-0.5-1.1-0.9-1.5c-0.4-0.4-0.8-0.8-1.4-1
			c-0.5-0.2-1.2-0.4-1.9-0.4c-1.5,0-2.6,0.4-3.4,1.3c-0.8,0.8-1.4,2-1.6,3.5H596.9z"/>
		<path class="st20" d="M616.7,522.6c-0.1,0.1-0.2,0.2-0.3,0.3s-0.2,0.1-0.4,0.1s-0.4-0.1-0.6-0.2c-0.2-0.1-0.5-0.3-0.8-0.5
			c-0.3-0.2-0.7-0.3-1.1-0.5c-0.4-0.1-1-0.2-1.6-0.2c-0.9,0-1.6,0.2-2.3,0.5c-0.7,0.3-1.2,0.7-1.6,1.3c-0.4,0.6-0.8,1.3-1,2.1
			c-0.2,0.8-0.3,1.7-0.3,2.8c0,1.1,0.1,2,0.4,2.8c0.2,0.8,0.6,1.5,1,2.1c0.4,0.6,1,1,1.6,1.3s1.3,0.4,2.1,0.4c0.7,0,1.4-0.1,1.8-0.3
			c0.5-0.2,0.9-0.4,1.2-0.6s0.6-0.4,0.8-0.6c0.2-0.2,0.4-0.3,0.7-0.3c0.3,0,0.5,0.1,0.7,0.3l1,1.3c-0.4,0.5-0.9,0.9-1.4,1.3
			c-0.5,0.4-1.1,0.6-1.6,0.9s-1.2,0.4-1.8,0.5s-1.3,0.2-1.9,0.2c-1.1,0-2.2-0.2-3.2-0.6s-1.8-1-2.5-1.8s-1.3-1.8-1.7-2.9
			c-0.4-1.2-0.6-2.5-0.6-3.9c0-1.3,0.2-2.6,0.6-3.7c0.4-1.1,0.9-2.1,1.7-2.9c0.7-0.8,1.6-1.5,2.7-1.9c1.1-0.5,2.3-0.7,3.7-0.7
			c1.3,0,2.4,0.2,3.4,0.6c1,0.4,1.9,1,2.6,1.8L616.7,522.6z"/>
		<path class="st20" d="M638.5,537.2H635V522H626v10.6c0,0.7,0.2,1.2,0.5,1.6c0.3,0.3,0.8,0.5,1.3,0.5c0.3,0,0.6,0,0.8-0.1
			s0.4-0.2,0.6-0.3c0.2-0.1,0.3-0.2,0.4-0.3c0.1-0.1,0.2-0.1,0.3-0.1c0.1,0,0.2,0,0.3,0.1c0.1,0.1,0.1,0.1,0.2,0.3l1,1.7
			c-0.6,0.5-1.2,0.9-2,1.2c-0.8,0.3-1.6,0.4-2.4,0.4c-1.5,0-2.6-0.4-3.4-1.2s-1.2-2-1.2-3.5V522h-2.1c-0.2,0-0.4-0.1-0.5-0.2
			c-0.1-0.1-0.2-0.3-0.2-0.6v-1.4l2.9-0.4l0.8-5.4c0-0.2,0.1-0.4,0.3-0.5s0.3-0.2,0.5-0.2h1.8v6.1h12.5V537.2z M639.3,513.5
			c0,0.3-0.1,0.6-0.2,0.9c-0.1,0.3-0.3,0.5-0.5,0.8c-0.2,0.2-0.5,0.4-0.8,0.5s-0.6,0.2-0.9,0.2c-0.3,0-0.6-0.1-0.9-0.2
			s-0.5-0.3-0.8-0.5c-0.2-0.2-0.4-0.5-0.5-0.8c-0.1-0.3-0.2-0.6-0.2-0.9c0-0.3,0.1-0.6,0.2-0.9c0.1-0.3,0.3-0.6,0.5-0.8
			c0.2-0.2,0.5-0.4,0.8-0.5c0.3-0.1,0.6-0.2,0.9-0.2c0.3,0,0.6,0.1,0.9,0.2c0.3,0.1,0.6,0.3,0.8,0.5c0.2,0.2,0.4,0.5,0.5,0.8
			S639.3,513.2,639.3,513.5z"/>
		<path class="st20" d="M651.6,518.9c1.3,0,2.5,0.2,3.6,0.6c1.1,0.4,2,1.1,2.7,1.9c0.8,0.8,1.3,1.8,1.7,2.9c0.4,1.1,0.6,2.4,0.6,3.8
			s-0.2,2.7-0.6,3.9c-0.4,1.1-1,2.1-1.7,2.9c-0.8,0.8-1.7,1.4-2.7,1.9c-1.1,0.4-2.3,0.6-3.6,0.6c-1.3,0-2.5-0.2-3.6-0.6
			c-1.1-0.4-2-1.1-2.7-1.9c-0.8-0.8-1.3-1.8-1.7-2.9c-0.4-1.1-0.6-2.4-0.6-3.9s0.2-2.7,0.6-3.8c0.4-1.1,1-2.1,1.7-2.9
			c0.8-0.8,1.7-1.4,2.7-1.9C649.1,519.1,650.3,518.9,651.6,518.9z M651.6,534.8c1.7,0,3-0.6,3.8-1.7c0.8-1.1,1.3-2.8,1.3-4.8
			s-0.4-3.7-1.3-4.9c-0.8-1.2-2.1-1.7-3.8-1.7c-1.7,0-3,0.6-3.9,1.7c-0.8,1.2-1.3,2.8-1.3,4.9s0.4,3.7,1.3,4.8
			C648.6,534.2,649.9,534.8,651.6,534.8z"/>
		<path class="st20" d="M667.7,521.7c0.4-0.4,0.8-0.8,1.2-1.1c0.4-0.3,0.9-0.6,1.4-0.9c0.5-0.2,1-0.4,1.5-0.6
			c0.6-0.1,1.1-0.2,1.8-0.2c1,0,1.9,0.2,2.6,0.5c0.8,0.3,1.4,0.8,1.9,1.4s0.9,1.3,1.2,2.2c0.3,0.8,0.4,1.8,0.4,2.8v11.5h-3.5v-11.5
			c0-1.3-0.3-2.3-0.9-3c-0.6-0.7-1.5-1.1-2.7-1.1c-0.9,0-1.7,0.2-2.5,0.6c-0.8,0.4-1.5,1-2.2,1.7v13.2h-3.5v-18h2.1
			c0.5,0,0.8,0.2,0.9,0.7L667.7,521.7z"/>
		<path class="st20" d="M698.3,513.6c0,0.3-0.1,0.6-0.2,0.9s-0.3,0.5-0.5,0.8c-0.2,0.2-0.5,0.4-0.8,0.5s-0.6,0.2-0.9,0.2
			c-0.3,0-0.6-0.1-0.9-0.2s-0.5-0.3-0.8-0.5c-0.2-0.2-0.4-0.5-0.5-0.8c-0.1-0.3-0.2-0.6-0.2-0.9c0-0.3,0.1-0.6,0.2-0.9
			c0.1-0.3,0.3-0.5,0.5-0.8c0.2-0.2,0.5-0.4,0.8-0.5c0.3-0.1,0.6-0.2,0.9-0.2c0.3,0,0.6,0.1,0.9,0.2c0.3,0.1,0.6,0.3,0.8,0.5
			c0.2,0.2,0.4,0.5,0.5,0.8S698.3,513.3,698.3,513.6z M697.6,519.2v18h-3.5v-18H697.6z"/>
		<path class="st20" d="M706.3,521.7c0.4-0.4,0.8-0.8,1.2-1.1c0.4-0.3,0.9-0.6,1.4-0.9c0.5-0.2,1-0.4,1.5-0.6
			c0.6-0.1,1.1-0.2,1.8-0.2c1,0,1.9,0.2,2.6,0.5c0.8,0.3,1.4,0.8,1.9,1.4s0.9,1.3,1.2,2.2c0.3,0.8,0.4,1.8,0.4,2.8v11.5h-3.5v-11.5
			c0-1.3-0.3-2.3-0.9-3c-0.6-0.7-1.5-1.1-2.7-1.1c-0.9,0-1.7,0.2-2.5,0.6c-0.8,0.4-1.5,1-2.2,1.7v13.2H703v-18h2.1
			c0.5,0,0.8,0.2,0.9,0.7L706.3,521.7z"/>
		<path class="st20" d="M738.2,537.5c-1.5,0-2.6-0.4-3.4-1.2s-1.2-2-1.2-3.5V522h-2.1c-0.2,0-0.4-0.1-0.5-0.2
			c-0.1-0.1-0.2-0.3-0.2-0.6v-1.4l2.9-0.4l0.8-5.4c0-0.2,0.1-0.4,0.3-0.5s0.3-0.2,0.5-0.2h1.8v6.1h5.1v2.5h-5.1v10.6
			c0,0.7,0.2,1.2,0.5,1.6c0.3,0.3,0.8,0.5,1.3,0.5c0.3,0,0.6,0,0.8-0.1s0.4-0.2,0.6-0.3c0.2-0.1,0.3-0.2,0.4-0.3
			c0.1-0.1,0.2-0.1,0.3-0.1c0.1,0,0.2,0,0.3,0.1c0.1,0.1,0.1,0.1,0.2,0.3l1,1.7c-0.6,0.5-1.2,0.9-2,1.2
			C739.9,537.4,739.1,537.5,738.2,537.5z"/>
		<path class="st20" d="M749.3,521.5c0.8-0.8,1.6-1.4,2.5-1.9s2-0.7,3.2-0.7c1,0,1.9,0.2,2.6,0.5c0.8,0.3,1.4,0.8,1.9,1.4
			s0.9,1.3,1.2,2.2c0.3,0.8,0.4,1.8,0.4,2.8v11.5h-3.5v-11.5c0-1.3-0.3-2.3-0.9-3c-0.6-0.7-1.5-1.1-2.7-1.1c-0.9,0-1.7,0.2-2.5,0.6
			c-0.8,0.4-1.5,1-2.2,1.7v13.2h-3.5V511h3.5V521.5z"/>
		<path class="st20" d="M780.8,534.7c-0.4,0.5-0.9,0.9-1.5,1.3c-0.6,0.4-1.1,0.7-1.8,0.9c-0.6,0.2-1.3,0.4-1.9,0.5s-1.3,0.2-2,0.2
			c-1.2,0-2.4-0.2-3.5-0.6s-2-1-2.8-1.8c-0.8-0.8-1.4-1.8-1.8-3c-0.4-1.2-0.6-2.6-0.6-4.1c0-1.3,0.2-2.4,0.6-3.5s1-2,1.7-2.8
			c0.7-0.8,1.6-1.4,2.7-1.9c1.1-0.5,2.2-0.7,3.6-0.7c1.1,0,2.1,0.2,3,0.5c0.9,0.4,1.7,0.9,2.4,1.6c0.7,0.7,1.2,1.5,1.6,2.5
			s0.6,2.2,0.6,3.4c0,0.5-0.1,0.9-0.2,1.1c-0.1,0.2-0.3,0.3-0.7,0.3h-11.8c0,1.1,0.2,2,0.5,2.8s0.6,1.5,1.1,2
			c0.5,0.5,1.1,0.9,1.7,1.2s1.4,0.4,2.2,0.4c0.8,0,1.4-0.1,2-0.3c0.6-0.2,1-0.4,1.5-0.6c0.4-0.2,0.8-0.4,1-0.6s0.5-0.3,0.7-0.3
			c0.3,0,0.5,0.1,0.7,0.3L780.8,534.7z M778,526.2c0-0.7-0.1-1.3-0.3-1.9s-0.5-1.1-0.9-1.5c-0.4-0.4-0.8-0.8-1.4-1
			c-0.5-0.2-1.2-0.4-1.9-0.4c-1.5,0-2.6,0.4-3.4,1.3c-0.8,0.8-1.4,2-1.6,3.5H778z"/>
		<path class="st20" d="M798.1,519.2v19.2c0,0.7-0.1,1.4-0.3,2.1c-0.2,0.6-0.5,1.2-0.9,1.7s-1,0.9-1.6,1.1c-0.7,0.3-1.5,0.4-2.4,0.4
			c-0.4,0-0.7,0-1.1-0.1c-0.3-0.1-0.7-0.1-1-0.2l0.1-1.9c0-0.2,0.2-0.3,0.3-0.4c0.2,0,0.5,0,0.9,0c0.9,0,1.6-0.2,1.9-0.6
			c0.4-0.4,0.6-1.1,0.6-2.1v-19.2H798.1z M798.8,513.6c0,0.3-0.1,0.6-0.2,0.9s-0.3,0.5-0.5,0.8c-0.2,0.2-0.5,0.4-0.8,0.5
			c-0.3,0.1-0.6,0.2-0.9,0.2c-0.3,0-0.6-0.1-0.9-0.2s-0.5-0.3-0.8-0.5c-0.2-0.2-0.4-0.5-0.5-0.8c-0.1-0.3-0.2-0.6-0.2-0.9
			c0-0.3,0.1-0.6,0.2-0.9c0.1-0.3,0.3-0.5,0.5-0.8c0.2-0.2,0.5-0.4,0.8-0.5c0.3-0.1,0.6-0.2,0.9-0.2c0.3,0,0.6,0.1,0.9,0.2
			c0.3,0.1,0.5,0.3,0.8,0.5c0.2,0.2,0.4,0.5,0.5,0.8S798.8,513.3,798.8,513.6z"/>
		<path class="st20" d="M811.2,518.9c1.3,0,2.5,0.2,3.6,0.6c1.1,0.4,2,1.1,2.7,1.9c0.8,0.8,1.3,1.8,1.7,2.9c0.4,1.1,0.6,2.4,0.6,3.8
			s-0.2,2.7-0.6,3.9c-0.4,1.1-1,2.1-1.7,2.9c-0.8,0.8-1.7,1.4-2.7,1.9c-1.1,0.4-2.3,0.6-3.6,0.6c-1.3,0-2.5-0.2-3.6-0.6
			c-1.1-0.4-2-1.1-2.7-1.9c-0.8-0.8-1.3-1.8-1.7-2.9c-0.4-1.1-0.6-2.4-0.6-3.9s0.2-2.7,0.6-3.8c0.4-1.1,1-2.1,1.7-2.9
			c0.8-0.8,1.7-1.4,2.7-1.9C808.7,519.1,809.9,518.9,811.2,518.9z M811.2,534.8c1.7,0,3-0.6,3.8-1.7c0.8-1.1,1.3-2.8,1.3-4.8
			s-0.4-3.7-1.3-4.9c-0.8-1.2-2.1-1.7-3.8-1.7c-1.7,0-3,0.6-3.9,1.7c-0.8,1.2-1.3,2.8-1.3,4.9s0.4,3.7,1.3,4.8
			C808.2,534.2,809.5,534.8,811.2,534.8z"/>
		<path class="st20" d="M827.5,521.7c0.7-0.8,1.6-1.5,2.5-2s2-0.8,3.2-0.8c1.1,0,2,0.2,2.9,0.6c0.8,0.4,1.6,1,2.2,1.8
			c0.6,0.8,1,1.7,1.4,2.8c0.3,1.1,0.5,2.3,0.5,3.7c0,1.5-0.2,2.8-0.5,4s-0.9,2.2-1.5,3.1c-0.7,0.9-1.5,1.5-2.4,2s-2,0.7-3.2,0.7
			c-0.6,0-1.1-0.1-1.6-0.2s-0.9-0.3-1.3-0.5c-0.4-0.2-0.8-0.5-1.1-0.8c-0.3-0.3-0.7-0.7-1-1l-0.2,1.5c-0.1,0.5-0.4,0.7-0.9,0.7h-2.2
			V511h3.5V521.7z M827.5,532.8c0.6,0.7,1.2,1.3,1.8,1.6s1.4,0.4,2.2,0.4c1.6,0,2.9-0.6,3.7-1.7c0.9-1.1,1.3-2.9,1.3-5.2
			c0-2.1-0.4-3.7-1.2-4.7c-0.8-1-1.9-1.5-3.3-1.5c-1,0-1.9,0.2-2.6,0.7c-0.7,0.5-1.4,1.1-2,1.9V532.8z"/>
	</g>
</g>
</svg>
