<?xml version="1.0" encoding="utf-8"?>
<!-- Generator: Adobe Illustrator 19.1.0, SVG Export Plug-In . SVG Version: 6.00 Build 0)  -->
<svg version="1.1" id="Layer_1" xmlns="http://www.w3.org/2000/svg" xmlns:xlink="http://www.w3.org/1999/xlink" x="0px" y="0px"
	 viewBox="0 0 288 288" style="enable-background:new 0 0 288 288;" xml:space="preserve">
<g id="wt6oF8.tif_3_">
	<g>
		<path d="M143.7,3.3C66.2,3.3,3.4,66.1,3.4,143.6c0,77.4,62.8,140.2,140.3,140.2S284,221,284,143.6C284,66.1,221.2,3.3,143.7,3.3z
			 M198.3,113.2c0,0-0.2,115-122.3,71.7c0,0,22.1,2.3,40.3-12c0,0-20.9-1.3-26.1-19.6c0,0,6.5,1.3,12-0.5c0,0-21.4-6-21.7-27.7
			c0,0,8.3,3.9,12.6,2.9c0,0-21-12.2-8.8-37.3c0,0,21.5,28,58.4,29.3c0,0-5.6-21.6,14.6-31.7C177.6,78,190.5,94,190.5,94
			s14.7-3.2,18.1-6.9c0,0-1.9,9.1-11.9,15.9c0,0,11.9-2.8,15.7-4.5C212.5,98.5,206.3,107.8,198.3,113.2z"/>
	</g>
</g>
</svg>
