<?xml version="1.0" encoding="utf-8"?>
<!-- Generator: Adobe Illustrator 19.1.0, SVG Export Plug-In . SVG Version: 6.00 Build 0)  -->
<svg version="1.1" id="Layer_1" xmlns="http://www.w3.org/2000/svg" xmlns:xlink="http://www.w3.org/1999/xlink" x="0px" y="0px"
	 viewBox="36 -36 288 288" style="enable-background:new 36 -36 288 288;" xml:space="preserve">
<style type="text/css">
	.st0{fill:#F37F63;}
</style>
<g id="wt6oF8.tif_3_">
	<g>
		<path class="st0" d="M314,42c0,0.3-12.1,18.3-27.7,28.8c0,0-0.4,225.6-239.9,140.6c0,0,43.4,4.5,79.1-23.5c0,0-41-2.6-51.2-38.4
			c0,0,12.8,2.6,23.5-1c0,0-42-11.8-42.6-54.3c0,0,16.3,7.7,24.7,5.7c0,0-41.2-23.9-17.3-73.2c0,0,42.2,54.9,114.6,57.5
			c0,0-11-42.4,28.6-62.2C245.7,1.8,271,33.2,271,33.2s28.8-6.3,35.5-13.5c0,0-3.7,17.9-23.3,31.2C283.2,50.9,306.5,45.4,314,42z"/>
	</g>
</g>
</svg>
