<svg xmlns="http://www.w3.org/2000/svg" viewBox="-121 213.1 367.9 367.9" enable-background="new -121 213.1 367.9 367.9"><style type="text/css">.st0{fill:#282828;} .st1{fill:#F9B163;} .st2{opacity:0.29;fill:#434444;enable-background:new ;}</style><circle class="st0" cx="62" cy="396.1" r="183"/><path id="wt6oF8.tif_3_" class="st1" d="M174.5 325.3c0 .2-10 15.1-22.8 23.7 0 0-.3 185.8-197.6 115.8 0 0 35.7 3.7 65.1-19.4 0 0-33.8-2.1-42.2-31.6 0 0 10.5 2.1 19.4-.8 0 0-34.6-9.7-35.1-44.7 0 0 13.4 6.3 20.3 4.7 0 0-33.9-19.7-14.2-60.3 0 0 34.8 45.2 94.4 47.4 0 0-9.1-34.9 23.6-51.2 32.9-16.6 53.7 9.2 53.7 9.2s23.7-5.2 29.2-11.1c0 0-3 14.7-19.2 25.7 0-.1 19.2-4.6 25.4-7.4z"/><path class="st2" d="M62.2 579.1c-101.2 0-183.2-81.8-183.2-182.8s81.8-183.2 182.9-183.2l.3 366z"/></svg>