<svg xmlns="http://www.w3.org/2000/svg" viewBox="-29 -73.2 367.9 367.9" enable-background="new -29 -73.2 367.9 367.9"><style type="text/css">.st0{fill:#9D9D9E;} .st1{fill:#484849;}</style><path class="st0" d="M-29-73.2h367.9v367.9h-367.9z"/><path id="wt6oF8.tif_3_" class="st1" d="M290 24.7c0 .3-12.1 18.3-27.7 28.8 0 0-.4 225.6-239.9 140.6 0 0 43.4 4.5 79.1-23.5 0 0-41-2.6-51.2-38.4 0 0 12.8 2.6 23.5-1 0 0-42-11.8-42.6-54.3 0 0 16.3 7.7 24.7 5.7 0 0-41.2-23.9-17.3-73.2 0 0 42.2 54.9 114.6 57.5 0 0-11-42.4 28.6-62.2 39.9-20.2 65.2 11.2 65.2 11.2s28.8-6.3 35.5-13.5c0 0-3.7 17.9-23.3 31.2 0 0 23.3-5.5 30.8-8.9z"/></svg>