<?xml version="1.0" encoding="utf-8"?>
<!-- Generator: Adobe Illustrator 19.1.0, SVG Export Plug-In . SVG Version: 6.00 Build 0)  -->
<svg version="1.1" id="Layer_1" xmlns="http://www.w3.org/2000/svg" xmlns:xlink="http://www.w3.org/1999/xlink" x="0px" y="0px"
	 viewBox="-113.4 306.3 87.5 70.4" style="enable-background:new -113.4 306.3 87.5 70.4;" xml:space="preserve">
<g id="wt6oF8.tif_3_">
	<g>
		<path d="M-25.9,315.1c0,0.1-4,6-9,9.4c0,0-0.1,73.8-78.5,46c0,0,14.2,1.5,25.8-7.7c0,0-13.4-0.8-16.7-12.6c0,0,4.2,0.8,7.7-0.3
			c0,0-13.7-3.9-13.9-17.8c0,0,5.3,2.5,8.1,1.9c0,0-13.5-7.8-5.6-23.9c0,0,13.8,18,37.5,18.8c0,0-3.6-13.9,9.4-20.3
			c13-6.6,21.3,3.6,21.3,3.6s9.4-2,11.6-4.4c0,0-1.2,5.8-7.6,10.2C-35.5,317.8-28.3,316.1-25.9,315.1z"/>
	</g>
</g>
</svg>
