<?xml version="1.0" encoding="utf-8"?>
<!-- Generator: Adobe Illustrator 19.1.0, SVG Export Plug-In . SVG Version: 6.00 Build 0)  -->
<svg version="1.1" id="Layer_1" xmlns="http://www.w3.org/2000/svg" xmlns:xlink="http://www.w3.org/1999/xlink" x="0px" y="0px"
	 viewBox="40 -39.9 367.9 367.9" style="enable-background:new 40 -39.9 367.9 367.9;" xml:space="preserve">
<style type="text/css">
	.st0{fill:#FFFFFF;}
	.st1{fill:#F9B163;}
</style>
<path class="st0" d="M76-39.9h295.9c19.9,0,36,16.1,36,36V292c0,19.9-16.1,36-36,36H76c-19.9,0-36-16.1-36-36V-3.9
	C40-23.8,56.1-39.9,76-39.9z"/>
<path id="wt6oF8.tif_3_" class="st1" d="M359,58c0,0.3-12.1,18.3-27.7,28.8c0,0-0.4,225.6-239.9,140.6c0,0,43.4,4.5,79.1-23.5
	c0,0-41-2.6-51.2-38.4c0,0,12.8,2.6,23.5-1c0,0-42-11.8-42.6-54.3c0,0,16.3,7.7,24.7,5.7c0,0-41.2-23.9-17.3-73.2
	c0,0,42.2,54.9,114.6,57.5c0,0-11-42.4,28.6-62.2C290.7,17.8,316,49.2,316,49.2s28.8-6.3,35.5-13.5c0,0-3.7,17.9-23.3,31.2
	C328.2,66.9,351.5,61.4,359,58z"/>
</svg>
