<?xml version="1.0" encoding="utf-8"?>
<!-- Generator: Adobe Illustrator 19.2.0, SVG Export Plug-In . SVG Version: 6.00 Build 0)  -->
<svg version="1.1" id="Layer_1" xmlns="http://www.w3.org/2000/svg" xmlns:xlink="http://www.w3.org/1999/xlink" x="0px" y="0px"
	 viewBox="0 0 367.9 367.9" style="enable-background:new 0 0 367.9 367.9;" xml:space="preserve">
<style type="text/css">
	.st0{fill:#FFFFFF;}
	.st1{fill:#232323;}
</style>
<circle class="st0" cx="184.9" cy="184.9" r="183"/>
<path id="wt6oF8.tif_3_" class="st1" d="M297.4,114.1c0,0.2-10,15.1-22.8,23.7c0,0-0.3,185.8-197.6,115.8c0,0,35.7,3.7,65.1-19.4
	c0,0-33.8-2.1-42.2-31.6c0,0,10.5,2.1,19.4-0.8c0,0-34.6-9.7-35.1-44.7c0,0,13.4,6.3,20.3,4.7c0,0-33.9-19.7-14.2-60.3
	c0,0,34.8,45.2,94.4,47.4c0,0-9.1-34.9,23.6-51.2c32.9-16.6,53.7,9.2,53.7,9.2s23.7-5.2,29.2-11.1c0,0-3,14.7-19.2,25.7
	C272,121.4,291.2,116.9,297.4,114.1L297.4,114.1z"/>
</svg>
