<?xml version="1.0" encoding="utf-8"?>
<!-- Generator: Adobe Illustrator 19.1.0, SVG Export Plug-In . SVG Version: 6.00 Build 0)  -->
<svg version="1.1" id="Layer_1" xmlns="http://www.w3.org/2000/svg" xmlns:xlink="http://www.w3.org/1999/xlink" x="0px" y="0px"
	 viewBox="-22 23.6 242.4 242.4" style="enable-background:new -22 23.6 242.4 242.4;" xml:space="preserve">
<style type="text/css">
	.st0{fill:#474949;}
	.st1{fill:#8C8C8C;}
	.st2{fill:#F4F3F2;}
	.st3{fill:#F8B062;}
	.st4{fill:#302F2F;}
	.st5{fill:#CFCACE;}
	.st6{fill:#F5E0CD;}
	.st7{fill:#4F3820;}
</style>
<circle class="st0" cx="99.2" cy="144.8" r="121.2"/>
<path class="st1" d="M169.6,190.8h-140c-2.6,0-4.6-2-4.6-4.6V96c0-2.6,2-4.6,4.6-4.6h140c2.6,0,4.6,2,4.6,4.6v90.3
	C174.2,188.7,172.2,190.8,169.6,190.8L169.6,190.8z"/>
<path class="st2" d="M31.8,98.9h133.9v84H31.8V98.9z"/>
<path class="st3" d="M38.9,105.5h26v12.8h-26V105.5z"/>
<path class="st4" d="M39.2,123.1h26v2.3h-26V123.1z M39.2,128.2h26v2.3h-26V128.2z M39.2,133.1h26v2.3h-26V133.1z M39.2,138.3h26
	v2.3h-26V138.3z M39.2,142.9h26v2.3h-26V142.9z M39.2,148.6h12.9v2.3H39.2V148.6z M134.1,110.7h26v2.3h-26V110.7z M134.1,115.8h26
	v2.3h-26V115.8z M134.1,120.4h26v2.3h-26V120.4z M134.5,105.2h12.9v2.3h-12.9V105.2z"/>
<path class="st4" d="M8,191.9c0,0-0.8,5.1,2.4,7.2h178.5c0,0,2.7-1.7,1.3-7.4H175v1.3H24l-0.8-1.2L8,191.9L8,191.9z"/>
<path class="st3" d="M104,169.5h18.4v5.9H104L104,169.5z"/>
<path class="st3" d="M76.9,169.5h18.4v5.9H76.9V169.5z"/>
<circle class="st3" cx="99.9" cy="133.3" r="29.3"/>
<path class="st5" d="M139.4,151.8l6.8,14.8l1.3-5l4.7,5.1l1.5-1.4l-5.1-5l5.5-1.4L139.4,151.8z"/>
<path class="st6" d="M88.3,147.9c0,0,0.4,10,11,11.8c10.5,1.9,10.9-12.7,10.9-12.7s-3.5,0.1-6.3-2.3c-2.9-2.4,4-7.9,4-7.9l0.5-10.6
	c0,0,0.3-9.3-7.4-10.5c-7.7-1.2-11.8,9.6-11.8,9.6l1.3,12.1c0,0,7,5.5,2.6,7.8S88.3,147.9,88.3,147.9L88.3,147.9z"/>
<path class="st0" d="M88.5,147.7l-3.5,1.2c0,0,1,4.5,0.9,10.1c0,0,13.3,7.5,25.4,0.8l1.3-12.3l-2.8-0.6c0,0,0,13.4-9.8,12.9
	C100.1,159.7,88.5,147.7,88.5,147.7z"/>
<path class="st7" d="M94.4,120.8c0,0,2.3,5.5,13.8,5.6l-0.6,10.4c0,0-4.3,3.5-4.5,6.6c-0.1,3.3,7.3,3.7,7.3,3.7l0.3-21.1
	c0-2.2-0.3-4.2-1.2-6.3c-1.4-3.3-4.3-7.2-10.7-6c0,0-7.7-0.5-10.2,7.9l0.4,25.8l5.1-2.7c0,0,2.4-2-0.6-5.1c-2.8-2.8-2.6-2.9-2.6-2.9
	l-0.8-11.5L94.4,120.8L94.4,120.8z"/>
<path class="st6" d="M85.1,148.9c0,0-3.3,3.3-4.2,5.9c0,0,3.3,3.2,5.2,3.7C86.1,158.4,86.4,150.2,85.1,148.9z M112.8,147.5l-1.3,12
	c0,0,5.8-2.2,7.9-5.2C119.4,154.3,115.3,148.6,112.8,147.5L112.8,147.5z"/>
</svg>
