<svg xmlns="http://www.w3.org/2000/svg" viewBox="0 0 242.4 242.4" enable-background="new 0 0 242.4 242.4"><style type="text/css">.st0{fill:#95D6E5;} .st1{fill:#8C8C8C;} .st2{fill:#F4F3F2;} .st3{fill:#F47F63;} .st4{fill:#302F2F;} .st5{fill:#F9B163;} .st6{fill:#484849;} .st7{fill:#484849;stroke:#484849;stroke-width:0.5;stroke-miterlimit:10;} .st8{fill:#F5E0CD;} .st9{fill:#4F3820;}</style><circle class="st0" cx="121.2" cy="121.2" r="121.2"/><path class="st1" d="M175 168.7h-109.5c-2 0-3.6-1.6-3.6-3.6v-70.5c0-2 1.6-3.6 3.6-3.6h109.5c2 0 3.6 1.6 3.6 3.6v70.6c0 1.9-1.6 3.5-3.6 3.5z"/><path class="st2" d="M67.2 96.9h104.7v65.7h-104.7z"/><path class="st3" d="M72.8 102h20.3v10h-20.3z"/><path d="M73 115.8h20.3v1.8h-20.3zm0 4h20.3v1.8h-20.3zm0 3.8h20.3v1.8h-20.3zm0 4.1h20.3v1.8h-20.3zm0 3.6h20.3v1.8h-20.3zm0 4.4h10.1v1.8h-10.1zm74.2-29.6h20.3v1.8h-20.3zm0 4h20.3v1.8h-20.3zm0 3.6h20.3v1.8h-20.3zm.3-11.9h10.1v1.8h-10.1z"/><path class="st4" d="M48.6 169.6s-.6 4 1.9 5.6h139.6s2.1-1.3 1-5.8h-11.9v1h-118.1l-.6-.9-11.9.1z"/><path class="st5" d="M123.7 152.1h14.4v4.6h-14.4z"/><path class="st3" d="M102.5 152.1h14.4v4.6h-14.4z"/><circle class="st0" cx="120.5" cy="123.8" r="22.9"/><path class="st6" d="M151.4 138.2l5.3 11.6 1-3.9 3.7 4 1.2-1.1-4-3.9 4.3-1.1z"/><path class="st7" d="M43.3 128.2h4.9v3.1h-4.9zm12.3 0h4.9v3.1h-4.9zm-6.1 0h4.9v3.1h-4.9zm25.7-43.4h3.1v4.9h-3.1zm0-6.2h3.1v4.9h-3.1zm0-6.2h3.1v4.9h-3.1zm-6.6.1h4.9v3.1h-4.9zm-6.2 0h4.9v3.1h-4.9zm55.8 12.3h3.1v4.9h-3.1zm0-6.2h3.1v4.9h-3.1zm0-6.2h3.1v4.9h-3.1zm44 13h3.1v4.9h-3.1zm0-6.2h3.1v4.9h-3.1zm0-6.2h3.1v4.9h-3.1zm4.8.1h5v3.1h-5zm6.4 0h5v3.1h-5z"/><path class="st6" d="M179.7 128.5h4.9v3.1h-4.9zm12.4 0h4.9v3.1h-4.9zm-6.2 0h4.9v3.1h-4.9z"/><path class="st3" d="M17.4 116.7h24.2v25.4h-24.2z"/><path class="st5" d="M35.9 61h24.7v25.4h-24.7z"/><path class="st7" d="M106.3 47.8h26.4v22.7h-26.4z"/><path class="st3" d="M180 62.2h25.6v25.8h-25.6z"/><path class="st5" d="M198.6 116.4h26.4v28.5h-26.4z"/><path class="st8" d="M111.4 135.2s.3 7.8 8.6 9.2c8.2 1.5 8.5-9.9 8.5-9.9s-2.7.1-4.9-1.8c-2.3-1.9 3.1-6.2 3.1-6.2l.4-8.3s.2-7.3-5.8-8.2c-6-.9-9.2 7.5-9.2 7.5l1 9.5s5.5 4.3 2 6.1c-3.5 1.8-3.7 2.1-3.7 2.1z"/><path d="M111.6 135l-2.7.9s.8 3.5.7 7.9c0 0 10.4 5.9 19.9.6l1-9.6-2.2-.5s0 10.5-7.7 10.1l-9-9.4z"/><path class="st9" d="M116.2 114s1.8 4.3 10.8 4.4l-.5 8.1s-3.4 2.7-3.5 5.2c-.1 2.6 5.7 2.9 5.7 2.9l.2-16.5c0-1.7-.2-3.3-.9-4.9-1.1-2.6-3.4-5.6-8.4-4.7 0 0-6-.4-8 6.2l.3 20.2 4-2.1s1.9-1.6-.5-4c-2.2-2.2-2-2.3-2-2.3l-.6-9 3.4-3.5z"/><path class="st8" d="M108.9 136s-2.6 2.6-3.3 4.6c0 0 2.6 2.5 4.1 2.9 0-.1.2-6.5-.8-7.5zm21.7-1.1l-1 9.4s4.5-1.7 6.2-4.1c-.1 0-3.3-4.5-5.2-5.3z"/></svg>