<?xml version="1.0" encoding="utf-8"?>
<!-- Generator: Adobe Illustrator 19.1.0, SVG Export Plug-In . SVG Version: 6.00 Build 0)  -->
<svg version="1.1" id="Layer_1" xmlns="http://www.w3.org/2000/svg" xmlns:xlink="http://www.w3.org/1999/xlink" x="0px" y="0px"
	 viewBox="-263 145.7 263.1 323.3" style="enable-background:new -263 145.7 263.1 323.3;" xml:space="preserve">
<style type="text/css">
	.st0{clip-path:url(#SVGID_2_);fill:#282828;}
	.st1{opacity:0.29;clip-path:url(#SVGID_2_);fill:#434444;enable-background:new    ;}
	.st2{clip-path:url(#SVGID_4_);fill:#345B59;}
	.st3{clip-path:url(#SVGID_6_);fill:#216E68;}
	.st4{clip-path:url(#SVGID_8_);fill:#ACACAC;stroke:#ACACAC;stroke-miterlimit:10;}
	.st5{clip-path:url(#SVGID_10_);fill:#C1C0C0;stroke:#C1C0C0;stroke-miterlimit:10;}
	.st6{clip-path:url(#SVGID_12_);fill:#4EB3A1;stroke:#4EB3A1;stroke-miterlimit:10;}
	.st7{clip-path:url(#SVGID_14_);}
	.st8{fill:#E2AB5F;}
	.st9{fill:#F1BE62;}
	.st10{fill:#F4C776;}
	.st11{fill:#E3D9C7;}
	.st12{fill:#E0D4C0;}
	.st13{fill:#1B1C1C;}
	.st14{fill:#2B2B2B;}
</style>
<g>
	<g>
		<defs>
			<circle id="SVGID_1_" cx="-134.5" cy="305.4" r="115.6"/>
		</defs>
		<clipPath id="SVGID_2_">
			<use xlink:href="#SVGID_1_"  style="overflow:visible;"/>
		</clipPath>
		<circle class="st0" cx="-134.5" cy="305.4" r="115.6"/>
		<path class="st1" d="M-134.8,421.7c-63.8,0-115.6-51.8-115.6-115.6s51.8-115.6,115.6-115.6V421.7z"/>
	</g>
	<g>
		<defs>
			<circle id="SVGID_3_" cx="-134.5" cy="305.4" r="115.6"/>
		</defs>
		<clipPath id="SVGID_4_">
			<use xlink:href="#SVGID_3_"  style="overflow:visible;"/>
		</clipPath>
		<path class="st2" d="M-106.4,237.8l0.7,66.5l-10.3,3.3C-116,307.6-136.5,294.3-106.4,237.8z"/>
	</g>
	<g>
		<defs>
			<circle id="SVGID_5_" cx="-134.5" cy="305.4" r="115.6"/>
		</defs>
		<clipPath id="SVGID_6_">
			<use xlink:href="#SVGID_5_"  style="overflow:visible;"/>
		</clipPath>
		<path class="st3" d="M-106.4,237.8l0.7,66.5l11,1.8C-94.7,306.1-78.3,289.3-106.4,237.8z"/>
	</g>
	<g>
		<defs>
			<circle id="SVGID_7_" cx="-134.5" cy="305.4" r="115.6"/>
		</defs>
		<clipPath id="SVGID_8_">
			<use xlink:href="#SVGID_7_"  style="overflow:visible;"/>
		</clipPath>
		<path class="st4" d="M-116,307.6l-7.3,84.1h18.4l-0.7-87.4C-105.7,304.3-113,305-116,307.6z"/>
	</g>
	<g>
		<defs>
			<circle id="SVGID_9_" cx="-134.5" cy="305.4" r="115.6"/>
		</defs>
		<clipPath id="SVGID_10_">
			<use xlink:href="#SVGID_9_"  style="overflow:visible;"/>
		</clipPath>
		<path class="st5" d="M-104.9,391.6l18-0.4l-7.7-85.2c0,0-4.9-2.4-11-1.8L-104.9,391.6z"/>
	</g>
	<g>
		<defs>
			<circle id="SVGID_11_" cx="-134.5" cy="305.4" r="115.6"/>
		</defs>
		<clipPath id="SVGID_12_">
			<use xlink:href="#SVGID_11_"  style="overflow:visible;"/>
		</clipPath>
		<path class="st6" d="M-123.3,391.6l-2,28.7c0,0,24.5-1.1,39.7-10.6l-1.4-18.4L-123.3,391.6z"/>
	</g>
	<g>
		<defs>
			<circle id="SVGID_13_" cx="-134.5" cy="305.4" r="115.6"/>
		</defs>
		<clipPath id="SVGID_14_">
			<use xlink:href="#SVGID_13_"  style="overflow:visible;"/>
		</clipPath>
		<g class="st7">
			<polygon class="st8" points="-192.9,297.1 -192.9,445.4 -178.8,445.4 -178.3,292.5 			"/>
			<polygon class="st9" points="-180.9,295.1 -180.8,445.6 -170.5,445.6 -170.5,295.1 			"/>
			<polygon class="st10" points="-173.3,295.6 -173,445.8 -159.4,445.8 -159.6,295.6 			"/>
			<polygon class="st8" points="-162.1,294.2 -161.8,445.6 -147.5,445.6 -147.5,297.6 			"/>
			<polygon class="st11" points="-192.9,297.1 -147.5,297.6 -169.9,260.4 -176.9,271.9 			"/>
			<polyline class="st12" points="-169.9,259.4 -176.9,270.8 -192.9,297.1 -169.5,297.1 -169.9,260 			"/>
			<polygon class="st13" points="-177.3,271.2 -163.2,271.3 -170,259.3 			"/>
			<polygon class="st14" points="-170,259.3 -177.3,271.2 -169.8,271.2 			"/>
		</g>
	</g>
</g>
</svg>
