<svg xmlns="http://www.w3.org/2000/svg" xmlns:xlink="http://www.w3.org/1999/xlink" viewBox="-263 145.7 263.1 323.3" enable-background="new -263 145.7 263.1 323.3"><style type="text/css">.st0{clip-path:url(#SVGID_2_);fill:#282828;} .st1{opacity:0.29;clip-path:url(#SVGID_2_);fill:#434444;enable-background:new ;} .st2{clip-path:url(#SVGID_4_);fill:#345B59;} .st3{clip-path:url(#SVGID_6_);fill:#216E68;} .st4{clip-path:url(#SVGID_8_);fill:#ACACAC;stroke:#ACACAC;stroke-miterlimit:10;} .st5{clip-path:url(#SVGID_10_);fill:#C1C0C0;stroke:#C1C0C0;stroke-miterlimit:10;} .st6{clip-path:url(#SVGID_12_);fill:#4EB3A1;stroke:#4EB3A1;stroke-miterlimit:10;} .st7{clip-path:url(#SVGID_14_);} .st8{fill:#E2AB5F;} .st9{fill:#F1BE62;} .st10{fill:#F4C776;} .st11{fill:#E3D9C7;} .st12{fill:#E0D4C0;} .st13{fill:#1B1C1C;} .st14{fill:#2B2B2B;}</style><defs><circle id="SVGID_1_" cx="-134.5" cy="305.4" r="115.6"/></defs><clipPath id="SVGID_2_"><use xlink:href="#SVGID_1_" overflow="visible"/></clipPath><circle class="st0" cx="-134.5" cy="305.4" r="115.6"/><path class="st1" d="M-134.8 421.7c-63.8 0-115.6-51.8-115.6-115.6s51.8-115.6 115.6-115.6v231.2z"/><defs><circle id="SVGID_3_" cx="-134.5" cy="305.4" r="115.6"/></defs><clipPath id="SVGID_4_"><use xlink:href="#SVGID_3_" overflow="visible"/></clipPath><path class="st2" d="M-106.4 237.8l.7 66.5-10.3 3.3s-20.5-13.3 9.6-69.8z"/><defs><circle id="SVGID_5_" cx="-134.5" cy="305.4" r="115.6"/></defs><clipPath id="SVGID_6_"><use xlink:href="#SVGID_5_" overflow="visible"/></clipPath><path class="st3" d="M-106.4 237.8l.7 66.5 11 1.8s16.4-16.8-11.7-68.3z"/><defs><circle id="SVGID_7_" cx="-134.5" cy="305.4" r="115.6"/></defs><clipPath id="SVGID_8_"><use xlink:href="#SVGID_7_" overflow="visible"/></clipPath><path class="st4" d="M-116 307.6l-7.3 84.1h18.4l-.7-87.4c-.1 0-7.4.7-10.4 3.3z"/><defs><circle id="SVGID_9_" cx="-134.5" cy="305.4" r="115.6"/></defs><clipPath id="SVGID_10_"><use xlink:href="#SVGID_9_" overflow="visible"/></clipPath><path class="st5" d="M-104.9 391.6l18-.4-7.7-85.2s-4.9-2.4-11-1.8l.7 87.4z"/><defs><circle id="SVGID_11_" cx="-134.5" cy="305.4" r="115.6"/></defs><clipPath id="SVGID_12_"><use xlink:href="#SVGID_11_" overflow="visible"/></clipPath><path class="st6" d="M-123.3 391.6l-2 28.7s24.5-1.1 39.7-10.6l-1.4-18.4-36.3.3z"/><defs><circle id="SVGID_13_" cx="-134.5" cy="305.4" r="115.6"/></defs><clipPath id="SVGID_14_"><use xlink:href="#SVGID_13_" overflow="visible"/></clipPath><g class="st7"><path class="st8" d="M-192.9 297.1v148.3h14.1l.5-152.9z"/><path class="st9" d="M-180.9 295.1l.1 150.5h10.3v-150.5z"/><path class="st10" d="M-173.3 295.6l.3 150.2h13.6l-.2-150.2z"/><path class="st8" d="M-162.1 294.2l.3 151.4h14.3v-148z"/><path class="st11" d="M-192.9 297.1l45.4.5-22.4-37.2-7 11.5z"/><path class="st12" d="M-169.9 259.4l-7 11.4-16 26.3h23.4l-.4-37.1"/><path class="st13" d="M-177.3 271.2l14.1.1-6.8-12z"/><path class="st14" d="M-170 259.3l-7.3 11.9h7.5z"/></g></svg>