<?xml version="1.0" encoding="utf-8"?>
<!-- Generator: Adobe Illustrator 19.1.0, SVG Export Plug-In . SVG Version: 6.00 Build 0)  -->
<svg version="1.1" id="Layer_1" xmlns="http://www.w3.org/2000/svg" xmlns:xlink="http://www.w3.org/1999/xlink" x="0px" y="0px"
	 viewBox="0 0 242.4 242.4" style="enable-background:new 0 0 242.4 242.4;" xml:space="preserve">
<style type="text/css">
	.st0{fill:#95D6E5;}
	.st1{fill:#8C8C8C;}
	.st2{fill:#F4F3F2;}
	.st3{fill:#F47F63;}
	.st4{fill:#302F2F;}
	.st5{fill:#F9B163;}
	.st6{fill:#484849;}
	.st7{fill:#484849;stroke:#484849;stroke-width:0.5;stroke-miterlimit:10;}
	.st8{fill:#F5E0CD;}
	.st9{fill:#4F3820;}
</style>
<circle class="st0" cx="121.2" cy="121.2" r="121.2"/>
<path class="st1" d="M175,168.7H65.5c-2,0-3.6-1.6-3.6-3.6V94.6c0-2,1.6-3.6,3.6-3.6H175c2,0,3.6,1.6,3.6,3.6v70.6
	C178.6,167.1,177,168.7,175,168.7z"/>
<rect x="67.2" y="96.9" class="st2" width="104.7" height="65.7"/>
<rect x="72.8" y="102" class="st3" width="20.3" height="10"/>
<rect x="73" y="115.8" width="20.3" height="1.8"/>
<rect x="73" y="119.8" width="20.3" height="1.8"/>
<rect x="73" y="123.6" width="20.3" height="1.8"/>
<rect x="73" y="127.7" width="20.3" height="1.8"/>
<rect x="73" y="131.3" width="20.3" height="1.8"/>
<rect x="73" y="135.7" width="10.1" height="1.8"/>
<rect x="147.2" y="106.1" width="20.3" height="1.8"/>
<rect x="147.2" y="110.1" width="20.3" height="1.8"/>
<rect x="147.2" y="113.7" width="20.3" height="1.8"/>
<rect x="147.5" y="101.8" width="10.1" height="1.8"/>
<path class="st4" d="M48.6,169.6c0,0-0.6,4,1.9,5.6h139.6c0,0,2.1-1.3,1-5.8h-11.9v1H61.1l-0.6-0.9L48.6,169.6z"/>
<rect x="123.7" y="152.1" class="st5" width="14.4" height="4.6"/>
<rect x="102.5" y="152.1" class="st3" width="14.4" height="4.6"/>
<circle class="st0" cx="120.5" cy="123.8" r="22.9"/>
<polygon class="st6" points="151.4,138.2 156.7,149.8 157.7,145.9 161.4,149.9 162.6,148.8 158.6,144.9 162.9,143.8 "/>
<rect x="43.3" y="128.2" class="st7" width="4.9" height="3.1"/>
<rect x="55.6" y="128.2" class="st7" width="4.9" height="3.1"/>
<rect x="49.5" y="128.2" class="st7" width="4.9" height="3.1"/>
<rect x="75.2" y="84.8" class="st7" width="3.1" height="4.9"/>
<rect x="75.2" y="78.6" class="st7" width="3.1" height="4.9"/>
<rect x="75.2" y="72.4" class="st7" width="3.1" height="4.9"/>
<rect x="68.6" y="72.5" class="st7" width="4.9" height="3.1"/>
<rect x="62.4" y="72.5" class="st7" width="4.9" height="3.1"/>
<rect x="118.2" y="84.8" class="st7" width="3.1" height="4.9"/>
<rect x="118.2" y="78.6" class="st7" width="3.1" height="4.9"/>
<rect x="118.2" y="72.4" class="st7" width="3.1" height="4.9"/>
<rect x="162.2" y="85.4" class="st7" width="3.1" height="4.9"/>
<rect x="162.2" y="79.2" class="st7" width="3.1" height="4.9"/>
<rect x="162.2" y="73" class="st7" width="3.1" height="4.9"/>
<rect x="167" y="73.1" class="st7" width="5" height="3.1"/>
<rect x="173.4" y="73.1" class="st7" width="5" height="3.1"/>
<rect x="179.7" y="128.5" class="st6" width="4.9" height="3.1"/>
<rect x="192.1" y="128.5" class="st6" width="4.9" height="3.1"/>
<rect x="185.9" y="128.5" class="st6" width="4.9" height="3.1"/>
<rect x="17.4" y="116.7" class="st3" width="24.2" height="25.4"/>
<rect x="35.9" y="61" class="st5" width="24.7" height="25.4"/>
<rect x="106.3" y="47.8" class="st7" width="26.4" height="22.7"/>
<rect x="180" y="62.2" class="st3" width="25.6" height="25.8"/>
<rect x="198.6" y="116.4" class="st5" width="26.4" height="28.5"/>
<path class="st8" d="M111.4,135.2c0,0,0.3,7.8,8.6,9.2c8.2,1.5,8.5-9.9,8.5-9.9s-2.7,0.1-4.9-1.8c-2.3-1.9,3.1-6.2,3.1-6.2l0.4-8.3
	c0,0,0.2-7.3-5.8-8.2c-6-0.9-9.2,7.5-9.2,7.5l1,9.5c0,0,5.5,4.3,2,6.1C111.6,134.9,111.4,135.2,111.4,135.2z"/>
<path d="M111.6,135l-2.7,0.9c0,0,0.8,3.5,0.7,7.9c0,0,10.4,5.9,19.9,0.6l1-9.6l-2.2-0.5c0,0,0,10.5-7.7,10.1S111.6,135,111.6,135z"
	/>
<path class="st9" d="M116.2,114c0,0,1.8,4.3,10.8,4.4l-0.5,8.1c0,0-3.4,2.7-3.5,5.2c-0.1,2.6,5.7,2.9,5.7,2.9l0.2-16.5
	c0-1.7-0.2-3.3-0.9-4.9c-1.1-2.6-3.4-5.6-8.4-4.7c0,0-6-0.4-8,6.2s0.3,20.2,0.3,20.2l4-2.1c0,0,1.9-1.6-0.5-4c-2.2-2.2-2-2.3-2-2.3
	l-0.6-9L116.2,114z"/>
<path class="st8" d="M108.9,136c0,0-2.6,2.6-3.3,4.6c0,0,2.6,2.5,4.1,2.9C109.7,143.4,109.9,137,108.9,136z"/>
<path class="st8" d="M130.6,134.9l-1,9.4c0,0,4.5-1.7,6.2-4.1C135.7,140.2,132.5,135.7,130.6,134.9z"/>
</svg>
