<?xml version="1.0" encoding="utf-8"?>
<!-- Generator: Adobe Illustrator 19.1.0, SVG Export Plug-In . SVG Version: 6.00 Build 0)  -->
<svg version="1.1" id="Layer_1" xmlns="http://www.w3.org/2000/svg" xmlns:xlink="http://www.w3.org/1999/xlink" x="0px" y="0px"
	 viewBox="-22 23.6 242.4 242.4" style="enable-background:new -22 23.6 242.4 242.4;" xml:space="preserve">
<style type="text/css">
	.st0{fill:#474949;}
	.st1{fill:#8C8C8C;}
	.st2{fill:#F4F3F2;}
	.st3{fill:#F8B062;}
	.st4{fill:#302F2F;}
	.st5{fill:#CFCACE;}
	.st6{fill:#F5E0CD;}
	.st7{fill:#4F3820;}
</style>
<path class="st0" d="M206,266H-7.6c-8,0-14.4-6.4-14.4-14.4V38c0-8,6.4-14.4,14.4-14.4H206c8,0,14.4,6.4,14.4,14.4v213.6
	C220.4,259.6,214,266,206,266z"/>
<path class="st1" d="M178.1,186.2H21.2c-2.9,0-5.2-2.3-5.2-5.2V80c0-2.9,2.3-5.2,5.2-5.2h156.9c2.9,0,5.2,2.3,5.2,5.2v101.2
	C183.3,184,181,186.2,178.1,186.2L178.1,186.2z"/>
<path class="st2" d="M23.6,83.3h150.1v94.2H23.6V83.3z"/>
<path class="st3" d="M31.6,90.7h29.1V105H31.6V90.7z"/>
<path class="st4" d="M31.9,110.4H61v2.6H31.9V110.4z M31.9,116.2H61v2.6H31.9V116.2z M31.9,121.6H61v2.6H31.9V121.6z M31.9,127.5H61
	v2.6H31.9V127.5z M31.9,132.6H61v2.6H31.9V132.6z M31.9,139h14.5v2.6H31.9V139z M138.3,96.5h29.1v2.6h-29.1V96.5z M138.3,102.3h29.1
	v2.6h-29.1V102.3z M138.3,107.4h29.1v2.6h-29.1V107.4z M138.7,90.4h14.5v2.6h-14.5V90.4z"/>
<path class="st4" d="M-3,187.5c0,0-0.9,5.7,2.7,8h200.1c0,0,3-1.9,1.4-8.3h-17.1v1.4H14.9l-0.9-1.3L-3,187.5L-3,187.5z"/>
<path class="st3" d="M104.6,162.5h20.6v6.6h-20.6L104.6,162.5z"/>
<path class="st3" d="M74.2,162.5h20.6v6.6H74.2V162.5z"/>
<circle class="st3" cx="100" cy="121.9" r="32.8"/>
<path class="st5" d="M144.3,142.5l7.6,16.6l1.4-5.6l5.3,5.7l1.7-1.6l-5.7-5.6l6.2-1.6L144.3,142.5z"/>
<path class="st6" d="M87,138.2c0,0,0.4,11.2,12.3,13.2c11.8,2.1,12.2-14.2,12.2-14.2s-3.9,0.1-7-2.6c-3.3-2.7,4.4-8.9,4.4-8.9
	l0.6-11.9c0,0,0.3-10.5-8.3-11.8c-8.6-1.3-13.2,10.7-13.2,10.7l1.4,13.6c0,0,7.9,6.2,2.9,8.7S87,138.2,87,138.2L87,138.2z"/>
<path class="st0" d="M87.3,137.9l-3.9,1.3c0,0,1.1,5,1,11.3c0,0,14.9,8.5,28.5,0.9l1.4-13.8l-3.2-0.7c0,0,0,15-11,14.5
	C100.2,151.4,87.3,137.9,87.3,137.9z"/>
<path class="st7" d="M93.8,107.9c0,0,2.6,6.2,15.5,6.3l-0.7,11.6c0,0-4.9,3.9-5,7.5c-0.1,3.7,8.2,4.2,8.2,4.2l0.3-23.6
	c0-2.4-0.3-4.7-1.3-7c-1.6-3.7-4.9-8-12-6.7c0,0-8.6-0.6-11.5,8.9l0.4,29l5.7-3c0,0,2.7-2.3-0.7-5.7c-3.2-3.2-2.9-3.3-2.9-3.3
	L89,112.9L93.8,107.9L93.8,107.9z"/>
<path class="st6" d="M83.4,139.4c0,0-3.7,3.7-4.7,6.6c0,0,3.7,3.6,5.9,4.2C84.5,150,84.8,140.8,83.4,139.4z M114.5,137.8l-1.4,13.5
	c0,0,6.4-2.4,8.9-5.9C121.8,145.4,117.2,139,114.5,137.8L114.5,137.8z"/>
</svg>
