<?xml version="1.0" encoding="utf-8"?>
<!-- Generator: Adobe Illustrator 19.2.0, SVG Export Plug-In . SVG Version: 6.00 Build 0)  -->
<svg version="1.1" id="Layer_1" xmlns="http://www.w3.org/2000/svg" xmlns:xlink="http://www.w3.org/1999/xlink" x="0px" y="0px"
	 viewBox="0 0 133.4 123.7" style="enable-background:new 0 0 133.4 123.7;" xml:space="preserve">
<style type="text/css">
	.st0{fill:#A4A4A4;stroke:#A4A4A4;stroke-width:2.3855;stroke-miterlimit:10;}
	.st1{fill:#282828;}
	.st2{fill:#7F7F7F;}
</style>
<g>
	<path class="st0" d="M126.4,46.1l-2.8,1.7l-1.6-2.6l3-1.8L108,12c-0.3-0.1-0.7-0.2-1-0.3c-0.8,1-10.3,13.4-5.8,36l-0.1,0l4.7,7.3
		l4-2.4l1.5,2.6l-3.9,2.4l2.5,4l19.4-10.1L126.4,46.1z M115.4,52.7l-1.5-2.5l4.1-2.5l1.5,2.6L115.4,52.7z"/>
	<path class="st0" d="M24.4,14.6c-0.3,0.2-0.6,0.3-0.8,0.4L8.6,42l3,1.7l-1.5,2.6l-3-1.7l-3.1,5.6l19,10.5l2.8-5.2l-3.4-2l1.5-2.6
		l3.4,1.9l3.2-5.9C34.8,29.9,26.7,17.7,24.4,14.6z M18.4,51.1l-4.2-2.4l1.5-2.6l4.1,2.4L18.4,51.1z"/>
	<path class="st0" d="M103.9,10.9C98.6,9.4,94.3,8,91,6.9c-0.8-0.3-1.5-0.5-2.1-0.8c-2.8-1-4.7-1.9-6-2.5c-1.1,3-4.7,8.3-15.7,8.3
		c-13.3,0-17.4-7.1-18.2-8.9c-6.4,3.1-16.4,7.8-21.9,10.4c3.1,4.2,10.9,17.2,6,35.2v59.9h4.1v3h-4.1v9.3h65V48.1
		C94.2,27.1,101.3,14.6,103.9,10.9z M44.4,5.9c0,0,0.6,1.6,2.3,3.5l-2.2,2C42.3,9,41.6,7,41.6,6.9L44.4,5.9z M46.9,111.4h-4.8v-3
		h4.8V111.4z M49.9,12.4c1.2,0.9,2.5,1.6,3.9,2.2l-1.2,2.7c-1.6-0.7-3.1-1.6-4.4-2.5L49.9,12.4z M56.4,111.4h-4.8v-3h4.8V111.4z
		 M58.1,16.2c1.4,0.4,2.9,0.7,4.5,0.9l-0.4,3c-1.7-0.2-3.3-0.5-4.9-1L58.1,16.2z M66,111.4h-4.8v-3H66V111.4z M67.1,20.4l0.1-3
		c1.6,0,3.2,0,4.6-0.1l0.2,3c-1.1,0.1-2.3,0.1-3.5,0.1H67.1z M75.5,111.4h-4.8v-3h4.8V111.4z M76.3,16.7c1.5-0.3,3-0.8,4.2-1.4
		l1.2,2.7c-1.5,0.6-3.1,1.1-4.8,1.5L76.3,16.7z M85,111.4h-4.8v-3H85V111.4z M86.1,15.4l-1.9-2.4c1.2-0.9,2.1-2,2.9-3.1l2.5,1.6
		C88.7,13,87.5,14.3,86.1,15.4z M94.6,111.4h-4.8v-3h4.8V111.4z"/>
	<path class="st1" d="M32.6,108.5v3h0.6v-3H32.6z"/>
	<path class="st1" d="M89.7,11.6c-1,1.4-2.1,2.7-3.5,3.8l-1.9-2.4c1.2-0.9,2.1-2,2.9-3.1L89.7,11.6z"/>
	<path class="st1" d="M81.7,18c-1.5,0.6-3.1,1.1-4.8,1.5l-0.6-2.9c1.5-0.3,3-0.8,4.2-1.4L81.7,18z"/>
	<path class="st1" d="M72,20.3c-1.1,0.1-2.3,0.1-3.5,0.1h-1.4l0.1-3c1.6,0,3.2,0,4.6-0.1L72,20.3z"/>
	<path class="st1" d="M62.5,17.1l-0.4,3c-1.7-0.2-3.3-0.5-4.9-1l0.8-2.9C59.5,16.6,61,16.8,62.5,17.1z"/>
	<path class="st1" d="M53.8,14.6l-1.2,2.7c-1.6-0.7-3.1-1.6-4.4-2.5l1.7-2.4C51.1,13.3,52.4,14,53.8,14.6z"/>
	<path class="st1" d="M46.7,9.5l-2.2,2C42.3,9,41.6,7,41.6,6.9l2.8-1C44.4,5.9,45,7.5,46.7,9.5z"/>
	<polygon class="st1" points="19.9,48.5 18.4,51.1 14.2,48.7 15.7,46.1 	"/>
	<path class="st1" d="M118,47.7l-4.1,2.5l1.5,2.5l4.1-2.5L118,47.7z"/>
	<path class="st1" d="M32.6,108.5v3h4.8v-3H32.6z M42.1,108.5v3h4.8v-3H42.1z M51.6,108.5v3h4.8v-3H51.6z M61.2,108.5v3H66v-3H61.2z
		 M70.7,108.5v3h4.8v-3H70.7z M80.3,108.5v3H85v-3H80.3z M89.8,108.5v3h4.8v-3H89.8z"/>
	<path class="st1" d="M110,9.5l-0.6-0.2C90,4.2,82.8,0.2,82.7,0.2L82.3,0H48.4l-0.3,0.1c-9,4.4-26,12.3-26.2,12.4l-0.4,0.2L0,51.3
		l24.3,13.4l5.9-10.9v69.9h71V53.5l7.7,12l24.5-12.7L110,9.5z M80,3c-1,2.2-3.9,6-12.8,6c-9.4,0-13.3-3.8-14.8-6H80z M30.6,46.9
		l-3.2,5.9L24,50.9l-1.5,2.6l3.4,2l-2.8,5.2l-19-10.5l3.1-5.6l3,1.7l1.5-2.6l-3-1.7l15.1-27c0.2-0.1,0.5-0.2,0.8-0.4
		C26.7,17.7,34.8,29.9,30.6,46.9z M98.2,120.8h-65v-9.3h-0.6v-3h0.6V48.6c4.9-18.1-2.9-31-6-35.2C32.7,10.8,42.7,6.1,49.1,3
		c0.8,1.8,4.9,8.9,18.2,8.9c10.9,0,14.5-5.3,15.7-8.3c1.2,0.6,3.2,1.4,6,2.5c0.6,0.3,1.4,0.5,2.1,0.8c3.3,1.2,7.6,2.6,12.9,4.1
		c-2.6,3.7-9.7,16.2-5.7,37.2V120.8z M107.4,57.6l3.9-2.4l-1.5-2.6l-4,2.4l-4.7-7.3l0.1,0c-4.5-22.6,5-35,5.8-36
		c0.3,0.1,0.7,0.2,1,0.3l17,31.4l-3,1.8l1.6,2.6l2.8-1.7l2.9,5.4l-19.4,10.1L107.4,57.6z"/>
	<path class="st2" d="M80,3c-1,2.2-3.9,6-12.8,6c-9.4,0-13.3-3.8-14.8-6H80z"/>
</g>
</svg>
