<?xml version="1.0" encoding="utf-8"?>
<!-- Generator: Adobe Illustrator 19.1.0, SVG Export Plug-In . SVG Version: 6.00 Build 0)  -->
<svg version="1.1" id="Layer_1" xmlns="http://www.w3.org/2000/svg" xmlns:xlink="http://www.w3.org/1999/xlink" x="0px" y="0px"
	 viewBox="-22 23.6 242.4 242.4" style="enable-background:new -22 23.6 242.4 242.4;" xml:space="preserve">
<style type="text/css">
	.st0{fill:#474949;}
	.st1{fill:#CFCACE;}
	.st2{fill:#F0EEF3;}
	.st3{fill:#7F7F7F;}
	.st4{fill:#F8B062;}
	.st5{fill:#FFFFFF;}
	.st6{fill:#F37F63;}
	.st7{fill:#95D5E4;}
	.st8{fill:#F7F2F9;}
	.st9{fill:#CFCED3;}
	.st10{fill:#CCCCCC;}
</style>
<path class="st0" d="M206,266H-7.6c-8,0-14.4-6.4-14.4-14.4V38c0-8,6.4-14.4,14.4-14.4H206c8,0,14.4,6.4,14.4,14.4v213.6
	C220.4,259.6,214,266,206,266z"/>
<g>
	<rect x="77.6" y="188.9" class="st1" width="51.6" height="16"/>
	<path class="st2" d="M185.8,189.6H24c-4,0-7.2-3.2-7.2-7.2V74.4c0-4,3.2-7.2,7.2-7.2h161.8c4,0,7.2,3.2,7.2,7.2v108.1
		C193,186.4,189.8,189.6,185.8,189.6z"/>
	<path class="st3" d="M193.1,171.3H16.5V73.9c0-4,3.2-7.2,7.2-7.2h162.2c4,0,7.2,3.2,7.2,7.2V171.3z"/>
	<path class="st4" d="M178.6,159.3H29.3V82.7c0-2,1.6-3.6,3.6-3.6H175c2,0,3.6,1.6,3.6,3.6V159.3z"/>
	<polygon class="st5" points="91.8,106.4 101.1,132.2 105,123.4 114.8,133.3 119,129.1 108.9,119.1 118.8,116.1 	"/>
	<path class="st2" d="M70,204.2h70.3c3.6,0,6.5,2.9,6.5,6.5v4.2H63.5v-4.2C63.5,207.1,66.4,204.2,70,204.2z"/>
</g>
<circle class="st6" cx="1909.6" cy="-120.8" r="47.2"/>
<circle class="st4" cx="2039.4" cy="-120.8" r="47.2"/>
<circle class="st7" cx="1910.9" cy="-0.1" r="47.2"/>
<g>
	<path class="st8" d="M47.7,227.5h-36c-4,0-7.2-3.2-7.2-7.2v-64.2c0-4,3.2-7.2,7.2-7.2h36c4,0,7.2,3.2,7.2,7.2v64.2
		C54.9,224.3,51.6,227.5,47.7,227.5z"/>
	<path class="st9" d="M21.9,153h15c0,0,1.2,1.4,0,2.7h-15C21.9,155.7,20.4,154.5,21.9,153z"/>
	<path class="st4" d="M9.7,159.2h39.8v49.1c0,0-0.2,4.4-3.1,4.6H13.2c0,0-2.9,0-3.3-2.9L9.7,159.2z"/>
	<circle class="st10" cx="29.6" cy="219.7" r="3.4"/>
	<rect x="9.7" y="159.2" class="st1" width="40" height="10.9"/>
	<g>
		<path class="st5" d="M12.7,166.6h-0.3c-0.5,0-0.9-0.4-0.9-0.9v-3.1c0-0.5,0.4-0.9,0.9-0.9h0.3c0.5,0,0.9,0.4,0.9,0.9v3.1
			C13.6,166.1,13.2,166.6,12.7,166.6z"/>
		<path class="st5" d="M15.6,166.6h-0.3c-0.5,0-0.9-0.4-0.9-0.9v-2.1c0-0.5,0.4-0.9,0.9-0.9h0.3c0.5,0,0.9,0.4,0.9,0.9v2.1
			C16.6,166.1,16.1,166.6,15.6,166.6z"/>
		<path class="st5" d="M18.6,166.6h-0.3c-0.5,0-0.9-0.4-0.9-0.9v-0.3c0-0.5,0.4-0.9,0.9-0.9h0.3c0.5,0,0.9,0.4,0.9,0.9v0.3
			C19.5,166.2,19.1,166.6,18.6,166.6z"/>
	</g>
</g>
</svg>
