<?xml version="1.0" encoding="utf-8"?>
<!-- Generator: Adobe Illustrator 19.1.0, SVG Export Plug-In . SVG Version: 6.00 Build 0)  -->
<svg version="1.1" id="Layer_1" xmlns="http://www.w3.org/2000/svg" xmlns:xlink="http://www.w3.org/1999/xlink" x="0px" y="0px"
	 viewBox="-22 23.6 242.4 242.4" style="enable-background:new -22 23.6 242.4 242.4;" xml:space="preserve">
<style type="text/css">
	.st0{fill:#474949;}
	.st1{fill:#CFCACE;}
	.st2{fill:#F0EEF3;}
	.st3{fill:#7F7F7F;}
	.st4{fill:#F8B062;}
	.st5{fill:#FFFFFF;}
	.st6{fill:#F37F63;}
	.st7{fill:#95D5E4;}
	.st8{fill:#F7F2F9;}
	.st9{fill:#CFCED3;}
	.st10{fill:#CCCCCC;}
</style>
<circle class="st0" cx="99.2" cy="144.8" r="121.2"/>
<g>
	<rect x="80.8" y="182.5" class="st1" width="43.8" height="13.5"/>
	<path class="st2" d="M171.5,183.2h-135c-4,0-7.2-3.2-7.2-7.2V86.5c0-4,3.2-7.2,7.2-7.2h135c4,0,7.2,3.2,7.2,7.2V176
		C178.7,179.9,175.5,183.2,171.5,183.2z"/>
	<path class="st3" d="M178.8,167.6H29V86.1c0-4,3.2-7.2,7.2-7.2h135.3c4,0,7.2,3.2,7.2,7.2V167.6z"/>
	<path class="st4" d="M166.4,157.4H39.9V93.1c0-2,1.6-3.6,3.6-3.6h119.4c2,0,3.6,1.6,3.6,3.6V157.4z"/>
	<polygon class="st5" points="92.9,112.6 100.7,134.5 104,127 112.4,135.4 115.9,131.9 107.3,123.3 115.8,120.8 	"/>
	<path class="st2" d="M75.3,195.5H133c3.6,0,6.5,2.9,6.5,6.5v2.5H68.9V202C68.9,198.4,71.8,195.5,75.3,195.5z"/>
</g>
<circle class="st6" cx="1909.6" cy="-120.8" r="47.2"/>
<circle class="st4" cx="2039.4" cy="-120.8" r="47.2"/>
<circle class="st7" cx="1910.9" cy="-0.1" r="47.2"/>
<g>
	<path class="st8" d="M54.3,215.3H26c-4,0-7.2-3.2-7.2-7.2v-52.2c0-4,3.2-7.2,7.2-7.2h28.3c4,0,7.2,3.2,7.2,7.2v52.2
		C61.5,212.1,58.3,215.3,54.3,215.3z"/>
	<path class="st9" d="M33.6,152.1h12.7c0,0,1.1,1.2,0,2.3H33.6C33.6,154.4,32.3,153.3,33.6,152.1z"/>
	<path class="st4" d="M23.2,157.4H57v41.7c0,0-0.2,3.7-2.6,3.9H26.2c0,0-2.5,0-2.8-2.5L23.2,157.4z"/>
	<circle class="st10" cx="40.1" cy="208.6" r="2.9"/>
	<rect x="23.2" y="157.4" class="st1" width="33.9" height="9.3"/>
	<g>
		<path class="st5" d="M25.7,163.6L25.7,163.6c-0.5,0-0.9-0.4-0.9-0.9v-2.4c0-0.5,0.4-0.9,0.9-0.9h0c0.5,0,0.9,0.4,0.9,0.9v2.4
			C26.6,163.2,26.2,163.6,25.7,163.6z"/>
		<path class="st5" d="M28.2,163.6L28.2,163.6c-0.5,0-0.9-0.4-0.9-0.9v-1.6c0-0.5,0.4-0.9,0.9-0.9h0c0.5,0,0.9,0.4,0.9,0.9v1.6
			C29.1,163.2,28.7,163.6,28.2,163.6z"/>
		<path class="st5" d="M30.7,163.6L30.7,163.6c-0.5,0-0.9-0.4-0.9-0.9l0,0c0-0.5,0.4-0.9,0.9-0.9h0.1c0.5,0,0.9,0.4,0.9,0.9l0,0
			C31.5,163.2,31.1,163.6,30.7,163.6z"/>
	</g>
</g>
</svg>
