<?xml version="1.0" encoding="utf-8"?>
<!-- Generator: Adobe Illustrator 19.1.0, SVG Export Plug-In . SVG Version: 6.00 Build 0)  -->
<svg version="1.1" id="Layer_1" xmlns="http://www.w3.org/2000/svg" xmlns:xlink="http://www.w3.org/1999/xlink" x="0px" y="0px"
	 viewBox="13 -13.4 242.4 242.4" style="enable-background:new 13 -13.4 242.4 242.4;" xml:space="preserve">
<style type="text/css">
	.st0{fill:#F8B163;}
	.st1{clip-path:url(#SVGID_2_);}
	.st2{fill:#E0E0E0;}
	.st3{fill:#636464;}
	.st4{fill:#353535;}
	.st5{fill:#F37F80;}
	.st6{fill:#B3DCB8;}
	.st7{fill:#FFF0A4;}
	.st8{font-family:'MyriadPro-Regular';}
	.st9{font-size:14.1467px;}
	.st10{fill:#FFFFFF;}
	.st11{font-size:18.036px;}
	.st12{font-family:'Helvetica';}
	.st13{font-size:11px;}
</style>
<circle class="st0" cx="134.2" cy="107.8" r="121.2"/>
<g>
	<defs>
		<rect id="SVGID_1_" x="59.3" y="34.9" width="147.2" height="143.8"/>
	</defs>
	<clipPath id="SVGID_2_">
		<use xlink:href="#SVGID_1_"  style="overflow:visible;"/>
	</clipPath>
	<g class="st1">
		<rect x="59.3" y="34.9" class="st2" width="147.2" height="30.2"/>
		<rect x="59.3" y="65.1" class="st3" width="147.2" height="113.6"/>
		<rect x="59.3" y="65.1" class="st4" width="23.9" height="112.9"/>
		<circle class="st5" cx="75.5" cy="49.8" r="6.8"/>
		<circle class="st6" cx="95.2" cy="49.8" r="6.8"/>
		<circle class="st7" cx="114.9" cy="49.8" r="6.8"/>
		<text transform="matrix(1 0 0 1 133.658 54.1768)" class="st8 st9">index.html</text>
		<text transform="matrix(1 0 0 1 65.2577 88.2647)" class="st10 st8 st11">1</text>
		<text transform="matrix(1 0 0 1 65.2577 112.3496)" class="st10 st8 st11">2</text>
		<text transform="matrix(1 0 0 1 65.2577 138.6259)" class="st10 st8 st11">3</text>
		<text transform="matrix(1 0 0 1 65.2577 162.712)" class="st10 st8 st11">4</text>
		<text transform="matrix(1 0 0 1 87.036 88.8212)" class="st10 st12 st13">&lt;!DOCTYPE html&gt;</text>
		<text transform="matrix(1 0 0 1 108.7615 112.9071)" class="st10 st12 st13">&lt;head&gt;</text>
		<text transform="matrix(1 0 0 1 122.4173 135.9589)" class="st10 st12 st13">&lt;title&gt;Portfolio&lt;</text>
		<text transform="matrix(1 0 0 1 111.1219 161.0791)" class="st10 st12 st13">&lt;/head&gt;</text>
	</g>
</g>
</svg>
