<svg xmlns="http://www.w3.org/2000/svg" viewBox="-184 275.6 242.4 242.4" enable-background="new -184 275.6 242.4 242.4"><style type="text/css">.st0{fill:#282828;} .st1{fill:#CFCACE;} .st2{fill:#F0EEF3;} .st3{fill:#7F7F7F;} .st4{fill:#F8B062;} .st5{fill:#FFFFFF;} .st6{fill:#F37F63;} .st7{fill:#95D5E4;} .st8{fill:#F7F2F9;} .st9{fill:#CFCED3;} .st10{fill:#CCCCCC;} .st11{opacity:0.29;fill:#434444;enable-background:new ;}</style><circle class="st0" cx="-62.8" cy="396.8" r="121.2"/><path class="st1" d="M-81.2 434.5h43.8v13.5h-43.8z"/><path class="st2" d="M9.5 435.2h-135c-4 0-7.2-3.2-7.2-7.2v-89.5c0-4 3.2-7.2 7.2-7.2h135c4 0 7.2 3.2 7.2 7.2v89.5c0 3.9-3.2 7.2-7.2 7.2z"/><path class="st3" d="M16.8 419.6h-149.8v-81.5c0-4 3.2-7.2 7.2-7.2h135.3c4 0 7.2 3.2 7.2 7.2v81.5h.1z"/><path class="st4" d="M4.4 409.4h-126.5v-64.3c0-2 1.6-3.6 3.6-3.6h119.4c2 0 3.6 1.6 3.6 3.6v64.3h-.1z"/><path class="st5" d="M-69.1 364.6l7.8 21.9 3.3-7.5 8.4 8.4 3.5-3.5-8.6-8.6 8.5-2.5z"/><path class="st2" d="M-86.7 447.5h57.7c3.6 0 6.5 2.9 6.5 6.5v2.5h-70.6v-2.5c0-3.6 2.9-6.5 6.4-6.5z"/><circle class="st6" cx="1725.6" cy="154.8" r="47.2"/><circle class="st4" cx="1855.4" cy="154.8" r="47.2"/><circle class="st7" cx="1726.9" cy="275.5" r="47.2"/><path class="st8" d="M-107.7 467.3h-28.3c-4 0-7.2-3.2-7.2-7.2v-52.2c0-4 3.2-7.2 7.2-7.2h28.3c4 0 7.2 3.2 7.2 7.2v52.2c0 4-3.2 7.2-7.2 7.2z"/><path class="st9" d="M-128.4 404.1h12.7s1.1 1.2 0 2.3h-12.7s-1.3-1.1 0-2.3z"/><path class="st4" d="M-138.8 409.4h33.8v41.7s-.2 3.7-2.6 3.9h-28.2s-2.5 0-2.8-2.5l-.2-43.1z"/><circle class="st10" cx="-121.9" cy="460.6" r="2.9"/><path class="st1" d="M-138.8 409.4h33.9v9.3h-33.9z"/><path class="st5" d="M-136.3 415.6c-.5 0-.9-.4-.9-.9v-2.4c0-.5.4-.9.9-.9s.9.4.9.9v2.4c0 .5-.4.9-.9.9zM-133.8 415.6c-.5 0-.9-.4-.9-.9v-1.6c0-.5.4-.9.9-.9s.9.4.9.9v1.6c0 .5-.4.9-.9.9zM-131.3 415.6c-.5 0-.9-.4-.9-.9s.4-.9.9-.9h.1c.5 0 .9.4.9.9-.2.5-.6.9-1 .9z"/><path class="st11" d="M-62.7 518c-67 0-121.3-54.2-121.3-121.1s54.2-121.3 121.1-121.3l.2 242.4z"/></svg>