<?xml version="1.0" encoding="utf-8"?>
<!-- Generator: Adobe Illustrator 19.1.0, SVG Export Plug-In . SVG Version: 6.00 Build 0)  -->
<svg version="1.1" id="Layer_1" xmlns="http://www.w3.org/2000/svg" xmlns:xlink="http://www.w3.org/1999/xlink" x="0px" y="0px"
	 viewBox="-184 275.6 242.4 242.4" style="enable-background:new -184 275.6 242.4 242.4;" xml:space="preserve">
<style type="text/css">
	.st0{fill:#282828;}
	.st1{fill:#CFCACE;}
	.st2{fill:#F0EEF3;}
	.st3{fill:#7F7F7F;}
	.st4{fill:#F8B062;}
	.st5{fill:#FFFFFF;}
	.st6{fill:#F37F63;}
	.st7{fill:#95D5E4;}
	.st8{fill:#F7F2F9;}
	.st9{fill:#CFCED3;}
	.st10{fill:#CCCCCC;}
	.st11{opacity:0.29;fill:#434444;enable-background:new    ;}
</style>
<circle class="st0" cx="-62.8" cy="396.8" r="121.2"/>
<g>
	<rect x="-81.2" y="434.5" class="st1" width="43.8" height="13.5"/>
	<path class="st2" d="M9.5,435.2h-135c-4,0-7.2-3.2-7.2-7.2v-89.5c0-4,3.2-7.2,7.2-7.2h135c4,0,7.2,3.2,7.2,7.2V428
		C16.7,431.9,13.5,435.2,9.5,435.2z"/>
	<path class="st3" d="M16.8,419.6H-133v-81.5c0-4,3.2-7.2,7.2-7.2H9.5c4,0,7.2,3.2,7.2,7.2v81.5H16.8z"/>
	<path class="st4" d="M4.4,409.4h-126.5v-64.3c0-2,1.6-3.6,3.6-3.6H0.9c2,0,3.6,1.6,3.6,3.6v64.3H4.4z"/>
	<polygon class="st5" points="-69.1,364.6 -61.3,386.5 -58,379 -49.6,387.4 -46.1,383.9 -54.7,375.3 -46.2,372.8 	"/>
	<path class="st2" d="M-86.7,447.5H-29c3.6,0,6.5,2.9,6.5,6.5v2.5h-70.6V454C-93.1,450.4-90.2,447.5-86.7,447.5z"/>
</g>
<circle class="st6" cx="1725.6" cy="154.8" r="47.2"/>
<circle class="st4" cx="1855.4" cy="154.8" r="47.2"/>
<circle class="st7" cx="1726.9" cy="275.5" r="47.2"/>
<g>
	<path class="st8" d="M-107.7,467.3H-136c-4,0-7.2-3.2-7.2-7.2v-52.2c0-4,3.2-7.2,7.2-7.2h28.3c4,0,7.2,3.2,7.2,7.2v52.2
		C-100.5,464.1-103.7,467.3-107.7,467.3z"/>
	<path class="st9" d="M-128.4,404.1h12.7c0,0,1.1,1.2,0,2.3h-12.7C-128.4,406.4-129.7,405.3-128.4,404.1z"/>
	<path class="st4" d="M-138.8,409.4h33.8v41.7c0,0-0.2,3.7-2.6,3.9h-28.2c0,0-2.5,0-2.8-2.5L-138.8,409.4z"/>
	<circle class="st10" cx="-121.9" cy="460.6" r="2.9"/>
	<rect x="-138.8" y="409.4" class="st1" width="33.9" height="9.3"/>
	<g>
		<path class="st5" d="M-136.3,415.6L-136.3,415.6c-0.5,0-0.9-0.4-0.9-0.9v-2.4c0-0.5,0.4-0.9,0.9-0.9l0,0c0.5,0,0.9,0.4,0.9,0.9
			v2.4C-135.4,415.2-135.8,415.6-136.3,415.6z"/>
		<path class="st5" d="M-133.8,415.6L-133.8,415.6c-0.5,0-0.9-0.4-0.9-0.9v-1.6c0-0.5,0.4-0.9,0.9-0.9l0,0c0.5,0,0.9,0.4,0.9,0.9
			v1.6C-132.9,415.2-133.3,415.6-133.8,415.6z"/>
		<path class="st5" d="M-131.3,415.6L-131.3,415.6c-0.5,0-0.9-0.4-0.9-0.9l0,0c0-0.5,0.4-0.9,0.9-0.9h0.1c0.5,0,0.9,0.4,0.9,0.9l0,0
			C-130.5,415.2-130.9,415.6-131.3,415.6z"/>
	</g>
</g>
<path class="st11" d="M-62.7,518c-67,0-121.3-54.2-121.3-121.1s54.2-121.3,121.1-121.3L-62.7,518z"/>
</svg>
