<?xml version="1.0" encoding="utf-8"?>
<!-- Generator: Adobe Illustrator 19.1.0, SVG Export Plug-In . SVG Version: 6.00 Build 0)  -->
<svg version="1.1" id="Layer_1" xmlns="http://www.w3.org/2000/svg" xmlns:xlink="http://www.w3.org/1999/xlink" x="0px" y="0px"
	 viewBox="-263 145.7 263.1 323.3" style="enable-background:new -263 145.7 263.1 323.3;" xml:space="preserve">
<style type="text/css">
	.st0{fill:#282828;}
	.st1{opacity:0.29;fill:#434444;enable-background:new    ;}
	.st2{fill:#969A99;stroke:#969A99;stroke-miterlimit:10;}
	.st3{fill:#B0AFB0;stroke:#AFAFAF;stroke-miterlimit:10;}
	.st4{fill:#B18A58;stroke:#B18A58;stroke-miterlimit:10;}
	.st5{fill:#F9B163;}
	.st6{fill:#9E774A;stroke:#9E774A;stroke-miterlimit:10;}
</style>
<circle class="st0" cx="-130.8" cy="305.1" r="115.6"/>
<path class="st1" d="M-130.8,420.7c-63.8,0-115.6-51.8-115.6-115.6s51.8-115.6,115.6-115.6V420.7z"/>
<path class="st2" d="M-166.8,284.1l36.1,36.7l10.5-11.4l-39.1-39.7C-159.3,269.6-165.5,277.1-166.8,284.1z"/>
<path class="st3" d="M-106.9,297.9l-13.3,11.5l-39.1-39.7c0,0,5.1-6.6,14.6-8.5L-106.9,297.9z"/>
<path class="st4" d="M-57.6,394.9c0,0,17.8-16.9,21.9-23.8l-71.2-73.1c0,0-19.4,15.9-23.8,22.9L-57.6,394.9z"/>
<path class="st5" d="M-211.2,254.7c0,0,8.3,22.3,28.9,11.4c0,0-18.8,11.8-8.6,30.8c0,0-6.7-20.7-30.2-13.4
	C-221,283.6-200,278.9-211.2,254.7z"/>
<path class="st5" d="M-157.1,248.3c0,0,25.1-21,42.6,7.6c0,0-15.3-23.8,10.2-43.2c0,0-25.1,19.1-43.9-10.2
	C-148.2,202.5-129.1,227.7-157.1,248.3z"/>
<path class="st5" d="M-99.9,260.7c0,0,13.7,7.3-4.8,21.9c0,0,16.5-11.4,25.1,4.5c0,0-8.6-12.1,5.1-22.3
	C-74.4,264.9-83.6,275.4-99.9,260.7z"/>
<path class="st6" d="M-57.6,394.9c0,0,7.1-4.4,11.3-11.4l-73.9-74.1c0,0-6,4.5-10.5,11.4L-57.6,394.9z"/>
</svg>
