<?xml version="1.0" encoding="utf-8"?>
<!-- Generator: Adobe Illustrator 19.1.0, SVG Export Plug-In . SVG Version: 6.00 Build 0)  -->
<svg version="1.1" id="Layer_1" xmlns="http://www.w3.org/2000/svg" xmlns:xlink="http://www.w3.org/1999/xlink" x="0px" y="0px"
	 viewBox="-301 253.6 188.6 107.4" style="enable-background:new -301 253.6 188.6 107.4;" xml:space="preserve">
<style type="text/css">
	.st0{fill:#686969;}
	.st1{fill:#969696;}
</style>
<path class="st0" d="M-258.1,278h5.8v25h-5.8v-2.6c-2.4,2.2-4.9,3.3-7.7,3.3c-3.5,0-6.3-1.2-8.6-3.7c-2.2-2.5-3.4-5.7-3.4-9.5
	c0-3.7,1.1-6.9,3.4-9.4c2.2-2.5,5-3.7,8.4-3.7c2.9,0,5.5,1.2,7.8,3.6L-258.1,278L-258.1,278z M-271.8,290.5c0,2.4,0.6,4.3,1.9,5.8
	s3,2.3,5,2.3c2.1,0,3.9-0.7,5.2-2.2s2-3.5,2-5.8s-0.7-4.3-2-5.8s-3-2.2-5.1-2.2c-2,0-3.6,0.8-5,2.3
	C-271.1,286.3-271.8,288.2-271.8,290.5L-271.8,290.5z M-245,278h5.8v2.2c1.1-1.1,2-1.9,2.8-2.3c0.8-0.4,1.8-0.6,3-0.6
	c1.5,0,3.1,0.5,4.8,1.5l-2.6,5.3c-1.1-0.8-2.2-1.2-3.2-1.2c-3.1,0-4.7,2.4-4.7,7.1v13h-5.8L-245,278L-245,278z M-207.3,278h5.8v25
	h-5.8v-2.6c-2.4,2.2-4.9,3.3-7.7,3.3c-3.5,0-6.3-1.2-8.6-3.7c-2.2-2.5-3.4-5.7-3.4-9.5c0-3.7,1.1-6.9,3.4-9.4c2.2-2.5,5-3.7,8.4-3.7
	c2.9,0,5.5,1.2,7.8,3.6L-207.3,278L-207.3,278z M-221,290.5c0,2.4,0.6,4.3,1.9,5.8c1.3,1.5,3,2.3,5,2.3c2.1,0,3.9-0.7,5.2-2.2
	s2-3.5,2-5.8s-0.7-4.3-2-5.8s-3-2.2-5.1-2.2c-2,0-3.6,0.8-5,2.3C-220.3,286.3-221,288.2-221,290.5L-221,290.5z M-283.1,291
	c-0.7-0.8-2-1.6-3.7-2.5l-4,4l1.2,0.6c1.5,0.9,2.3,1.8,2.3,2.9c0,1.8-1,2.7-2.9,2.7c-1,0-1.8-0.3-2.5-1c-0.3-0.3-0.8-0.9-1.3-1.9
	l-4,4c1.8,2.6,4.4,4,7.7,4c2.4,0,4.5-0.8,6.3-2.3c1.8-1.6,2.7-3.6,2.7-6C-281.5,293.6-282,292.1-283.1,291L-283.1,291z
	 M-290.2,277.4c-2.2,0-4,0.7-5.5,2.1c-1.5,1.4-2.2,3.2-2.2,5.4c0,1.6,0.4,3,1.3,4c0.4,0.5,1,1,1.8,1.5l4-4c-1.1-0.7-1.6-1.3-1.6-2
	c0-0.5,0.2-1,0.6-1.3c0.4-0.4,0.8-0.5,1.4-0.5c0.8,0,1.6,0.4,2.2,1.3l3.9-3.9C-286,278.3-287.9,277.4-290.2,277.4z"/>
<path class="st1" d="M-210.1,313h-6.7l8.7,15.7l3.2-6.1L-210.1,313z M-195.3,313l-0.6,1.2l-6.2,12.5l-0.3,0.7l-3.1,6l-0.7,1.3
	l-2.8,5.2l-1,1.8h6.6l14.7-28.7H-195.3z M-263.9,313.9v7.7c-1.3-1.6-2.5-2.7-3.5-3.3s-2.2-0.9-3.6-0.9c-2.2,0-4,0.8-5.4,2.3
	s-2.2,3.4-2.2,5.7s0.7,4.3,2.1,5.8c1.4,1.5,3.2,2.3,5.4,2.3c1.4,0,2.6-0.3,3.7-0.9c1-0.6,2.2-1.7,3.6-3.4v7.6
	c-2.3,1.2-4.7,1.8-7,1.8c-3.9,0-7.1-1.2-9.7-3.7c-2.6-2.5-3.9-5.6-3.9-9.4c0-3.7,1.3-6.9,4-9.4c2.6-2.6,5.9-3.8,9.7-3.8
	C-268.4,312.1-266,312.7-263.9,313.9L-263.9,313.9z M-252,307.9v29.8h-5.8v-29.8H-252z M-226.8,312.8h5.8v25h-5.8v-2.6
	c-2.4,2.2-4.9,3.3-7.7,3.3c-3.5,0-6.3-1.2-8.6-3.7c-2.2-2.5-3.4-5.7-3.4-9.5c0-3.7,1.1-6.9,3.4-9.4c2.2-2.5,5-3.7,8.4-3.7
	c2.9,0,5.5,1.2,7.8,3.6L-226.8,312.8L-226.8,312.8z M-240.5,325.2c0,2.4,0.6,4.3,1.9,5.8s3,2.3,5,2.3c2.1,0,3.9-0.7,5.2-2.2
	s2-3.5,2-5.8s-0.7-4.3-2-5.8s-3-2.2-5.1-2.2c-2,0-3.6,0.8-5,2.3C-239.8,321.1-240.5,323-240.5,325.2L-240.5,325.2z M-177.2,319.9
	v17.8h-5.8v-17.8h-2.5V315h2.5v-8.3h5.8v8.3h4.5v4.9H-177.2z M-169.6,325.1c0-3.6,1.3-6.7,3.9-9.2s5.7-3.8,9.4-3.8s6.9,1.3,9.5,3.8
	s3.8,5.7,3.8,9.4s-1.3,6.9-3.9,9.4c-2.6,2.5-5.8,3.8-9.6,3.8c-3.7,0-6.9-1.3-9.4-3.8C-168.3,332.1-169.6,328.9-169.6,325.1
	L-169.6,325.1z M-163.7,325.2c0,2.5,0.7,4.5,2,5.9c1.4,1.5,3.2,2.2,5.4,2.2c2.3,0,4.1-0.7,5.4-2.2c1.4-1.5,2-3.4,2-5.8
	c0-2.4-0.7-4.4-2-5.8c-1.4-1.5-3.2-2.2-5.4-2.2s-4,0.7-5.4,2.2C-163,321-163.7,322.9-163.7,325.2L-163.7,325.2z M-136.8,312.8h5.8
	v2.3c2-2,4.3-3,6.8-3c2.9,0,5.2,0.9,6.8,2.7c1.4,1.6,2.1,4.1,2.1,7.6v15.3h-5.8v-13.9c0-2.5-0.3-4.2-1-5.1c-0.7-1-1.9-1.4-3.6-1.4
	c-1.9,0-3.3,0.6-4.1,1.9c-0.8,1.2-1.2,3.4-1.2,6.5v12h-5.8V312.8z"/>
</svg>
