<svg xmlns="http://www.w3.org/2000/svg" viewBox="-211 343.6 188.6 107.4" enable-background="new -211 343.6 188.6 107.4"><style type="text/css">.st0{fill:#95D5E4;} .st1{fill:#686969;}</style><path class="st0" d="M-167.9 374.1h5.8v25h-5.8v-2.6c-2.4 2.2-4.9 3.3-7.7 3.3-3.5 0-6.3-1.2-8.6-3.7-2.2-2.5-3.4-5.7-3.4-9.5 0-3.7 1.1-6.9 3.4-9.4 2.2-2.5 5-3.7 8.4-3.7 2.9 0 5.5 1.2 7.8 3.6v-3zm-13.7 12.5c0 2.4.6 4.3 1.9 5.8 1.3 1.5 3 2.3 5 2.3 2.1 0 3.9-.7 5.2-2.2 1.3-1.5 2-3.5 2-5.8s-.7-4.3-2-5.8-3-2.2-5.1-2.2c-2 0-3.6.8-5 2.3-1.3 1.4-2 3.3-2 5.6zM-154.8 374.1h5.8v2.2c1.1-1.1 2-1.9 2.8-2.3.8-.4 1.8-.6 3-.6 1.5 0 3.1.5 4.8 1.5l-2.6 5.3c-1.1-.8-2.2-1.2-3.2-1.2-3.1 0-4.7 2.4-4.7 7.1v13h-5.8v-25zM-117.1 374.1h5.8v25h-5.8v-2.6c-2.4 2.2-4.9 3.3-7.7 3.3-3.5 0-6.3-1.2-8.6-3.7-2.2-2.5-3.4-5.7-3.4-9.5 0-3.7 1.1-6.9 3.4-9.4 2.2-2.5 5-3.7 8.4-3.7 2.9 0 5.5 1.2 7.8 3.6v-3zm-13.7 12.5c0 2.4.6 4.3 1.9 5.8 1.3 1.5 3 2.3 5 2.3 2.1 0 3.9-.7 5.2-2.2 1.3-1.5 2-3.5 2-5.8s-.7-4.3-2-5.8-3-2.2-5.1-2.2c-2 0-3.6.8-5 2.3-1.3 1.4-2 3.3-2 5.6zM-192.9 387.1c-.7-.8-2-1.6-3.7-2.5l-4 4 1.2.6c1.5.9 2.3 1.8 2.3 2.9 0 1.8-1 2.7-2.9 2.7-1 0-1.8-.3-2.5-1-.3-.3-.8-.9-1.3-1.9l-4 4c1.8 2.6 4.4 4 7.7 4 2.4 0 4.5-.8 6.3-2.3 1.8-1.6 2.7-3.6 2.7-6-.2-1.9-.7-3.4-1.8-4.5zm-7.1-13.6c-2.2 0-4 .7-5.5 2.1-1.5 1.4-2.2 3.2-2.2 5.4 0 1.6.4 3 1.3 4 .4.5 1 1 1.8 1.5l4-4c-1.1-.7-1.6-1.3-1.6-2 0-.5.2-1 .6-1.3.4-.4.8-.5 1.4-.5.8 0 1.6.4 2.2 1.3l3.9-3.9c-1.7-1.7-3.6-2.6-5.9-2.6z"/><path class="st1" d="M-119.9 409.1h-6.7l8.7 15.7 3.2-6.1-5.2-9.6zm14.8 0l-.6 1.2-6.2 12.5-.3.7-3.1 6-.7 1.3-2.8 5.2-1 1.8h6.6l14.7-28.7h-6.6zM-173.7 410v7.7c-1.3-1.6-2.5-2.7-3.5-3.3-1-.6-2.2-.9-3.6-.9-2.2 0-4 .8-5.4 2.3-1.4 1.5-2.2 3.4-2.2 5.7 0 2.3.7 4.3 2.1 5.8 1.4 1.5 3.2 2.3 5.4 2.3 1.4 0 2.6-.3 3.7-.9 1-.6 2.2-1.7 3.6-3.4v7.6c-2.3 1.2-4.7 1.8-7 1.8-3.9 0-7.1-1.2-9.7-3.7-2.6-2.5-3.9-5.6-3.9-9.4 0-3.7 1.3-6.9 4-9.4 2.6-2.6 5.9-3.8 9.7-3.8 2.3-.2 4.7.4 6.8 1.6zM-161.8 404v29.8h-5.8v-29.8h5.8zM-136.6 408.9h5.8v25h-5.8v-2.6c-2.4 2.2-4.9 3.3-7.7 3.3-3.5 0-6.3-1.2-8.6-3.7-2.2-2.5-3.4-5.7-3.4-9.5 0-3.7 1.1-6.9 3.4-9.4 2.2-2.5 5-3.7 8.4-3.7 2.9 0 5.5 1.2 7.8 3.6v-3zm-13.7 12.4c0 2.4.6 4.3 1.9 5.8 1.3 1.5 3 2.3 5 2.3 2.1 0 3.9-.7 5.2-2.2 1.3-1.5 2-3.5 2-5.8s-.7-4.3-2-5.8-3-2.2-5.1-2.2c-2 0-3.6.8-5 2.3-1.3 1.5-2 3.4-2 5.6zM-87 416v17.8h-5.8v-17.8h-2.5v-4.9h2.5v-8.3h5.8v8.3h4.5v4.9h-4.5zM-79.4 421.2c0-3.6 1.3-6.7 3.9-9.2 2.6-2.5 5.7-3.8 9.4-3.8s6.9 1.3 9.5 3.8c2.6 2.5 3.8 5.7 3.8 9.4s-1.3 6.9-3.9 9.4c-2.6 2.5-5.8 3.8-9.6 3.8-3.7 0-6.9-1.3-9.4-3.8-2.4-2.6-3.7-5.8-3.7-9.6zm5.9.1c0 2.5.7 4.5 2 5.9 1.4 1.5 3.2 2.2 5.4 2.2 2.3 0 4.1-.7 5.4-2.2 1.4-1.5 2-3.4 2-5.8s-.7-4.4-2-5.8c-1.4-1.5-3.2-2.2-5.4-2.2s-4 .7-5.4 2.2c-1.3 1.5-2 3.4-2 5.7zM-46.6 408.9h5.8v2.3c2-2 4.3-3 6.8-3 2.9 0 5.2.9 6.8 2.7 1.4 1.6 2.1 4.1 2.1 7.6v15.3h-5.8v-13.9c0-2.5-.3-4.2-1-5.1-.7-1-1.9-1.4-3.6-1.4-1.9 0-3.3.6-4.1 1.9-.8 1.2-1.2 3.4-1.2 6.5v12h-5.8v-24.9z"/></svg>