<?xml version="1.0" encoding="utf-8"?>
<!-- Generator: Adobe Illustrator 19.1.0, SVG Export Plug-In . SVG Version: 6.00 Build 0)  -->
<svg version="1.1" id="Layer_1" xmlns="http://www.w3.org/2000/svg" xmlns:xlink="http://www.w3.org/1999/xlink" x="0px" y="0px"
	 viewBox="-301 253.6 188.6 107.4" style="enable-background:new -301 253.6 188.6 107.4;" xml:space="preserve">
<style type="text/css">
	.st0{fill:#474848;}
</style>
<path class="st0" d="M-268.1,300.8h3.6v15.5h-3.6v-1.6c-1.5,1.4-3.1,2.1-4.7,2.1c-2.1,0-3.9-0.8-5.3-2.3c-1.4-1.6-2.1-3.5-2.1-5.9
	c0-2.3,0.7-4.2,2.1-5.8c1.4-1.5,3.1-2.3,5.2-2.3c1.8,0,3.4,0.7,4.8,2.2V300.8z M-276.6,308.5c0,1.5,0.4,2.7,1.2,3.6
	c0.8,0.9,1.8,1.4,3.1,1.4c1.3,0,2.4-0.5,3.2-1.4c0.8-0.9,1.2-2.1,1.2-3.6c0-1.4-0.4-2.6-1.2-3.6c-0.8-0.9-1.9-1.4-3.2-1.4
	c-1.2,0-2.3,0.5-3.1,1.4C-276.2,306-276.6,307.1-276.6,308.5"/>
<path class="st0" d="M-260,300.8h3.6v1.4c0.7-0.7,1.2-1.2,1.7-1.4c0.5-0.3,1.1-0.4,1.8-0.4c0.9,0,1.9,0.3,3,0.9l-1.6,3.3
	c-0.7-0.5-1.3-0.7-2-0.7c-1.9,0-2.9,1.5-2.9,4.4v8h-3.6V300.8z"/>
<path class="st0" d="M-236.7,300.8h3.6v15.5h-3.6v-1.6c-1.5,1.4-3.1,2.1-4.7,2.1c-2.1,0-3.9-0.8-5.3-2.3c-1.4-1.6-2.1-3.5-2.1-5.9
	c0-2.3,0.7-4.2,2.1-5.8c1.4-1.5,3.1-2.3,5.2-2.3c1.8,0,3.4,0.7,4.8,2.2V300.8z M-245.2,308.5c0,1.5,0.4,2.7,1.2,3.6
	c0.8,0.9,1.8,1.4,3.1,1.4c1.3,0,2.4-0.5,3.2-1.4c0.8-0.9,1.2-2.1,1.2-3.6c0-1.4-0.4-2.6-1.2-3.6c-0.8-0.9-1.9-1.4-3.2-1.4
	c-1.2,0-2.3,0.5-3.1,1.4C-244.8,306-245.2,307.1-245.2,308.5"/>
<path class="st0" d="M-283.6,308.4c-0.5-0.5-1.2-1-2.3-1.5l-2.5,2.5c0.2,0.1,0.5,0.2,0.7,0.4c0.9,0.6,1.4,1.1,1.4,1.8
	c0,1.1-0.6,1.7-1.8,1.7c-0.6,0-1.1-0.2-1.6-0.6c-0.2-0.2-0.5-0.6-0.8-1.1l-2.5,2.5c1.1,1.6,2.7,2.5,4.8,2.5c1.5,0,2.8-0.5,3.9-1.4
	c1.1-1,1.7-2.3,1.7-3.7C-282.6,310.1-282.9,309.1-283.6,308.4 M-288,300.1c-1.3,0-2.5,0.4-3.4,1.3c-0.9,0.9-1.4,2-1.4,3.3
	c0,1,0.3,1.8,0.8,2.5c0.3,0.3,0.6,0.6,1.1,0.9l2.4-2.4c-0.7-0.4-1-0.8-1-1.2c0-0.3,0.1-0.6,0.3-0.8c0.2-0.2,0.5-0.3,0.8-0.3
	c0.5,0,1,0.3,1.4,0.8l2.4-2.4C-285.4,300.6-286.6,300.1-288,300.1"/>
<path class="st0" d="M-180.8,300.7h-4.1l5.4,9.7l2-3.8L-180.8,300.7z M-171.7,300.7l-0.4,0.7l-3.8,7.7l-0.2,0.4l0,0l-1.9,3.7l0,0
	l-0.4,0.8l-1.8,3.2l-0.6,1.1h4.1l9.1-17.8H-171.7z"/>
<path class="st0" d="M-214.1,301.2v4.7c-0.8-1-1.5-1.7-2.2-2c-0.6-0.4-1.4-0.6-2.2-0.6c-1.3,0-2.5,0.5-3.3,1.4
	c-0.9,0.9-1.3,2.1-1.3,3.5c0,1.4,0.4,2.6,1.3,3.6c0.9,0.9,2,1.4,3.3,1.4c0.9,0,1.6-0.2,2.3-0.6c0.6-0.4,1.4-1.1,2.2-2.1v4.7
	c-1.5,0.8-2.9,1.1-4.3,1.1c-2.4,0-4.4-0.8-6-2.3c-1.6-1.6-2.4-3.5-2.4-5.8c0-2.3,0.8-4.3,2.4-5.8c1.6-1.6,3.6-2.4,6-2.4
	C-216.9,300.1-215.4,300.4-214.1,301.2"/>
<rect x="-210.6" y="297.9" class="st0" width="3.6" height="18.5"/>
<path class="st0" d="M-191.1,300.5h3.6V316h-3.6v-1.6c-1.5,1.4-3.1,2.1-4.7,2.1c-2.1,0-3.9-0.8-5.3-2.3c-1.4-1.6-2.1-3.5-2.1-5.9
	c0-2.3,0.7-4.2,2.1-5.8c1.4-1.5,3.1-2.3,5.2-2.3c1.8,0,3.4,0.7,4.8,2.2V300.5z M-199.6,308.2c0,1.5,0.4,2.7,1.2,3.6
	c0.8,0.9,1.8,1.4,3.1,1.4c1.3,0,2.4-0.5,3.2-1.4c0.8-0.9,1.2-2.1,1.2-3.6c0-1.4-0.4-2.6-1.2-3.6c-0.8-0.9-1.9-1.4-3.2-1.4
	c-1.2,0-2.3,0.5-3.1,1.4C-199.2,305.6-199.6,306.8-199.6,308.2"/>
<polygon class="st0" points="-161.4,305.3 -161.4,316.3 -165,316.3 -165,305.3 -167.2,305.3 -167.2,302.3 -165,302.3 -165,297.1 
	-161.4,297.1 -161.4,302.3 -158.6,302.3 -158.6,305.3 "/>
<path class="st0" d="M-156.7,308.1c0-2.2,0.8-4.1,2.4-5.7c1.6-1.6,3.5-2.3,5.8-2.3c2.3,0,4.3,0.8,5.9,2.4c1.6,1.6,2.4,3.5,2.4,5.8
	c0,2.3-0.8,4.3-2.4,5.8c-1.6,1.6-3.6,2.3-5.9,2.3c-2.3,0-4.3-0.8-5.8-2.4C-155.9,312.5-156.7,310.5-156.7,308.1 M-153.1,308.2
	c0,1.5,0.4,2.8,1.2,3.7c0.8,0.9,2,1.4,3.3,1.4c1.4,0,2.5-0.4,3.3-1.3c0.8-0.9,1.3-2.1,1.3-3.6c0-1.5-0.4-2.7-1.3-3.6
	c-0.8-0.9-2-1.4-3.3-1.4c-1.4,0-2.5,0.5-3.3,1.4C-152.6,305.6-153.1,306.7-153.1,308.2"/>
<path class="st0" d="M-136.4,300.9h3.6v1.4c1.2-1.2,2.7-1.9,4.2-1.9c1.8,0,3.2,0.6,4.2,1.7c0.9,1,1.3,2.5,1.3,4.7v9.5h-3.6v-8.6
	c0-1.5-0.2-2.6-0.6-3.2c-0.4-0.6-1.2-0.9-2.3-0.9c-1.2,0-2,0.4-2.5,1.2c-0.5,0.8-0.7,2.1-0.7,4v7.5h-3.6V300.9z"/>
</svg>
