<?xml version="1.0" encoding="utf-8"?>
<!-- Generator: Adobe Illustrator 19.1.0, SVG Export Plug-In . SVG Version: 6.00 Build 0)  -->
<svg version="1.1" id="Layer_1" xmlns="http://www.w3.org/2000/svg" xmlns:xlink="http://www.w3.org/1999/xlink" x="0px" y="0px"
	 viewBox="-211 343.6 188.6 107.4" style="enable-background:new -211 343.6 188.6 107.4;" xml:space="preserve">
<style type="text/css">
	.st0{fill:#95D5E4;}
	.st1{fill:#686969;}
</style>
<g>
	<path class="st0" d="M-167.9,374.1h5.8v25h-5.8v-2.6c-2.4,2.2-4.9,3.3-7.7,3.3c-3.5,0-6.3-1.2-8.6-3.7c-2.2-2.5-3.4-5.7-3.4-9.5
		c0-3.7,1.1-6.9,3.4-9.4c2.2-2.5,5-3.7,8.4-3.7c2.9,0,5.5,1.2,7.8,3.6V374.1z M-181.6,386.6c0,2.4,0.6,4.3,1.9,5.8
		c1.3,1.5,3,2.3,5,2.3c2.1,0,3.9-0.7,5.2-2.2c1.3-1.5,2-3.5,2-5.8c0-2.3-0.7-4.3-2-5.8c-1.3-1.5-3-2.2-5.1-2.2c-2,0-3.6,0.8-5,2.3
		C-180.9,382.4-181.6,384.3-181.6,386.6z"/>
	<path class="st0" d="M-154.8,374.1h5.8v2.2c1.1-1.1,2-1.9,2.8-2.3c0.8-0.4,1.8-0.6,3-0.6c1.5,0,3.1,0.5,4.8,1.5l-2.6,5.3
		c-1.1-0.8-2.2-1.2-3.2-1.2c-3.1,0-4.7,2.4-4.7,7.1v13h-5.8V374.1z"/>
	<path class="st0" d="M-117.1,374.1h5.8v25h-5.8v-2.6c-2.4,2.2-4.9,3.3-7.7,3.3c-3.5,0-6.3-1.2-8.6-3.7c-2.2-2.5-3.4-5.7-3.4-9.5
		c0-3.7,1.1-6.9,3.4-9.4c2.2-2.5,5-3.7,8.4-3.7c2.9,0,5.5,1.2,7.8,3.6V374.1z M-130.8,386.6c0,2.4,0.6,4.3,1.9,5.8
		c1.3,1.5,3,2.3,5,2.3c2.1,0,3.9-0.7,5.2-2.2c1.3-1.5,2-3.5,2-5.8c0-2.3-0.7-4.3-2-5.8c-1.3-1.5-3-2.2-5.1-2.2c-2,0-3.6,0.8-5,2.3
		C-130.1,382.4-130.8,384.3-130.8,386.6z"/>
	<path class="st0" d="M-192.9,387.1c-0.7-0.8-2-1.6-3.7-2.5l-4,4c0.4,0.2,0.8,0.4,1.2,0.6c1.5,0.9,2.3,1.8,2.3,2.9
		c0,1.8-1,2.7-2.9,2.7c-1,0-1.8-0.3-2.5-1c-0.3-0.3-0.8-0.9-1.3-1.9l-4,4c1.8,2.6,4.4,4,7.7,4c2.4,0,4.5-0.8,6.3-2.3
		c1.8-1.6,2.7-3.6,2.7-6C-191.3,389.7-191.8,388.2-192.9,387.1z M-200,373.5c-2.2,0-4,0.7-5.5,2.1c-1.5,1.4-2.2,3.2-2.2,5.4
		c0,1.6,0.4,3,1.3,4c0.4,0.5,1,1,1.8,1.5l4-4c-1.1-0.7-1.6-1.3-1.6-2c0-0.5,0.2-1,0.6-1.3c0.4-0.4,0.8-0.5,1.4-0.5
		c0.8,0,1.6,0.4,2.2,1.3l3.9-3.9C-195.8,374.4-197.7,373.5-200,373.5z"/>
</g>
<path class="st1" d="M-119.9,409.1h-6.7l8.7,15.7l3.2-6.1L-119.9,409.1z M-105.1,409.1l-0.6,1.2l-6.2,12.5l-0.3,0.7l0,0l-3.1,6l0,0
	l-0.7,1.3l-2.8,5.2l-1,1.8h6.6l14.7-28.7H-105.1z"/>
<path class="st1" d="M-173.7,410v7.7c-1.3-1.6-2.5-2.7-3.5-3.3c-1-0.6-2.2-0.9-3.6-0.9c-2.2,0-4,0.8-5.4,2.3
	c-1.4,1.5-2.2,3.4-2.2,5.7c0,2.3,0.7,4.3,2.1,5.8c1.4,1.5,3.2,2.3,5.4,2.3c1.4,0,2.6-0.3,3.7-0.9c1-0.6,2.2-1.7,3.6-3.4v7.6
	c-2.3,1.2-4.7,1.8-7,1.8c-3.9,0-7.1-1.2-9.7-3.7c-2.6-2.5-3.9-5.6-3.9-9.4c0-3.7,1.3-6.9,4-9.4c2.6-2.6,5.9-3.8,9.7-3.8
	C-178.2,408.2-175.8,408.8-173.7,410z"/>
<path class="st1" d="M-161.8,404v29.8h-5.8V404H-161.8z"/>
<path class="st1" d="M-136.6,408.9h5.8v25h-5.8v-2.6c-2.4,2.2-4.9,3.3-7.7,3.3c-3.5,0-6.3-1.2-8.6-3.7c-2.2-2.5-3.4-5.7-3.4-9.5
	c0-3.7,1.1-6.9,3.4-9.4c2.2-2.5,5-3.7,8.4-3.7c2.9,0,5.5,1.2,7.8,3.6V408.9z M-150.3,421.3c0,2.4,0.6,4.3,1.9,5.8
	c1.3,1.5,3,2.3,5,2.3c2.1,0,3.9-0.7,5.2-2.2c1.3-1.5,2-3.5,2-5.8c0-2.3-0.7-4.3-2-5.8c-1.3-1.5-3-2.2-5.1-2.2c-2,0-3.6,0.8-5,2.3
	C-149.6,417.2-150.3,419.1-150.3,421.3z"/>
<path class="st1" d="M-87,416v17.8h-5.8V416h-2.5v-4.9h2.5v-8.3h5.8v8.3h4.5v4.9H-87z"/>
<path class="st1" d="M-79.4,421.2c0-3.6,1.3-6.7,3.9-9.2c2.6-2.5,5.7-3.8,9.4-3.8c3.7,0,6.9,1.3,9.5,3.8c2.6,2.5,3.8,5.7,3.8,9.4
	c0,3.7-1.3,6.9-3.9,9.4c-2.6,2.5-5.8,3.8-9.6,3.8c-3.7,0-6.9-1.3-9.4-3.8C-78.1,428.2-79.4,425-79.4,421.2z M-73.5,421.3
	c0,2.5,0.7,4.5,2,5.9c1.4,1.5,3.2,2.2,5.4,2.2c2.3,0,4.1-0.7,5.4-2.2c1.4-1.5,2-3.4,2-5.8c0-2.4-0.7-4.4-2-5.8
	c-1.4-1.5-3.2-2.2-5.4-2.2c-2.2,0-4,0.7-5.4,2.2C-72.8,417.1-73.5,419-73.5,421.3z"/>
<path class="st1" d="M-46.6,408.9h5.8v2.3c2-2,4.3-3,6.8-3c2.9,0,5.2,0.9,6.8,2.7c1.4,1.6,2.1,4.1,2.1,7.6v15.3h-5.8v-13.9
	c0-2.5-0.3-4.2-1-5.1c-0.7-1-1.9-1.4-3.6-1.4c-1.9,0-3.3,0.6-4.1,1.9c-0.8,1.2-1.2,3.4-1.2,6.5v12h-5.8V408.9z"/>
</svg>
