<?xml version="1.0" encoding="utf-8"?>
<!-- Generator: Adobe Illustrator 19.1.0, SVG Export Plug-In . SVG Version: 6.00 Build 0)  -->
<svg version="1.1" id="Layer_1" xmlns="http://www.w3.org/2000/svg" xmlns:xlink="http://www.w3.org/1999/xlink" x="0px" y="0px"
	 viewBox="-695 715.6 188.6 107.4" style="enable-background:new -695 715.6 188.6 107.4;" xml:space="preserve">
<style type="text/css">
	.st0{fill:#686969;}
	.st1{fill:#969696;}
</style>
<path class="st0" d="M-653.3,736.1h5.8v25h-5.8v-2.6c-2.4,2.2-4.9,3.3-7.7,3.3c-3.5,0-6.3-1.2-8.6-3.7c-2.2-2.5-3.4-5.7-3.4-9.5
	c0-3.7,1.1-6.9,3.4-9.4c2.2-2.5,5-3.7,8.4-3.7c2.9,0,5.5,1.2,7.8,3.6L-653.3,736.1L-653.3,736.1z M-667,748.6c0,2.4,0.6,4.3,1.9,5.8
	s3,2.3,5,2.3c2.1,0,3.9-0.7,5.2-2.2s2-3.5,2-5.8s-0.7-4.3-2-5.8s-3-2.2-5.1-2.2c-2,0-3.6,0.8-5,2.3
	C-666.3,744.4-667,746.3-667,748.6L-667,748.6z M-640.2,736.1h5.8v2.2c1.1-1.1,2-1.9,2.8-2.3c0.8-0.4,1.8-0.6,3-0.6
	c1.5,0,3.1,0.5,4.8,1.5l-2.6,5.3c-1.1-0.8-2.2-1.2-3.2-1.2c-3.1,0-4.7,2.4-4.7,7.1v13h-5.8L-640.2,736.1L-640.2,736.1z
	 M-602.5,736.1h5.8v25h-5.8v-2.6c-2.4,2.2-4.9,3.3-7.7,3.3c-3.5,0-6.3-1.2-8.6-3.7c-2.2-2.5-3.4-5.7-3.4-9.5c0-3.7,1.1-6.9,3.4-9.4
	c2.2-2.5,5-3.7,8.4-3.7c2.9,0,5.5,1.2,7.8,3.6v-3L-602.5,736.1z M-616.2,748.6c0,2.4,0.6,4.3,1.9,5.8c1.3,1.5,3,2.3,5,2.3
	c2.1,0,3.9-0.7,5.2-2.2s2-3.5,2-5.8s-0.7-4.3-2-5.8s-3-2.2-5.1-2.2c-2,0-3.6,0.8-5,2.3C-615.5,744.4-616.2,746.3-616.2,748.6
	L-616.2,748.6z M-678.3,749.1c-0.7-0.8-2-1.6-3.7-2.5l-4,4l1.2,0.6c1.5,0.9,2.3,1.8,2.3,2.9c0,1.8-1,2.7-2.9,2.7c-1,0-1.8-0.3-2.5-1
	c-0.3-0.3-0.8-0.9-1.3-1.9l-4,4c1.8,2.6,4.4,4,7.7,4c2.4,0,4.5-0.8,6.3-2.3c1.8-1.6,2.7-3.6,2.7-6
	C-676.7,751.7-677.2,750.2-678.3,749.1L-678.3,749.1z M-685.4,735.5c-2.2,0-4,0.7-5.5,2.1c-1.5,1.4-2.2,3.2-2.2,5.4
	c0,1.6,0.4,3,1.3,4c0.4,0.5,1,1,1.8,1.5l4-4c-1.1-0.7-1.6-1.3-1.6-2c0-0.5,0.2-1,0.6-1.3c0.4-0.4,0.8-0.5,1.4-0.5
	c0.8,0,1.6,0.4,2.2,1.3l3.9-3.9C-681.2,736.4-683.1,735.5-685.4,735.5z"/>
<path class="st1" d="M-605.3,771.1h-6.7l8.7,15.7l3.2-6.1L-605.3,771.1z M-590.5,771.1l-0.6,1.2l-6.2,12.5l-0.3,0.7l-3.1,6l-0.7,1.3
	l-2.8,5.2l-1,1.8h6.6l14.7-28.7H-590.5z M-659.1,772v7.7c-1.3-1.6-2.5-2.7-3.5-3.3s-2.2-0.9-3.6-0.9c-2.2,0-4,0.8-5.4,2.3
	c-1.4,1.5-2.2,3.4-2.2,5.7c0,2.3,0.7,4.3,2.1,5.8c1.4,1.5,3.2,2.3,5.4,2.3c1.4,0,2.6-0.3,3.7-0.9c1-0.6,2.2-1.7,3.6-3.4v7.6
	c-2.3,1.2-4.7,1.8-7,1.8c-3.9,0-7.1-1.2-9.7-3.7c-2.6-2.5-3.9-5.6-3.9-9.4c0-3.7,1.3-6.9,4-9.4c2.6-2.6,5.9-3.8,9.7-3.8
	C-663.6,770.2-661.2,770.8-659.1,772L-659.1,772z M-647.2,766v29.8h-5.8V766H-647.2z M-622,770.9h5.8v25h-5.8v-2.6
	c-2.4,2.2-4.9,3.3-7.7,3.3c-3.5,0-6.3-1.2-8.6-3.7c-2.2-2.5-3.4-5.7-3.4-9.5c0-3.7,1.1-6.9,3.4-9.4c2.2-2.5,5-3.7,8.4-3.7
	c2.9,0,5.5,1.2,7.8,3.6L-622,770.9L-622,770.9z M-635.7,783.3c0,2.4,0.6,4.3,1.9,5.8s3,2.3,5,2.3c2.1,0,3.9-0.7,5.2-2.2s2-3.5,2-5.8
	s-0.7-4.3-2-5.8s-3-2.2-5.1-2.2c-2,0-3.6,0.8-5,2.3C-635,779.2-635.7,781.1-635.7,783.3L-635.7,783.3z M-572.4,778v17.8h-5.8V778
	h-2.5v-4.9h2.5v-8.3h5.8v8.3h4.5v4.9H-572.4z M-564.8,783.2c0-3.6,1.3-6.7,3.9-9.2s5.7-3.8,9.4-3.8c3.7,0,6.9,1.3,9.5,3.8
	c2.6,2.5,3.8,5.7,3.8,9.4c0,3.7-1.3,6.9-3.9,9.4c-2.6,2.5-5.8,3.8-9.6,3.8c-3.7,0-6.9-1.3-9.4-3.8
	C-563.5,790.2-564.8,787-564.8,783.2L-564.8,783.2z M-558.9,783.3c0,2.5,0.7,4.5,2,5.9c1.4,1.5,3.2,2.2,5.4,2.2
	c2.3,0,4.1-0.7,5.4-2.2c1.4-1.5,2-3.4,2-5.8c0-2.4-0.7-4.4-2-5.8c-1.4-1.5-3.2-2.2-5.4-2.2c-2.2,0-4,0.7-5.4,2.2
	C-558.2,779.1-558.9,781-558.9,783.3L-558.9,783.3z M-532,770.9h5.8v2.3c2-2,4.3-3,6.8-3c2.9,0,5.2,0.9,6.8,2.7
	c1.4,1.6,2.1,4.1,2.1,7.6v15.3h-5.8v-13.9c0-2.5-0.3-4.2-1-5.1c-0.7-1-1.9-1.4-3.6-1.4c-1.9,0-3.3,0.6-4.1,1.9
	c-0.8,1.2-1.2,3.4-1.2,6.5v12h-5.8V770.9z"/>
</svg>
