<?xml version="1.0" encoding="utf-8"?>
<!-- Generator: Adobe Illustrator 19.1.0, SVG Export Plug-In . SVG Version: 6.00 Build 0)  -->
<svg version="1.1" id="Layer_1" xmlns="http://www.w3.org/2000/svg" xmlns:xlink="http://www.w3.org/1999/xlink" x="0px" y="0px"
	 viewBox="-301 253.6 188.6 107.4" style="enable-background:new -301 253.6 188.6 107.4;" xml:space="preserve">
<style type="text/css">
	.st0{fill:#414141;}
</style>
<path class="st0" d="M-142.5,295.5c0,0-1.7-5.8-8.3-4.2l-11,21.9c0,0-3.4-8.6,0.8-14.3c0,0,2.1-2.7,7.3-2.5l1-1.8
	c0,0-10.3-2.1-16.5,7.5c-6.2,9.6-5.8,17.7-6.4,19c-0.6,1.3-4.8,13.5-13.5,16.8c0,0,6.2-16.6,13.9-26c0,0,2.1-15.8-5.6-13.3
	c-7.7,2.6-11.7,7.4-15.2,7.2c0,0,13.7-13.4,7.2-17.2c-6.5-3.8-23.4,36.3-25.6,37.7s9.3-22.5,6.8-28.7c0,0-6.5-6.6-9.2-4.6
	c0,0-0.6,0.8,0.9,1.7c1.5,0.9-2,4.4-2,4.4s-3.2-5-8.5-2.7c-5.3,2.3-19.1,18.5-19.3,31.7c0,0-0.3,9.3,6.7,7.5l18-27.7
	c-0.3,0.9-7.6,21,1.1,25.8c0,0,4.1,1.6,7.5-5.3c3.4-6.9,5.9-11.6,5.9-11.6s6.5-5.6,8-8.2c0,0,9.5-1.5,16.3-8.2c0,0,3.4-0.6-1,3.8
	c-4.4,4.4-18.8,31.8-9.5,34.7c9.3,2.9,17.9-14.5,17.9-14.5s7.5,6.7,12.5,2.3c0,0,1.2-0.6,1.6-5c0.4-4.3,7.9-21.1,8.1-21.6
	c-0.1,0.7-4.6,26.7-3,31.7c0,0,1.3,13.2,6.4,8.5c5.1-4.8,4.8-21.4,4.8-21.4l-1.6,2.7c0,0-2.6,21.7-5.8,17.1
	C-154.9,334.5-149.9,301.5-142.5,295.5z M-239.4,331.2c2.3-17.7,14.8-30.9,16.7-31.8c1.9-0.8,4.2,2.9,4.2,2.9L-239.4,331.2z
	 M-204.3,311.7c0,0,3-7,3-5.8c0.1,1.2,1,1.7,1,1.7L-204.3,311.7z M-199.1,306.3c-0.6-0.1-0.9-3.2-0.9-3.2c9-15.1,9.5-12.7,9.5-12.7
	C-186.6,293-198.5,306.4-199.1,306.3z"/>
<path class="st0" d="M-257.1,315.3c-4.1,1.1-7.7,3.5-10.1,6.8c-2.3,3.2-4.5,7-2.2,8.5c4.1,2.5,22.8-16.7,16.7-18.9
	s-20.7-8.2-15.2-18.4c5.5-10.2,16.8-25.8,27.5-20.1c10.7,5.7-2.6,28.8-13.3,23.5c0,0-1.9-0.3,4.3-5.2c6.2-4.8,5.5-12.6,5.5-12.6
	s2.4-11.4-6.3-2.3c-1.4,1.4-18.1,19.6-8.3,24.4c9.8,4.8,12.7,6.9,10.8,15.2c-1.6,6.8-6.4,18.1-15.9,19.7c-4.1,0.7-8.2-1.8-8.9-5.6
	c-0.6-3.2-0.1-7.6,4.7-12.4c1.8-1.8,4.2-3.2,6.8-3.7c2-0.4,4-0.4,3.9,1.2C-257,315.2-257,315.2-257.1,315.3z"/>
</svg>
