<?xml version="1.0" encoding="utf-8"?>
<!-- Generator: Adobe Illustrator 19.2.0, SVG Export Plug-In . SVG Version: 6.00 Build 0)  -->
<svg version="1.1" id="Layer_1" xmlns="http://www.w3.org/2000/svg" xmlns:xlink="http://www.w3.org/1999/xlink" x="0px" y="0px"
	 viewBox="0 0 1256 1741" style="enable-background:new 0 0 1256 1741;" xml:space="preserve">
<style type="text/css">
	.st0{fill:none;}
	.st1{display:none;fill:none;}
	.st2{opacity:0.9;}
	.st3{fill:none;stroke:#FFFFFF;stroke-width:2;stroke-miterlimit:10;}
	.st4{fill:none;stroke:#FFFFFF;stroke-width:1.8033;stroke-miterlimit:10;}
	.st5{fill:#FFFFFF;}
	.st6{fill:#CCDF7B;}
	.st7{fill:#EFCFB7;}
	.st8{font-family:'Lato-Medium';}
	.st9{font-size:29.7226px;}
	.st10{letter-spacing:-1;}
	.st11{clip-path:url(#SVGID_2_);}
	.st12{clip-path:url(#SVGID_6_);fill:#F69438;}
	.st13{clip-path:url(#SVGID_6_);fill:#EEF3DC;}
	.st14{clip-path:url(#SVGID_6_);}
	.st15{fill:#EEF3DC;}
	.st16{font-family:'Roboto-Bold';}
	.st17{font-size:48.0488px;}
	.st18{letter-spacing:6;}
	.st19{opacity:0.15;clip-path:url(#SVGID_6_);fill:#DE6E26;}
	.st20{opacity:0.24;fill:#FFFFFF;}
	.st21{clip-path:url(#SVGID_8_);}
	.st22{opacity:0.54;fill:#C7DC75;}
	.st23{fill:#F69438;}
	.st24{opacity:0.51;fill:#F69438;}
	.st25{font-family:'Roboto-Regular';}
	.st26{font-size:13.1268px;}
	.st27{fill:#C7DC75;}
	.st28{fill:#D5E5E9;}
	.st29{fill:#D9E483;}
	.st30{fill:#E9CC2F;}
	.st31{fill:#AB7832;}
	.st32{fill:#9FC53B;}
	.st33{fill:#C5DB6A;}
	.st34{fill:#8ED2D1;}
	.st35{fill:none;stroke:#F69438;stroke-width:1.0533;stroke-miterlimit:10;}
	.st36{fill:none;stroke:#F69438;stroke-width:1.0533;stroke-miterlimit:10;stroke-dasharray:3.2069,3.2069;}
	.st37{fill:none;stroke:#F69438;stroke-width:1.0533;stroke-miterlimit:10;stroke-dasharray:3.0541,3.0541;}
	.st38{fill:#7C8E5A;}
	.st39{fill:#E6E6E6;}
	.st40{fill:none;stroke:#FFFFFF;stroke-width:1.0533;stroke-miterlimit:10;}
	.st41{fill-opacity:0;}
	.st42{font-family:'Roboto-Medium';}
	.st43{font-size:14.7464px;}
	.st44{opacity:0.9;fill:#FFFFFF;}
	.st45{fill:#DFAF8E;}
	.st46{fill:#E9C1A8;}
	.st47{fill:#F0CFB6;}
</style>
<symbol  id="ic_x5F_menu" viewBox="0 -24 24 24">
	<rect y="-24" class="st0" width="24" height="24"/>
	<path d="M3-18h18v2H3V-18z M3-13h18v2H3V-13z M3-6v-2h18v2H3z"/>
	<rect y="-24" class="st1" width="24" height="24"/>
</symbol>
<symbol  id="navbar_x5F_icon_x5F_back" viewBox="-1 -24 25 24">
	<g class="st2">
		
			<image style="overflow:visible;opacity:0.2;" width="71" height="80" xlink:href="4D2FAFD651B18A56.png"  transform="matrix(0.24 0 0 -0.24 3.3122 -3.2133)">
		</image>
		<g>
			<g>
				<path class="st3" d="M18-19c0-0.4,0-0.5-0.3-0.3l-12,7c-0.3,0.2-0.2,0.5,0.1,0.6l11.9,7C18-4.5,18-4.7,18-5V-19z"/>
			</g>
		</g>
	</g>
	<rect x="0" y="-24" class="st0" width="24" height="24"/>
	<rect x="-1" y="-24" class="st1" width="25" height="24"/>
</symbol>
<symbol  id="navbar_x5F_icon_x5F_home" viewBox="0 -24 24 24">
	<g class="st2">
		
			<image style="overflow:visible;opacity:0.2;" width="76" height="76" xlink:href="4D2FAFD651B18A5A.png"  transform="matrix(0.24 0 0 -0.24 2.9687 -3.7801)">
		</image>
		<g>
			<circle class="st4" cx="12" cy="-12" r="6.9"/>
		</g>
	</g>
	<rect y="-24" class="st0" width="24" height="24"/>
	<rect y="-24" class="st1" width="24" height="23"/>
</symbol>
<symbol  id="navbar_x5F_icon_x5F_recents" viewBox="0 -24 24 24">
	<g class="st2">
		
			<image style="overflow:visible;opacity:0.2;" width="78" height="78" xlink:href="4D2FAFD651B18A5D.png"  transform="matrix(0.24 0 0 -0.24 2.6669 -3.5556)">
		</image>
		<g>
			<g>
				<path class="st3" d="M19-5.7C19-5.4,18.6-5,18.2-5H5.8C5.4-5,5-5.4,5-5.7v-12.6C5-18.6,5.4-19,5.8-19h12.4
					c0.4,0,0.8,0.4,0.8,0.7V-5.7z"/>
			</g>
		</g>
	</g>
	<rect y="-24" class="st0" width="24" height="24"/>
	<rect y="-24" class="st1" width="24" height="23"/>
</symbol>
<symbol  id="navbar_x5F_mobile_3" viewBox="-1 -49 361 49">
	<rect x="-1" y="-49" width="361" height="49"/>
	
		<use xlink:href="#navbar_x5F_icon_x5F_back"  width="25" height="24" x="-1" y="-24" transform="matrix(1 0 0 1 68 -12)" style="overflow:visible;"/>
	
		<use xlink:href="#navbar_x5F_icon_x5F_home"  width="24" height="24" y="-24" transform="matrix(1 0 0 1 168 -12)" style="overflow:visible;"/>
	
		<use xlink:href="#navbar_x5F_icon_x5F_recents"  width="24" height="24" y="-24" transform="matrix(1 0 0 1 269 -12)" style="overflow:visible;"/>
	<rect x="-1" y="-49" class="st1" width="361" height="49"/>
</symbol>
<symbol  id="sysbar_x5F_status_2">
</symbol>
<symbol  id="ui_x5F_searchField_x5F_inset" viewBox="0 -64 360 64">
	<g id="XMLID_19_">
		<g>
			<path class="st5" d="M352-10v-44c0-1.1-0.9-2-2-2H10c-1.1,0-2,0.9-2,2v44c0,1.1,0.9,2,2,2h340C351.1-8,352-8.9,352-10z"/>
		</g>
		<g>
		</g>
	</g>
	<rect x="0" y="-64" class="st0" width="360" height="64"/>
</symbol>
<rect class="st6" width="1256" height="1741"/>
<path class="st7" d="M625.1,831.6v70.6l-50.4-19.3c0,0-22-11-10.1-36.7C576.5,820.6,625.1,831.6,625.1,831.6z"/>
<path class="st7" d="M613.8,914.5v70.6l-50.4-19.3c0,0-22-11-10.1-36.7S613.8,914.5,613.8,914.5z"/>
<path class="st7" d="M621.3,997.4v70.6l-50.4-19.3c0,0-22-11-10.1-36.7S621.3,997.4,621.3,997.4z"/>
<path class="st7" d="M634.5,1082.1v70.6l-50.4-19.3c0,0-22-11-10.1-36.7C585.9,1071.1,634.5,1082.1,634.5,1082.1z"/>
<rect x="560.6" y="1451.5" class="st0" width="494.3" height="276.2"/>
<text transform="matrix(1 0 0 1 560.6113 1473.4307)"><tspan x="0" y="0" class="st5 st8 st9 st10">After the launch screen the application </tspan><tspan x="0" y="29.7" class="st5 st8 st9">opens </tspan><tspan x="84.6" y="29.7" class="st5 st8 st9">up into the map of the zoo and </tspan><tspan x="0" y="59.4" class="st5 st8 st9">your current</tspan><tspan x="159.5" y="59.4" class="st5 st8 st9"> </tspan><tspan x="167" y="59.4" class="st5 st8 st9">location.</tspan><tspan x="275.6" y="59.4" class="st5 st8 st9 st10"> Through the top </tspan><tspan x="0" y="89.2" class="st5 st8 st9 st10">search bar you </tspan><tspan x="183.5" y="89.2" class="st5 st8 st9">can </tspan><tspan x="236.7" y="89.2" class="st5 st8 st9">locate animal clas</tspan><tspan x="468.3" y="89.2" class="st5 st8 st9">-</tspan><tspan x="0" y="118.9" class="st5 st8 st9">sifications and click on</tspan><tspan x="297" y="118.9" class="st5 st8 st9"> the icons to </tspan><tspan x="0" y="148.6" class="st5 st8 st9">learn more information about that </tspan><tspan x="0" y="178.3" class="st5 st8 st9">specific species.  </tspan></text>
<g>
	<rect x="115.8" y="892.1" class="st0" width="458.3" height="29.7"/>
	<text transform="matrix(1 0 0 1 115.8087 914.0431)" class="st5 st8 st9 st10">Welcome to the launch screen </text>
</g>
<g>
	<g>
		<defs>
			<path id="SVGID_1_" d="M122.8,158.2c0,0-1.5-57.4,53.3-65.5h276.1c0,0,50.5,9.2,51.7,63v127.9l1.9,0.3v47.8l-1.7,0.8l0.2,49.3
				l1.7,0.9v104l-2,1v297.5c0,0-5.9,45.3-56.6,54.6l-270-0.6c0,0-45-4.1-53.8-56.3L122.8,158.2z"/>
		</defs>
		<clipPath id="SVGID_2_">
			<use xlink:href="#SVGID_1_"  style="overflow:visible;"/>
		</clipPath>
		<g id="Moto_G3_Mockup.psd_5_" class="st11">
			<defs>
				<rect id="SVGID_3_" x="-22" y="-125.6" width="669.2" height="1189.7"/>
			</defs>
			<clipPath id="SVGID_4_">
				<use xlink:href="#SVGID_3_"  style="overflow:visible;"/>
			</clipPath>
			<g transform="matrix(1 0 0 1 0 -7.629395e-06)" style="clip-path:url(#SVGID_4_);">
				
					<image style="overflow:visible;" width="1440" height="2560" id="Background" xlink:href="4D2FAFD651B18A5E.jpg"  transform="matrix(0.4647 0 0 0.4647 -22.0275 -125.6254)">
				</image>
			</g>
			<g transform="matrix(1 0 0 1 0 0)" style="clip-path:url(#SVGID_4_);">
				
					<image style="overflow:visible;" width="902" height="1692" id="Frame" xlink:href="4D2FAFD651B18A5E.png"  transform="matrix(0.4647 0 0 0.4647 112.28 81.6449)">
				</image>
			</g>
			<g transform="matrix(1 0 0 1 0 0)" style="clip-path:url(#SVGID_4_);">
				
					<image style="overflow:visible;" width="720" height="1280" id="Screen" xlink:href="4D2FAFD651B18A5B.png"  transform="matrix(0.4647 0 0 0.4647 145.2759 171.8028)">
				</image>
			</g>
			<g transform="matrix(1 0 0 1 0 0)" style="opacity:0.298;clip-path:url(#SVGID_4_);">
				
					<image style="overflow:visible;" width="1440" height="2154" id="Lighting" xlink:href="4D2FAFD651B18A55.png"  transform="matrix(0.4647 0 0 0.4647 -22.0275 -124.696)">
				</image>
			</g>
		</g>
	</g>
	<rect x="147" y="173.4" class="st5" width="332.6" height="593.5"/>
	<g>
		<defs>
			<rect id="SVGID_5_" x="146.2" y="171.2" width="333.8" height="595.7"/>
		</defs>
		<clipPath id="SVGID_6_">
			<use xlink:href="#SVGID_5_"  style="overflow:visible;"/>
		</clipPath>
		<rect x="127.2" y="168.4" class="st12" width="361.3" height="627.9"/>
		<path class="st13" d="M468.8,526.7H173.1c-18.2,0-33-14.8-33-33V188.5c0-18.2,14.8-33,33-33h295.6c18.2,0,33,14.8,33,33v305.2
			C501.8,511.9,487,526.7,468.8,526.7z"/>
		<path class="st12" d="M435,321c0,0,3.9,138.9-11.9,178.3h53.5c0,0-7.9-87.3,1.9-129.9c5.9-25.6,13.2-24.9,19-19
			c0.4,0.4,0.8,0.8,1.2,1.3v177.6c0,17.1-13,31-29,31H145.5c-15.4,0-27.9-12.8-28.9-28.9c0-0.7-0.1-1.4-0.1-2.1V183
			c0-0.7,0-1.4,0.1-2c1-16,13.4-28.7,28.6-28.9c0.1,0,0.2,0,0.3,0h155.9c-0.5,1.4-1.1,2.9-1.6,4.4c-8.3,24-16.3,57.3-19.4,101.1
			c-2,27.3-0.8,50.5,2,69.6c-28.6,4.8-51.3,5.7-51.3,5.7c19.4,3.1,37,4.3,53,4.1c4.1,21.9,10.3,38.1,15.8,49
			c6.3,12.6,11.5,18.4,11.5,18.4c24.7,31-10.8,36.1-10.8,36.1c-0.3,0.6-0.5,1.1-0.7,1.7c-1,2.7-0.7,4.9,0,6.5c1.3,2.9,4,4.1,4,4.1
			c39.5-2.9,25.1-35.5,25.1-35.5s-22.2-34.6-22.3-81.6c75.6-7.8,107.7-47.9,107.7-47.9c41.3,30.7,50.3,25.9,50.3,25.9
			c12.2,0,23.2-4,33-10.9c0.4-0.3,0.8-0.5,1.2-0.8v20.3c-0.4,0.3-0.8,0.5-1.2,0.8C462.7,345.1,435,321,435,321z"/>
		<path class="st12" d="M311.1,312.8c0.4-3.9,1-7.8,1.8-11.9c10.4-50.4,45.6-46.4,60-46.4c14.4,0,16,12,16,12
			C381.1,291.4,345.3,305.2,311.1,312.8z"/>
		<path class="st12" d="M375.2,214.5c0,11.1-9,20.1-20.1,20.1c-11.1,0-20.2-9-20.2-20.1c0-11.1,9-20.1,20.2-20.1
			C366.2,194.3,375.2,203.4,375.2,214.5z"/>
		<g class="st14">
			<text transform="matrix(1 0 0 1 227.7836 498.7425)" class="st15 st16 st17 st18">ZOOBY</text>
		</g>
		<path class="st19" d="M314.9,147.1H148.5c0,0-31.4,7.8-30.9,46.7v566.1c0,0,5.7,49.2,30.9,46.7l164.7-0.5L314.9,147.1z"/>
	</g>
	<polygon class="st20" points="480.5,169.8 142.5,767.6 480.5,767.6 	"/>
</g>
<g>
	<g>
		<defs>
			<path id="SVGID_7_" d="M609.7,707.7c0,0-1.6-57.8,53.7-65.9h278.1c0,0,50.9,9.2,52,63.4V834l1.9,0.3v48.1l-1.8,0.8l0.2,49.6
				l1.7,0.9v104.8l-2,1v299.7c0,0-5.9,45.6-57,55l-272-0.7c0,0-45.3-4.2-54.2-56.7L609.7,707.7z"/>
		</defs>
		<clipPath id="SVGID_8_">
			<use xlink:href="#SVGID_7_"  style="overflow:visible;"/>
		</clipPath>
		<g id="Moto_G3_Mockup.psd" class="st21">
			<defs>
				<rect id="SVGID_9_" x="463.8" y="421.8" width="674" height="1198.3"/>
			</defs>
			<clipPath id="SVGID_10_">
				<use xlink:href="#SVGID_9_"  style="overflow:visible;"/>
			</clipPath>
			<g style="clip-path:url(#SVGID_10_);">
				
					<image style="overflow:visible;" width="1440" height="2560" id="Background_1_" xlink:href="4D2FAFD651B18A56.jpg"  transform="matrix(0.4681 0 0 0.4681 463.8116 421.8114)">
				</image>
			</g>
			<g style="clip-path:url(#SVGID_10_);">
				
					<image style="overflow:visible;" width="902" height="1692" id="Frame_1_" xlink:href="4D2FAFD651B18A54.png"  transform="matrix(0.4681 0 0 0.4681 599.0891 630.5788)">
				</image>
			</g>
			<g style="clip-path:url(#SVGID_10_);">
				
					<image style="overflow:visible;" width="720" height="1280" id="Screen_1_" xlink:href="27E469F9CEA8FEC9.png"  transform="matrix(0.4681 0 0 0.4681 632.3233 721.3879)">
				</image>
			</g>
			<g style="opacity:0.298;clip-path:url(#SVGID_10_);">
				
					<image style="overflow:visible;" width="1440" height="2154" id="Lighting_1_" xlink:href="27E469F9CEA8FECF.png"  transform="matrix(0.4681 0 0 0.4681 463.8116 422.7476)">
				</image>
			</g>
		</g>
	</g>
	<rect x="633.8" y="722.7" class="st5" width="335" height="597.8"/>
	<g>
		<rect x="633.4" y="722.6" class="st22" width="336.4" height="598.6"/>
		
			<use xlink:href="#navbar_x5F_mobile_3"  width="361" height="49" x="-1" y="-49" transform="matrix(0.9321 0 0 -0.9437 634.2994 1275.517)" style="overflow:visible;"/>
		
			<use xlink:href="#sysbar_x5F_status_2"  width="-32766" height="-32766" id="XMLID_27_" x="16383" y="16383" transform="matrix(0.9346 0 0 -0.9376 632.0066 722.2943)" style="overflow:visible;"/>
		<rect x="633.4" y="722.2" class="st23" width="336.5" height="95.7"/>
		
			<use xlink:href="#ic_x5F_menu"  width="24" height="24" y="-24" transform="matrix(0.9346 0 0 -0.9376 647.2886 762.4955)" style="overflow:visible;opacity:0.54;"/>
		<g>
			
				<use xlink:href="#ui_x5F_searchField_x5F_inset"  width="360" height="64" id="XMLID_18_" x="0" y="-64" transform="matrix(0.7828 0 0 -0.9376 679.6811 743.9047)" style="overflow:visible;"/>
			<rect x="734.3" y="765.5" class="st0" width="216.8" height="22.5"/>
			<text transform="matrix(0.9968 0 0 1 734.3096 780.4707)" class="st24 st25 st26">Search an animal</text>
			<g id="XMLID_16_">
				<g>
					<g>
						<path class="st23" d="M713.3,775.8h-0.7l-0.3-0.3c0.9-1.1,1.5-2.4,1.5-4c0-3.4-2.7-6.1-6.1-6.1c-3.4,0-6.1,2.7-6.1,6.1
							s2.7,6.1,6.1,6.1c1.5,0,2.9-0.6,3.9-1.5l0.3,0.3v0.7l4.7,4.7l1.4-1.4L713.3,775.8z M707.7,775.8c-2.3,0-4.2-1.9-4.2-4.2
							s1.9-4.2,4.2-4.2c2.3,0,4.2,1.9,4.2,4.2S710,775.8,707.7,775.8z"/>
					</g>
				</g>
			</g>
		</g>
		<g>
			<path class="st27" d="M642.7,1107.2c0,0,9.6,16.3,2.9,25.5c-6.7,9.2-4.7,22.8,7.1,25.3c11.8,2.5,31.7-4.5,31.7-4.5
				s21.4-6.5,34.8,1.6c13.4,8.1,24.3,2.5,25.9-4.9c1.6-7.4,0-13.9,10.7-21.5c0,0,10.3-1.8,9.6-8.1c-0.7-6.3,6.9-12.3,6.9-12.3
				s12.7-13.7-5.1-15.4c-17.9-1.8-30.6,9.8-30.6,9.8s-9.8,10.5-56.2,1.1c0,0-21.2-8.7-25.9-13.4
				C649.8,1085.7,631.1,1088.8,642.7,1107.2z"/>
			<path class="st27" d="M769,1154.4c0,0,10.2,10.3,38.5-2.9c28.3-13.2,55.6,2.4,55.6,2.4s32.7,10.8,40-8.3c0,0,4.9-12.5-34.6-20.8
				c0,0-14.4-2.4-23.4-17.9c-9-15.4-17.8-16.1-31.5-16.6c-13.7-0.5-25.4,24.2-25.4,24.2s-6.8,13.9-13.7,14.7S759,1146.8,769,1154.4z
				"/>
			<path class="st27" d="M661,1049.1c0,0,21.1,35.3,64,20.6c0,0,27.5-11.4,49-53.7c0,0,6.1-14.7-12.2-12.9c0,0-11,2.1-23.6,12.3
				c-12.5,10.1-38.3-3.1-38.3-3.1s-18.1-8.6-34.3,3.7C649.3,1028.3,661,1049.1,661,1049.1z"/>
			<path class="st27" d="M770.5,1044.5c-4.6,1.6-15.3,8.3-15.3,12s0.6,11.1,20.2,3.7c19.6-7.4,31.2-2.8,31.2-2.8s22.3,7.1,24.2-4
				c1.8-11.1-17.1-12-17.1-12s-5-0.6-11-7.6c-6-7-16.6-8-16.6-8s-8.2-0.6-8.6,8.4C777.1,1043.3,773.5,1043.5,770.5,1044.5z"/>
			<path class="st27" d="M891.1,1078.2c0,0-16.5,5.5-0.8,18.7c0,0,22.8,7.9,27.8,12.9c5,5,13.1,13.4,13.1,19.7
				c0,6.3,11.5,27.1,22.8,11.6c0,0,3.9-5.5-1.8-19.7c0,0-2.6-6.1,3.1-15c5.8-8.9-2.6-16-2.6-16s-1.8-2.1,2.6-8.7
				c4.5-6.6,8.4-21.8-1.8-23.4c-10.2-1.6-17,8.7-17,8.7s-10,14.2-25.2,11.3C896.1,1075.3,891.1,1078.2,891.1,1078.2z"/>
			<path class="st27" d="M862.9,1200.2c0,0-20.9,9.4,2.3,14.8c0,0,31.6-0.8,39.1,1.6c7.5,2.4,19.8,6.5,20.9,11.4
				c1.1,4.9,20.1,17.6,32.3,2.1c0,0,4.2-5.5-6-14.8c0,0-4.6-3.9,1.5-12.7c6-8.7-6.3-11.7-6.3-11.7s-2.8-1.1,1.9-7.6
				c4.7-6.5,7.2-19.6-6.6-17.7c-13.8,1.9-21,12-21,12s-10.7,14.1-31.3,16.5C869,1196.4,862.9,1200.2,862.9,1200.2z"/>
			<path class="st27" d="M652.2,929.1c0,0,12.9,13.5,1.9,20.4s-16,11.9-16,15.7s2.2,16,16.9,11.9c14.7-4.1,32.6-5.9,45.1,1.9
				s43.3,1.9,45.8-6s14.7-19.2,41.7-14.8c27,4.4,37.6-6.3,37.6-6.3s5.3-7.5,4.1-18.9s16.6-17.3,16.6-17.3s26.6-1.3,25.1-13.2
				c-1.6-11.9-26.3-11.9-26.3-11.9s-7.5,0.3-15.7-6s-24.8-5.3-32.3-0.3c-7.5,5-12.9,12.3-30.7,9.1s-41.4-8.2-65.2-2.2
				c0,0-12.9,2.8-23.2-6.6s-29.1,4.1-29.1,4.1S629.6,902,652.2,929.1z"/>
			<path class="st27" d="M681.2,1200.2c0,0,11.7,12.3,1.7,18.6c-10,6.3-14.5,10.9-14.5,14.3c0,3.4,2,14.6,15.4,10.9
				c13.4-3.7,29.7-5.4,41.1,1.7s39.3,1.7,41.6-5.4c2.3-7.2,13.4-17.4,37.9-13.4s34.2-5.7,34.2-5.7s4.8-6.9,3.7-17.2
				s15.1-15.7,15.1-15.7s24.2-1.1,22.8-12c-1.4-10.9-23.9-10.9-23.9-10.9s-6.8,0.3-14.3-5.4c-7.4-5.7-22.5-4.9-29.4-0.3
				s-11.7,11.2-27.9,8.3c-16.3-2.9-37.6-7.4-59.3-2c0,0-11.7,2.6-21.1-6s-26.5,3.7-26.5,3.7S660.7,1175.6,681.2,1200.2z"/>
			<path class="st27" d="M817,999.5c0,0-1.3,19.2,23.8,22.6c0,0,6.9,2.5,16.3-10.4s22.9-4.1,22.9-4.1s12.5,5.1,12.5-7.9
				c0,0,0.3-5-14.7-5s-15.4-16.7-15.4-16.7s-4.1-7.5-10,0.6c-6,8.1-25.4,10.1-25.4,10.1S815.8,989.8,817,999.5z"/>
			<path class="st27" d="M878.3,942.6c0,0-18.6,13-1.7,34.7c0,0,23.8,9.1,25.1,16.9s-4.2,16.8,4.2,24.1c8.4,7.3,17.6,7.6,17.6,7.6
				s11.1,1.6,11.3,7c0.3,5.4,17.6,23.8,23.5,1.1c5.9-22.8-7.3-49.3-7.3-49.3s-4.6-12.7,2.2-20.3s8.4-17.9,5.9-28.2
				c-2.4-10.3,3.2-14.1,3.2-14.1s9.5-15.2-6.5-32.8c-15.9-17.6-33.5,14.4-33.5,14.4s-17.6,29-24.6,29.5S878.3,942.6,878.3,942.6z"/>
			<path class="st28" d="M780.1,983.7c0,0-15.7,1.5-28.4,12.7s-36.5,10.4-49.9,6.5c-13.4-3.9-29.6-11.6-46.8,7.7
				c-17.3,19.3-6.1,56.6,14.6,63.9c20.7,7.3,44.2,12.7,73.7,1.9s62.2-11.2,62.2-11.2s29.2-1.2,48.8,19.3
				c19.6,20.4,36.1,24.3,36.1,24.3s34.9,10.4,43.8,45.4l-11.4,3c0,0-13.2-30.1-28.2-34c-13-3.3-33.3-15.2-40.8-23.1
				c-5.2-5.5-26.9-29.2-55.5-23.9c-28.6,5.2-78.5,24.8-112.4,17.4c-33.8-7.4-49.5-41.4-49.5-41.4s-12.2-30.5,13.5-54.4
				s66-3.9,66-3.9s21.3,3.5,33.4-10.9c12.2-14.4,53.4-11.8,53.4-11.8s32.1,5.7,34.7-18.3c2.6-23.9,22.1-29.2,22.1-29.2
				s26.5-4.8,23-31.3l20,7c0,0-14.8,31.3-36.5,34.4s-16.5,22.2-16.5,22.2s1.7,25.9-35.1,28.3c0,0-17.8,0-21.3-1.3
				c0,0,6.9,42.2,52.5,47.5c0,0,23-28.3,49.9,5.2c26.9,33.5-19.6,36.1-31.2,34.8c-9.3-1-24.7-6.1-23.9-28.7
				C840.2,1041.9,789.1,1034.7,780.1,983.7z"/>
			<path class="st29" d="M884.3,950.4c0,0-18.7,6.8,0.3,22c0,0,13.6,5.2,14.9,12c1.3,6.8,16.8,13.9,22.6,4.9c0,0,2.6-3.5,10.3-2.9
				c7.8,0.5,16.2-7.1,15.2-13.6s-21.3-3.2-21.3-3.2s-12.6,2.9-23.6-6.5C891.7,953.6,884.3,950.4,884.3,950.4z"/>
			<path class="st30" d="M649.4,1082.3c2.1,2,6.2,4.5,11-3.2s2-24.7-3.8-28.9c-5.8-4.2-9.2,1-10.5,3.4
				C642.8,1060,641.7,1075.1,649.4,1082.3z"/>
			<polygon class="st31" points="652.3,1076.5 652.3,1107.2 653.9,1107.2 653.6,1072.8 657.7,1068.4 657.1,1067.9 653.6,1071.1 
				653.6,1066.5 657.1,1062.4 656.4,1061.7 653.6,1064.8 653.6,1060.2 652.5,1060.2 652.7,1074.9 648.8,1072.3 648.3,1073.2 			"/>
			<path class="st30" d="M732.1,1017.7c2.1,2,6.2,4.5,11-3.2s2-24.7-3.8-28.9c-5.8-4.2-9.2,1-10.5,3.4
				C725.5,995.4,724.4,1010.5,732.1,1017.7z"/>
			<polygon class="st31" points="735,1011.9 735,1042.5 736.5,1042.5 736.3,1008.2 740.4,1003.8 739.8,1003.2 736.3,1006.5 
				736.3,1001.9 739.8,997.7 739.1,997.1 736.3,1000.2 736.3,995.6 735.2,995.6 735.3,1010.2 731.4,1007.7 731,1008.6 			"/>
			<path class="st32" d="M870.1,979.5c1.7,1.6,4.9,3.6,8.8-2.5c3.9-6.1,1.6-19.7-3-23c-4.6-3.4-7.4,0.8-8.4,2.7
				C864.8,961.7,863.9,973.7,870.1,979.5z"/>
			<polygon class="st31" points="872.4,974.8 872.4,999.3 873.6,999.3 873.4,971.9 876.7,968.4 876.2,968 873.4,970.5 873.4,966.9 
				876.2,963.6 875.6,963 873.4,965.5 873.4,961.8 872.5,961.8 872.6,973.5 869.5,971.5 869.1,972.2 			"/>
			<path class="st32" d="M945.6,1046c1.9,1.8,5.6,4.1,10-2.9c4.4-7,1.8-22.4-3.5-26.2s-8.4,0.9-9.6,3.1
				C939.6,1025.7,938.6,1039.4,945.6,1046z"/>
			<polygon class="st31" points="948.3,1040.7 948.3,1068.6 949.7,1068.6 949.4,1037.3 953.1,1033.4 952.6,1032.9 949.4,1035.8 
				949.4,1031.6 952.6,1027.9 952,1027.2 949.4,1030.1 949.4,1025.9 948.4,1025.9 948.6,1039.2 945,1036.9 944.6,1037.7 			"/>
			<path class="st32" d="M678.9,994.2c2.1,2.2,6.2,5,11-3.5c4.9-8.4,2-27.2-3.8-31.9c-5.8-4.7-9.2,1.1-10.5,3.8
				C672.2,969.6,671.1,986.2,678.9,994.2z"/>
			<polygon class="st31" points="681.7,987.8 681.7,1021.6 683.3,1021.6 683,983.7 687.1,978.9 686.5,978.2 683,981.8 683,976.7 
				686.5,972.2 685.8,971.4 683.1,974.9 683.1,969.7 681.9,969.7 682.1,986 678.2,983.1 677.7,984.2 			"/>
			<path class="st32" d="M649.7,891.4c2.1,2.2,6.2,5,11-3.5s2-27.2-3.8-31.9c-5.8-4.7-9.2,1.1-10.5,3.8
				C643,866.9,641.9,883.5,649.7,891.4z"/>
			<polygon class="st31" points="652.6,885 652.6,918.9 654.1,918.9 653.8,880.9 657.9,876.1 657.3,875.5 653.8,879.1 653.8,874 
				657.3,869.4 656.7,868.7 653.9,872.1 653.9,867 652.7,867 652.9,883.2 649,880.4 648.5,881.4 			"/>
			<path class="st30" d="M729.6,1117.4c2.1,2,6.2,4.5,11-3.2c4.9-7.6,2-24.7-3.8-28.9c-5.8-4.2-9.2,1-10.5,3.4
				C722.9,1095.2,721.8,1110.2,729.6,1117.4z"/>
			<polygon class="st31" points="732.5,1111.6 732.5,1142.3 734,1142.3 733.7,1107.9 737.8,1103.6 737.2,1103 733.7,1106.2 
				733.7,1101.6 737.2,1097.5 736.6,1096.8 733.8,1099.9 733.8,1095.3 732.6,1095.3 732.8,1110 728.9,1107.4 728.4,1108.4 			"/>
			<path class="st33" d="M755.6,1084.4c2.1,2,6.2,4.5,11-3.2s2-24.7-3.8-28.9c-5.8-4.2-9.2,1-10.5,3.4
				C748.9,1062.2,747.8,1077.2,755.6,1084.4z"/>
			<polygon class="st31" points="758.5,1078.6 758.5,1109.3 760,1109.3 759.7,1074.9 763.8,1070.6 763.2,1070 759.7,1073.2 
				759.7,1068.6 763.2,1064.5 762.5,1063.8 759.8,1066.9 759.8,1062.3 758.6,1062.3 758.8,1077 754.9,1074.4 754.4,1075.4 			"/>
			<path class="st33" d="M792.4,1121.6c2.1,2,6.2,4.5,11-3.2c4.9-7.6,2-24.7-3.8-28.9c-5.8-4.2-9.2,1-10.5,3.4
				C785.8,1099.4,784.6,1114.4,792.4,1121.6z"/>
			<polygon class="st31" points="795.3,1115.8 795.3,1146.5 796.8,1146.5 796.6,1112.1 800.6,1107.8 800,1107.2 796.5,1110.4 
				796.5,1105.8 800,1101.7 799.4,1101 796.6,1104.1 796.6,1099.5 795.5,1099.5 795.6,1114.2 791.7,1111.6 791.3,1112.5 			"/>
			<path class="st29" d="M782.7,1040.7c0,0-12.2,8.9-6.8,14.5c5.4,5.6,13.1-3.5,13.1-3.5s1.2-2.1,7.7,0s15,3,15-0.9
				c0-4,0.2-4.5-8.2-7.7C795.1,1039.8,791.4,1035.3,782.7,1040.7z"/>
			<path class="st34" d="M784.8,1041.9c0,0-9,6.6-5,10.7s9.6-2.6,9.6-2.6s0.9-1.6,5.7,0c4.8,1.6,11,2.2,11-0.7s0.2-3.3-6-5.7
				C793.9,1041.2,791.2,1037.9,784.8,1041.9z"/>
			<path class="st29" d="M666.3,893.2c-6.7,0.9-14.8,5.4-3.7,26.9c11.1,21.5,7,23.5,7,23.5s-0.7,12.4,14.8,11.4
				c15.4-1,26.8-16.5,23.1-37.7C703.8,896.2,678.1,891.6,666.3,893.2z"/>
			<path class="st34" d="M668.5,897.4c-5.8,0.8-12.8,4.7-3.2,23.3s6.1,20.4,6.1,20.4s-0.6,10.8,12.8,9.9c13.3-0.9,23.2-14.2,20-32.6
				S678.7,896,668.5,897.4z"/>
			<path class="st29" d="M772.1,1188.9c0,0,18.7-2.3,21.7,7.1c0,0,6.5,9.4,23.3,0s-12.3-12.3-12.3-12.3s-6.1,0.3-13.2-4.9
				c-7.1-5.2-18.7-12.6-24.9-4.9C760.5,1181.8,765.7,1188.3,772.1,1188.9z"/>
			<path class="st29" d="M719.2,932.9c0,0,3.2,15.2-13.2,26.6c-16.5,11.3,4.5,23,12.6,15.6c8.1-7.5,9.7-11,11.6-22.7
				c1.9-11.7,0.3-26.3-4.8-26.6S719.2,932.9,719.2,932.9z"/>
			<path class="st29" d="M840,901.4c0,0,9.4,6.8-6.5,15.9c0,0-3.9,1.9-10.7,14.6c-6.8,12.6-12.3,25.6-33.3,18.8
				c-21-6.8-13.2-25-13.2-25s5.8-13.9,32.3-14.6c0,0,9-1,10-4.2S834.2,895.3,840,901.4z"/>
			<path class="st29" d="M823.5,1000.9c0,0,1.3,20.4,22.6,11c21.3-9.4,13.2-10,13.2-10s0.6-1.9-13.9-1.9S826.5,993.5,823.5,1000.9z"
				/>
			<path class="st29" d="M938.2,1185.2c-2.8,1.2-7.7,4.2-9.1,8.1s-2.5,4.9-4.1,5.6c-1.4,0.7-4,1.3-2-5.9c2-7.2,7-20.3,17-18.2
				c2,0.4,6.5,1.9,2.6,7.9C941.9,1183.8,940.7,1184.2,938.2,1185.2z"/>
			<path class="st33" d="M826.5,880.5c2.1,2,6.2,4.5,11-3.2s2-24.7-3.8-28.9s-9.2,1-10.5,3.4C819.9,858.2,818.8,873.3,826.5,880.5z"
				/>
			<polygon class="st31" points="829.4,874.7 829.4,905.3 830.9,905.3 830.7,871 834.8,866.6 834.2,866.1 830.7,869.3 830.7,864.7 
				834.2,860.6 833.5,859.9 830.7,863 830.7,858.4 829.6,858.4 829.7,873 825.8,870.5 825.4,871.4 			"/>
			<path class="st29" d="M771.7,1209.1c4.4-7.7,6.2-19.5-24.7-25.2c-30.9-5.7-29.8-11.4-29.8-11.4s-12.3-10.6-23.5,6.2
				c-11.2,16.7-4.4,40.8,20.3,53.8C738.8,1245.5,764,1222.6,771.7,1209.1z"/>
			<path class="st34" d="M765.7,1208.1c3.8-6.6,5.3-16.9-21.4-21.8c-26.7-4.9-25.7-9.9-25.7-9.9s-10.6-9.1-20.3,5.3
				s-3.8,35.3,17.6,46.5S758.9,1219.8,765.7,1208.1z"/>
			<path class="st29" d="M830.4,1216.2c0,0,10.1-11.2,3.8-15.6s-12.1,6.1-12.1,6.1s-0.7,2.3-7.6,1.5c-6.8-0.8-15.3,0-14.5,3.9
				s0.7,4.4,9.6,6C818.4,1219.6,823,1223.2,830.4,1216.2z"/>
			<path class="st34" d="M828.1,1215.5c0,0,7.5-8.2,2.8-11.5c-4.7-3.3-8.9,4.5-8.9,4.5s-0.5,1.7-5.6,1.1c-5-0.6-11.2,0-10.7,2.9
				c0.6,2.9,0.5,3.3,7,4.4C819.3,1218,822.6,1220.7,828.1,1215.5z"/>
		</g>
		<g>
			<rect x="718.5" y="852" class="st31" width="52.2" height="26.8"/>
			<rect x="718.4" y="864.8" class="st31" width="4.2" height="37.3"/>
			<rect x="766.6" y="864.8" class="st31" width="4.2" height="37.3"/>
		</g>
		<g>
			<g>
				<path class="st35" d="M889.5,898c0,0,0,0.6-0.1,1.6"/>
				<path class="st36" d="M889.1,902.7c-1.3,8.1-6.6,23.9-28.2,27.1c0,0-17.4,2.5-18.7,26.9c-1.1,20.8-41.7,19.8-53.5,19"/>
				<path class="st35" d="M787,975.6c-1-0.1-1.6-0.1-1.6-0.1s0,0.6,0,1.6"/>
				<path class="st37" d="M785.5,980.1c0.7,11.3,5.6,39.8,37.4,48.4"/>
				<path class="st35" d="M824.4,1028.9c0.5,0.1,1,0.2,1.5,0.4"/>
			</g>
		</g>
		<g id="Enm7tQ.tif_2_">
			<g>
				<path class="st38" d="M918,1106.1C918,1106.1,918,1106.1,918,1106.1c-0.2-0.3-0.4-0.6-0.6-0.9c-1.1-1.8-2.3-3.6-3.5-5.3
					c-2-2.6-4.2-5.1-6.5-7.4c-1.9-1.9-3.8-3.8-5.8-5.7c-0.6-0.6-1.1-1.2-1.6-1.8c-1.5-1.8-2.7-3.8-3.6-6c-1.4-3.3-1.9-6.8-1.6-10.4
					c0.2-1.8,0.6-3.6,1.3-5.3c1.4-3.7,3.7-6.9,6.6-9.5c2.3-2,5-3.6,7.9-4.5c1.7-0.6,3.5-1,5.3-1.1c0.3,0,0.7-0.1,1-0.1
					c0.7,0,1.4,0,2.1,0c0,0,0.1,0,0.1,0c1.4,0.1,2.7,0.3,4,0.6c2.8,0.6,5.4,1.8,7.7,3.3c1.7,1.1,3.2,2.4,4.5,4
					c1.5,1.7,2.8,3.6,3.8,5.7c1.6,3.4,2.3,7,2,10.8c-0.1,1.4-0.4,2.8-0.8,4.1c-1,3.6-2.9,6.7-5.5,9.5c-0.8,0.9-1.7,1.7-2.5,2.5
					c-2.3,2.3-4.6,4.5-6.8,6.9c-1.3,1.4-2.5,2.9-3.7,4.4c-1.2,1.6-2.3,3.3-3.3,5C918.4,1105.3,918.2,1105.7,918,1106.1z"/>
			</g>
		</g>
		<g>
			<path class="st39" d="M921.1,1061.6c-1.4-2.9-5.2-0.9-5.8-0.4c-0.6,0.5-1.2,0-1.2,0c-2.7-2.8-4.8-0.4-4.8-0.4s-1.9,2.3-2.3,7.6
				c-0.1,1.4,0,2.6,0.1,3.5c-1.5,0.2-2.8,0.3-2.8,0.3c1,0.2,2,0.2,2.9,0.2c0.5,2.4,1.5,3.4,1.5,3.4c1.3,1.6-0.6,1.8-0.6,1.8
				c-0.2,0.4,0.2,0.6,0.2,0.6c2.1-0.1,1.4-1.8,1.4-1.8s-1.2-1.8-1.2-4.1c4.1-0.4,5.8-2.4,5.8-2.4c2.2,1.6,2.7,1.3,2.7,1.3
				C920.8,1071.3,922.5,1064.5,921.1,1061.6z M911.2,1064.5c0.7,0,1.2,0.5,1.2,1.2s-0.5,1.2-1.2,1.2c-0.7,0-1.2-0.5-1.2-1.2
				S910.5,1064.5,911.2,1064.5z M908.5,1071.7c0-0.2,0.1-0.5,0.1-0.7c0.6-3.1,2.8-2.8,3.6-2.8c0.9,0,1,0.7,1,0.7
				C912.7,1070.4,910.6,1071.3,908.5,1071.7z"/>
			<path class="st39" d="M915.5,1072.6c0,0,0.3,5.3-0.6,7.3h2.9c0,0-0.6-3.6-0.1-5.8c0.5-2.2,1.3-0.6,1.5-0.3c0.8,1,2.7,2.4,5.1-1
				c0,0,1.2-1.4,1.3,1.8c0.1,3.2-0.2,5.2-0.4,5.3c-0.2,0.1,3.2,0,3.2,0s-0.5-7.1-0.2-8.2c0.3-1.1,1-2.9,1-2.9s0.6-0.5,0.7,0.6
				s0.4,3.8,0.4,3.8s0.7-5.6-1.4-9.1c-2.1-3.5-6.8-2.3-6.8-2.3s1.6,4.9-1.1,8C918.2,1073.2,915.5,1072.6,915.5,1072.6z"/>
		</g>
		<g id="Enm7tQ.tif_1_">
			<g>
				<path class="st38" d="M838.9,1016.9C838.9,1016.9,838.9,1016.9,838.9,1016.9c-0.2-0.3-0.4-0.6-0.6-0.9c-1.1-1.8-2.3-3.6-3.5-5.3
					c-2-2.6-4.2-5.1-6.5-7.4c-1.9-1.9-3.8-3.8-5.8-5.7c-0.6-0.6-1.1-1.2-1.6-1.8c-1.5-1.8-2.7-3.8-3.6-6c-1.4-3.3-1.9-6.8-1.6-10.4
					c0.2-1.8,0.6-3.6,1.3-5.3c1.4-3.7,3.7-6.9,6.6-9.5c2.3-2,5-3.6,7.9-4.5c1.7-0.6,3.5-1,5.3-1.1c0.3,0,0.7-0.1,1-0.1
					c0.7,0,1.4,0,2.1,0c0,0,0.1,0,0.1,0c1.4,0.1,2.7,0.3,4,0.6c2.8,0.6,5.4,1.8,7.7,3.3c1.7,1.1,3.2,2.4,4.5,4
					c1.5,1.7,2.8,3.6,3.8,5.7c1.6,3.4,2.3,7,2,10.8c-0.1,1.4-0.4,2.8-0.8,4.1c-1,3.6-2.9,6.7-5.5,9.5c-0.8,0.9-1.7,1.7-2.5,2.5
					c-2.3,2.3-4.6,4.5-6.8,6.9c-1.3,1.4-2.5,2.9-3.7,4.4c-1.2,1.6-2.3,3.3-3.3,5C839.4,1016.1,839.1,1016.5,838.9,1016.9z"/>
			</g>
		</g>
		<g>
			<path class="st39" d="M842.1,972.4c-1.4-2.9-5.2-0.9-5.8-0.4c-0.6,0.5-1.2,0-1.2,0c-2.7-2.8-4.8-0.4-4.8-0.4s-1.9,2.3-2.3,7.6
				c-0.1,1.4,0,2.6,0.1,3.5c-1.5,0.2-2.8,0.3-2.8,0.3c1,0.2,2,0.2,2.9,0.2c0.5,2.4,1.5,3.4,1.5,3.4c1.3,1.6-0.6,1.8-0.6,1.8
				c-0.2,0.4,0.2,0.6,0.2,0.6c2.1-0.1,1.4-1.8,1.4-1.8s-1.2-1.8-1.2-4.1c4.1-0.4,5.8-2.4,5.8-2.4c2.2,1.6,2.7,1.3,2.7,1.3
				C841.8,982.1,843.5,975.2,842.1,972.4z M832.1,975.3c0.7,0,1.2,0.5,1.2,1.2c0,0.7-0.5,1.2-1.2,1.2c-0.7,0-1.2-0.5-1.2-1.2
				C830.9,975.8,831.4,975.3,832.1,975.3z M829.4,982.5c0-0.2,0.1-0.5,0.1-0.7c0.6-3.1,2.8-2.8,3.6-2.8c0.9,0,1,0.7,1,0.7
				C833.7,981.2,831.5,982,829.4,982.5z"/>
			<path class="st39" d="M836.5,983.4c0,0,0.3,5.3-0.6,7.3h2.9c0,0-0.6-3.6-0.1-5.8c0.5-2.2,1.3-0.6,1.5-0.3c0.8,1,2.7,2.4,5.1-1
				c0,0,1.2-1.4,1.3,1.8s-0.2,5.2-0.4,5.3c-0.2,0.1,3.2,0,3.2,0s-0.5-7.1-0.2-8.2c0.3-1.1,1-2.9,1-2.9s0.6-0.5,0.7,0.6
				s0.4,3.8,0.4,3.8s0.7-5.6-1.4-9.1c-2.1-3.5-6.8-2.3-6.8-2.3s1.6,4.9-1.1,8C839.1,984,836.5,983.4,836.5,983.4z"/>
		</g>
		<g>
			<g id="Enm7tQ.tif_3_">
				<g>
					<path class="st23" d="M889.8,895.9C889.8,895.9,889.7,895.9,889.8,895.9c-0.1-0.1-0.1-0.2-0.2-0.3c-0.4-0.6-0.8-1.2-1.2-1.8
						c-0.7-0.9-1.4-1.7-2.2-2.5c-0.6-0.7-1.3-1.3-2-2c-0.2-0.2-0.4-0.4-0.6-0.6c-0.5-0.6-0.9-1.3-1.2-2c-0.5-1.1-0.7-2.3-0.5-3.5
						c0.1-0.6,0.2-1.2,0.4-1.8c0.5-1.3,1.2-2.3,2.3-3.2c0.8-0.7,1.7-1.2,2.7-1.6c0.6-0.2,1.2-0.3,1.8-0.4c0.1,0,0.2,0,0.3,0
						c0.2,0,0.5,0,0.7,0c0,0,0,0,0,0c0.5,0,0.9,0.1,1.4,0.2c0.9,0.2,1.8,0.6,2.6,1.1c0.6,0.4,1.1,0.8,1.5,1.4c0.5,0.6,1,1.2,1.3,1.9
						c0.6,1.2,0.8,2.4,0.7,3.7c0,0.5-0.1,1-0.3,1.4c-0.4,1.2-1,2.3-1.9,3.2c-0.3,0.3-0.6,0.6-0.9,0.9c-0.8,0.8-1.6,1.5-2.3,2.4
						c-0.4,0.5-0.9,1-1.3,1.5c-0.4,0.5-0.8,1.1-1.1,1.7C889.9,895.6,889.8,895.8,889.8,895.9z"/>
				</g>
			</g>
			<ellipse class="st40" cx="889.7" cy="883.7" rx="4.8" ry="4.8"/>
		</g>
		<text transform="matrix(0.9968 0 0 1 856.8896 871.0039)" class="st23 st25 st26">you are here</text>
	</g>
	<polygon class="st20" points="969.8,721.7 633.4,1321.2 969.8,1321.2 	"/>
	<g>
		<g>
			<rect x="764" y="915.7" class="st41" width="381" height="25.3"/>
		</g>
	</g>
	<g>
		<g class="st2">
			<rect x="920" y="727.7" class="st0" width="42.3" height="16.9"/>
			<text transform="matrix(1.0047 0 0 1 924.6797 740.3389)" class="st5 st42 st43">12:30</text>
		</g>
		<g>
			<g class="st2">
				<path class="st44" d="M871.3,742.4l9.3-11.5c-0.4-0.3-3.9-3.2-9.3-3.2s-9,3-9.3,3.2L871.3,742.4L871.3,742.4L871.3,742.4
					L871.3,742.4L871.3,742.4z"/>
			</g>
			<rect x="862.9" y="726.6" class="st0" width="16.9" height="16.9"/>
		</g>
		<g>
			<polygon class="st44" points="883,742.4 897.8,742.4 897.8,727.7 			"/>
			<rect x="881.9" y="726.6" class="st0" width="16.9" height="16.9"/>
		</g>
		<g>
			<rect x="903.1" y="726.6" class="st0" width="16.9" height="16.9"/>
			<path class="st44" d="M913.7,728.8v-1.1h-3.2v1.1h-3.2v13.7h9.5v-13.7H913.7z"/>
		</g>
	</g>
</g>
<g>
	<polygon class="st45" points="1013,1312.1 994.3,1339.1 975.9,1270 	"/>
	<polygon class="st46" points="1088.1,1202.9 993,1338.7 1256.3,1547.6 1256.3,1280.9 	"/>
	<path class="st47" d="M1013,1312.1l100.1-142c0,0,24.3-56.8-28.4-87.9c-47.8-28.2-175.5-121.8-199.1-139.2
		c-2.4-1.8-3.8-2.8-3.8-2.8s-36.5,60.8,4.1,89.2c40.6,28.4,82.5,59.5,82.5,59.5s9.1,3.5,3.4,10.9s-42.2,70.2-21.7,123.2
		C970.7,1276.2,1013,1312.1,1013,1312.1z"/>
	<path class="st5" d="M917.5,982.3l7.7-10.8l-40.7-29.1C884.5,942.4,879.5,963.6,917.5,982.3z"/>
</g>
</svg>
