<svg id="Layer_1" data-name="Layer 1" xmlns="http://www.w3.org/2000/svg" viewBox="0 0 179.58 137.51"><defs><style>.cls-1{fill:#b0bc3d;}</style></defs><title>zoobyicon</title><path class="cls-1" d="M115.16,11.84c-9.68-19.69-35.38-6-39.72-2.67a6.72,6.72,0,0,1-8.35,0C48.62-9.84,34.3,6.61,34.3,6.61s-13.17,15.68-16,52.1a105,105,0,0,0,.75,24.24A178.34,178.34,0,0,1,0,84.94a120.64,120.64,0,0,0,19.7,1.44C23,102.8,29.85,109.85,29.85,109.85c9.18,10.79-4,12.56-4,12.56-1.61,3.06,1.21,4.25,1.21,4.25,14.69-1,9.35-12.35,9.35-12.35a55.15,55.15,0,0,1-8.31-28.39c28.08-2.73,40-16.67,40-16.67,15.35,10.68,18.69,9,18.69,9C113.16,78.27,124.84,31.53,115.16,11.84Zm-68.55,20a8.4,8.4,0,1,1-8.41,8.4A8.4,8.4,0,0,1,46.61,31.82ZM28.29,81.21A46.89,46.89,0,0,1,29,76.26c4.34-21,19-19.36,25-19.36s6.68,5,6.68,5C57.44,72.32,42.52,78.07,28.29,81.21Z"/><path class="cls-1" d="M76.59,87.28s2,36.41-3.92,50.14H92.56s-4.2-24.93-.56-39.77,8.72-4.32,10.36-2.24c5.54,7,18.49,16.25,35-7,0,0,8.4-9.52,9.24,12.32s-1.12,35.57-2.8,36.41,22.13,0,22.13,0-3.36-48.74-1.12-56.3,7-19.89,7-19.89,3.92-3.64,4.48,4.2,2.52,26.33,2.52,26.33S183.6,52.83,169,29s-46.61-16-46.61-16S133.09,46.35,115,67.51C94.83,91.22,76.59,87.28,76.59,87.28Z"/></svg>